<?xml version="1.0" encoding="utf-8"?>
<!-- Generator: Adobe Illustrator 26.0.1, SVG Export Plug-In . SVG Version: 6.00 Build 0)  -->
<svg version="1.1" id="Layer_1" xmlns="http://www.w3.org/2000/svg" xmlns:xlink="http://www.w3.org/1999/xlink" x="0px" y="0px"
	 viewBox="0 0 2000 2000" style="enable-background:new 0 0 2000 2000;" xml:space="preserve">
<style type="text/css">
	.st0{fill:#F1604B;}
	.st1{fill:#3A638B;}
	.st2{fill:#FFFFFF;}
	.st3{fill:#194175;}
	.st4{fill:#6D6D6D;}
</style>
<path class="st0" d="M1495.4014893,764.8532715c0.2243652-0.0048828,0.4504395-0.0144043,0.6695557-0.0593872
	c0.112915-0.0238037,0.2294922-0.0569458,0.3361816-0.1050415c0.411377-0.182312,0.7012939-0.5557861,0.9833984-0.9107056
	c2.6184082-3.2272339,6.4237061-5.4706421,10.5124512-6.2093506c3.4221191-0.6181641,5.4448242,2.5894165-1.317627,5.9550171
	c0.2230225,1.8892822,0.0335693,0.2848511,0.2567139,2.1741333c10.1280518,2.1270142,19.5805664,5.3430786,26.7000732,13.2368774
	c8.3806152,9.2849731,11.4577637,21.3432617,15.8029785,32.7332153c0.6115723,1.602417,1.246582,3.187439,1.9067383,4.7774048
	c0.1248779,0.3010254,0.1992188,0.5539551,0.4272461,0.7891235c4.0771484-2.7435913,7.5982666-7.7225952,11.333252-10.9761963
	c0.0393066-0.0342407,0.0789795-0.0686646,0.1191406-0.1033325c9.7626953-8.4266968,14.5283203-21.4389648,11.6638184-34.0131836
	c-0.5167236-2.2680054-1.2147217-4.3951416-2.1474609-6.2246704c-3.9647217-7.7852783-11.4294434-12.4529419-19.1282959-16.0031128
	c-28.2098389-13.0075684-59.5253906-4.6356812-81.2285156,16.21875l-1.7542725,1.6871338l2.3758545-0.4762573
	C1480.3768311,765.8480225,1487.8046875,765.0961914,1495.4014893,764.8532715z"/>
<g>
	<polygon class="st1" points="1627.1848145,566.6087036 1576.072998,554.1167603 1488.9180908,713.1009521 
		1535.7041016,817.5372314 	"/>
</g>
<g>
	<path class="st2" d="M1388.7548828,508.8688049l198.3529053,17.6572571
		c-13.3383789,119.2076416-13.2119141,119.6123047-28.0941162,180.6271362
		c-18.6430664,76.4345093-35.5279541,91.4491577-35.5279541,91.4491577l-94.5378418,40.9425049L1388.7548828,508.8688049z"/>
	<path class="st1" d="M1382.0770264,502.4022827l211.5084229,18.8282471l-1.4830322,13.2577515
		c-12.5072021,111.8099365-12.7459717,113.946167-27.40625,174.0507812
		c-18.5404053,76.0123901-35.4560547,92.7729492-37.3238525,94.43396l-0.7010498,0.6237183l-102.5848389,44.4273071
		L1382.0770264,502.4022827z M1529.7878418,777.3557129c5.6641846-11.8463745,14.3468018-33.8826904,23.543457-71.588562
		c14.2113037-58.2642822,14.4829102-59.3772583,27.145752-172.5794678l0.152832-1.366272l-185.1968994-16.486084
		l38.3762207,315.7302856l86.2451172-37.3508911C1521.354126,792.197937,1524.9051514,787.5684814,1529.7878418,777.3557129z"/>
</g>
<path class="st0" d="M1557.0251465,828.0786133c0.0211182,1.0114746,0.5081787,1.944519,0.9874268,2.8309937
	c7.7192383,14.2694702,22.5209961,27.7962036,26.6791992,43.6132202c1.3081055,4.9799194,1.0548096,9.7374268-0.1484375,14.682312
	c9.722168-4.4544678,19.21521-13.6271973,26.5161133-21.2992554c18.8869629-19.8500366,5.9764404-51.5288696-17.5965576-61.5253296
	c-5.7800293-2.4482422-11.9379883-2.7490234-18.4711914,0.9797363
	c-6.8675537,3.9213257-11.7022705,10.5310669-16.3262939,16.9459839
	C1557.8505859,825.4384766,1556.99646,826.6790771,1557.0251465,828.0786133z"/>
<path class="st0" d="M1581.1113281,903.6091919c-14.0129395,9.538147-30.0181885,15.1090698-45.6867676,21.269043
	l-0.2420654,0.1005249c-4.0123291,1.7079468-8.1350098,3.223999-11.7880859,5.6495972
	c-0.4780273,0.3173828-0.9628906,0.6644897-1.213501,1.178894c-0.2780762,0.5680542-0.2167969,1.2329712-0.1829834,1.859436
	c0.1317139,2.2388916-0.2969971,4.430481-0.1744385,6.6655884c0.1208496,2.2127075,0.5592041,4.4048462,1.2366943,6.5169067
	c3.3564453,10.4771729,11.7840576,18.8221436,22.4615479,21.6573486
	c14.6732178,3.8955688,30.5898438-4.8450317,43.9266357-10.0714111c9.1905518-3.6008911,18.2961426-7.4157715,27.3054199-11.4438477
	c16.0279541-7.1605835,31.8175049-14.5444336,34.6601562-31.5228271c0.5241699-3.144043,0.6112061-6.6205444,0.1694336-10.4835815
	c-1.473999-12.8811035-9.4105225-24.4867554-19.8382568-32.18927c-2.4761963-1.8255615-5.3388672-3.5289307-8.4044189-3.272644
	c-6.8571777,0.5648193-14.9827881,11.5440063-19.7493896,15.8510742
	C1596.4287109,891.8456421,1589.1003418,898.1674805,1581.1113281,903.6091919z"/>
<path class="st0" d="M1617.958252,956.7471924c-19.1556396,8.5512085-38.9517822,19.1901245-59.7102051,23.0678101
	c-3.9761963,0.7418213-9.470459,0.8942261-11.7722168,4.7455444c-1.590332,2.6547241-1.0117188,6.0159912-0.369751,9.0402832
	c1.8238525,8.6242676,4.2928467,18.0354614,11.5378418,23.0513306c4.0778809,2.8289185,9.1655273,3.8311157,14.1252441,4.0540771
	c19.2540283,0.8776855,44.0501709-4.4155884,61.347168-12.7321167
	c10.9099121-5.2428589,20.6691895-14.2730713,23.6782227-26.0007324c0.1303711-0.4990234,0.244873-0.9991455,0.3455811-1.5050659
	c1.6464844-8.0898438-0.0108643-16.4609985-3.0692139-24.0396729c-1.4205322-3.5141602-3.1108398-8.3430786-5.9637451-10.909729
	c-3.6416016-3.1635132-7.8519287,1.0698853-11.4039307,2.7133179
	C1630.4708252,951.1151123,1624.2213135,953.9475098,1617.958252,956.7471924z"/>
<path class="st0" d="M1549.1779785,1021.3981323c-4.7556152-4.2581787-7.5023193-9.7838745-9.0133057-15.899231
	c-2.145874-8.6976929-1.7823486-18.5753174-1.1035156-27.6287842c-8.2454834-3.3424683-15.6947021-8.6378784-21.5595703-15.3274536
	c0.1101074,36.5252075-25.6610107,71.6564331-60.5380859,82.5079956
	c9.6329346-13.0394287,24.7398682-21.1063843,34.8079834-33.8087158
	c16.776001-21.1560669,16.6495361-50.7553101,14.644043-77.6836548c-0.2009277-2.7011108-0.442627-5.5003662-1.777832-7.8571167
	c-1.6031494-2.8361816-4.5377197-4.6018066-7.1588135-6.5359497c-9.6333008-7.1195068-16.2906494-18.1477661-18.1011963-29.9916992
	c-0.7453613-4.8991089-1.0307617-10.5567627-4.956665-13.5830688c-3.4334717-2.6439819-8.2333984-2.1124878-12.555542-1.8713989
	c-15.8477783,0.8877563-31.9555664-4.0615234-44.574585-13.6886597c9.3913574-2.0272827,18.746582,2.630249,28.0638428,4.979187
	c5.524292,1.3885498,11.8287354,1.5709839,17.1966553-0.5579224c5.7109375-2.2635498,7.5545654-6.5806274,10.0726318-11.9524536
	c1.1079102-2.3662109,5.0018311-9.0340576,7.2366943-12.8154907c0.4685059-0.7928467,1.6791992-0.4172363,1.6195068,0.5012817
	c-0.1185303,1.913208-0.4755859,4.6005249-1.387207,7.8555298c-1.682251,5.9990845-2.7905273,9.8612061-0.1018066,15.9862671
	c2.0718994,4.7318726,5.6234131,8.8609619,9.4848633,12.2400513c13.725708,12.0250854,29.9759521,21.1418457,47.3762207,26.6360474
	c4.4893799,2.2401123,23.4847412,0.0838623,28.767334-3.045105c6.5432129-3.8710327,9.7165527-10.0940552,9.6401367-17.6871948
	c-0.0605469-5.9658203-2.4680176-11.6169434-5.4588623-16.6960449c-5.682373-9.6495972-8.4168701-15.3491211-16.0715332-23.3475342
	c-8.1182861-10.3527832-11.0057373-23.7095337-15.4709473-36.0813599c-0.5438232-1.5039673-1.1231689-3.0009766-1.7436523-4.4769287
	c-3.0708008-7.2858276-7.2091064-14.4544067-13.300415-19.6385498c-6.3807373-5.4284058-14.1704102-6.7124634-22.317627-7.2498169
	c-18.2957764-1.2026367-36.4088135,3.6977539-53.8485107,8.3723145
	c-17.0936279,4.5845947-34.1237793,9.3959351-50.9908447,14.7570801c-7.9754639,2.536438-15.9195557,5.5737915-22.026001,11.2080078
	c-8.2445068,7.6073608-11.9919434,18.9052124-14.0245361,29.9360352
	c-4.7246094,25.6376953-8.7728271,59.777771-9.2080078,85.8438721c-0.3095703,18.6268311-0.355957,42.0078125-3.3685303,59.5285034
	c-7.9141846,46.0394287-23.6068115,81.9532471-48.090332,124.5275879
	c-5.8720703,10.2084961-1.3613281,23.2441406,9.5140381,27.7384033l69.7469482,28.8126221l72.4831543,29.9432373
	c10.4216309,4.3068848,22.3535156-1.0611572,25.9516602-11.7485352
	c7.3762207-21.9020996,16.7756348-43.1253662,28.0544434-63.2955322c-0.2783203,0.5029297-7.6268311-2.7669678-8.3588867-3.1074219
	c-2.6956787-1.2548828-5.2950439-2.7302246-7.7618408-4.3946533c-4.6741943-3.1567383-8.881958-7.0095215-12.4106445-11.416626
	c11.3374023,1.9859619,20.7313232,7.7435303,31.7342529,9.2009277c11.8510742,1.5693359,23.1025391-5.0771484,32.9578857-11.8344727
	c31.9766846-21.9208984,61.1584473-47.9129639,86.6234131-77.1485596
	c-15.4760742,5.1824951-31.7545166,7.9520264-48.0720215,8.1794434
	C1568.96521,1029.9439697,1557.2583008,1028.6292725,1549.1779785,1021.3981323z"/>
<g>
	<polygon class="st0" points="1564.6013184,542.4191895 1557.4772949,579.5118408 1531.2624512,577.5127563 
		1535.9415283,540.0795898 	"/>
	<path class="st0" d="M1524.6972656,582.8778687l6.1356201-49.0835571l40.7420654,3.3256836l-9.3383789,48.6206665
		L1524.6972656,582.8778687z M1541.0501709,546.3649292l-3.2225342,25.7827148l14.8901367,1.135498l4.9099121-25.5648193
		L1541.0501709,546.3649292z"/>
</g>
<g>
	<path class="st1" d="M1458.4193115,780.6688843c5.4985352-49.5202637,7.4470215-136.0701904,7.4604492-136.9786377
		l-11.6967773-0.1367188c-0.0133057,0.9041138-1.3979492,90.9850464-6.84729,140.0626831L1458.4193115,780.6688843z"/>
</g>
<g>
	<path class="st3" d="M1483.079834,649.4907227c0,0,1.0096436,75.0390625-6.9310303,127.7192993"/>
	<path class="st1" d="M1481.9458008,774.9307861c7.9057617-52.4486694,6.9926758-127.7191162,6.9824219-128.4733276
		l-11.6970215,0.1245728c0.0100098,0.7468262,1.432251,78.2445679-6.3592529,129.9359741L1481.9458008,774.9307861z"/>
</g>
<g>
	<path class="st0" d="M656.4694214,1107.0435791h-56.5570068v-54.7896729h56.5570068V1107.0435791z"/>
</g>
<g>
	<path class="st0" d="M1255.420166,1107.0435791H973.65625v-54.7896729h281.763916V1107.0435791z"/>
</g>
<polygon class="st1" points="942.9778442,847.4173584 1088.0058594,20.9411774 1182.9720459,30.9754505 1032.9368896,957.1832275 
	"/>
<path class="st3" d="M1032.6584473,802.93396c-12.0890503-7.9706421-23.3192139-17.4520264-33.2618408-27.9742432
	c-0.7122192-0.7484131-4.2808838-3.8251343-4.3282471-4.8583984c0.4628906,9.8723755,4.7161255,19.5171509,11.6886597,26.5136719
	c3.1226196,3.1382446,6.882019,5.803833,11.1782837,6.8765259c3.6637573,0.9106445,7.4686279,0.6210327,11.2320557,0.0404053
	C1030.3297119,803.3515625,1031.4998779,803.1438599,1032.6584473,802.93396z"/>
<path class="st0" d="M1079.0172119,723.2495728c-0.2568359,1.0313721-0.0195312,2.1113281,0.2225342,3.1419067
	c3.9023438,16.5905762,15.1896973,34.3758545,15.0557861,51.5560913c-0.0432129,5.4088745-1.6082764,10.1628418-4.1882324,14.84552
	c11.0822754-1.8426514,23.2297363-8.5321655,32.7419434-14.3029785
	c24.6082764-14.9317627,20.2303467-50.6011963-0.9208984-67.2192993
	c-5.1871338-4.0718384-11.3479004-6.0703125-18.9973145-4.0864258c-8.0413818,2.0871582-14.7608643,7.4591675-21.2133789,12.6915283
	C1080.5802002,720.7998047,1079.3729248,721.8227539,1079.0172119,723.2495728z"/>
<polygon class="st1" points="929.8162842,709.5568237 886.524353,871.0429077 934.2680054,921.9120483 999.3961792,938.0898438 
	1014.2454224,922.9832764 1053.1434326,696.7716675 "/>
<path class="st0" d="M1017.8964233,917.0968628c-3.6507568-5.6252441-4.9159546-11.9830322-4.7661743-18.598877
	c0.2162476-9.4086914,3.3012695-19.3235474,6.4793091-28.3161621c-7.4407959-5.6564331-13.5372314-13.0740356-17.6438599-21.4694214
	c-9.9331665,37.0629272-45.7236328,65.5949097-84.069519,67.0057983
	c13.3526001-10.5714722,30.8880005-14.5959473,44.5892334-24.7059326
	c22.8272095-16.8364258,30.8389282-46.8817139,36.2111206-74.7357178c0.5391235-2.7938843,1.0639038-5.6984863,0.3583374-8.4552002
	c-0.84552-3.3164673-1.0402832-38.6418457-16.8555908-59.1167603c-2.7540894-3.6248779-7.7668457-4.4060059-12.2153931-5.3502197
	c-16.3120117-3.4581909-31.2825317-12.9060059-41.4293213-26.1372681
	c10.0792847,0.5272827,18.2836914,7.8222656,27.0844727,12.7661743c5.2190552,2.927063,11.5609741,4.8458252,17.5889893,4.1635742
	c6.4127197-0.7244873,9.4692383-4.5945435,13.4995728-9.3484497c1.7761841-2.0969849,7.5698853-7.7980347,10.8736572-11.0152588
	c0.6855469-0.6675415,1.8059082,0.0372314,1.4994507,0.9436646c-0.6453247,1.9089966-1.7478638,4.5438232-3.5741577,7.6050415
	c-3.3554688,5.6196899-5.5411987,9.2307129-4.4996338,16.1802979c0.7994385,5.3674316,3.2647095,10.5305786,6.2504883,15.0185547
	c10.609436,15.9667969,24.578186,29.6791992,40.7094116,40.0349731c3.9355469,3.5058594,23.7878418,6.5435791,30.0042725,4.8238525
	c7.6987305-2.1253662,12.6275635-7.5621338,14.6383057-15.2817383c1.5792236-6.0653687,0.6923828-12.4570923-0.9432373-18.4292603
	c-3.1075439-11.3463745-4.3126221-17.8770752-9.8740234-28.0917969c-5.3839111-12.729126-4.6381836-27.0655518-5.7631836-40.8372192
	c-0.1376953-1.6744385-0.3134766-3.3515015-0.5366211-5.0186768c-1.1098633-8.2315063-3.3342285-16.6377563-8.0844727-23.5690918
	c-4.9764404-7.2585449-12.5213623-10.7026978-20.6337891-13.4880981
	c-18.2192383-6.2508545-37.9316406-6.2636108-56.899231-6.3201904c-18.5918579-0.0526123-37.1817627,0.1420898-55.7574463,0.9391479
	c-8.7839355,0.3783569-17.673645,1.2731934-25.4144287,5.3063965c-10.4510498,5.4457397-17.357605,15.8699341-22.4520264,26.4950562
	c-11.8408203,24.6945801-25.3341064,58.1956177-32.9437256,84.5042114
	c-5.4364014,18.8004761-11.9135132,42.4935303-19.7862549,59.4291382
	c-20.6853638,44.5025635-106.0197144,254.7457886-142.5517578,291.1784058
	c-8.7610474,8.7354736-7.772583,23.192627,2.0178833,30.7402344l33.1195068,7.8575439
	c43.1542969,9.2613525,66.4867554,7.0687256,111.6918335-0.4498291l35.6628418-9.0285645
	c0,0,20.8798218-3.7401123,27.467041-13.5864258c13.5020142-20.1778564,38.0653076-108.1379395,55.0477295-125.4865112
	c-0.4204712,0.4333496-6.9718628-4.9028931-7.6204224-5.4493408c-2.3880005-2.0137329-4.6176758-4.2243652-6.6610718-6.590332
	c-3.8710327-4.4860229-7.0776367-9.5495605-9.4434204-14.9882812c10.9487915,5.1313477,18.8898315,13.5523682,29.6448364,18.0559082
	c11.5841064,4.8502808,24.8197021,1.2056885,36.6703491-2.9351807
	c38.4493408-13.4315796,75.1846924-31.7594604,109.043457-54.3981323
	c-17.116333,0.9984741-34.3825684-0.6702881-50.9892578-4.927124
	C1035.6083984,931.203064,1024.1003418,926.6505737,1017.8964233,917.0968628z"/>
<path class="st1" d="M1040.3497314,921.2452393l-6.348877,34.6679688c0,0-85.1948853,9.166748-120.2409668-14.7905884
	l7.9279785-30.1028442l46.5090332-19.3948975l22.2611694-28.4766235l11.918335-33.0853271l41.8161011,41.4459839
	L1040.3497314,921.2452393z"/>
<g>
	<path class="st2" d="M650.3817139,507.4705505l-62.9976196-338.4717102c0,0,53.2987671-11.3892059,140.2460938-24.7536316
		c183.6546021-28.2290268,517.4360962-65.2706757,816.1603394-22.4070587l-6.1932373,357.4365845
		C1537.59729,479.2747192,1096.7194824,411.5735779,650.3817139,507.4705505z"/>
	<path class="st1" d="M640.4821167,522.3356934L572.9224243,159.355011l11.859436-2.5348511
		c0.536438-0.1134949,54.6503906-11.6175537,140.956543-24.8835754
		c176.0078735-27.0522614,516.557373-65.939621,819.8206787-22.4257736l10.8718262,1.5606308l-6.6290283,382.6730042
		l-14.0928955-2.1619263c-1.0985107-0.1675415-111.6829834-16.8980408-275.1341553-21.7366638
		c-150.6689453-4.4602661-378.3884277,0.5580444-607.5765991,49.7995911L640.4821167,522.3356934z M601.866394,178.7541046
		l58.4242554,313.895874c128.9282227-26.7860718,334.5921021-55.625946,601.446167-47.6863403
		c131.1185303,3.9009094,228.6571045,15.406311,263.6544189,20.038208l5.7574463-332.3599243
		c-297.3181152-40.6006775-629.0969849-2.6064606-801.6268921,23.9107208
		C667.3790283,166.1042175,622.1531982,174.7167358,601.866394,178.7541046z"/>
</g>
<polygon class="st0" points="1410.7521973,149.2403259 1415.4229736,228.8043213 1502.8132324,232.8517151 
	1506.6546631,143.1273956 "/>
<path class="st1" d="M823.2581177,262.2559509c0,0,253.6305542-60.1174622,474.6378784-32.4866638l3.708374,42.0130615
	c0,0-231.1108398-29.1409302-467.6356812,31.8685913L823.2581177,262.2559509z"/>
<path class="st1" d="M835.4224854,320.1210632l2.8578491,32.3764343c0.0079346,0.0897827,0.0751953,0.1560974,0.1634521,0.1379089
	c6.3947754-1.3171997,218.3338013-44.4004822,463.6569214-19.7748108c0.0974121,0.0097656,0.1783447-0.0744324,0.1640625-0.1713562
	l-5.7919922-39.1715088c-0.0096436-0.0658569-0.0501709-0.1158752-0.1159668-0.1255493
	c-5.1647949-0.7590942-210.4345703-30.335083-460.8164673,26.567749
	C835.4665527,319.9766846,835.4158325,320.0456848,835.4224854,320.1210632z"/>
<path class="st1" d="M844.1994629,374.7854004l5.6304321,28.611969l91.234314-5.7008972
	c0,0-7.9666748-28.4063416-7.9934082-28.4111023C931.6746826,369.0378113,880.0211792,360.0219421,844.1994629,374.7854004z"/>
<polygon class="st1" points="756.5300903,225.8055725 641.8182983,245.3399963 632.8236694,196.7368317 760.5787964,178.4033203 "/>
<path class="st0" d="M1533.1348877,912.1130371c0,0-22.0379639-11.9247437-45.6595459-27.6724854
	C1483.3244629,881.6733398,1510.9969482,939.7854614,1533.1348877,912.1130371z"/>
<path class="st0" d="M400.8804626,753.2037964l2.3758545,0.4762573l-1.7542114-1.6871338
	c-21.7032471-20.8544312-53.0187988-29.2263184-81.2285461-16.21875
	c-7.6988525,3.5501709-15.1636047,8.2178345-19.1283875,16.0031128c-5.4154358,10.6234131-5.5912476,20.192749-2.9888611,31.0151978
	l0.0662842,0.2653198l0.2353516,0.1629028c4.3484497,2.8754272,8.3978577,5.4733276,12.3227234,8.8977661
	c3.7350159,3.2536011,7.256134,8.232605,11.333252,10.9761963c0.2280579-0.2351685,0.3023682-0.4880981,0.4273376-0.7891235
	c0.6601257-1.5899658,1.295166-3.1749878,1.9067688-4.7774048c4.3451843-11.3899536,7.4222412-23.4482422,15.8029175-32.7332153
	c7.1779785-7.9586182,16.7274475-11.1624146,26.949707-13.2890625c-1.2753906-1.6303101-2.5480957-3.2670898-3.8254089-4.9020386
	c-1.649292-2.1153564,0.0779724-3.6151123,2.514801-3.1749268c4.0887451,0.7387085,7.8941345,2.9821167,10.5124512,6.2093506
	c0.282196,0.3549194,0.572052,0.7283936,0.9834595,0.9107056c0.1066284,0.0480957,0.2232666,0.0812378,0.3361206,0.1050415
	c0.2191162,0.0449829,0.4453125,0.0545044,0.6695557,0.0593872
	C385.9885254,750.9562988,393.4162903,751.7081299,400.8804626,753.2037964z"/>
<g>
	<polygon class="st4" points="246.6083069,552.468811 297.7202148,539.9768677 384.875061,698.9610596 338.0890198,803.3973389 	"/>
	<path class="st1" d="M337.4766235,820.5013428L238.103363,547.9240112l62.8851318-15.3691406l91.0656738,166.1176147
		L337.4766235,820.5013428z"/>
</g>
<g>
	<g>
		<path class="st2" d="M485.0382996,494.7289124l-198.3529358,17.6572571
			c13.3384094,119.2076416,13.2119751,119.6123047,28.0940857,180.6271362
			c18.6431274,76.4345093,35.5279846,91.4491577,35.5279846,91.4491577l94.5378418,40.9425049L485.0382996,494.7289124z"/>
		<path class="st1" d="M450.5947876,835.4329834l-104.0540771-45.0636597l-0.8296509-0.7377319
			c-1.8930054-1.6835938-19.0369568-18.6518555-37.6523438-94.9794922
			c-14.6780396-60.1767578-14.9172058-62.3143311-27.4346619-174.2161865l-1.6011658-14.3118286l213.9142761-19.0437317
			L450.5947876,835.4329834z M354.3249207,778.6625977l84.7712097,36.7119141l38.0428772-312.9959412l-182.7922363,16.2710876
			l0.0283813,0.2485962c12.4201965,111.0384521,12.6579895,113.15979,27.1252136,172.4758301
			C334.946106,746.5014648,348.4269714,771.9890747,354.3249207,778.6625977z"/>
	</g>
</g>
<path class="st0" d="M342.5597534,900.1167603c3.3128357,1.4712524,6.7362366,2.6854248,10.3290405,2.7617798
	c4.214325,0.085083,8.3323669-1.427002,11.9831238-3.5319214c8.1492004-4.6903076,14.4600525-12.4911499,17.3454285-21.4456177
	c-0.3009949,0.937439-4.3462524,2.8747559-5.1870422,3.3848267c-11.7564087,7.18927-24.4362793,13.1014404-37.5288086,17.4116211
	C340.5135803,899.1790161,341.5368347,899.661377,342.5597534,900.1167603z"/>
<path class="st0" d="M315.1277771,810.1663818c-4.6240845-6.414917-9.4587402-13.0246582-16.3262329-16.9459839
	c-6.5332031-3.7287598-12.6912537-3.4279785-18.4713135-0.9797363c-23.5729065,9.99646-36.4834137,41.675293-17.5964966,61.5253296
	c7.3009033,7.6720581,16.7939758,16.8447876,26.5161438,21.2992554c-1.2033386-4.9448853-1.456543-9.7023926-0.1484375-14.682312
	c4.1581116-15.8170166,18.9598999-29.34375,26.6791382-43.6132202c0.479248-0.8864746,0.9663696-1.819519,0.9874268-2.8309937
	C316.7967224,812.5391846,315.9425354,811.298584,315.1277771,810.1663818z"/>
<path class="st0" d="M270.2018433,871.2341309c-4.766571-4.3070679-12.8921509-15.2862549-19.7493896-15.8510742
	c-3.0655212-0.2562866-5.9282379,1.4470825-8.4044342,3.272644c-10.4276733,7.7025146-18.3642273,19.3081665-19.8382874,32.18927
	c-0.4416656,3.8630371-0.3546753,7.3395386,0.1695251,10.4835815c2.8426514,16.9783936,18.6321411,24.3622437,34.66008,31.5228271
	c9.0093689,4.0280762,18.1149292,7.8429565,27.305481,11.4438477c13.336853,5.2263794,29.2534485,13.96698,43.9266357,10.0714111
	c10.6774902-2.8352051,19.1051331-11.1801758,22.4615784-21.6573486c0.6774292-2.1120605,1.1157532-4.3041992,1.2366638-6.5169067
	c0.1224976-2.2351074-0.3061829-4.4266968-0.1744385-6.6655884c0.0338135-0.6264648,0.0950928-1.2914429-0.1830139-1.859436
	c-0.2505493-0.5144653-0.7354431-0.8615112-1.2135315-1.178894c-3.6529846-2.4255981-7.7756958-3.9416504-11.7880249-5.6495972
	l-0.2420959-0.1005249c-15.6685791-6.1599731-31.6737366-11.730896-45.686676-21.269043
	C284.6928101,884.0275879,277.364502,877.7057495,270.2018433,871.2341309z"/>
<path class="st0" d="M237.0899811,934.0923462c-3.5520477-1.6434326-7.7623901-5.8768311-11.4039307-2.7133179
	c-2.8529053,2.5666504-4.5432434,7.3955688-5.9638367,10.909729c-3.0582581,7.5786743-4.7156982,15.9498291-3.0691376,24.0396729
	c0.1006317,0.5059204,0.2151642,1.0060425,0.3455048,1.5050659c3.0090332,11.7276611,12.7683716,20.7578735,23.6782227,26.0007324
	c17.2969818,8.3165283,42.0932159,13.6098022,61.3471832,12.7321167c4.9597473-0.2229614,10.0473633-1.2251587,14.1253052-4.0540771
	c7.2449646-5.0158691,9.7139282-14.427063,11.5378418-23.0513306c0.6419373-3.024292,1.2204895-6.3855591-0.3698425-9.0402832
	c-2.3016968-3.8513184-7.79599-4.0037231-11.7721863-4.7455444c-20.7584229-3.8776855-40.5545959-14.5166016-59.7102203-23.0678101
	C249.5718079,939.8076172,243.3223419,936.9752197,237.0899811,934.0923462z"/>
<g>
	<polygon class="st0" points="309.191864,528.2792969 316.3158875,565.3719482 342.5307617,563.3728638 337.8516235,525.9396973 	
		"/>
</g>
<g>
	<path class="st3" d="M413.7617798,620.8225708c0,0,1.3373718,101.8630981,6.874939,157.9143066"/>
	<path class="st1" d="M414.8161621,779.3117676c-5.4985046-55.6556396-6.8893433-157.3913574-6.9027405-158.4123535
		l11.6967163-0.1536255c0.0134277,1.0161133,1.3979492,102.2577515,6.8473511,157.4158936L414.8161621,779.3117676z"/>
</g>
<g>
	<path class="st3" d="M390.7133179,637.1603394c0,0-1.0096741,84.3361206,6.9310608,143.5432129"/>
	<path class="st1" d="M391.8474121,781.480835c-7.9057617-58.9467773-6.9927368-143.5429688-6.9824524-144.390625
		l11.6970215,0.1399536c-0.0100098,0.8393555-0.9122009,84.6001587,6.8793335,142.6959229L391.8474121,781.480835z"/>
</g>
<path class="st0" d="M293.9907532,1015.6427002c-16.3174744-0.227417-32.5959167-2.9969482-48.0719757-8.1794434
	c25.46492,29.2355957,54.6467743,55.2276611,86.6234589,77.1485596c9.8553467,6.7573242,21.106781,13.4038086,32.9578552,11.8344727
	c11.0029602-1.4573975,20.3968506-7.2149658,31.7342834-9.2009277c-3.5287476,4.4071045-7.7364502,8.2598877-12.4107056,11.416626
	c-2.4668274,1.6644287-5.0661011,3.1397705-7.7618103,4.3946533c-0.7319946,0.3404541-8.0805359,3.6103516-8.3588562,3.1074219
	c11.2787781,20.170166,20.6781921,41.3934326,28.0544434,63.2955322
	c3.5981445,10.6873779,15.5299988,16.0554199,25.9516602,11.7485352l72.4831238-29.9432373l69.7469177-28.8126221
	c10.8753662-4.4942627,15.3861084-17.5299072,9.5140381-27.7384033
	c-24.4835205-42.5743408-40.1761475-78.4881592-48.090332-124.5275879
	c-3.0125732-17.5206909-3.059021-40.9016724-3.3685913-59.5285034c-0.4351196-26.0661011-4.4833374-60.2061768-9.2079468-85.8438721
	c-2.0326233-11.0308228-5.7800598-22.3286743-14.0245056-29.9360352
	c-6.1064453-5.6342163-14.0505066-8.6715698-22.026062-11.2080688c-16.8670654-5.361084-33.8971863-10.1724243-50.9907532-14.757019
	c-17.4397583-4.6745605-35.5528259-9.5749512-53.8486023-8.3723145c-8.1471252,0.5373535-15.9368896,1.8214111-22.3175354,7.2498169
	c-6.0913086,5.1841431-10.2296143,12.3527222-13.3005066,19.6385498c-0.6204529,1.4759521-1.1997681,2.9729614-1.7436218,4.4769287
	c-4.46521,12.3718262-7.3526001,25.7285767-15.4708557,36.0813599c-7.6547852,7.9984131-10.3892517,13.697937-16.0715942,23.3475342
	c-2.9908447,5.0791016-5.3983765,10.7302246-5.4588928,16.6960449c-0.076416,7.5931396,3.0969543,13.8161621,9.6401367,17.6871948
	c5.2825623,3.1289673,24.2779846,5.2852173,28.7673035,3.045105c17.4003601-5.4942017,33.6505737-14.6109619,47.3763428-26.6360474
	c3.8613892-3.3790894,7.4128723-7.5081787,9.4848022-12.2400513c2.6886902-6.125061,1.5804749-9.9871826-0.1018677-15.9862671
	c-0.9115295-3.2550049-1.2686462-5.9423218-1.387146-7.8555298c-0.0597534-0.9185181,1.1509705-1.2941284,1.6195679-0.5012817
	c2.2348328,3.7814331,6.1286926,10.4492798,7.2366028,12.8154907c2.5180664,5.3718262,4.3617554,9.6889038,10.0726318,11.9524536
	c5.3679199,2.1289062,11.6724243,1.9464722,17.1966248,0.5579224c9.3173218-2.348938,18.6725769-7.0064697,28.0638733-4.979187
	c-12.618988,9.6271362-28.7268372,14.576416-44.5745544,13.6886597c-4.3221741-0.2410889-9.1221008-0.772583-12.5555725,1.8713989
	c-3.9259338,3.0263062-4.2113342,8.68396-4.956604,13.5830688c-1.8105469,11.8439331-8.4679871,22.8721924-18.1012878,29.9916992
	c-2.6210022,1.9341431-5.555603,3.6997681-7.1588135,6.5358887c-1.3351746,2.3568115-1.5768433,5.1560669-1.7777405,7.8571777
	c-2.0054932,26.9283447-2.1320496,56.5275879,14.6439514,77.6836548
	c10.0681152,12.7023315,25.1751099,20.7693481,34.8079834,33.8087158
	c-34.8770752-10.8515625-60.6481628-45.9827881-60.5380554-82.5079956
	c-5.8648376,6.6895752-13.3140564,11.9849854-21.5595398,15.3274536c0.678833,9.0534668,1.0423889,18.9310913-1.1034851,27.6287842
	c-1.5110474,6.1153564-4.2576904,11.6410522-9.0133972,15.899231
	C316.5348816,1014.4893799,304.8279114,1015.8040161,293.9907532,1015.6427002z"/>
<g>
	<path class="st0" d="M1856.1612549,1979.7646484H122.4595947v-924.5672607h95.9830475v54.555542h-39.7216187v815.4562988
		h1621.1787109v-815.4562988h-137.7099609v-54.555542h193.9714355V1979.7646484z"/>
</g>
<path class="st0" d="M1098.664917,625.0892944c-1.7894287,1.1013184-2.6452637,4.399292-3.1762695,7.8569946
	c-0.7008057,4.56427-2.0377197,8.9848022-3.6273193,13.3203735c-2.7995605,7.6359863-2.3691406,21.1947632-2.0510254,24.7993774
	c-0.7044678,9.4008179,0.6890869,21.5355835,1.8540039,33.1947021c0.1641846,1.6404419,16.4604492-7.1223145,16.612915-6.8467407
	c3.2233887-1.0949707,7.0883789-3.31604,9.7285156-5.2037964c1.9431152-1.3894653,3.9377441-2.697937,6.0026855-3.8990479
	c0.0198975-0.0115356,0.0402832-0.0233154,0.0610352-0.0352783c7.3841553-4.2515259,12.7220459-11.4865723,13.934082-19.9205933
	c0.6208496-4.3198853,0.4836426-8.8510132-0.560791-13.8355713c-1.7191162-8.2196045-7.4692383-14.4277954-13.7177734-19.6582642
	C1123.7249756,634.8614502,1109.956665,618.1400146,1098.664917,625.0892944z"/>
<path class="st0" d="M1105.4118652,870.4628906c-21.7734375,3.4020386-44.7705078,8.7446899-66.883667,6.9674683
	c-4.2354736-0.3413696-9.8480225-1.6978149-13.2408447,1.5740356c-2.3424683,2.2542114-2.6802368,5.8212891-2.861084,9.0641479
	c-0.522522,9.2456665-0.6074219,19.4666138,5.3587646,26.5445557c3.3566895,3.9897461,8.2393799,6.4049683,13.206665,7.9949951
	c19.2800293,6.1848755,45.8764648,7.6372681,65.7009277,3.9620361c12.5031738-2.3153687,24.8815918-8.7871094,31.1575928-19.8502197
	c0.2694092-0.4700928,0.5230713-0.9456787,0.7642822-1.4309082c3.894165-7.7494507,4.5158691-16.692749,3.4992676-25.2177734
	c-0.473877-3.9536133-0.8597412-9.3145142-3.0463867-12.701355c-2.8221436-4.2089844-8.255249-1.074646-12.3085938-0.3851929
	C1119.6470947,868.1936646,1112.5318604,869.3467407,1105.4118652,870.4628906z"/>
<path class="st0" d="M1082.6663818,806.4533691c-16.8306885,5.8169556-34.590332,7.0637817-52.1706543,9.0003052
	l-0.2730713,0.0353394c-4.5378418,0.6282959-9.1347046,1.0316162-13.5055542,2.4862671
	c-0.5719604,0.1903687-1.1590576,0.4088745-1.5545654,0.8615723c-0.4381714,0.4994507-0.5588989,1.1904297-0.6968994,1.8349609
	c-0.4821167,2.3062134-1.5194702,4.4103394-2.0099487,6.710144c-0.4859619,2.2767334-0.6443481,4.619873-0.5383911,6.9475708
	c0.5217896,11.5458374,6.7715454,22.3244019,16.817688,28.135376c13.8056641,7.9849854,32.347168,3.5001831,47.3066406,1.8688965
	c10.3084717-1.1234131,20.5897217-2.4871826,30.8320312-4.0935669c18.2197266-2.8522949,36.2592773-5.9963989,43.8106689-22.4289551
	c1.3961182-3.0435791,2.4403076-6.5444336,3.0549316-10.5825806c2.0478516-13.4654541-2.807251-27.414978-11.2615967-38.0922241
	c-2.0085449-2.5318604-4.442627-5.0462036-7.6212158-5.6293945c-7.1077881-1.3131104-18.3656006,7.5839844-24.3829346,10.6400757
	C1101.4316406,798.7388916,1092.2629395,803.1331787,1082.6663818,806.4533691z"/>
<g>
	<path class="st3" d="M431.4629211,1498.5574951h-95.3573914l-15.2863464,45.131958h-65.1487122l92.446106-255.5004883h72.0633545
		l92.446106,255.5004883h-65.87677L431.4629211,1498.5574951z M415.4485168,1450.5152588l-31.6638184-93.5372314
		l-31.3007202,93.5372314H415.4485168z"/>
	<path class="st3" d="M860.026001,1361.3444824c14.9223022,15.2872314,22.3834839,36.5213623,22.3834839,63.692627v118.6523438
		h-61.8734131v-110.2806396c0-13.1031494-3.4578247-23.230957-10.3724365-30.3912354
		c-6.9155884-7.1524658-16.4405518-10.7354736-28.5709839-10.7354736c-12.1362305,0-21.6554565,3.5830078-28.5710449,10.7354736
		c-6.9155884,7.1602783-10.3724365,17.2880859-10.3724365,30.3912354v110.2806396h-61.8734131v-110.2806396
		c0-13.1031494-3.4577637-23.230957-10.3733521-30.3912354c-6.9146729-7.1524658-16.4405518-10.7354736-28.5700684-10.7354736
		c-12.1361694,0-21.6563721,3.5830078-28.5709839,10.7354736c-6.9155884,7.1602783-10.3734131,17.2880859-10.3734131,30.3912354
		v110.2806396h-62.2364502v-203.0898438h62.2364502v25.4761963c6.3070068-8.4901123,14.5582886-15.22229,24.7492065-20.1982422
		c10.1908569-4.9703369,21.7127075-7.4621582,34.5760498-7.4621582c15.2863159,0,28.9349976,3.2752686,40.9460449,9.8278809
		c12.0110474,6.5505371,21.4108276,15.8948975,28.2069702,28.0234375
		c7.0340576-11.1578369,16.6173096-20.2556152,28.7525635-27.2954102
		c12.1304321-7.0360107,25.3520508-10.5559082,39.6714478-10.5559082
		C825.0228882,1338.4154053,845.1036987,1346.059082,860.026001,1361.3444824z"/>
	<path class="st3" d="M1013.4301758,1346.4221191c10.6744385-5.8225098,23.1697998-8.7347412,37.4882812-8.7347412
		c16.7434082,0,31.9046631,4.2479248,45.4949951,12.7381592c13.5865479,8.4978027,24.3239746,20.6263428,32.2103271,36.3970947
		c7.8825684,15.7745361,11.8286133,34.0925293,11.8286133,54.9578857c0,20.8709717-3.9460449,39.2501221-11.8286133,55.1392822
		c-7.8863525,15.8950195-18.6237793,28.1496582-32.2103271,36.7602539
		c-13.590332,8.616333-28.7515869,12.9196777-45.4949951,12.9196777c-14.0738525,0-26.5119629-2.9102783-37.3048096-8.7347412
		c-10.7994995-5.8226318-19.2333374-13.3400879-25.2957153-22.5640869v125.2010498h-62.2364502v-299.9023438h62.2364502v28.7515869
		C994.3803101,1359.8883057,1002.7510986,1352.246582,1013.4301758,1346.4221191z M1064.203125,1405.2017822
		c-8.616333-8.8532715-19.2332764-13.284668-31.8453369-13.284668c-12.375061,0-22.8726807,4.4925537-31.4832153,13.4661865
		c-8.6153564,8.9813232-12.9206543,21.2359619-12.9206543,36.7602539c0,15.5318604,4.3052979,27.786499,12.9206543,36.7602539
		c8.6105347,8.9793701,19.1081543,13.4661865,31.4832153,13.4661865c12.3731689,0,22.9290771-4.5479736,31.6638184-13.6478271
		c8.7347412-9.0997314,13.1031494-21.4117432,13.1031494-36.9416504
		C1077.1247559,1426.2542725,1072.8137207,1414.0627441,1064.203125,1405.2017822z"/>
	<path class="st3" d="M1235.4418945,1274.3577881v269.331665h-62.2365723v-269.331665H1235.4418945z"/>
	<path class="st3" d="M1285.119873,1309.8453369c-6.9136963-6.4263916-10.3724365-14.3776855-10.3724365-23.8404541
		c0-9.7017822,3.4587402-17.7714844,10.3724365-24.2036133c6.9155273-6.4245605,15.8337402-9.6444092,26.7508545-9.6444092
		c10.6743164,0,19.472168,3.2198486,26.3878174,9.6444092c6.9155273,6.4321289,10.3723145,14.5018311,10.3723145,24.2036133
		c0,9.4627686-3.4567871,17.4140625-10.3723145,23.8404541c-6.9156494,6.4302979-15.713501,9.6444092-26.3878174,9.6444092
		C1300.9536133,1319.4897461,1292.0354004,1316.2756348,1285.119873,1309.8453369z M1342.8083496,1340.5996094v203.0898438
		h-62.2364502v-203.0898438H1342.8083496z"/>
	<path class="st3" d="M1489.84729,1392.2821045h-33.4830322v151.4073486h-62.2384033v-151.4073486h-22.5639648v-51.6824951
		h22.5639648v-5.8244629c0-24.9870605,7.154541-43.9758301,21.4748535-56.9586182
		c14.3127441-12.9769287,35.3040771-19.472168,62.9645996-19.472168c4.6071777,0,8.0067139,0.1242676,10.190918,0.3630371
		v52.7756348c-11.8916016-0.7280273-20.2614746,0.9726562-25.1132812,5.0944824
		c-4.8555908,4.1295166-7.2786865,11.5285645-7.2786865,22.2028809v1.8192139h33.4830322V1392.2821045z"/>
	<path class="st3" d="M1726.4162598,1340.5996094l-127.3851318,299.5393066h-66.9698486l46.5880127-103.3651123
		l-82.6202393-196.1741943h69.5170898l46.9511719,127.0220947l46.5860596-127.0220947H1726.4162598z"/>
</g>
<g>
	<g>
		<path class="st3" d="M286.0023804,1828.0637207c-7.1191101-3.9460449-12.706604-9.5335693-16.7653809-16.7645264
			c-4.0606995-7.2270508-6.0891113-15.5681152-6.0891113-25.0233154c0-9.451416,2.0857544-17.7906494,6.2563171-25.0214844
			c4.1696167-7.2290039,9.8679504-12.8165283,17.0988464-16.7663574c7.2270508-3.9460449,15.2891846-5.921875,24.188324-5.921875
			c8.8962402,0,16.957428,1.9758301,24.188324,5.921875c7.2280273,3.9498291,12.9282532,9.5373535,17.0988159,16.7663574
			c4.1705933,7.230835,6.2553711,15.5700684,6.2553711,25.0214844c0,9.4552002-2.1421204,17.7962646-6.4225769,25.0233154
			c-4.2823486,7.230957-10.0657043,12.8184814-17.3482056,16.7645264c-7.2853394,3.9498291-15.430603,5.921875-24.4396057,5.921875
			C301.1253357,1833.9855957,293.1176758,1832.0135498,286.0023804,1828.0637207z M321.951416,1810.5482178
			c3.7243652-2.0561523,6.6987-5.1422119,8.9249268-9.2583008c2.2233276-4.1123047,3.3364258-9.1169434,3.3364258-15.0140381
			c0-8.7825928-2.3093262-15.5395508-6.9232178-20.2672119c-4.6158142-4.7255859-10.2597046-7.0894775-16.9316406-7.0894775
			c-6.6729126,0-12.2613525,2.3638916-16.7653809,7.0894775c-4.5040283,4.7276611-6.7560425,11.4846191-6.7560425,20.2672119
			c0,8.786377,2.1947021,15.543335,6.5888367,20.269043c4.3922119,4.7275391,9.926239,7.0894775,16.598175,7.0894775
			C314.2494812,1813.6343994,318.2241821,1812.6082764,321.951416,1810.5482178z"/>
		<path class="st3" d="M453.3180237,1749.1601562c6.7818298,6.9519043,10.1755981,16.6555176,10.1755981,29.1090088v54.2163086
			h-23.3542175v-51.0461426c0-7.3398438-1.8354187-12.9827881-5.5053406-16.9326172
			c-3.6698914-3.9460449-8.6745911-5.921875-15.0130615-5.921875c-6.4512634,0-11.5390625,1.9758301-15.2643738,5.921875
			c-3.7272339,3.9498291-5.5884705,9.5927734-5.5884705,16.9326172v51.0461426h-23.3542175v-92.4173584h23.3542175v11.5093994
			c3.1128845-4.003418,7.0904541-7.1429443,11.9279175-9.4245605c4.8374634-2.277832,10.1469421-3.4187012,15.9312744-3.4187012
			C437.6370544,1738.7342529,446.5333252,1742.2102051,453.3180237,1749.1601562z"/>
		<path class="st3" d="M570.9231567,1793.2832031h-67.5612183c0.5551147,6.6728516,2.8912048,11.901123,7.0063477,15.6809082
			c4.1132202,3.7817383,9.1752319,5.6716309,15.1802979,5.6716309c8.6745605,0,14.8468018-3.7243652,18.5167236-11.177002
			h25.1896362c-2.6685791,8.8991699-7.7860107,16.2103271-15.3474731,21.9372559
			c-7.5634155,5.7290039-16.8485107,8.5895996-27.8582153,8.5895996c-8.8991089,0-16.8771973-1.9720459-23.9380188-5.921875
			c-7.0636902-3.9460449-12.5690308-9.5335693-16.5150452-16.7645264c-3.9489136-7.2270508-5.921936-15.5681152-5.921936-25.0233154
			c0-9.5622559,1.9443665-17.9587402,5.8378601-25.1896973c3.891571-7.2270508,9.3424377-12.7858887,16.3487854-16.6802979
			c7.0063782-3.8925781,15.0684814-5.8397217,24.1883545-5.8397217c8.7844238,0,16.6535645,1.8936768,23.6044922,5.6715088
			c6.9490356,3.7836914,12.3445435,9.1495361,16.1816406,16.0994873s5.7546997,14.9299316,5.7546997,23.9379883
			C571.5900879,1787.6115723,571.3665161,1790.6136475,570.9231567,1793.2832031z M547.4017944,1777.6021729
			c-0.1118164-6.0059814-2.2807007-10.8138428-6.5057373-14.4291992c-4.2279053-3.6135254-9.3988037-5.4232178-15.5137329-5.4232178
			c-5.7843018,0-10.6504517,1.7523193-14.5964966,5.2550049c-3.9489136,3.5046387-6.368103,8.369751-7.2566833,14.5974121
			H547.4017944z"/>
		<path class="st3" d="M659.6688232,1763.0888672v19.6843262h-70.7305298v-19.6843262H659.6688232z"/>
		<path class="st3" d="M685.6906128,1761.1702881c3.8916016-7.173584,9.2851562-12.7324219,16.1816406-16.682251
			c6.8945923-3.9460449,14.7894897-5.921875,23.6885986-5.921875c11.453064,0,20.9349976,2.8643799,28.4420166,8.5914307
			c7.507019,5.7288818,12.5374756,13.7623291,15.097168,24.1060791h-25.1896362
			c-1.3347778-4.005249-3.586792-7.1448975-6.7560425-9.4265137c-3.1692505-2.27771-7.0894775-3.4185791-11.7606812-3.4185791
			c-6.6729126,0-11.956604,2.4173584-15.847229,7.2557373c-3.8944092,4.8383789-5.8387451,11.7062988-5.8387451,20.6015625
			c0,8.786377,1.9443359,15.5987549,5.8387451,20.4353027c3.890625,4.8383789,9.1743164,7.2575684,15.847229,7.2575684
			c9.451355,0,15.6235962-4.2249756,18.5167236-12.678833h25.1896362
			c-2.5596924,10.0092773-7.6187744,17.9625244-15.1802979,23.855835
			c-7.5643311,5.8951416-17.015686,8.8398438-28.3588867,8.8398438c-8.8991089,0-16.7940063-1.9720459-23.6885986-5.921875
			c-6.8964844-3.9460449-12.2900391-9.5087891-16.1816406-16.6804199
			c-3.8934326-7.173584-5.8378296-15.5413818-5.8378296-25.1074219
			C679.8527832,1776.713623,681.7971802,1768.3438721,685.6906128,1761.1702881z"/>
		<path class="st3" d="M809.6352539,1709.0406494v123.4448242h-23.354187v-123.4448242H809.6352539z"/>
		<path class="st3" d="M834.2410889,1725.1381836c-2.7268677-2.6123047-4.0874023-5.864624-4.0874023-9.7590332
			c0-3.8925781,1.3605347-7.1448975,4.0874023-9.7590332c2.7240601-2.6123047,6.1436157-3.9193115,10.2587891-3.9193115
			c4.1132202,0,7.5327759,1.3070068,10.2596436,3.9193115c2.723999,2.6141357,4.0864868,5.8664551,4.0864868,9.7590332
			c0,3.8944092-1.3624878,7.1467285-4.0864868,9.7590332c-2.7268677,2.6141357-6.1464233,3.9191895-10.2596436,3.9191895
			C840.3847046,1729.057373,836.9651489,1727.7523193,834.2410889,1725.1381836z M856.0102539,1740.0681152v92.4173584h-23.354248
			v-92.4173584H856.0102539z"/>
		<path class="st3" d="M878.8637695,1761.1702881c3.8916016-7.173584,9.2851562-12.7324219,16.1816406-16.682251
			c6.8945312-3.9460449,14.7894897-5.921875,23.6885986-5.921875c11.453064,0,20.9349976,2.8643799,28.4420166,8.5914307
			c7.507019,5.7288818,12.5374756,13.7623291,15.097168,24.1060791h-25.1896362
			c-1.3347778-4.005249-3.586792-7.1448975-6.7560425-9.4265137c-3.1692505-2.27771-7.0894775-3.4185791-11.7607422-3.4185791
			c-6.6728516,0-11.956543,2.4173584-15.847168,7.2557373c-3.8944092,4.8383789-5.8388062,11.7062988-5.8388062,20.6015625
			c0,8.786377,1.944397,15.5987549,5.8388062,20.4353027c3.890625,4.8383789,9.1743164,7.2575684,15.847168,7.2575684
			c9.451416,0,15.6236572-4.2249756,18.5167847-12.678833h25.1896362
			c-2.5596924,10.0092773-7.6188354,17.9625244-15.1802979,23.855835
			c-7.5643311,5.8951416-17.0157471,8.8398438-28.3588867,8.8398438c-8.8991089,0-16.7940674-1.9720459-23.6885986-5.921875
			c-6.8964844-3.9460449-12.2900391-9.5087891-16.1816406-16.6804199
			c-3.8934937-7.173584-5.8378296-15.5413818-5.8378296-25.1074219
			C873.0259399,1776.713623,874.9702759,1768.3438721,878.8637695,1761.1702881z"/>
		<path class="st3" d="M1034.1693115,1832.4854736l-31.3609009-39.3685303v39.3685303h-23.354248v-123.4448242h23.354248v70.2298584
			l31.0283813-39.2023926h30.3605957l-40.7043457,46.3758545l41.0368652,46.0415039H1034.1693115z"/>
		<path class="st3" d="M1152.3592529,1742.8198242c5.2797852-2.8358154,11.3144531-4.2536621,18.0982666-4.2536621
			c7.895874,0,15.0407715,1.9471436,21.4365234,5.8397217c6.3939209,3.8944092,11.4541016,9.4245605,15.1802979,16.5981445
			c3.7243652,7.173584,5.5894775,15.487915,5.5894775,24.9393311c0,9.4532471-1.8651123,17.8231201-5.5894775,25.1055908
			c-3.7261963,7.2844238-8.786377,12.9291992-15.1802979,16.9326172c-6.395752,4.0032959-13.5406494,6.0040283-21.4365234,6.0040283
			c-6.7838135,0-12.7611084-1.3911133-17.9320068-4.1695557c-5.1708984-2.7785645-9.3710938-6.28125-12.5948486-10.5100098
			v57.2183838h-23.3552246v-136.4562988h23.3552246v13.3458252
			C1142.9327393,1749.1888428,1147.0755615,1745.6556396,1152.3592529,1742.8198242z M1185.3874512,1771.5140381
			c-2.2797852-4.0587158-5.2817383-7.1448975-9.0080566-9.2583008c-3.7263184-2.1115723-7.7563477-3.1702881-12.0941162-3.1702881
			c-4.2269287,0-8.2016602,1.0834961-11.9260254,3.2524414c-3.7281494,2.1688232-6.7302246,5.3122559-9.0080566,9.4245605
			c-2.2816162,4.1160889-3.4205322,8.9545898-3.4205322,14.5134277c0,5.5626221,1.138916,10.401123,3.4205322,14.5133057
			c2.277832,4.1162109,5.2799072,7.2576904,9.0080566,9.4266357c3.7243652,2.1668701,7.6990967,3.2523193,11.9260254,3.2523193
			c4.3377686,0,8.3677979-1.1102295,12.0941162-3.3364258c3.7263184-2.2243652,6.7282715-5.3925781,9.0080566-9.5087891
			c2.2796631-4.1121826,3.4205322-9.0079346,3.4205322-14.6795654
			C1188.8079834,1780.3825684,1187.6671143,1775.574707,1185.3874512,1771.5140381z"/>
		<path class="st3" d="M1264.7915039,1742.9039307c4.838501-2.7785645,10.3686523-4.1696777,16.5982666-4.1696777v24.520874
			h-6.1722412c-7.3398438,0-12.8719482,1.7255859-16.5982666,5.1728516
			c-3.7261963,3.4472656-5.5874023,9.4532471-5.5874023,18.0159912v46.0415039h-23.3552246v-92.4173584h23.3552246v14.3470459
			C1256.0338135,1749.5213623,1259.9550781,1745.6842041,1264.7915039,1742.9039307z"/>
		<path class="st3" d="M1314.0854492,1828.0637207c-7.1181641-3.9460449-12.7056885-9.5335693-16.7644043-16.7645264
			c-4.0606689-7.2270508-6.0900879-15.5681152-6.0900879-25.0233154c0-9.451416,2.0866699-17.7906494,6.2563477-25.0214844
			c4.1695557-7.2290039,9.8679199-12.8165283,17.0987549-16.7663574c7.2271729-3.9460449,15.2893066-5.921875,24.1883545-5.921875
			c8.8972168,0,16.9573975,1.9758301,24.1883545,5.921875c7.2290039,3.9498291,12.9291992,9.5373535,17.098877,16.7663574
			c4.1715088,7.230835,6.2562256,15.5700684,6.2562256,25.0214844c0,9.4552002-2.1420898,17.7962646-6.4224854,25.0233154
			c-4.2823486,7.230957-10.0667725,12.8184814-17.3492432,16.7645264c-7.2843018,3.9498291-15.430542,5.921875-24.4385986,5.921875
			C1329.208374,1833.9855957,1321.2016602,1832.0135498,1314.0854492,1828.0637207z M1350.0354004,1810.5482178
			c3.7243652-2.0561523,6.6977539-5.1422119,8.9239502-9.2583008c2.2243652-4.1123047,3.3365479-9.1169434,3.3365479-15.0140381
			c0-8.7825928-2.3084717-15.5395508-6.9233398-20.2672119c-4.6147461-4.7255859-10.2596436-7.0894775-16.9306641-7.0894775
			c-6.6728516,0-12.2623291,2.3638916-16.7663574,7.0894775c-4.5039062,4.7276611-6.7550049,11.4846191-6.7550049,20.2672119
			c0,8.786377,2.1937256,15.543335,6.5888672,20.269043c4.3912354,4.7275391,9.9251709,7.0894775,16.5981445,7.0894775
			C1342.3325195,1813.6343994,1346.307251,1812.6082764,1350.0354004,1810.5482178z"/>
		<path class="st3" d="M1430.6893311,1759.251709v44.7077637c0,3.1147461,0.7509766,5.3658447,2.2509766,6.7550049
			c1.5020752,1.3930664,4.0301514,2.086792,7.59021,2.086792h10.8443604v19.6842041h-14.6815186
			c-19.6843262,0-29.5255127-9.5640869-29.5255127-28.6922607v-44.5415039h-11.0106201v-19.1835938h11.0106201v-22.8544922
			h23.5214844v22.8544922h20.6855469v19.1835938H1430.6893311z"/>
		<path class="st3" d="M1553.463501,1793.2832031h-67.5603027c0.5541992,6.6728516,2.8912354,11.901123,7.0053711,15.6809082
			c4.1142578,3.7817383,9.1762695,5.6716309,15.1802979,5.6716309c8.6755371,0,14.8477783-3.7243652,18.5167236-11.177002
			h25.1896973c-2.6677246,8.8991699-7.7850342,16.2103271-15.3465576,21.9372559
			c-7.5633545,5.7290039-16.8485107,8.5895996-27.8592529,8.5895996c-8.8990479,0-16.8770752-1.9720459-23.9379883-5.921875
			c-7.0626221-3.9460449-12.5679932-9.5335693-16.5140381-16.7645264c-3.9498291-7.2270508-5.921875-15.5681152-5.921875-25.0233154
			c0-9.5622559,1.9433594-17.9587402,5.8377686-25.1896973c3.890625-7.2270508,9.3424072-12.7858887,16.3479004-16.6802979
			c7.0073242-3.8925781,15.069458-5.8397217,24.1882324-5.8397217c8.7845459,0,16.6536865,1.8936768,23.6055908,5.6715088
			c6.947998,3.7836914,12.3444824,9.1495361,16.1815186,16.0994873c3.8371582,6.9499512,5.7537842,14.9299316,5.7537842,23.9379883
			C1554.1303711,1787.6115723,1553.9068604,1790.6136475,1553.463501,1793.2832031z M1529.9420166,1777.6021729
			c-0.1108398-6.0059814-2.2796631-10.8138428-6.5046387-14.4291992c-4.2288818-3.6135254-9.3997803-5.4232178-15.5147705-5.4232178
			c-5.7843018,0-10.6495361,1.7523193-14.5955811,5.2550049c-3.9498291,3.5046387-6.3690186,8.369751-7.2575684,14.5974121
			H1529.9420166z"/>
		<path class="st3" d="M1586.1591797,1829.9000244c-6.0059814-2.7249756-10.760376-6.4224854-14.2630615-11.0947266
			c-3.5026855-4.6702881-5.4212646-9.8411865-5.7556152-15.5128174h23.5213623
			c0.4433594,3.5600586,2.1956787,6.5047607,5.2550049,8.8399658c3.0574951,2.3370361,6.8659668,3.5045166,11.4272461,3.5045166
			c4.4467773,0,7.9245605-0.8885498,10.4260254-2.6694336c2.5032959-1.7772217,3.7529297-4.0588379,3.7529297-6.8392334
			c0-3.0039062-1.5286865-5.2550049-4.5861816-6.756958c-3.0612793-1.5001221-7.9245605-3.1396484-14.5974121-4.9206543
			c-6.8964844-1.6682129-12.5394287-3.3918457-16.9326172-5.1708984s-8.1729736-4.5040283-11.3431396-8.1748047
			c-3.168335-3.6689453-4.7543945-8.616333-4.7543945-14.8459473c0-5.1154785,1.4733887-9.7857666,4.421875-14.0126953
			c2.9447021-4.2249756,7.1716309-7.5615234,12.677002-10.0093994c5.5053711-2.4459229,11.9832764-3.6707764,19.43396-3.6707764
			c11.0107422,0,19.795166,2.75354,26.3571777,8.2589111c6.5621338,5.503418,10.1776123,12.9273682,10.8444824,22.2697754
			h-22.3538818c-0.3343506-3.6708984-1.8631592-6.5906982-4.5881348-8.7576904
			c-2.7268066-2.1689453-6.3670654-3.2542725-10.9265137-3.2542725c-4.2269287,0-7.4812012,0.7796631-9.7590332,2.335083
			c-2.2797852,1.5593262-3.4187012,3.7281494-3.4187012,6.5067139c0,3.1147461,1.555542,5.4785156,4.6702881,7.0894775
			c3.112915,1.6147461,7.9494629,3.2542725,14.5134277,4.9205322c6.6728516,1.6682129,12.1782227,3.3937988,16.5140381,5.1728516
			c4.3377686,1.7790527,8.0908203,4.5327148,11.2611084,8.2570801c3.170166,3.7263184,4.8096924,8.6488037,4.9205322,14.7636719
			c0,5.3371582-1.4752197,10.1202393-4.4199219,14.3452148c-2.9484863,4.2288818-7.173584,7.5366211-12.6789551,9.9272461
			c-5.505249,2.3885498-11.9278564,3.5848389-19.2677002,3.5848389
			C1598.9470215,1833.9855957,1592.1651611,1832.6231689,1586.1591797,1829.9000244z"/>
		<path class="st3" d="M1689.2529297,1759.251709v44.7077637c0,3.1147461,0.7509766,5.3658447,2.2509766,6.7550049
			c1.5019531,1.3930664,4.0301514,2.086792,7.59021,2.086792h10.8443604v19.6842041h-14.6815186
			c-19.6843262,0-29.5255127-9.5640869-29.5255127-28.6922607v-44.5415039h-11.0106201v-19.1835938h11.0106201v-22.8544922
			h23.5214844v22.8544922h20.6855469v19.1835938H1689.2529297z"/>
	</g>
</g>
</svg>
