<?xml version="1.0" standalone="no"?>
<!DOCTYPE svg PUBLIC "-//W3C//DTD SVG 20010904//EN"
 "http://www.w3.org/TR/2001/REC-SVG-20010904/DTD/svg10.dtd">
<svg version="1.0" xmlns="http://www.w3.org/2000/svg"
 width="368.000000pt" height="368.000000pt" viewBox="0 0 368.000000 368.000000"
 preserveAspectRatio="xMidYMid meet">
<metadata>
Created by potrace 1.14, written by Peter Selinger 2001-2017
</metadata>
<g transform="translate(0.000000,368.000000) scale(0.100000,-0.100000)"
fill="#000000" stroke="none">
<path d="M586 3660 c-8 -8 -17 -34 -21 -58 -11 -69 -87 -142 -147 -142 -13 0
-33 -7 -44 -15 -20 -13 -21 -24 -23 -142 0 -70 3 -134 8 -142 5 -8 19 -16 31
-18 54 -8 105 -49 129 -102 41 -94 -17 -207 -118 -227 -22 -5 -36 -15 -42 -31
-11 -30 -10 -292 2 -314 4 -9 23 -19 40 -23 18 -3 47 -18 66 -32 112 -85 73
-256 -67 -294 -22 -6 -41 -18 -44 -28 -3 -9 -4 -84 -3 -167 2 -168 -7 -148 89
-189 72 -30 110 -130 79 -208 -15 -40 -69 -87 -112 -98 -21 -6 -43 -19 -48
-29 -11 -20 -13 -301 -3 -318 4 -5 28 -17 55 -26 51 -17 60 -24 95 -74 16 -23
23 -47 24 -82 0 -82 -43 -138 -124 -163 -22 -6 -43 -19 -48 -28 -14 -26 -12
-254 3 -274 7 -9 30 -19 51 -22 86 -10 142 -67 153 -153 8 -61 10 -61 189 -61
171 0 194 6 194 48 0 30 47 88 86 107 91 43 187 5 230 -92 16 -35 32 -57 46
-61 19 -5 20 -10 14 -81 -3 -42 -9 -86 -12 -99 l-7 -23 165 2 c268 3 414 30
496 89 38 27 47 40 43 63 -1 4 3 16 8 26 7 11 7 22 1 29 -7 9 -7 9 2 2 7 -6
88 -10 195 -10 l184 0 20 48 c37 87 88 124 166 123 70 -1 133 -46 154 -110 20
-62 17 -61 194 -61 179 0 182 1 192 62 12 78 68 137 143 152 76 16 70 3 70
155 0 141 -4 158 -42 165 -7 1 -29 10 -48 19 -86 42 -114 165 -57 241 27 34
43 45 120 75 l27 11 0 154 c0 85 -3 161 -6 170 -3 9 -23 20 -45 26 -44 12 -94
51 -113 89 -16 31 -18 107 -4 136 20 40 73 86 113 96 22 6 43 16 47 23 4 6 8
81 8 167 0 170 0 171 -59 184 -18 4 -50 24 -70 44 -83 83 -60 212 46 261 27
12 55 25 63 29 12 7 16 38 18 166 1 96 -1 162 -8 170 -5 6 -28 17 -49 24 -123
36 -159 194 -65 278 20 17 50 35 68 39 55 11 56 15 56 165 0 154 2 151 -73
162 -73 11 -129 72 -140 151 -3 21 -10 43 -16 49 -13 13 -303 18 -337 6 -12
-4 -25 -23 -32 -48 -25 -80 -103 -129 -188 -116 -58 8 -117 63 -133 123 -8 28
-18 42 -29 43 -9 1 -91 2 -180 3 -178 2 -195 -2 -205 -51 -12 -62 -92 -123
-158 -123 -73 0 -146 59 -164 133 -4 15 -12 30 -18 34 -16 10 -349 11 -368 2
-8 -4 -21 -25 -27 -46 -24 -81 -104 -131 -188 -118 -57 8 -101 46 -130 112
-13 29 -27 54 -31 54 -5 1 -79 2 -166 3 -130 1 -161 -1 -171 -14z m276 -79 c4
0 17 -19 28 -40 58 -115 219 -163 340 -101 39 20 106 90 120 125 7 19 16 20
126 19 66 -1 122 -2 125 -3 4 0 12 -14 19 -31 31 -75 123 -133 218 -136 101
-4 171 34 227 120 l33 51 118 0 119 0 26 -45 c32 -54 50 -71 108 -101 121 -63
276 -12 344 113 l17 33 101 0 100 1 30 -62 c33 -70 72 -108 142 -137 l47 -20
0 -71 0 -71 -49 -27 c-111 -61 -161 -206 -110 -318 24 -54 82 -117 126 -135
36 -15 41 -37 35 -157 -3 -53 -7 -68 -19 -68 -8 0 -32 -12 -52 -27 -131 -94
-148 -271 -37 -385 23 -24 57 -50 74 -57 31 -13 32 -15 33 -82 2 -146 4 -136
-24 -143 -39 -9 -109 -78 -133 -130 -55 -120 -1 -275 116 -332 l39 -19 3 -86
c2 -48 2 -93 0 -102 -2 -8 -20 -22 -42 -32 -45 -20 -79 -54 -111 -110 -32 -56
-33 -172 -2 -231 26 -48 92 -111 128 -120 24 -6 25 -9 25 -84 l0 -77 -42 -12
c-56 -17 -139 -102 -156 -158 l-13 -43 -103 0 -104 0 -25 43 c-33 56 -62 82
-120 107 -65 29 -149 28 -211 0 -48 -23 -111 -85 -126 -126 -9 -24 -11 -24
-132 -24 l-123 0 -20 36 c-10 19 -37 51 -59 72 -31 28 -76 104 -76 130 0 1 65
2 144 2 130 0 146 2 170 21 14 11 26 29 26 38 0 17 17 19 290 19 213 0 295 3
305 12 13 11 15 185 15 1315 0 1236 -1 1303 -18 1318 -16 15 -112 16 -1026 16
-931 -1 -1009 -2 -1024 -17 -16 -16 -17 -66 -17 -591 0 -590 0 -589 -37 -604
-9 -4 -5 -12 12 -26 l25 -20 0 -690 c0 -519 3 -693 12 -702 8 -8 75 -12 233
-11 l221 0 9 -24 c5 -13 16 -61 25 -106 9 -46 18 -94 21 -107 5 -21 1 -20 -31
13 -43 45 -111 77 -168 80 -100 5 -211 -61 -248 -146 l-11 -28 -109 0 c-91 0
-109 2 -109 15 0 28 -41 99 -73 129 -18 16 -55 39 -83 52 l-51 22 0 71 0 71
54 30 c36 20 64 46 83 76 29 46 54 132 45 156 -2 7 -6 28 -9 46 -5 36 -44 102
-77 130 -11 9 -36 26 -57 38 l-37 21 -2 97 -1 97 36 18 c21 11 52 34 71 53
111 108 94 302 -34 385 -28 18 -55 37 -62 42 -7 7 -11 44 -10 105 l1 95 38 17
c122 55 175 213 114 338 -28 57 -84 112 -123 122 -28 7 -25 -2 -28 116 l-3 97
34 16 c127 60 184 218 123 340 -26 52 -87 112 -129 126 -27 10 -28 12 -27 85
0 61 3 77 16 81 53 17 80 31 114 62 38 35 77 97 77 125 0 8 5 16 12 18 9 3
178 3 200 -1z"/>
</g>
</svg>
