<?xml version="1.0" encoding="utf-8"?>
<!-- Generator: Adobe Illustrator 26.0.1, SVG Export Plug-In . SVG Version: 6.00 Build 0)  -->
<svg version="1.1" id="Layer_1" xmlns="http://www.w3.org/2000/svg" xmlns:xlink="http://www.w3.org/1999/xlink" x="0px" y="0px"
	 viewBox="0 0 4000 2000" style="enable-background:new 0 0 4000 2000;" xml:space="preserve">
<style type="text/css">
	.st0{fill:none;stroke:#FFFFFF;stroke-miterlimit:10;}
	.st1{fill:#1A4174;}
	.st2{fill:#FFFFFF;}
	.st3{fill:#ADADAD;}
	.st4{fill:#F05F4A;}
	.st5{fill:#DC6544;}
</style>
<path class="st0" d="M565.2310791,1539.0257568"/>
<path class="st1" d="M175.9403687,1384.0394287h631.3195801c8.345459,0,15.1118774-6.6690674,15.1118774-14.8944092V554.9290771
	c0-8.2253418-6.7664185-14.8944092-15.1118774-14.8944092H175.9403687c-8.3454742,0-15.1118774,6.6690674-15.1118774,14.8944092
	v814.2159424C160.8284912,1377.3703613,167.5948944,1384.0394287,175.9403687,1384.0394287z"/>
<path class="st2" d="M420.3343506,637.6367188c0,0,34.4628601,188.2203369,60.9727783,209.4282227l113.9925537-79.5296631
	c0,0-37.1138306-79.5297241-34.4628296-204.1262817L420.3343506,637.6367188z"/>
<path class="st3" d="M447.3166809,662.9002686l-3.3187866-7.4220581
	c0.2054443-0.0922852,20.7989197-9.3613281,36.3606262-21.1323853l4.9047241,6.4847412
	C468.9452515,653.1722412,448.1920166,662.508728,447.3166809,662.9002686z"/>
<path class="st3" d="M448.2493896,679.9254761l8.6402893,30.2409668c0,0,45.7934875-26.7849121,76.8985291-38.0172729
	l-7.7763062-31.9689941L448.2493896,679.9254761z"/>
<path class="st3" d="M463.8019104,725.7189331l51.8417053-23.3287354l4.3201294,7.7762451l24.192749-11.2323608
	l7.7762451,18.1445923c0,0-64.8020935,25.9208374-76.898468,39.7453003L463.8019104,725.7189331z"/>
<rect x="483.6218872" y="771.0043335" transform="matrix(0.8759477 -0.482406 0.482406 0.8759477 -310.4127808 335.9127502)" class="st3" width="28.618082" height="1.0163087"/>
<path class="st2" d="M311.1517029,1034.7102051c0,0-90.1336823-50.3688354-164.3614044-108.6906128
	c0,0,92.7846527-42.4158325,129.8985138-164.3613892l126.9776306,65.9823608
	C403.6664429,827.640564,377.4264526,992.2943726,311.1517029,1034.7102051z"/>
<path class="st3" d="M272.4406128,826.0197144c0,0-8.8613281,24.3687134-19.9380035,33.2300415
	c0,0,50.9526825,50.9526978,90.8286896,50.9526978c0,0,24.3686829-22.1533813,28.7993469-39.8760376L272.4406128,826.0197144z"/>
<path class="st3" d="M241.4259338,874.7570801c0,0,46.5220032,48.7373657,84.1827087,53.1680298l-12.2271423,20.7664185
	c0,0-40.9408875-14.1204224-56.4482422-31.8430786l-9.2178802,10.2423706c0,0-27.6488953-13.8696289-27.6488953-29.3769531
	L241.4259338,874.7570801z"/>
<path class="st3" d="M230.3518372,959.265564c-0.1052094,0-0.2113953-0.006897-0.3185883-0.0203247
	c-18.3753204-2.2965698-42.5515594-26.288208-43.5718079-27.3084106c-0.9924469-0.9920044-0.9924469-2.6002197,0-3.5927124
	c0.9904785-0.9914551,2.600235-0.9919434,3.5926971-0.0004883c0.2371979,0.2376709,23.9618683,23.7787476,40.610321,25.8599243
	c1.3914185,0.1737061,2.3799133,1.4435425,2.2052307,2.8359375
	C232.7089233,958.3247681,231.6142426,959.265564,230.3518372,959.265564z"/>
<path class="st3" d="M309.4624939,822.7214966c-0.2362061,0-0.4763794-0.0332642-0.713562-0.1027222
	c-11.2951355-3.3024292-24.6228333-13.2775879-25.1845703-13.7008667c-1.1204834-0.8436279-1.3447876-2.4365234-0.5011902-3.5574951
	c0.8435974-1.1204834,2.4354858-1.3462524,3.5569763-0.5021362c0.1309814,0.0982056,13.1559753,9.8426514,23.5549316,12.8835449
	c1.3467712,0.3934937,2.1188965,1.8048096,1.7249146,3.1515503
	C311.5754395,822.0019531,310.5621338,822.7214966,309.4624939,822.7214966z"/>
<path class="st1" d="M606.4133301,751.9281006l-12.1952515-33.5371094c0,0-19.3092651-7.1139526-28.4557495,2.0325317
	c0,0-4.8681641-81.5241089-98.0705261-45.2242432c-96.5461426,37.6021729-48.2730713,128.5588379-48.2730713,128.5588379
	l73.6799316,41.1591187l107.2170715-68.5985718L606.4133301,751.9281006z"/>
<path class="st2" d="M267.1048889,1096.8331299l66.2747498-39.7648926c0,0,34.4628601,90.133667,84.831665,103.3886719
	c0,0-82.6352844,75.7263184-92.7846375,71.5766602C292.3496094,1218.5098877,267.1048889,1096.8331299,267.1048889,1096.8331299z"/>
<path class="st3" d="M283.846283,1104.237915l46.5220032-22.1533203c0,0,5.2077332,18.93396,16.3867493,31.1292725
	c0,0-24.3905945,18.2929688-47.4014282,30.9000244L283.846283,1104.237915z"/>
<path class="st3" d="M334.4356995,1200.9415283c-0.9676514,0-1.8916321-0.5551758-2.3164062-1.4941406
	c-0.5786133-1.2781982-0.0109253-2.7833252,1.2673645-3.3619385c0.2044373-0.0922852,20.5239868-9.3781738,30.0704346-21.416626
	c0.8713684-1.0997314,2.4682312-1.2843018,3.5698547-0.4123535c1.0986633,0.8718262,1.2832642,2.4702148,0.4118652,3.5693359
	c-10.3185425,13.0125732-31.0797424,22.4925537-31.9590759,22.8900146
	C335.1403198,1200.8691406,334.7850342,1200.9415283,334.4356995,1200.9415283z"/>
<path class="st4" d="M31.1761055,1444.2226562c30.385498,0,55.1069298,24.7214355,55.1069298,55.1069336
	c0,7.6081543,6.1685867,13.7767334,13.7767334,13.7767334h91.6139221c6.6663818,0,12.3708191-4.7692871,13.5547485-11.328125
	c4.6213989-25.5354004,26.7731476-44.074707,52.6717987-44.074707c25.8986206,0,48.0570984,18.5393066,52.6784973,44.0814209
	c1.1839294,6.552124,6.8951111,11.3214111,13.5547485,11.3214111h101.2401428
	c6.6663818,0,12.3708191-4.7692871,13.5547485-11.328125c4.6213989-25.5354004,26.7731323-44.074707,52.6717834-44.074707
	c25.8986206,0,48.050415,18.5393066,52.671814,44.074707c1.1838989,6.5588379,6.8883667,11.328125,13.5547485,11.328125h101.2401123
	c6.659668,0,12.3708496-4.7692871,13.5547485-11.3214111c4.6213989-25.5421143,26.7799072-44.0814209,52.6785278-44.0814209
	s48.050415,18.5393066,52.6717529,44.074707c1.18396,6.5588379,6.8883667,11.328125,13.5547485,11.328125h91.6139526
	c7.6081543,0,13.7767334-6.1685791,13.7767334-13.7767334c0-30.385498,24.7214355-55.1069336,55.1069336-55.1069336
	c7.6081543,0,13.7767334-6.1685791,13.7767334-13.7767334v-72.0385742c0-6.8614502-5.0519409-12.6801758-11.8528442-13.6422119
	c-26.3157349-3.7132568-46.1600952-26.4300537-46.1600952-52.8466797s19.8443604-49.1334229,46.1600952-52.8466797
	c6.8009033-0.9619141,11.8528442-6.7806396,11.8528442-13.6422119v-86.9454346
	c0-6.8614502-5.0519409-12.6801758-11.8528442-13.6422119c-26.3157349-3.7132568-46.1600952-26.4367676-46.1600952-52.8466797
	c0-26.40979,19.8443604-49.1266479,46.1668091-52.8466187c6.7941895-0.9619751,11.8461304-6.7807617,11.8461304-13.6422119
	V918.567688c0-6.8614502-5.0519409-12.6802368-11.8461304-13.6422119
	c-26.3224487-3.7199707-46.1668091-26.4367676-46.1668091-52.8466797c0-26.4098511,19.8443604-49.1334229,46.1600952-52.8466797
	c6.8009033-0.9619141,11.8528442-6.7807007,11.8528442-13.6422119v-86.9454346
	c0-6.8614502-5.0519409-12.6802368-11.8528442-13.6421509c-26.3157349-3.7132568-46.1600952-26.4301147-46.1600952-52.8467407
	c0-26.4165649,19.8443604-49.1334229,46.1600952-52.8466797c6.8009033-0.9619141,11.8528442-6.7807007,11.8528442-13.6421509
	v-72.0386047c0-7.6081543-6.1685791-13.7767334-13.7767334-13.7767334c-30.385498,0-55.1069336-24.7214355-55.1069336-55.1069336
	c0-7.6081543-6.1685791-13.7767334-13.7767334-13.7767334h-91.6139526c-6.6663818,0-12.3707886,4.7693787-13.5547485,11.328125
	c-4.6213379,25.5354004-26.7731323,44.0747986-52.6717529,44.0747986s-48.0571289-18.5393982-52.6785278-44.0815125
	c-1.1838989-6.5520325-6.8950806-11.3214111-13.5547485-11.3214111H557.8267212
	c-6.6663818,0-12.3708496,4.7693787-13.5547485,11.328125c-4.6213989,25.5354004-26.7731934,44.0747986-52.671814,44.0747986
	c-25.8986511,0-48.0503845-18.5393982-52.6717834-44.0747986c-1.1839294-6.5587463-6.8883667-11.328125-13.5547485-11.328125
	H324.1334839c-6.6596375,0-12.3708191,4.7693787-13.5547485,11.3214111
	c-4.6213989,25.5421143-26.7798767,44.0815125-52.6784973,44.0815125c-25.8986511,0-48.0503998-18.5393982-52.6717987-44.0747986
	c-1.1839294-6.5587463-6.8883667-11.328125-13.5547485-11.328125h-91.6139221
	c-7.6081467,0-13.7767334,6.1685791-13.7767334,13.7767334c0,30.385498-24.7214317,55.1069336-55.1069298,55.1069336
	c-7.6081467,0-13.7767334,6.1685791-13.7767334,13.7767334v72.0386047c0,6.8614502,5.051918,12.6802368,11.8528347,13.6421509
	c26.3157101,3.7132568,46.1601257,26.4301147,46.1601257,52.8466797c0,26.416626-19.8444138,49.1334839-46.1601257,52.8467407
	c-6.8009167,0.9619141-11.8528347,6.7807007-11.8528347,13.6421509v86.9454346
	c0,6.8615112,5.051918,12.6802979,11.8528347,13.6422119c26.3157101,3.7132568,46.1601257,26.4368286,46.1601257,52.8466797
	c0,26.4099121-19.8444138,49.126709-46.166851,52.8466797c-6.7941895,0.9619751-11.8461075,6.7807617-11.8461075,13.6422119
	v86.9387207c0,6.8614502,5.051918,12.6802368,11.8461075,13.6422119
	c26.3224373,3.7199707,46.166851,26.4368286,46.166851,52.8466187c0,26.4099121-19.8444138,49.1334229-46.1601257,52.8466797
	c-6.8009167,0.9620361-11.8528347,6.7807617-11.8528347,13.6422119v86.9454346
	c0,6.8615723,5.051918,12.6802979,11.8528347,13.6422119c26.3157101,3.7132568,46.1601257,26.4300537,46.1601257,52.8466797
	s-19.8444138,49.1334229-46.1601257,52.8466797c-6.8009167,0.9620361-11.8528347,6.7807617-11.8528347,13.6422119v72.0385742
	C17.3993721,1438.0540771,23.5679588,1444.2226562,31.1761055,1444.2226562z M44.9528389,1369.4530029
	c33.7893181-10.1038818,58.0129585-41.55896,58.0129585-77.5345459s-24.2236404-67.4306641-58.0129585-77.5344238v-64.854248
	c33.7893181-10.1038818,58.0129585-41.55896,58.0129585-77.5345459c0-35.96875-24.2236404-67.4238892-58.0129585-77.5344238
	v-64.8475342c33.7893181-10.1105347,58.0129585-41.5656128,58.0129585-77.5344849
	c0-35.9755249-24.2236404-67.430603-58.0129585-77.5344849v-64.854248
	c33.7893181-10.1038208,58.0129585-41.5588989,58.0129585-77.5344849c0-35.9755249-24.2236404-67.430603-58.0129585-77.5344238
	v-48.3665771c34.5629158-5.8187866,61.9145699-33.1704407,67.7333527-67.7333679h68.3253403
	c10.9043274,32.6995544,41.5925446,55.4029236,76.8887024,55.4029236c35.2893982,0,65.9843445-22.7033691,76.8954163-55.4029236
	h79.915802c10.9043579,32.6995544,41.5925598,55.4029236,76.8887024,55.4029236s65.984375-22.7033691,76.8887329-55.4029236
	h79.9157715c10.9110718,32.6995544,41.6060181,55.4029236,76.8954468,55.4029236
	c35.2961426,0,65.984375-22.7033691,76.8886719-55.4029236h68.3253784
	c5.8187866,34.5629272,33.1704102,61.9145813,67.7333374,67.7333679v48.3665771
	c-33.7893066,10.1038208-58.0129395,41.5588989-58.0129395,77.5344238c0,35.9755859,24.2236328,67.4306641,58.0129395,77.5344849
	v64.854248c-33.7893066,10.1038818-58.0129395,41.55896-58.0129395,77.5344849
	c0,35.9688721,24.2236328,67.4239502,58.0129395,77.5344849v64.8475342
	c-33.7893066,10.1105347-58.0129395,41.5656738-58.0129395,77.5344238c0,35.9755859,24.2236328,67.4306641,58.0129395,77.5345459
	v64.854248c-33.7893066,10.1037598-58.0129395,41.5588379-58.0129395,77.5344238s24.2236328,67.4306641,58.0129395,77.5345459
	v48.3665771c-34.5629272,5.8187256-61.9145508,33.1704102-67.7333374,67.7332764h-68.3253784
	c-10.9042969-32.6994629-41.5925293-55.402832-76.8886719-55.402832c-35.2894287,0-65.984375,22.7033691-76.8954468,55.402832
	h-79.9157715c-10.9043579-32.6994629-41.5925903-55.402832-76.8887329-55.402832s-65.9843445,22.7033691-76.8887024,55.402832
	h-79.915802c-10.9110718-32.6994629-41.6060181-55.402832-76.8954163-55.402832
	c-35.2961578,0-65.984375,22.7033691-76.8887024,55.402832h-68.3253403
	c-5.8187866-34.5628662-33.1704407-61.9145508-67.7333527-67.7332764V1369.4530029z"/>
<path class="st4" d="M447.1474304,721.6373901c0.2621155-0.1150513,0.5242004-0.2365112,0.7607117-0.3963013
	c0.12146-0.0831299,0.2428894-0.1790161,0.3451843-0.2876587c0.3963318-0.4155273,0.5561523-0.9972534,0.7159729-1.5534058
	c1.5149841-5.0819702,4.9093933-9.5822754,9.3713074-12.446106c2.6592712-1.7067261,5.4271851-0.7798462,4.513092,2.5186768
	c-0.7095642,2.5505371-1.4127502,5.1011353-2.1223145,7.6453247c13.0917358-2.473877,25.914978-3.3496094,38.2587891,2.5378418
	c14.4085693,6.8654785,23.9141846,19.5864258,34.5895386,30.901062c1.5021973,1.5917358,3.0236206,3.1514893,4.5769653,4.704834
	c0.2940674,0.2940674,0.5050049,0.5561523,0.8885498,0.7223511c3.4711304-5.2225952,5.1970825-12.8104248,8.0161743-18.4677734
	c2.9597168-5.951355,6.4691162-10.9885864,10.1959229-16.4989014l0.1981812-0.3068237l-0.0511475-0.3452148
	c-2.2053833-14.0314331-7.076416-25.230957-18.6403809-35.1200562c-8.4699707-7.2490845-19.5480957-9.1156616-30.3577271-9.550354
	c-39.6075745-1.5917358-72.458374,23.543396-87.88974,58.7146606l-1.246521,2.8446045l2.5697632-1.7195435
	C429.9134216,730.1329346,438.3067017,725.6262817,447.1474304,721.6373901z"/>
<path class="st4" d="M565.1328125,877.2039795c-17.5408325,1.2976685-35.3757935,0.5050049-52.7440796-2.2437744
	c-1.2401123-0.1917725-6.9549561-0.5050049-7.7667847-1.4638672c7.7667847,9.1539917,19.0111084,15.2779541,30.9074707,16.8377075
	c5.3312988,0.703186,10.9246826,0.4794312,15.8532715-1.6748047c4.1998291-1.8410645,7.6453247-4.9414062,10.835144-8.2910156
	C563.2022705,879.3326416,564.1739502,878.2651367,565.1328125,877.2039795z"/>
<path class="st4" d="M550.6347656,766.1671753c0.5177612,1.1826172,1.546936,2.0455933,2.5441895,2.8574219
	c16.0578003,13.0661621,40.1062012,21.8046265,52.7184448,38.4313965
	c3.9697266,5.2354126,5.9897461,10.9694214,6.9805908,17.3874512c9.2945557-9.991394,16.0194702-25.4355469,20.8905029-38.0414429
	c12.5994873-32.6142578-18.0650635-63.6815796-50.7368774-63.9819946
	c-8.0097046-0.0703125-15.4185181,2.5761719-21.3059692,10.1575928
	c-6.1879272,7.9713745-8.6681519,18.1225586-10.9950562,27.9414062
	C550.3215332,762.6513672,549.9188232,764.5307007,550.6347656,766.1671753z"/>
<path class="st4" d="M615.8504639,843.5029907c-11.8771362,18.0778198-28.0372925,32.4480591-43.5133667,47.3488159
	l-0.2365112,0.2365112c-3.8994141,3.9697266-8.022522,7.7668457-11.1484375,12.4077759
	c-0.4091187,0.6072388-0.8118286,1.2528687-0.8565674,1.9816284c-0.0511475,0.805481,0.3452148,1.5597534,0.6904297,2.2821045
	c1.246521,2.5761719,1.809021,5.3696899,3.0427856,7.9458008c1.2209473,2.5505981,2.8062744,4.9221802,4.6345215,7.0828857
	c9.0644531,10.7200928,23.0703125,16.4541626,37.0442505,14.5939331
	c19.2028809-2.5570068,33.7137451-20.6220703,46.8949585-33.2854614
	c9.0836792-8.725708,17.9627686-17.6623535,26.6245728-26.8035278
	c15.4121704-16.2559814,30.4343872-32.6590576,25.512207-54.0673218c-0.9141235-3.9633179-2.5058594-8.1056519-4.9093628-12.446106
	c-8.0161133-14.4724731-23.0319824-24.2912598-39.0834351-28.2929688c-3.8098755-0.946106-8.0161133-1.5597534-11.5064087,0.2365112
	c-7.8115845,4.0081177-12.043396,20.9160767-15.5656128,28.3185425
	C628.1815186,822.164978,622.6201172,833.1919556,615.8504639,843.5029907z"/>
<path class="st4" d="M685.2021484,888.211792c-18.4230347,19.4202271-36.5839844,41.6148071-59.1749268,56.3046265
	c-4.3276367,2.8126831-10.7329102,5.670105-11.5703125,11.3338013c-0.5817261,3.9057617,1.7387695,7.5878296,3.9697266,10.8416138
	c6.3540649,9.2817993,13.852417,19.1773071,24.8410034,21.5617065c6.1879272,1.3488159,12.6762695,0.0511475,18.6340332-2.1030884
	c23.1342773-8.3485718,49.7971191-26.6757202,66.1426392-44.9133301
	c10.3109741-11.500061,17.4193726-26.9058228,15.2523804-42.2029419c-0.0894775-0.6520386-0.1981812-1.2976685-0.3260498-1.9433594
	c-2.0008545-10.3429565-8.0352783-19.4074097-15.3355103-26.8546143c-3.3879395-3.4519653-7.7348022-8.322998-12.3501587-9.9594727
	c-5.8363037-1.9560547-8.7384644,5.0884399-12.1265259,8.7576904
	C697.213562,875.4716187,691.2238159,881.857666,685.2021484,888.211792z"/>
<path class="st4" d="M635.5967407,997.9764404c-7.6837158-2.7039795-13.6159058-7.881897-18.3782959-14.3574219
	c-6.7695923-9.2115479-11.1547852-21.0375366-14.7665405-32.0453491c-11.3529663,0.0767212-22.71875-2.5377808-32.8955078-7.5686035
	c17.9307861,43.0211182,4.6600952,97.0117798-31.182373,126.8069458
	c5.0053101-20.0722656,18.8897095-36.9483643,24.5725708-56.8352661
	c9.4736328-33.1256714-5.1011353-67.9708862-20.5900269-98.7504883c-1.5534058-3.0875854-3.2026367-6.2709961-5.9257812-8.3996582
	c-3.2729492-2.5634155-7.5942383-3.2153931-11.6278687-4.2190552
	c-14.8305054-3.7011719-28.0564575-13.4624634-35.9639282-26.5477905
	c-3.2665405-5.4144287-6.3604736-11.9475098-12.465271-13.6031494c-5.337677-1.4447021-10.7393188,1.5214233-15.7190247,3.9121704
	c-18.2568054,8.7704468-39.6651306,10.7840576-59.2388,5.5806274c10.0872803-6.9677734,23.3899536-6.0344849,35.5228271-7.8051758
	c7.1914978-1.0547485,14.7154236-3.9121704,20.0083618-9.0389404c5.6317444-5.4527588,5.7020569-11.4424438,6.0536499-19.0046997
	c0.1534119-3.3305054,1.4958496-13.0917358,2.2885132-18.6403809c0.1661987-1.1634521,1.7770996-1.3104858,2.1542664-0.1981812
	c0.7926636,2.3140869,1.6812134,5.6572876,2.1925964,9.9402466c0.9396667,7.8947144,1.5150146,12.9894409,7.670929,18.9024658
	c4.7496033,4.5706177,10.9502869,7.7092896,17.1509399,9.812439c22.0475159,7.4919434,45.6548157,10.3237915,68.8529968,8.322937
	c6.3861084,0.4538574,27.7368774-11.3466187,32.4417114-17.6112061c5.829895-7.7540283,6.5394287-16.6395264,2.7487183-25.5570068
	c-2.9788818-7.0061035-8.5722656-12.4971924-14.5747681-17.0294189
	c-11.4041138-8.6106567-17.4066162-13.9995117-30.3321533-19.7015381
	c-14.6195068-8.2526855-24.5341797-22.59729-35.8296509-35.0114746c-1.3743286-1.508606-2.7871094-2.9916382-4.2381592-4.4299316
	c-7.1723328-7.0956421-15.5464172-13.5328369-25.2565613-16.6779175
	c-10.1703796-3.2921143-19.9827881-1.0100098-29.8527222,2.3268433
	c-22.1625977,7.4983521-41.135376,22.1051025-59.4241638,36.1173706
	c-17.924408,13.7373657-35.6634521,27.7112427-52.9422302,42.2540283
	c-8.1695557,6.8782959-16.0578308,14.3319092-20.5133667,23.9525146
	c-6.0152893,12.9894409-4.9285583,28.1395264-1.949707,42.1389771
	c6.9230347,32.5375977,18.7874146,74.7724609,30.9778137,105.7246704
	c8.7129211,22.1178589,20.0531006,49.7140503,25.0392151,71.8446655
	c13.1044922,58.1520996,12.1008911,265.5644531,3.9761047,327.7054443
	c-1.9497986,14.9007568,9.7228088,28.0755615,24.7386475,28.0755615l96.2958069-0.0126953l100.073761-0.0128174
	c14.3894043,0,25.8446655-12.1456299,24.8793945-26.5030518c-1.9752197-29.4244385-1.2337646-216.4448242,2.2373657-245.7286377
	c-0.0831299,0.7286377-10.3430176,0.4538574-11.3721924,0.4090576c-3.7907104-0.1661377-7.5750122-0.6391602-11.2954102-1.3999023
	c-7.0509033-1.4447021-13.8908081-3.9377441-20.2001343-7.4152832c14.3382568-3.1834717,28.2226562-0.9716797,41.9088745-4.6153564
	c14.7410278-3.9249268,24.770752-17.2468262,33.1000977-30.0189209c27.0272827-41.435791,48.774353-86.310791,64.557312-133.1993408
	c-15.7254028,13.6542358-33.5731201,24.8538208-52.7057495,33.0744629
	C663.0970459,998.4111328,648.6501465,1002.5662231,635.5967407,997.9764404z"/>
<polygon class="st2" points="696.3536987,595.3757324 696.3536987,693.4623413 598.2670898,643.0935059 645.9849243,563.5638428 "/>
<path class="st2" d="M521.6867065,1067.0179443l127.2474976-95.43573c0,0,127.2474976,190.8712769,79.5297241,304.8639526
	c0,0-143.1535034,76.8786621-222.683197,29.1608887C505.7807312,1305.6070557,572.055481,1154.5006104,521.6867065,1067.0179443z"/>
<path class="st3" d="M576.4352417,1278.8459473c-19.2040405,0-28.5708618-6.0926514-29.1772461-6.5020752
	c-2.3262939-1.5705566-2.9386597-4.729126-1.3676147-7.0549316c1.5611572-2.3114014,4.6913452-2.9316406,7.0137329-1.3948975
	c0.1706543,0.1082764,5.2133179,3.2249756,15.4981689,4.3747559c9.7429199,1.09021,26.2683105,0.5865479,49.6833496-7.9907227
	c2.6349487-0.9642334,5.553772,0.3880615,6.5194702,3.0235596c0.9646606,2.6348877-0.3890381,5.5537109-3.0240479,6.5189209
	C602.8772583,1276.6724854,587.9020386,1278.8459473,576.4352417,1278.8459473z"/>
<path class="st3" d="M563.7724609,1108.8460693c-2.3491211,0-4.4580688-1.6374512-4.965271-4.0268555
	c-0.5825195-2.7436523,1.1681519-5.4406738,3.9113159-6.0251465l0,0c6.8508911-1.4659424,25.8981323-7.4564209,31.6732178-17.4375
	c1.4072876-2.4285889,4.5147095-3.2587891,6.9432373-1.8529053c2.4295044,1.4052734,3.2592163,4.5141602,1.8538818,6.9432373
	c-9.2248535,15.9407959-37.1704102,22.0360107-38.3564453,22.2875977
	C564.4771118,1108.8099365,564.1218262,1108.8460693,563.7724609,1108.8460693z"/>
<path class="st3" d="M564.8693237,1124.8621826c0,0,1.8384399,38.6064453-5.5151978,49.6368408
	c0,0,33.0912476,11.0303955,102.9505005-34.9296875l-3.6767578-22.060791l16.5455933-12.8687744l-12.8688354-36.7680664
	C662.3046265,1067.8717041,607.1525879,1117.5085449,564.8693237,1124.8621826z"/>
<path class="st3" d="M564.8693237,1196.5598145l-7.3535767,20.2224121c0,0,20.2224121,9.1920166,49.6368408-9.1920166
	l1.8383789-23.8991699C608.9909668,1183.69104,581.414978,1200.2366943,564.8693237,1196.5598145z"/>
<g>
	<path class="st2" d="M284.4682922,1305.2451172c0,0,96.4685364,14.3254395,144.1863708-73.1572266
		c0,0,153.8971558,149.7939453,172.3143311,288.9578857c10.458313,79.0249023-278.9031372,53.7884521-278.9031372,53.7884521
		S356.0450439,1474.9084473,284.4682922,1305.2451172z"/>
	<path class="st3" d="M419.2510071,1579.6817627c-52.6120911,0-96.7774048-3.7922363-97.2736206-3.8353271l-1.2901917-0.1126709
		l0.4158325-1.2266846c0.0853577-0.2491455,8.4497681-25.4337158,7.9882812-70.9626465
		c-0.4267578-42.0284424-8.6770325-110.479248-45.5587158-197.9041748l-0.7026367-1.6647949l1.7874146,0.2644043
		c0.2391663,0.0357666,24.3300476,3.4671631,53.8834229-3.7728271c27.223053-6.6693115,64.8063965-24.0307617,89.2615051-68.8659668
		l0.6411438-1.1755371l0.9596863,0.9338379c0.3850708,0.3751221,38.9995728,38.1331787,79.3577881,92.4145508
		c37.2756653,50.1358643,83.712677,125.0345459,93.2551575,197.1385498
		c1.2485352,9.4298096-1.6276245,17.880127-8.5480347,25.1156006
		c-19.6367188,20.532959-71.3188477,31.7873535-153.609375,33.4511719
		C432.8734436,1579.619751,425.9927368,1579.6817627,419.2510071,1579.6817627z M323.4104919,1573.9255371
		c18.1222534,1.4588623,224.3467102,16.918335,268.5487366-29.3028564
		c6.4727783-6.7674561,9.1653442-14.6550293,8.0021973-23.4432373
		c-9.4839478-71.6628418-55.7284546-146.230957-92.8522339-196.1663818
		c-36.7437134-49.4243164-72.0325012-85.1125488-78.2125244-91.2579346
		c-24.8391724,44.6436768-62.5823059,62.0047607-89.9879761,68.7043457
		c-25.3215332,6.1914062-46.6990356,4.6451416-52.8264771,4.0010986
		c36.4638367,87.0284424,44.6317444,155.2166748,45.0426331,197.1931152
		C331.5178528,1543.8267822,325.0668945,1568.3195801,323.4104919,1573.9255371z"/>
</g>
<path class="st3" d="M349.4694214,1354.9067383c-9.7379761,0-16.4579163-2.1590576-17.0573425-2.3585205
	c-2.6627808-0.8878174-4.1008301-3.7653809-3.2135925-6.4276123c0.886261-2.6593018,3.7584229-4.095459,6.4152527-3.2180176
	c1.1681213,0.3804932,27.5039368,8.5941162,50.7393188-12.8538818c2.063324-1.9040527,5.276886-1.7755127,7.1804199,0.2868652
	c1.9035339,2.0622559,1.7755127,5.2768555-0.2868347,7.1804199
	C377.9330444,1351.6514893,361.4255371,1354.9067383,349.4694214,1354.9067383z"/>
<path class="st3" d="M343.0095825,1379.041748c0,0,95.2593994-11.0766602,112.9820557-44.3067627l24.3686829,44.3067627
	c0,0-42.0913391,42.0913086-126.2740479,42.0913086L343.0095825,1379.041748z"/>
<path class="st3" d="M367.1176453,1445.501709c0,0,66.7206421,0,93.8259277-28.7993164l8.3400879,26.5839844
	c0,0-60.4656067,28.7994385-106.3360596,24.3687744L367.1176453,1445.501709z"/>
<polygon class="st3" points="645.7184448,603.7955322 668.81073,617.1647339 670.026123,604.4031982 651.1876831,593.4647217 "/>
<path class="st3" d="M640.6681519,612.9212646l18.8384399,6.6846313l-1.8230591,6.0769043l17.6230469,6.0769043
	l-0.5462646,10.2266235c-0.0331421,0.4971924-0.4821777,0.8612061-0.9754639,0.7907104l-5.8868408-2.1311035
	c-16.260376-6.0976562-24.390625-10.1627197-34.5221558-16.7861938l0.9850464-1.5067749L640.6681519,612.9212646z"/>
<path class="st3" d="M650.7979736,651.5162964c-15.3820801-1.2817383-24.9423828-11.3065186-25.3423462-11.7322998
	l3.7078247-3.4755859l-1.8539429,1.737793l1.8499756-1.7417603c0.0853271,0.090332,8.6859741,9.0338135,22.0612793,10.1483765
	L650.7979736,651.5162964z"/>
<path class="st3" d="M160.9543304,938.2919922l-14.8392029-12.7183228l0.7354126-0.3270264
	c0.0912933-0.0401611,9.1454773-4.0859375,14.1166992-8.0626831l0.6351624,0.7939453
	c-4.2963409,3.4368896-11.3269043,6.81073-13.6095581,7.8657227l13.622467,11.6772461L160.9543304,938.2919922z"/>
<path class="st1" d="M389.4385986,1278.8668213l-0.5081482-7.6220703l-129.5750732,21.8498535l46.7486572,90.956665
	l6.0976562-0.5081787l-25.4068909-77.2369385C286.7947998,1306.3061523,342.6899414,1313.420166,389.4385986,1278.8668213z"/>
<path class="st5" d="M562.208374,1406.9179688c-1.0341187,0-2.043457-0.5264893-2.6151123-1.4777832
	c-0.7374268-1.2247314-73.1351013-121.0062256-129.9859924-168.6287842
	c-4.3380127,7.7923584-16.4033203,27.1030273-35.4544983,39.5275879c-1.412262,0.9215088-3.2999268,0.5219727-4.2189331-0.8883057
	c-0.9200134-1.4102783-0.5220337-3.2993164,0.8882446-4.2188721c22.4046936-14.6119385,34.9632568-40.2143555,35.0873108-40.4714355
	l1.6663208-3.4453125l2.9862976,2.3939209c58.0983887,46.5809326,133.5012817,171.3331299,134.2554932,172.5881348
	c0.8684082,1.4425049,0.4019775,3.3157959-1.0400391,4.1842041
	C563.2851562,1406.7769775,562.7432861,1406.9179688,562.208374,1406.9179688z"/>
<polygon class="st5" points="396.0444031,1274.2935791 389.4385986,1278.8668213 389.4385986,1273.7854004 "/>
<polygon class="st3" points="306.1040344,1154.7784424 348.2246704,1127.4417725 354.3771057,1139.4315186 
	310.8367004,1170.1253662 "/>
<path class="st1" d="M394.519989,1278.8831787l-10.1627502-0.0328369
	c0.2630005-81.7718506-2.0037842-208.9223633-9.3261108-224.0563965
	c-7.2538757-14.9920654-46.1472473-113.0303345-55.2103577-178.9169922
	c-3.5222168-25.6038818,3.5946655-51.8672485,19.5245972-72.0548096
	c10.1151123-12.8181152,19.3657837-21.3780518,27.4949951-25.442627l4.5454712,9.0899048
	c-6.6881714,3.3440552-15.0089417,11.1755371-24.0631104,22.6483765
	c-14.2268677,18.0294189-20.581543,41.4935913-17.4344788,64.3746338
	c8.4418335,61.3695679,45.6658936,158.0477295,54.2913208,175.8751221
	C394.873291,1072.4710693,394.5874634,1257.8212891,394.519989,1278.8831787z"/>
<polygon class="st2" points="394.519989,1275.8179932 388.4223328,1279.8830566 399.6013489,1283.9481201 "/>
<path class="st3" d="M391.7886658,1512.7937012c-13.5179749,0-20.4219971-1.760498-20.9761353-1.9080811
	c-2.3728638-0.6328125-3.7842407-3.069458-3.151062-5.4423828c0.6322937-2.3675537,3.0563965-3.7772217,5.4283752-3.1549072
	c0.3100586,0.0794678,26.0623169,6.4124756,77.9550476-6.9787598c2.3745728-0.6140137,4.803009,0.8155518,5.4170837,3.194458
	c0.6131897,2.3781738-0.8172913,4.8034668-3.1953735,5.4171143
	C425.8528442,1510.9958496,405.4456177,1512.7937012,391.7886658,1512.7937012z"/>
<g>
	<path class="st1" d="M1444.137207,1077.44104h-173.8514404l-26.4265137,79.9714355h-143.2531738l178.71875-490.2596436h157.1616211
		l178.0234375,490.2596436h-143.9483643L1444.137207,1077.44104z M1410.0622559,973.130127l-52.8508301-158.5523071
		l-52.1553955,158.5523071H1410.0622559z"/>
	<path class="st1" d="M2284.527832,808.3200073c28.0437012,29.6732178,42.0710449,70.2348022,42.0710449,121.6949463v227.397522
		h-136.2998047V948.0953979c0-20.8617554-5.8027344-37.0838623-17.3852539-48.6777344
		c-11.5939941-11.5824585-27.3596191-17.3851929-47.2858887-17.3851929c-19.9399414,0-35.7058105,5.8027344-47.2883301,17.3851929
		c-11.5939941,11.5938721-17.3852539,27.815979-17.3852539,48.6777344v209.3170776H1924.654541V948.0953979
		c0-20.8617554-5.6815186-37.0838623-17.0374756-48.6777344c-11.3652344-11.5824585-27.012085-17.3851929-46.9383545-17.3851929
		c-20.4066162,0-36.401123,5.8027344-47.9835205,17.3851929c-11.5939941,11.5938721-17.3852539,27.815979-17.3852539,48.6777344
		v209.3170776h-136.2999268V767.2907104h136.2999268v51.460144c12.0490723-16.6898193,27.6960449-30.0117188,46.9406738-39.9862671
		c19.230957-9.9631348,41.3757324-14.9504395,66.4094238-14.9504395c28.7410889,0,54.3510742,6.2578125,76.8436279,18.7758179
		c22.4810791,12.5167847,40.2138672,30.1409302,53.1984863,52.850769
		c13.90625-21.3192139,32.215332-38.5957031,54.9367676-51.8078003
		c22.7097168-13.2133179,47.7434082-19.8187866,75.1030273-19.8187866
		C2217.8759766,763.8141479,2256.470459,778.6559448,2284.527832,808.3200073z"/>
	<path class="st1" d="M2582.4953613,778.4169312c19.4733887-10.6596069,42.4208984-15.9945679,68.8452148-15.9945679
		c31.0559082,0,59.2185059,8.1173706,84.4921875,24.3394775c25.262207,16.2335205,45.2023926,39.4099121,59.8039551,69.5405884
		c14.6037598,30.1409912,21.9069824,65.3675537,21.9069824,105.7015381c0,40.3328247-7.3032227,75.6897583-21.9069824,106.0492554
		c-14.6015625,30.3696289-34.541748,53.664917-59.8039551,69.8881836
		c-25.2736816,16.2335205-53.4362793,24.3394775-84.4921875,24.3394775c-26.4243164,0-49.2644043-5.324707-68.4975586-15.9945068
		c-19.2424316-10.659668-34.4204102-25.03479-45.5478516-43.1152344v240.6097412h-136.2998047V767.2907104h136.2998047v54.241394
		C2547.9536133,803.4516602,2563.0241699,789.086792,2582.4953613,778.4169312z M2658.6435547,902.5465698
		c-13.6796875-14.1361694-30.4885254-21.2094116-50.4169922-21.2094116c-19.9377441,0-36.7487793,7.1933594-50.4172363,21.5570679
		c-13.6799316,14.3751831-20.5141602,34.0750122-20.5141602,59.1097412c0,25.5013428,6.8342285,45.4401855,20.5141602,59.8050537
		c13.668457,14.3751831,30.4794922,21.5570679,50.4172363,21.5570679c19.9284668,0,36.7373047-7.302002,50.4169922-21.9047241
		c13.668457-14.6038818,20.5141602-34.4226685,20.5141602-59.4573975
		C2679.1577148,936.5129395,2672.3120117,916.6941528,2658.6435547,902.5465698z"/>
	<path class="st1" d="M3010.1662598,642.8134155v514.5990601h-136.2998047V642.8134155H3010.1662598z"/>
	<path class="st1" d="M3098.828125,711.3110352c-14.6040039-13.2132568-21.9047852-29.78302-21.9047852-49.7218628
		c0-20.3951416,7.3007812-37.3125,21.9047852-50.7648315c14.6037598-13.4407959,33.9538574-20.1663818,58.0656738-20.1663818
		c23.6428223,0,42.7663574,6.7255859,57.3703613,20.1663818c14.6037598,13.4523315,21.9069824,30.3696899,21.9069824,50.7648315
		c0,19.9388428-7.3032227,36.508606-21.9069824,49.7218628c-14.6040039,13.2121582-33.7275391,19.8187866-57.3703613,19.8187866
		C3132.7819824,731.1298218,3113.4318848,724.5231934,3098.828125,711.3110352z M3224.3483887,767.2907104v390.1217651h-136.3000488
		V767.2907104H3224.3483887z"/>
	<path class="st1" d="M3512.9404297,880.6418457h-61.1943359v276.7706299h-136.9953613V880.6418457h-42.4187012V767.2907104
		h42.4187012v-3.4765625c0-50.069519,14.7114258-88.4250488,44.1569824-115.0894165
		c29.4365234-26.6541138,71.7363281-39.9863281,126.9133301-39.9863281c11.125,0,19.6975098,0.2390137,25.7287598,0.6953125
		v116.1324463c-3.7165527-0.4562988-8.8125-0.6953125-15.2990723-0.6953125
		c-14.8417969,0-25.7290039,3.3690186-32.6843262,10.0831909c-6.953125,6.7266846-10.8986816,17.505188-11.8203125,32.3366699
		h61.1943359V880.6418457z"/>
	<path class="st1" d="M3981.6328125,767.2907104l-247.5639648,575.7948608h-148.1203613l93.1835938-202.362915
		L3519.189209,767.2907104h151.5969238l82.0585938,221.1386719l79.2749023-221.1386719H3981.6328125z"/>
</g>
</svg>
