<?xml version="1.0" encoding="utf-8"?>
<!-- Generator: Adobe Illustrator 26.0.1, SVG Export Plug-In . SVG Version: 6.00 Build 0)  -->
<svg version="1.1" id="Layer_1" xmlns="http://www.w3.org/2000/svg" xmlns:xlink="http://www.w3.org/1999/xlink" x="0px" y="0px"
	 viewBox="0 0 2000 2000" style="enable-background:new 0 0 2000 2000;" xml:space="preserve">
<style type="text/css">
	.st0{fill:#FC5E47;}
	.st1{fill:#39628A;}
	.st2{fill:#FFFFFF;}
	.st3{fill:#0C3F75;}
	.st4{fill:#6D6D6D;}
</style>
<path class="st0" d="M1509.3707275,765.1578979c0.2253418-0.0048828,0.4527588-0.0144653,0.6729736-0.0596924
	c0.1134033-0.0239258,0.2307129-0.0571899,0.3378906-0.1055298c0.4135742-0.1832886,0.7049561-0.5586548,0.9885254-0.9154663
	c2.631958-3.2439575,6.4570312-5.4990234,10.5668945-6.2415161c3.4398193-0.6213989,5.4730225,2.6027832-1.3244629,5.9859009
	c0.2242432,1.8990479,0.0338135,0.2863159,0.2580566,2.1853638c10.1804199,2.1380005,19.6820068,5.3707886,26.8383789,13.305481
	c8.4240723,9.3330688,11.5170898,21.4538574,15.8848877,32.902771c0.6147461,1.6107788,1.2530518,3.2040405,1.916626,4.8022461
	c0.1256104,0.3024902,0.2003174,0.5567627,0.4294434,0.7931519c4.0982666-2.7578125,7.6376953-7.7625732,11.3920898-11.03302
	c0.0394287-0.0344238,0.0793457-0.0690918,0.119751-0.1039429c9.8131104-8.4703369,14.6035156-21.5499878,11.7241211-34.1893921
	c-0.5192871-2.2797241-1.2210693-4.4179077-2.1584473-6.256897c-3.9853516-7.8256226-11.4887695-12.5174561-19.2275391-16.0860596
	c-28.355957-13.0749512-59.8337402-4.659668-81.6494141,16.3027954l-1.7633057,1.6959229l2.3881836-0.4787598
	C1494.2681885,766.1578369,1501.7344971,765.4020996,1509.3707275,765.1578979z"/>
<g>
	<polygon class="st1" points="1641.836792,565.8861694 1590.460083,553.3295288 1502.8536377,713.1374512 1549.8820801,818.1148682 
			"/>
</g>
<g>
	<path class="st2" d="M1402.1715088,507.8471069l199.3806152,17.7487793
		c-13.4074707,119.8252563-13.2803955,120.2320557-28.239624,181.5629883
		c-18.7397461,76.8305054-35.7120361,91.9229736-35.7120361,91.9229736l-95.02771,41.1546631L1402.1715088,507.8471069z"/>
	<path class="st1" d="M1395.4589844,501.3470459l212.6043701,18.9258423l-1.4907227,13.326416
		c-12.5720215,112.3892822-12.8120117,114.5366211-27.5483398,174.9526367
		c-18.6363525,76.40625-35.6396484,93.2536621-37.5170898,94.9232788l-0.704834,0.6269531l-103.1162109,44.6574707
		L1395.4589844,501.3470459z M1543.9351807,777.7250977c5.6934814-11.9077148,14.4211426-34.0582275,23.6654053-71.9594727
		c14.2850342-58.5661621,14.5579834-59.6848755,27.286499-173.4736328l0.1535645-1.3733521l-186.1564941-16.5715332
		l38.5750732,317.3662109l86.6920166-37.5444336C1535.4576416,792.6442871,1539.0270996,787.9908447,1543.9351807,777.7250977z"/>
</g>
<path class="st0" d="M1571.3135986,828.7108765c0.0212402,1.0167236,0.5108643,1.9545898,0.9925537,2.8456421
	c7.7592773,14.3434448,22.6376953,27.9402466,26.8173828,43.8391724c1.3148193,5.0057373,1.0604248,9.7879028-0.1491699,14.7584229
	c9.7724609-4.4775391,19.3148193-13.6978149,26.6534424-21.4096069
	c18.9848633-19.9529419,6.0074463-51.7958984-17.6876221-61.8441162c-5.8100586-2.4609375-12-2.7633057-18.5670166,0.9848022
	c-6.9030762,3.9416504-11.7628174,10.5856323-16.4107666,17.0337524
	C1572.1433105,826.0570679,1571.28479,827.3040771,1571.3135986,828.7108765z"/>
<path class="st0" d="M1595.5245361,904.6327515c-14.0855713,9.5875854-30.1737061,15.1873779-45.9234619,21.3792725
	l-0.2432861,0.1010132c-4.0330811,1.7168579-8.1772461,3.2407227-11.8491211,5.6789551
	c-0.4805908,0.3190308-0.9680176,0.6678467-1.2198486,1.1849365c-0.279541,0.5709839-0.2178955,1.2393799-0.18396,1.8691406
	c0.1324463,2.2504883-0.2984619,4.4534302-0.175293,6.7000732c0.12146,2.2241821,0.5621338,4.4276733,1.243042,6.5507202
	c3.3739014,10.5314331,11.8452148,18.9196777,22.5780029,21.7695312
	c14.7491455,3.9157715,30.748291-4.8701172,44.1541748-10.1235962c9.2381592-3.6195679,18.3908691-7.4541626,27.4470215-11.5031128
	c16.1109619-7.1977539,31.9822998-14.619812,34.8395996-31.6861572c0.5269775-3.1603394,0.6143799-6.6549072,0.1704102-10.5379028
	c-1.4816895-12.947876-9.4593506-24.6136475-19.94104-32.3560791c-2.4890137-1.835022-5.3665771-3.5472412-8.447998-3.2896118
	c-6.8927002,0.567749-15.0604248,11.6038208-19.8516846,15.9332275
	C1610.9212646,892.8083496,1603.5550537,899.1629028,1595.5245361,904.6327515z"/>
<path class="st0" d="M1632.5625,958.0461426c-19.2548828,8.595459-39.1536865,19.2895508-60.0196533,23.1873169
	c-3.9968262,0.7456665-9.5195312,0.8988647-11.8331299,4.7701416c-1.5986328,2.668457-1.0170898,6.0471802-0.3718262,9.0870972
	c1.833374,8.6689453,4.3151855,18.1289062,11.5976562,23.1707764c4.098999,2.8436279,9.2130127,3.8509521,14.1984863,4.0750732
	c19.3537598,0.8822632,44.2784424-4.4384766,61.6650391-12.7980347
	c10.9664307-5.2700195,20.7762451-14.3470459,23.8009033-26.135498c0.1309814-0.5015869,0.2462158-1.0043335,0.34729-1.5128174
	c1.6551514-8.1317749-0.0108643-16.5463257-3.0849609-24.1643066c-1.4279785-3.5323486-3.1270752-8.3862915-5.994751-10.9661865
	c-3.6604004-3.1799316-7.8925781,1.0753784-11.4630127,2.727356
	C1645.1398926,952.3848267,1638.8580322,955.2319336,1632.5625,958.0461426z"/>
<path class="st0" d="M1563.4257812,1023.0320435c-4.7802734-4.2802734-7.5411377-9.8345337-9.0600586-15.9815674
	c-2.1569824-8.7427979-1.7915039-18.6715698-1.1092529-27.7720337c-8.2880859-3.3597412-15.776001-8.6826172-21.6712646-15.4068604
	c0.1107178,36.7145386-25.7938232,72.02771-60.8516846,82.9355469c9.6828613-13.1069336,24.868042-21.2156982,34.9884033-33.9838867
	c16.862915-21.265686,16.7357178-51.0183105,14.7198486-78.0861816c-0.2020264-2.7150879-0.4449463-5.5288696-1.7869873-7.8978271
	c-1.6115723-2.8508911-4.5612793-4.6256104-7.1959229-6.5698242c-9.6832275-7.1563721-16.3751221-18.2417603-18.1950684-30.1470947
	c-0.7491455-4.9244995-1.0360107-10.6114502-4.9822998-13.6534424c-3.4512939-2.6576538-8.276123-2.1234131-12.6206055-1.8810425
	c-15.9298096,0.8922729-32.1212158-4.0825806-44.805542-13.7595825c9.4399414-2.0378418,18.8436279,2.6437988,28.2092285,5.0049438
	c5.5528564,1.395752,11.8900146,1.5791626,17.2857666-0.560791c5.7404785-2.2753296,7.59375-6.6147461,10.1248779-12.0144043
	c1.1136475-2.378479,5.02771-9.0808716,7.2740479-12.881897c0.4710693-0.7969971,1.6879883-0.4193726,1.6279297,0.5038452
	c-0.1190186,1.9231567-0.4780273,4.6243896-1.3942871,7.8963013c-1.69104,6.0300903-2.8050537,9.9122314-0.102417,16.0690308
	c2.0826416,4.7564087,5.6525879,8.9069214,9.5339355,12.3035278c13.796875,12.0873413,30.1313477,21.2514038,47.6218262,26.7740479
	c4.5125732,2.251709,23.6064453,0.0842896,28.9163818-3.0609131c6.5770264-3.8910522,9.7668457-10.1463623,9.6900635-17.7788086
	c-0.060791-5.9967651-2.480835-11.677124-5.4871826-16.7825317c-5.711792-9.699646-8.4604492-15.4287109-16.1547852-23.4685669
	c-8.1604004-10.4063721-11.0627441-23.8323364-15.5510254-36.2683105c-0.5467529-1.5117798-1.1290283-3.0164795-1.7526855-4.5001221
	c-3.086792-7.3235474-7.246582-14.5292969-13.3695068-19.7402954c-6.4136963-5.4564819-14.2437744-6.7472534-22.4331055-7.2873535
	c-18.3905029-1.2088623-36.5975342,3.7169189-54.1275635,8.4157104
	c-17.182251,4.6082764-34.3005371,9.4445801-51.2550049,14.8334961
	c-8.0168457,2.5496216-16.0020752,5.6026611-22.1402588,11.2661133
	c-8.2871094,7.6467285-12.0539551,19.0031128-14.0970459,30.0911255
	c-4.7491455,25.7705688-8.8183594,60.0875244-9.2557373,86.2886353
	c-0.3111572,18.7233887-0.3579102,42.2255249-3.3859863,59.8369751
	c-7.9552002,46.2780151-23.729126,82.3778687-48.3395996,125.1727905
	c-5.9024658,10.2613525-1.3682861,23.364624,9.5633545,27.8822021l70.1083984,28.961792l72.8586426,30.0985107
	c10.475708,4.3291016,22.4693604-1.0666504,26.0860596-11.8094482c7.4145508-22.015625,16.8626709-43.3487549,28.1998291-63.6234131
	c-0.2796631,0.5054932-7.6663818-2.7813721-8.4020996-3.1235352c-2.7097168-1.2614746-5.3225098-2.7443848-7.802124-4.4174805
	c-4.6983643-3.1730957-8.9278564-7.0458984-12.4749756-11.475708c11.3962402,1.9960938,20.8387451,7.7835693,31.8988037,9.2484131
	c11.9123535,1.5775146,23.222168-5.1033936,33.12854-11.895752c32.142334-22.0344238,61.4754639-48.1612549,87.0722656-77.5482788
	c-15.5561523,5.2094116-31.9189453,7.9932251-48.3210449,8.2218628
	C1583.3155518,1031.6220703,1571.5479736,1030.3006592,1563.4257812,1023.0320435z"/>
<g>
	<polygon class="st0" points="1578.9290771,541.5712891 1571.7680664,578.8561401 1545.4173584,576.8467407 
		1550.1207275,539.2196045 	"/>
	<path class="st0" d="M1538.8181152,582.2396851l6.1674805-49.3379517l40.953125,3.3429565l-9.3865967,48.8725586
		L1538.8181152,582.2396851z M1555.2558594,545.5374756l-3.2392578,25.9163208l14.9674072,1.1414185l4.9353027-25.6972656
		L1555.2558594,545.5374756z"/>
</g>
<g>
	<path class="st1" d="M1472.1967773,781.055481c5.5270996-49.7768555,7.4857178-136.7752075,7.4991455-137.6883545
		l-11.7573242-0.1374512c-0.0134277,0.9088135-1.4051514,91.4564819-6.8828125,140.7884521L1472.1967773,781.055481z"/>
</g>
<g>
	<path class="st3" d="M1496.9851074,649.1976318c0,0,1.0150146,75.4279175-6.9669189,128.3811035"/>
	<path class="st1" d="M1495.8452148,775.2876587c7.9466553-52.7203979,7.0289307-128.3808594,7.0185547-129.1389771
		l-11.7575684,0.1251831c0.0100098,0.7506714,1.4396973,78.6500244-6.3922119,130.6092529L1495.8452148,775.2876587z"/>
</g>
<g>
	<path class="st0" d="M666.0917358,1109.1212158h-56.8500366v-55.0734863h56.8500366V1109.1212158z"/>
</g>
<g>
	<path class="st0" d="M1268.145874,1109.1212158h-283.223877v-55.0734863h283.223877V1109.1212158z"/>
</g>
<polygon class="st1" points="954.0846558,848.1497803 1099.8641357,17.3913231 1195.3223877,27.4775887 1044.5097656,958.484436 "/>
<path class="st3" d="M1044.2299805,803.4359131c-12.1517334-8.0119629-23.4400635-17.5424805-33.4342041-28.1192017
	c-0.7158813-0.7522583-4.3031006-3.8449097-4.350708-4.8835449c0.465332,9.923584,4.7406006,19.6182861,11.7492676,26.651062
	c3.1387939,3.15448,6.9176025,5.8338623,11.2362061,6.9121094c3.6827393,0.9154053,7.5073242,0.6243286,11.2902832,0.0406494
	C1041.8891602,803.8556519,1043.0653076,803.6469116,1044.2299805,803.4359131z"/>
<path class="st0" d="M1090.8288574,723.3386841c-0.2580566,1.0366821-0.0196533,2.1222534,0.2237549,3.1581421
	c3.9224854,16.6765747,15.2684326,34.5539551,15.1337891,51.8232422c-0.043457,5.4368896-1.6166992,10.2155151-4.2099609,14.9224243
	c11.1396484-1.8521729,23.3500977-8.576355,32.9116211-14.3770752
	c24.7358398-15.0091553,20.3352051-50.8634033-0.9256592-67.5675659c-5.2139893-4.0929565-11.4067383-6.1018066-19.0958252-4.107605
	c-8.0828857,2.0979614-14.8372803,7.4978027-21.3232422,12.7572632
	C1092.4000244,720.8761597,1091.1865234,721.9044189,1090.8288574,723.3386841z"/>
<polygon class="st1" points="940.8549194,709.5749512 897.338623,871.8977661 945.3297119,923.0304565 1010.7953491,939.2920532 
	1025.7215576,924.1072388 1064.8210449,696.7235718 "/>
<path class="st0" d="M1029.3914795,918.1903076c-3.6696777-5.6543579-4.9414062-12.0450439-4.7908936-18.6951904
	c0.2172852-9.4574585,3.3183594-19.4237061,6.5129395-28.4628906c-7.4794312-5.68573-13.6074219-13.1417847-17.7353516-21.5806885
	c-9.9846191,37.2550049-45.9605713,65.9348145-84.505127,67.3530273
	c13.421814-10.6262817,31.0480347-14.6715698,44.8202515-24.8339844
	c22.9454956-16.923645,30.9987183-47.1246338,36.3987427-75.1229248c0.5419312-2.8083496,1.069458-5.7280273,0.3602295-8.4990234
	c-0.8499146-3.3336182-1.0457153-38.8421021-16.9429321-59.4230347c-2.7683105-3.6436768-7.8071289-4.428894-12.2786865-5.3779907
	c-16.3965454-3.4761353-31.4446411-12.9728394-41.6439819-26.272644
	c10.1315308,0.5299683,18.378418,7.8627319,27.2247925,12.8323364c5.2461548,2.9421997,11.6209106,4.8709106,17.6801147,4.1851196
	c6.4459229-0.7282715,9.5183105-4.6183472,13.569519-9.3969116c1.7854614-2.1077881,7.6091309-7.8384399,10.9300537-11.0723267
	c0.6890259-0.6710205,1.8151855,0.0374146,1.5072021,0.9485474c-0.6486816,1.9188843-1.756958,4.5673828-3.5927124,7.6444702
	c-3.3728638,5.6488037-5.5698853,9.2785645-4.5228882,16.2640991c0.8035278,5.3952637,3.2815552,10.585144,6.2827759,15.0963745
	c10.6644287,16.0495605,24.7055664,29.8330078,40.9202881,40.2424316c3.9560547,3.5239868,23.9112549,6.5775146,30.1599121,4.848877
	c7.7385254-2.1364136,12.6928711-7.6013184,14.7139893-15.3609619c1.5875244-6.0968018,0.6960449-12.5216675-0.947998-18.5247803
	c-3.1236572-11.4051514-4.3349609-17.9696655-9.925293-28.2373047c-5.4117432-12.795105-4.6622314-27.2057495-5.7928467-41.0488281
	c-0.1385498-1.6831055-0.3151855-3.3688965-0.5395508-5.0446777c-1.1156006-8.2741699-3.3514404-16.723999-8.1263428-23.6912231
	c-5.0021973-7.2961426-12.5861816-10.7581787-20.7407227-13.5579834
	c-18.3135986-6.2832031-38.1281738-6.2960205-57.1940308-6.3529053
	c-18.6881714-0.0529175-37.3743896,0.1428223-56.0463867,0.9439697c-8.8294067,0.3803101-17.7651978,1.2797852-25.5460815,5.3339233
	c-10.505188,5.473938-17.4475098,15.9521484-22.5682983,26.6323242
	c-11.9022217,24.8225098-25.4653931,58.4971924-33.1144409,84.9420166
	c-5.4645996,18.8979492-11.9752197,42.7137451-19.8887939,59.7371216
	c-20.7925415,44.7331543-106.5690308,256.0656738-143.2903442,292.6871338
	c-8.8064575,8.7806396-7.8128662,23.3127441,2.0283203,30.8995361l33.2910767,7.8983154
	c43.3779297,9.3092041,66.8312378,7.1052246,112.2705688-0.4522705l35.8476562-9.0753174
	c0,0,20.9879761-3.7595215,27.609375-13.6568604c13.5719604-20.2824707,38.2625122-108.6982422,55.3328857-126.1367188
	c-0.4226074,0.4356079-7.0079346-4.9282837-7.6598511-5.4776001c-2.4004517-2.0241699-4.6416626-4.2461548-6.6956177-6.6244507
	c-3.8911133-4.5092773-7.1143188-9.598999-9.4923706-15.065918c11.0055542,5.157959,18.9877319,13.6225586,29.7984619,18.1494751
	c11.644165,4.8754272,24.9483032,1.2119141,36.8603516-2.9503784
	c38.6485596-13.5011597,75.5742188-31.9240723,109.6083984-54.6799927
	c-17.2049561,1.0036621-34.5606689-0.6737671-51.253418-4.9526978
	C1047.1951904,932.3696289,1035.6274414,927.7935791,1029.3914795,918.1903076z"/>
<path class="st1" d="M1051.9610596,922.3602295l-6.3817139,34.8475952c0,0-85.6363525,9.2142334-120.8640137-14.8672485
	l7.9690552-30.2587891l46.75-19.4953613l22.3765259-28.6242065l11.9801025-33.2567749l42.0327148,41.6607666
	L1051.9610596,922.3602295z"/>
<g>
	<path class="st2" d="M659.9724731,506.4416199l-63.3240356-340.2254639c0,0,53.5749512-11.4482269,140.9727783-24.881897
		c184.6062012-28.3752899,520.1170654-65.6088715,820.3891602-22.5231628l-6.2252197,359.2885742
		C1551.7851562,478.0996704,1108.6229248,410.04776,659.9724731,506.4416199z"/>
	<path class="st1" d="M650.0216064,521.3837891l-67.909729-364.8614502l11.9208374-2.5479736
		c0.5392456-0.1140747,54.9335938-11.6777496,141.6869507-25.0125122
		c176.9197998-27.192421,519.2338257-66.2812805,824.0685425-22.5419617l10.9279785,1.5687103l-6.663208,384.6557617
		l-14.1660156-2.1730957c-1.104248-0.1684265-112.2615967-16.9855957-276.5598145-21.8492737
		c-151.449585-4.4833984-380.348877,0.5609131-610.7245483,50.0576477L650.0216064,521.3837891z M611.2057495,176.0219421
		L669.9327393,491.54422c129.5962524-26.9248657,336.3258057-55.9141541,604.5625-47.9334106
		c131.7978516,3.9211121,229.8419189,15.486145,265.0205078,20.1420288l5.7873535-334.0820312
		c-298.8586426-40.8110504-632.3566284-2.6199646-805.7805176,24.0346069
		C677.0578613,163.3065186,631.5977173,171.9636536,611.2057495,176.0219421z"/>
</g>
<polygon class="st0" points="1424.2827148,146.3552399 1428.9777832,226.3314819 1516.8208008,230.3998566 
	1520.6821289,140.2106323 "/>
<path class="st1" d="M833.7446289,259.9564514c0,0,254.9447021-60.4289703,477.097168-32.6549835l3.7276611,42.2307281
	c0,0-232.3084717-29.2919159-470.0587769,32.0337219L833.7446289,259.9564514z"/>
<path class="st1" d="M845.9720459,318.1213684l2.8726196,32.5441895c0.0079956,0.090271,0.0755615,0.1569214,0.1643066,0.1386414
	c6.4279175-1.3240356,219.4650269-44.6305237,466.0592651-19.8772888c0.0980225,0.0098267,0.1793213-0.0747986,0.164917-0.1722107
	l-5.8218994-39.3745117c-0.0097656-0.0661926-0.050415-0.1164551-0.1165771-0.1261597
	c-5.1915283-0.7630615-211.5250244-30.4922791-463.2042236,26.7053833
	C846.0162964,317.9762573,845.965332,318.0456238,845.9720459,318.1213684z"/>
<path class="st1" d="M854.7944946,373.0689392l5.6596069,28.7602234l91.7070312-5.7304077
	c0,0-8.0079956-28.5535583-8.0348511-28.5583191C942.7229004,367.2915955,890.8018188,358.2290039,854.7944946,373.0689392z"/>
<polygon class="st1" points="766.6708374,223.3171997 651.3646851,242.9528503 642.3234863,194.0978394 770.7405396,175.669342 "/>
<path class="st0" d="M1547.2995605,913.1807251c0,0-22.1522217-11.9865723-45.8961182-27.8158569
	C1497.2310791,882.583252,1525.046875,940.996521,1547.2995605,913.1807251z"/>
<path class="st0" d="M409.1784668,753.4481201l2.3881531,0.4786987l-1.7633057-1.6958618
	c-21.8156738-20.9624634-53.2934875-29.3778076-81.6493835-16.3027954
	c-7.7387695,3.5685425-15.2421875,8.260376-19.2275391,16.0859985c-5.4434814,10.6784668-5.6201782,20.2973633-3.0043335,31.1759033
	l0.0666504,0.2667236l0.2365723,0.1637573c4.3709412,2.8903198,8.4413452,5.5016479,12.3865662,8.9438477
	c3.754364,3.2705078,7.2937317,8.2752686,11.3919678,11.0330811c0.2292175-0.2363892,0.3039551-0.4906616,0.4295654-0.7932129
	c0.6635132-1.5982056,1.3018494-3.1914062,1.916626-4.8021851c4.3677063-11.4489136,7.4606934-23.5697632,15.8847961-32.902832
	c7.2151794-7.9998169,16.8141174-11.2202148,27.089325-13.3579102c-1.2819824-1.6387329-2.5612793-3.2839966-3.8451843-4.9274292
	c-1.6578674-2.1262817,0.0783386-3.6338501,2.527832-3.1913452c4.1098938,0.7424927,7.9349976,2.9975586,10.5668945,6.2414551
	c0.2836609,0.3568115,0.5750122,0.7322388,0.9885559,0.9154663c0.1071777,0.0483398,0.2244263,0.081665,0.3378601,0.1055908
	c0.2202759,0.045166,0.4476013,0.0547485,0.6730347,0.0596924
	C394.2093811,751.1889038,401.6756287,751.9446411,409.1784668,753.4481201z"/>
<g>
	<polygon class="st4" points="254.1069641,551.6729736 305.4837036,539.116394 393.0901489,698.9243164 346.061676,803.9017334 	"/>
	<path class="st1" d="M345.4461365,821.0942993l-99.8881683-273.989624l63.2109528-15.4487915l91.5375366,166.9783936
		L345.4461365,821.0942993z"/>
</g>
<g>
	<g>
		<path class="st2" d="M493.7723694,493.6339417l-199.3806763,17.7487793
			c13.4075317,119.8252869,13.280426,120.2320862,28.2396545,181.5630188
			c18.7397156,76.8305054,35.7120667,91.9229736,35.7120667,91.9229736l95.0276489,41.1546021L493.7723694,493.6339417z"/>
		<path class="st1" d="M459.1503906,836.1033936l-104.5932312-45.2971802l-0.8339233-0.7415771
			c-1.902832-1.6923218-19.1356201-18.7485352-37.8474731-95.4716187
			c-14.7540894-60.4885864-14.9944763-62.637207-27.5767822-175.1188965l-1.6094666-14.3859863l215.022644-19.142395
			L459.1503906,836.1033936z M362.3817139,779.0388184l85.2104492,36.9021606l38.2399597-314.6177368L302.092804,517.6785889
			l0.0285034,0.249939c12.4845276,111.6137695,12.7235718,113.7460938,27.2657776,173.3695068
			C342.9024963,746.7110596,356.453186,772.3306885,362.3817139,779.0388184z"/>
	</g>
</g>
<path class="st0" d="M350.5555725,901.1222534c3.3299866,1.4788818,6.7711182,2.6994019,10.3825378,2.776123
	c4.2362061,0.0855103,8.3755493-1.4343872,12.0452576-3.550293c8.1914062-4.7145996,14.5349731-12.5557861,17.4352722-21.5567017
	c-0.3025208,0.9423218-4.3687744,2.8897095-5.2139282,3.4024048c-11.8173218,7.2264404-24.5628662,13.1693115-37.7232361,17.5018311
	C348.4988098,900.1796875,349.5273438,900.6645508,350.5555725,901.1222534z"/>
<path class="st0" d="M322.9814453,810.7058105c-4.6480103-6.4481812-9.5077515-13.0921631-16.4108276-17.0337524
	c-6.5670471-3.7481079-12.7569885-3.4458008-18.5669861-0.9848022
	c-23.6950684,10.0482178-36.6724701,41.8911743-17.6876831,61.8441162
	c7.3387451,7.711731,16.8809814,16.9320679,26.6535339,21.4095459c-1.2095642-4.970459-1.4640808-9.7526245-0.1492004-14.7583618
	c4.179657-15.8989868,19.0581055-29.4957886,26.8173828-43.8391724c0.48172-0.8910522,0.971344-1.8289795,0.9925232-2.8457031
	C324.6590576,813.0909424,323.8004456,811.8438721,322.9814453,810.7058105z"/>
<path class="st0" d="M277.8227539,872.0900269c-4.7912903-4.3294067-12.9589539-15.3654785-19.8517151-15.9332275
	c-3.0814209-0.2576294-5.9589691,1.4545898-8.4479828,3.2895508c-10.4817047,7.7424316-18.4593811,19.4082642-19.9410706,32.3560791
	c-0.4439697,3.8830566-0.3565216,7.3775635,0.1703796,10.5379028c2.8573914,17.0664062,18.7286987,24.4884644,34.8396759,31.6861572
	c9.0560608,4.0489502,18.2088013,7.883606,27.4469604,11.5031738c13.4059448,5.253479,29.4050293,14.0393677,44.1542358,10.1235962
	c10.7328186-2.8499146,19.2041321-11.2380981,22.5779724-21.7695923c0.6809082-2.1229858,1.121521-4.3265381,1.243042-6.5507202
	c0.1231384-2.2466431-0.3077698-4.449585-0.1753235-6.7000732c0.0339966-0.6296997,0.0955811-1.2980957-0.18396-1.8690796
	c-0.2518311-0.5170898-0.7392578-0.8659668-1.2198181-1.1849976c-3.6719055-2.4381714-7.815979-3.9620361-11.8490906-5.678894
	l-0.2433472-0.1010132c-15.7497864-6.1918945-31.8378906-11.791687-45.9234314-21.3792725
	C292.3887939,884.9497681,285.022522,878.5951538,277.8227539,872.0900269z"/>
<path class="st0" d="M244.5393219,935.2738647c-3.5704498-1.6519165-7.8026123-5.9072876-11.4630127-2.7272949
	c-2.867691,2.579895-4.5667877,7.4338379-5.994751,10.9661865c-3.0740967,7.617981-4.7401276,16.0324707-3.0850372,24.1643066
	c0.1011505,0.5084839,0.2162933,1.0111694,0.3473053,1.5128174c3.0246124,11.7884521,12.8345337,20.8654175,23.8009033,26.135437
	c17.3866119,8.3596191,42.3113251,13.6802979,61.6650543,12.7980957c4.9854431-0.2241211,10.0994263-1.2315063,14.1984863-4.0750732
	c7.2825012-5.0418701,9.7642517-14.5018311,11.5976257-23.1707764c0.6452637-3.039978,1.2268066-6.4186401-0.3717651-9.0870972
	c-2.3135986-3.8712769-7.8363647-4.0244751-11.8331909-4.7701416
	c-20.8659668-3.8977661-40.7647095-14.5918579-60.0195923-23.1873779
	C257.0858154,941.0187988,250.8039703,938.1716919,244.5393219,935.2738647z"/>
<g>
	<polygon class="st0" points="317.014801,527.3581543 324.1757507,564.6430054 350.5264282,562.6335449 345.8230591,525.0064697 	
		"/>
</g>
<g>
	<path class="st3" d="M422.1265259,620.3809814c0,0,1.3442993,102.3908691,6.910553,158.7324829"/>
	<path class="st1" d="M423.1864014,779.6913452c-5.5270081-55.9440308-6.9250488-158.2068481-6.9385376-159.2331543
		l11.7573242-0.1544189c0.0134888,1.0214233,1.4052124,102.7875977,6.882843,158.2315063L423.1864014,779.6913452z"/>
</g>
<g>
	<path class="st3" d="M398.9586487,636.8033447c0,0-1.0149231,84.7731323,6.9669495,144.2869873"/>
	<path class="st1" d="M400.0986023,781.8716431c-7.9467163-59.2522583-7.0289307-144.2867432-7.0186157-145.1387329
		l11.7576294,0.140625c-0.0100708,0.84375-0.9169312,85.0385132,6.914978,143.4353027L400.0986023,781.8716431z"/>
</g>
<path class="st0" d="M301.7349243,1017.2467651c-16.4020081-0.2285767-32.764801-3.0123901-48.3210602-8.2218018
	c25.5968781,29.3870239,54.9299164,55.513855,87.0722809,77.5482788c9.9064331,6.7923584,21.216156,13.4732666,33.1286316,11.895752
	c11.059967-1.4649658,20.502533-7.2523193,31.8987122-9.2485352c-3.5470276,4.4299316-7.7765198,8.3027344-12.4750061,11.475708
	c-2.4796143,1.6732178-5.0923462,3.1561279-7.8020325,4.4176025c-0.7358093,0.3421631-8.122406,3.6290283-8.4021606,3.1234131
	c11.3371887,20.2746582,20.7853088,41.6079102,28.1997986,63.6235352
	c3.6167908,10.7426758,15.6104736,16.1385498,26.0861206,11.8094482l72.8587036-30.0985107l70.1083069-28.961792
	c10.9317017-4.5177002,15.4658203-17.6208496,9.5633545-27.8822021
	c-24.6104126-42.7949219-40.3843384-78.8948364-48.3395386-125.1727905
	c-3.0281982-17.6114502-3.0748291-41.1135864-3.3860474-59.8369751
	c-0.4373779-26.2011719-4.5065918-60.5181274-9.2556763-86.2886963
	c-2.0431519-11.0879517-5.8099976-22.4443359-14.0971375-30.0910645
	c-6.138092-5.6634521-14.1233215-8.7165527-22.1401978-11.2661743
	c-16.9544678-5.388916-34.0728149-10.2251587-51.2549744-14.8334961c-17.5300903-4.6987305-35.73703-9.6245728-54.127594-8.4157104
	c-8.1893311,0.5401611-16.0194702,1.8308716-22.4331665,7.2874146c-6.1228638,5.2109985-10.2826538,12.416748-13.3694458,19.7402344
	c-0.6236572,1.4837036-1.2059631,2.9884033-1.752655,4.5001831c-4.4883423,12.4359131-7.390686,25.8618774-15.5510254,36.2683105
	c-7.6944275,8.039856-10.4430542,13.7688599-16.1548462,23.4685059c-3.0063477,5.1054077-5.4263611,10.7858276-5.4871826,16.7825928
	c-0.0768127,7.6324463,3.1130066,13.8876953,9.690094,17.7788086c5.309906,3.1452026,24.4037781,5.312561,28.9163513,3.0608521
	c17.4905396-5.522644,33.8249207-14.6866455,47.6217957-26.7739868c3.8814392-3.3966064,7.4512939-7.5471802,9.5339661-12.3035278
	c2.7026367-6.1567993,1.5886841-10.0389404-0.1023865-16.0690918c-0.9162598-3.2718506-1.2752075-5.9731445-1.3943481-7.8962402
	c-0.0600586-0.9232178,1.1569214-1.3008423,1.6279602-0.5038452c2.2463989,3.8009644,6.1604614,10.503418,7.2741089,12.881897
	c2.5311279,5.3995972,4.3843384,9.7390747,10.1248169,12.0144043c5.3957214,2.1398926,11.7329102,1.956543,17.2857361,0.560791
	c9.3656006-2.361145,18.7693176-7.0427856,28.209259-5.0050049c-12.6843567,9.677063-28.8756714,14.6519165-44.805481,13.7595825
	c-4.344574-0.2423096-9.1694031-0.7765503-12.620636,1.8810425c-3.9462585,3.0419922-4.2331543,8.7290039-4.9822998,13.6535034
	c-1.8199158,11.9052734-8.5118408,22.9907227-18.1950684,30.1470947c-2.6345825,1.9441528-5.5843811,3.7189331-7.1959229,6.5697632
	c-1.3420715,2.3690186-1.5849915,5.1827393-1.7869263,7.8978882c-2.0158997,27.0678711-2.1430969,56.8204956,14.7198181,78.0861816
	c10.1203003,12.7681274,25.3055725,20.8768921,34.9883423,33.9838867
	c-35.0577698-10.9078369-60.9624023-46.2210693-60.8517151-82.9355469
	c-5.8952332,6.7242432-13.3830566,12.0471191-21.6712646,15.4068604c0.682373,9.1004028,1.0477905,19.0292358-1.1091919,27.7719727
	c-1.5188904,6.1470947-4.2797546,11.701355-9.0600891,15.9816284
	C324.3958435,1016.0874634,312.6282043,1017.4089966,301.7349243,1017.2467651z"/>
<g>
	<path class="st0" d="M1871.9996338,1986.3642578H129.3149872v-929.3577881h96.4803772v54.8381348h-39.9274292v819.6815186
		h1629.5787354v-819.6815186h-138.423584v-54.8381348h194.9765625V1986.3642578z"/>
</g>
<path class="st0" d="M1110.5784912,624.6697388c-1.7988281,1.1070557-2.6590576,4.4221802-3.192749,7.8977661
	c-0.7044678,4.5878906-2.0483398,9.0313721-3.6461182,13.3894043c-2.8140869,7.6755371-2.3814697,21.3045654-2.0616455,24.9278564
	c-0.7081299,9.4495239,0.692627,21.6471558,1.8635254,33.3666992c0.1650391,1.6489258,16.5457764-7.1592407,16.6989746-6.8822632
	c3.2401123-1.1005859,7.1252441-3.3331909,9.7789307-5.2307129c1.9532471-1.3967285,3.9581299-2.7119141,6.0338135-3.9192505
	c0.0200195-0.0116577,0.0404053-0.0234375,0.0614014-0.0354614c7.4223633-4.2735596,12.7879639-11.5461426,14.0062256-20.0238037
	c0.6240234-4.3422852,0.4862061-8.8969116-0.5637207-13.9072876c-1.7279053-8.262207-7.5079346-14.5025635-13.7888184-19.7601318
	C1135.7683105,634.4925537,1121.9287109,617.6845093,1110.5784912,624.6697388z"/>
<path class="st0" d="M1117.3602295,871.3147583c-21.8862305,3.4196777-45.0023193,8.789978-67.2301025,7.0036011
	c-4.2574463-0.3432007-9.8990479-1.706665-13.3094482,1.5821533c-2.3546143,2.2658691-2.6940918,5.8514404-2.8759766,9.111084
	c-0.5251465,9.2935791-0.6104736,19.5675049,5.3865967,26.6821289c3.3740234,4.010437,8.2819824,6.4381104,13.2750244,8.036377
	c19.3800049,6.21698,46.1142578,7.6768799,66.0413818,3.982605c12.5679932-2.3273315,25.010498-8.8326416,31.3190918-19.953064
	c0.270752-0.4725952,0.5257568-0.9506226,0.7681885-1.4383545c3.9143066-7.7896118,4.5393066-16.7792358,3.5174561-25.3483887
	c-0.4763184-3.9741211-0.8641357-9.362793-3.0622559-12.7672119c-2.8366699-4.2307739-8.2979736-1.0801392-12.3723145-0.387146
	C1131.6693115,869.0337524,1124.5172119,870.1928101,1117.3602295,871.3147583z"/>
<path class="st0" d="M1094.4969482,806.9735718c-16.9179688,5.8471069-34.7695312,7.1003418-52.440918,9.046936
	l-0.2745361,0.0355225c-4.5612793,0.6315308-9.1820068,1.0369263-13.5754395,2.4992065
	c-0.5749512,0.1912842-1.1651611,0.4109497-1.5626221,0.8659668c-0.4404297,0.5020142-0.5618896,1.1966553-0.7005615,1.8444824
	c-0.4846191,2.3181763-1.5273438,4.4332275-2.0203857,6.7449341c-0.4884033,2.2885132-0.6477051,4.6437988-0.5411377,6.9835815
	c0.5244751,11.6055908,6.8066406,22.4400635,16.9047852,28.2811279c13.8773193,8.0263672,32.5147705,3.5183105,47.5517578,1.87854
	c10.3619385-1.1292114,20.6964111-2.500061,30.9916992-4.1147461c18.3143311-2.8670654,36.4472656-6.0274658,44.0377197-22.545105
	c1.4033203-3.0593872,2.4530029-6.5784302,3.0708008-10.6375122c2.0584717-13.5351562-2.8217773-27.5570068-11.3199463-38.2895508
	c-2.0189209-2.5449829-4.4655762-5.0723267-7.6606445-5.6585693c-7.1446533-1.3198853-18.4608154,7.623291-24.5092773,10.6951904
	C1113.3594971,799.2191162,1104.1433105,803.6361694,1094.4969482,806.9735718z"/>
<g>
	<path class="st3" d="M439.9191284,1502.6650391h-95.8514709l-15.3655396,45.3638916h-65.4862976l92.9251099-256.8223877h72.4367371
		l92.9251404,256.8223877H455.284668L439.9191284,1502.6650391z M423.8217468,1454.3719482l-31.8278809-94.0218506
		l-31.4629211,94.0218506H423.8217468z"/>
	<path class="st3" d="M870.7027588,1364.7410889c14.9996338,15.364502,22.5004272,36.7105713,22.5004272,64.022583v119.2652588
		h-62.1959229v-110.8502197c0-13.1710205-3.4747925-23.3513184-10.4262085-30.548584
		c-6.9494629-7.1915283-16.5247192-10.7930908-28.7180786-10.7930908c-12.1990356,0-21.7685547,3.6015625-28.7180786,10.7930908
		c-6.9533081,7.1972656-10.4261475,17.3775635-10.4261475,30.548584v110.8502197h-62.1959229v-110.8502197
		c0-13.1710205-3.4747925-23.3513184-10.4262085-30.548584c-6.9494629-7.1915283-16.5266724-10.7930908-28.7180786-10.7930908
		c-12.1990356,0-21.7685547,3.6015625-28.7180786,10.7930908c-6.9533081,7.1972656-10.4281006,17.3775635-10.4281006,30.548584
		v110.8502197h-62.55896v-204.1422119h62.55896v25.6102295c6.3406372-8.5341797,14.6347046-15.3031006,24.8764648-20.3049316
		c10.2456055-4.9959717,21.8262329-7.4987793,34.755188-7.4987793c15.3665161,0,29.0849609,3.2922363,41.1591797,9.8768311
		c12.0742798,6.5844727,21.520813,15.9772949,28.3531494,28.1706543
		c7.0704956-11.2156982,16.7033691-20.3625488,28.9024658-27.4388428
		c12.1933594-7.0705566,25.4815063-10.6086426,39.8760986-10.6086426
		C835.517334,1341.6932373,855.703125,1349.3745117,870.7027588,1364.7410889z"/>
	<path class="st3" d="M1024.9018555,1349.7414551c10.7296143-5.8547363,23.2897949-8.7800293,37.6824951-8.7800293
		c16.8302002,0,32.0698242,4.2698975,45.7307129,12.8040771c13.6569824,8.539917,24.4500732,20.7332764,32.3771973,36.5838623
		c7.9233398,15.8581543,11.8898926,34.269165,11.8898926,55.2425537c0,20.979126-3.9665527,39.4554443-11.8898926,55.427002
		c-7.927124,15.9772949-18.7202148,28.2954102-32.3771973,36.9487305
		c-13.6608887,8.6608887-28.9005127,12.9885254-45.7307129,12.9885254c-14.1468506,0-26.6494141-2.9272461-37.4981689-8.7800293
		c-10.8563843-5.8546143-19.3329468-13.4111328-25.4276733-22.6828613v125.8516846h-62.5570679v-301.458252h62.5570679v28.9024658
		C1005.7532349,1363.2773438,1014.168335,1355.5941162,1024.9018555,1349.7414551z M1075.9378662,1408.8255615
		c-8.6590576-8.901001-19.3310547-13.3533936-32.010376-13.3533936c-12.439209,0-22.9902344,4.5157471-31.6454468,13.5358887
		c-8.6608887,9.0258789-12.9885254,21.3441162-12.9885254,36.9506836c0,15.6104736,4.3276367,27.930542,12.9885254,36.9506836
		c8.6552124,9.0258789,19.2062378,13.5360107,31.6454468,13.5360107c12.4372559,0,23.0478516-4.5734863,31.8278809-13.7203369
		c8.7800293-9.1450195,13.1710205-21.520874,13.1710205-37.1331787
		C1088.9263916,1429.9871826,1084.5930176,1417.7304688,1075.9378662,1408.8255615z"/>
	<path class="st3" d="M1248.0638428,1277.3037109v270.7252197h-62.55896v-270.7252197H1248.0638428z"/>
	<path class="st3" d="M1297.9991455,1312.9731445c-6.9494629-6.4595947-10.4261475-14.4501953-10.4261475-23.9620361
		c0-9.7520752,3.4766846-17.8636475,10.4261475-24.3291016c6.9533691-6.4597168,15.9158936-9.6943359,26.8914795-9.6943359
		c10.7296143,0,19.572998,3.2346191,26.522583,9.6943359c6.951416,6.4654541,10.4261475,14.5770264,10.4261475,24.3291016
		c0,9.5118408-3.4747314,17.5024414-10.4261475,23.9620361c-6.949585,6.4654541-15.7929688,9.694458-26.522583,9.694458
		C1313.9150391,1322.6676025,1304.9525146,1319.4385986,1297.9991455,1312.9731445z M1355.9865723,1343.8867188v204.1422119
		h-62.55896v-204.1422119H1355.9865723z"/>
	<path class="st3" d="M1503.7874756,1395.8370361h-33.6564941v152.1918945h-62.5609131v-152.1918945h-22.6810303v-51.9503174
		h22.6810303v-5.8526611c0-25.1185303,7.1915283-44.2055664,21.5860596-57.2556152
		c14.3869629-13.0441895,35.4870605-19.5731201,63.2907715-19.5731201c4.6311035,0,8.0482178,0.1268311,10.2457275,0.3669434
		v53.0471191c-11.9552002-0.7319336-20.3684082,0.9776611-25.2434082,5.1228027
		c-4.8826904,4.1489258-7.3182373,11.5863037-7.3182373,22.315918v1.8286133h33.6564941V1395.8370361z"/>
	<path class="st3" d="M1741.5821533,1343.8867188l-128.045166,301.0913086h-67.3149414l46.8275146-103.9006348
		l-83.0463867-197.1906738h69.8753662l47.1943359,127.6802979l46.8294678-127.6802979H1741.5821533z"/>
</g>
<g>
	<g>
		<path class="st3" d="M293.704895,1833.87854c-7.1559753-3.9683838-12.7724304-9.5848389-16.8522644-16.8532715
			c-4.0817261-7.2645264-6.1206665-15.6488037-6.1206665-25.151123c0-9.5002441,2.0965881-17.8846436,6.2887573-25.1529541
			c4.1912231-7.2664795,9.9190674-12.8829346,17.187439-16.8513184c7.2644958-3.9683838,15.3684082-5.9545898,24.3136597-5.9545898
			c8.9423218,0,17.0452881,1.9862061,24.3136292,5.9545898c7.2654724,3.9683838,12.9952698,9.5848389,17.187439,16.8513184
			c4.1921692,7.2683105,6.2877808,15.65271,6.2877808,25.1529541c0,9.5023193-2.1532288,17.8865967-6.4558411,25.151123
			c-4.3045349,7.2684326-10.1178894,12.8848877-17.4381104,16.8532715
			c-7.3230896,3.9683838-15.5105591,5.9506836-24.5662231,5.9506836
			C308.9062195,1839.8292236,300.8570557,1837.8469238,293.704895,1833.87854z M329.84021,1816.2723389
			c3.7436523-2.0687256,6.7333984-5.1707764,8.9711304-9.3082275c2.2348938-4.133667,3.3537598-9.1641846,3.3537598-15.0899658
			c0-8.8299561-2.3213196-15.6199951-6.9591064-20.3740234c-4.63974-4.7501221-10.3128662-7.1262207-17.0193787-7.1262207
			c-6.7074585,0-12.3248901,2.3760986-16.8522339,7.1262207c-4.5273743,4.7540283-6.7910461,11.5440674-6.7910461,20.3740234
			c0,8.8319092,2.2060547,15.6239014,6.6229553,20.3721924c4.4150085,4.7520752,9.9776611,7.1262207,16.6842041,7.1262207
			C322.0983582,1819.3725586,326.0936584,1818.3410645,329.84021,1816.2723389z"/>
		<path class="st3" d="M461.8874512,1754.5643311c6.8169861,6.987915,10.2283325,16.7418213,10.2283325,29.2615967v54.4954834
			H448.640564v-51.3106689c0-7.3779297-1.8449402-13.0500488-5.533844-17.0184326
			c-3.6889343-3.9683838-8.7195435-5.9545898-15.0908813-5.9545898c-6.4846497,0-11.5988159,1.9862061-15.3434448,5.9545898
			c-3.7465515,3.9683838-5.6174316,9.6405029-5.6174316,17.0184326v51.3106689h-23.4752197v-92.8963623h23.4752197v11.5710449
			c3.1289978-4.026001,7.1271667-7.1820068,11.9897156-9.4735107c4.8625488-2.2895508,10.1995239-3.4382324,16.0138245-3.4382324
			C446.1252747,1744.0843506,455.067627,1747.5802002,461.8874512,1754.5643311z"/>
		<path class="st3" d="M580.1029663,1798.9158936h-67.9122925c0.5570679,6.7075195,2.906189,11.9627686,7.041687,15.762207
			c4.135498,3.8032227,9.2237549,5.7009277,15.2589722,5.7009277c8.720459,0,14.9246826-3.7436523,18.6126709-11.2348633h25.3201294
			c-2.6814575,8.9453125-7.8253784,16.2943115-15.4260254,22.0510254c-7.6026001,5.7585449-16.935791,8.6340332-28.00354,8.6340332
			c-8.9432983,0-16.9645996-1.9822998-24.0600891-5.9506836c-7.1012573-3.9683838-12.6351318-9.5848389-16.601593-16.8532715
			c-3.9693604-7.2645264-5.9526062-15.6488037-5.9526062-25.151123c0-9.6136475,1.9544373-18.0517578,5.8680725-25.3200684
			c3.9117432-7.2664795,9.3908691-12.854126,16.4325562-16.7687988c7.0436401-3.9107666,15.147522-5.8699951,24.3136597-5.8699951
			c8.8319092,0,16.7418213,1.9035645,23.7277832,5.7010498c6.9860229,3.8032227,12.4084473,9.1967773,16.2654419,16.1828613
			c3.8569946,6.9859619,5.7835693,15.0073242,5.7835693,24.0620117
			C580.7713623,1793.2149658,580.548584,1796.234375,580.1029663,1798.9158936z M556.4577637,1783.1536865
			c-0.1114502-6.0351562-2.2915649-10.869873-6.5384521-14.5040283c-4.2488403-3.6323242-9.4465942-5.4493408-15.5932007-5.4493408
			c-5.8162231,0-10.706604,1.7593994-14.6730957,5.2822266c-3.9702759,3.520874-6.4020386,8.4130859-7.293335,14.6711426
			H556.4577637z"/>
		<path class="st3" d="M669.3074341,1768.5670166v19.7844238h-71.0969849v-19.7844238H669.3074341z"/>
		<path class="st3" d="M695.4631348,1766.6385498c3.9127197-7.2106934,9.335144-12.800293,16.2654419-16.7686768
			s14.8671265-5.9545898,23.8123169-5.9545898c11.5114746,0,21.0425415,2.8812256,28.5894165,8.6359863
			c7.546875,5.758667,12.602417,13.8337402,15.1763306,24.2310791h-25.3201294
			c-1.3426514-4.0240479-3.6072998-7.1818848-6.7920532-9.4753418c-3.1846924-2.2896729-7.1261597-3.4364014-11.8206787-3.4364014
			c-6.7074585,0-12.0204468,2.4299316-15.9312134,7.293335c-3.9146118,4.8635254-5.868103,11.7669678-5.868103,20.7102051
			c0,8.8319092,1.9534912,15.6777344,5.868103,20.5412598c3.9107666,4.8615723,9.2237549,7.293335,15.9312134,7.293335
			c9.5003662,0,15.7045898-4.2469482,18.6127319-12.7446289h25.3201294
			c-2.5739136,10.0611572-7.6602173,18.0556641-15.2589111,23.9793701
			c-7.6045532,5.9276123-17.1048584,8.8857422-28.5068359,8.8857422c-8.9451904,0-16.882019-1.9822998-23.8123169-5.9506836
			s-12.3527222-9.5579834-16.2654419-16.7686768c-3.9126587-7.2108154-5.8661499-15.6201172-5.8661499-25.2357178
			C689.5969849,1782.260498,691.5504761,1773.8474121,695.4631348,1766.6385498z"/>
		<path class="st3" d="M820.0509033,1714.2368164v124.0845947h-23.4761353v-124.0845947H820.0509033z"/>
		<path class="st3" d="M844.7833252,1730.4177246c-2.7390747-2.6257324-4.1066895-5.8948975-4.1066895-9.8095703
			c0-3.9107666,1.3676147-7.1799316,4.1066895-9.8076172s6.1773071-3.9415283,10.3128662-3.9415283
			c4.135498,0,7.5718384,1.3138428,10.3128052,3.9415283c2.7390747,2.6276855,4.1066895,5.8968506,4.1066895,9.8076172
			c0,3.9146729-1.3676147,7.1838379-4.1066895,9.8095703c-2.7409668,2.6276855-6.1773071,3.9395752-10.3128052,3.9395752
			C850.9606323,1734.3572998,847.5223999,1733.0454102,844.7833252,1730.4177246z M866.6652222,1745.4250488v92.8963623H843.190979
			v-92.8963623H866.6652222z"/>
		<path class="st3" d="M889.6381226,1766.6385498c3.9108276-7.2106934,9.333252-12.800293,16.2655029-16.7686768
			c6.9302368-3.9683838,14.8670654-5.9545898,23.8103638-5.9545898c11.5133667,0,21.0444336,2.8812256,28.5894165,8.6359863
			c7.546875,5.758667,12.6043701,13.8337402,15.1763306,24.2310791h-25.3201904
			c-1.3426514-4.0240479-3.6053467-7.1818848-6.7900391-9.4753418c-3.1866455-2.2896729-7.1262207-3.4364014-11.8226318-3.4364014
			c-6.7074585,0-12.0184937,2.4299316-15.9293213,7.293335c-3.9146118,4.8635254-5.8699951,11.7669678-5.8699951,20.7102051
			c0,8.8319092,1.9553833,15.6777344,5.8699951,20.5412598c3.9108276,4.8615723,9.2218628,7.293335,15.9293213,7.293335
			c9.5003662,0,15.7045898-4.2469482,18.6126709-12.7446289h25.3201904
			c-2.5719604,10.0611572-7.6582642,18.0556641-15.2589722,23.9793701
			c-7.6044922,5.9276123-17.1047974,8.8857422-28.5067749,8.8857422c-8.9432983,0-16.880127-1.9822998-23.8103638-5.9506836
			c-6.932251-3.9683838-12.3546753-9.5579834-16.2655029-16.7686768c-3.9146118-7.2108154-5.868042-15.6201172-5.868042-25.2357178
			C883.7700806,1782.260498,885.7235107,1773.8474121,889.6381226,1766.6385498z"/>
		<path class="st3" d="M1045.7503662,1838.3214111l-31.5244141-39.5726318v39.5726318h-23.4761963v-124.0845947h23.4761963v70.59375
			l31.1882324-39.4055176h30.5178223l-40.9151611,46.6162109l41.2513428,46.2801514H1045.7503662z"/>
		<path class="st3" d="M1164.5506592,1748.19104c5.307251-2.8504639,11.3731689-4.2757568,18.1920166-4.2757568
			c7.9368896,0,15.1187744,1.9592285,21.5477295,5.8699951c6.427002,3.9146729,11.5133057,9.4735107,15.2589111,16.6842041
			c3.7456055,7.2108154,5.6184082,15.5682373,5.6184082,25.0686035c0,9.5021973-1.8728027,17.9154053-5.6184082,25.2375488
			s-8.8319092,12.9942627-15.2589111,17.0184326c-6.4289551,4.0240479-13.6108398,6.0351562-21.5477295,6.0351562
			c-6.8188477,0-12.8271484-1.3983154-18.0249023-4.1912842c-5.1976318-2.7928467-9.4196777-6.3137207-12.6600342-10.5644531
			v57.5168457h-23.4742432v-137.1652832h23.4742432v13.4150391
			C1155.0753174,1754.5931396,1159.239624,1751.0415039,1164.5506592,1748.19104z M1197.7519531,1777.0339355
			c-2.293457-4.0797119-5.3110352-7.1818848-9.0546875-9.3062744c-3.7475586-2.1225586-7.798584-3.1866455-12.1588135-3.1866455
			c-4.2487793,0-8.2441406,1.0910645-11.987793,3.269165c-3.7474365,2.1821289-6.7650146,5.3399658-9.0546875,9.4735107
			c-2.293457,4.1374512-3.4382324,9.0009766-3.4382324,14.5904541c0,5.5895996,1.1447754,10.453125,3.4382324,14.5866699
			c2.2896729,4.1374512,5.307251,7.2952881,9.0546875,9.4753418c3.7436523,2.1801758,7.7390137,3.2692871,11.987793,3.2692871
			c4.3602295,0,8.4112549-1.1159668,12.1588135-3.3537598c3.7436523-2.2338867,6.7612305-5.4205322,9.0546875-9.5579834
			c2.2895508-4.1335449,3.4382324-9.0546875,3.4382324-14.7556152
			C1201.1901855,1785.9504395,1200.0415039,1781.1157227,1197.7519531,1777.0339355z"/>
		<path class="st3" d="M1277.5655518,1748.2755127c4.8635254-2.7928467,10.4223633-4.1911621,16.6842041-4.1911621v24.6478271
			h-6.2042236c-7.3759766,0-12.9385986,1.7364502-16.6842041,5.199707c-3.7456055,3.467041-5.6164551,9.5021973-5.6164551,18.109375
			v46.2801514h-23.4761963v-92.8963623h23.4761963v14.4215088
			C1268.7644043,1754.9293213,1272.7039795,1751.0722656,1277.5655518,1748.2755127z"/>
		<path class="st3" d="M1327.1148682,1833.87854c-7.1550293-3.9683838-12.7714844-9.5848389-16.8513184-16.8532715
			c-4.081665-7.2645264-6.121582-15.6488037-6.121582-25.151123c0-9.5002441,2.0975342-17.8846436,6.2886963-25.1529541
			c4.1912842-7.2664795,9.9190674-12.8829346,17.1875-16.8513184c7.2645264-3.9683838,15.3703613-5.9545898,24.3135986-5.9545898
			c8.9433594,0,17.0452881,1.9862061,24.3137207,5.9545898c7.2663574,3.9683838,12.9962158,9.5848389,17.1873779,16.8513184
			c4.1931152,7.2683105,6.2886963,15.65271,6.2886963,25.1529541c0,9.5023193-2.1531982,17.8865967-6.4558105,25.151123
			c-4.3045654,7.2684326-10.1169434,12.8848877-17.4390869,16.8532715s-15.5085449,5.9506836-24.5651855,5.9506836
			C1342.3161621,1839.8292236,1334.2679443,1837.8469238,1327.1148682,1833.87854z M1363.2510986,1816.2723389
			c3.7436523-2.0687256,6.7325439-5.1707764,8.972168-9.3082275c2.2338867-4.133667,3.3537598-9.1641846,3.3537598-15.0899658
			c0-8.8299561-2.3222656-15.6199951-6.9610596-20.3740234c-4.6387939-4.7501221-10.3109131-7.1262207-17.0184326-7.1262207
			c-6.7073975,0-12.3238525,2.3760986-16.8531494,7.1262207c-4.5255127,4.7540283-6.7901611,11.5440674-6.7901611,20.3740234
			c0,8.8319092,2.2070312,15.6239014,6.6230469,20.3721924c4.4158936,4.7520752,9.9786377,7.1262207,16.6842041,7.1262207
			C1355.5083008,1819.3725586,1359.5036621,1818.3410645,1363.2510986,1816.2723389z"/>
		<path class="st3" d="M1444.322876,1764.710083v44.9373779c0,3.1309814,0.7548828,5.3956299,2.2626953,6.7900391
			c1.5097656,1.4002686,4.0529785,2.0975342,7.6295166,2.0975342h10.9006348v19.786377h-14.7575684
			c-19.7844238,0-29.6785889-9.6137695-29.6785889-28.8410645v-44.7702637h-11.0657959v-19.2850342h11.0657959v-22.9729004
			h23.6433105v22.9729004h20.7928467v19.2850342H1444.322876z"/>
		<path class="st3" d="M1567.7351074,1798.9158936h-67.9122314c0.5570068,6.7075195,2.90625,11.9627686,7.041748,15.762207
			c4.135498,3.8032227,9.2237549,5.7009277,15.2589111,5.7009277c8.720459,0,14.9246826-3.7436523,18.6126709-11.2348633h25.3201904
			c-2.6815186,8.9453125-7.8254395,16.2943115-15.4261475,22.0510254c-7.6025391,5.7585449-16.935791,8.6340332-28.003418,8.6340332
			c-8.9433594,0-16.9647217-1.9822998-24.0601807-5.9506836c-7.1011963-3.9683838-12.6351318-9.5848389-16.6015625-16.8532715
			c-3.9703369-7.2645264-5.9526367-15.6488037-5.9526367-25.151123c0-9.6136475,1.9554443-18.0517578,5.8681641-25.3200684
			c3.9125977-7.2664795,9.3907471-12.854126,16.4324951-16.7687988c7.0435791-3.9107666,15.147583-5.8699951,24.3137207-5.8699951
			c8.8317871,0,16.7416992,1.9035645,23.7277832,5.7010498c6.9859619,3.8032227,12.4084473,9.1967773,16.2653809,16.1828613
			c3.8570557,6.9859619,5.7835693,15.0073242,5.7835693,24.0620117
			C1568.4035645,1793.2149658,1568.1807861,1796.234375,1567.7351074,1798.9158936z M1544.0899658,1783.1536865
			c-0.1114502-6.0351562-2.2915039-10.869873-6.5384521-14.5040283c-4.2489014-3.6323242-9.4465332-5.4493408-15.5931396-5.4493408
			c-5.8162842,0-10.706665,1.7593994-14.6730957,5.2822266c-3.9703369,3.520874-6.4020996,8.4130859-7.293335,14.6711426
			H1544.0899658z"/>
		<path class="st3" d="M1600.6002197,1835.7225342c-6.0389404-2.7391357-10.8179932-6.4559326-14.3369141-11.1522217
			c-3.5227051-4.694458-5.4512939-9.8922119-5.7855225-15.5932617h23.6413574
			c0.4456787,3.5784912,2.2070312,6.5384521,5.2822266,8.8857422c3.0733643,2.3491211,6.9014893,3.5227051,11.4865723,3.5227051
			c4.4715576,0,7.9655762-0.8930664,10.4798584-2.6833496c2.5163574-1.786377,3.772583-4.0778809,3.772583-6.8745117
			c0-3.0195312-1.5367432-5.2822266-4.6099854-6.7919922c-3.0771484-1.5079346-7.9637451-3.1560059-14.6711426-4.946167
			c-6.9342041-1.6768799-12.6063232-3.4094238-17.0223389-5.1977539c-4.4158936-1.788208-8.215332-4.5273438-11.4018555-8.21521
			c-3.1848145-3.6899414-4.7790527-8.6629639-4.7790527-14.9248047c0-5.1400146,1.480957-9.8344727,4.4448242-14.0853271
			c2.9599609-4.2468262,7.2106934-7.6005859,12.7426758-10.0611572c5.5357666-2.4567871,12.0454102-3.6899414,19.534668-3.6899414
			c11.067627,0,19.8977051,2.7679443,26.4956055,8.3017578c6.5942383,5.5319824,10.2283936,12.9962158,10.8986816,22.3851318
			h-22.4696045c-0.3342285-3.6878662-1.8728027-6.6229248-4.6099854-8.8029785
			c-2.7429199-2.1801758-6.4020996-3.2712402-10.9831543-3.2712402c-4.2507324,0-7.5219727,0.7836914-9.8115234,2.34729
			c-2.2915039,1.5673828-3.4364014,3.7493896-3.4364014,6.5422363c0,3.1309814,1.5635986,5.505127,4.6964111,7.1262207
			c3.1270752,1.6212158,7.9906006,3.2692871,14.5866699,4.9442139c6.7075195,1.678833,12.241333,3.411377,16.5997314,5.199585
			c4.3602295,1.7883301,8.1326904,4.5562744,11.3193359,8.2999268c3.1866455,3.7456055,4.8345947,8.6936035,4.9460449,14.84021
			c0,5.3666992-1.4829102,10.1726074-4.4428711,14.4213867c-2.9637451,4.2489014-7.2087402,7.5738525-12.7445068,9.9766846
			c-5.5319824,2.401123-11.9897461,3.6035156-19.3657227,3.6035156
			C1613.4523926,1839.8292236,1606.635498,1838.4615479,1600.6002197,1835.7225342z"/>
		<path class="st3" d="M1704.2261963,1764.710083v44.9373779c0,3.1309814,0.7548828,5.3956299,2.2646484,6.7900391
			c1.5078125,1.4002686,4.0490723,2.0975342,7.6295166,2.0975342h10.8986816v19.786377h-14.7557373
			c-19.788208,0-29.6804199-9.6137695-29.6804199-28.8410645v-44.7702637h-11.067749v-19.2850342h11.067749v-22.9729004h23.6433105
			v22.9729004h20.7928467v19.2850342H1704.2261963z"/>
	</g>
</g>
</svg>
