<?xml version="1.0" encoding="utf-8"?>
<!-- Generator: Adobe Illustrator 26.0.1, SVG Export Plug-In . SVG Version: 6.00 Build 0)  -->
<svg version="1.1" id="Layer_1" xmlns="http://www.w3.org/2000/svg" xmlns:xlink="http://www.w3.org/1999/xlink" x="0px" y="0px"
	 viewBox="0 0 4000 2000" style="enable-background:new 0 0 4000 2000;" xml:space="preserve">
<style type="text/css">
	.st0{fill:#F05F4A;}
	.st1{fill:#39638A;}
	.st2{fill:#1A4174;}
	.st3{fill:#6D6D6D;}
	.st4{fill:none;stroke:#1A4174;stroke-width:14;stroke-miterlimit:10;}
	.st5{fill:#FFFFFF;}
	.st6{fill:#DC6544;}
</style>
<g>
	<polygon class="st0" points="1886.2236328,394.932373 1886.2236328,484.9315491 3896.3066406,486.2035522 
		3896.3066406,1523.6517334 1869.8465576,1523.6517334 1869.8465576,1614.0201416 3985.1633301,1614.0201416 
		3985.1633301,394.932373 	"/>
	<polygon class="st0" points="101.8842773,483.802002 505.3421326,484.0576477 505.3421326,394.932373 13.0275526,394.932373 
		13.0275526,1614.9100342 274.7946472,1614.9100342 274.7946472,1523.6517334 101.8842773,1523.6517334 	"/>
</g>
<path class="st0" d="M460.7016907,1162.5489502l2.6678162,0.53479l-1.9697876-1.8944092
	c-24.3704529-23.4173584-59.5344543-32.8181152-91.2109985-18.2120361
	c-8.6450195,3.9865723-17.0271301,9.2277832-21.4791565,17.9698486
	c-6.0809631,11.9289551-6.2783813,22.6743164-3.3561707,34.8267822l0.0744324,0.2978516l0.2642822,0.1829834
	c4.8828125,3.2287598,9.4299011,6.1459961,13.8370972,9.991333c4.1940308,3.6534424,8.1478577,9.2442627,12.7260437,12.3250732
	c0.256073-0.2641602,0.3395386-0.5482178,0.4798584-0.8861084c0.7412415-1.7854004,1.4543152-3.5651855,2.1410522-5.364624
	c4.8792114-12.7896729,8.3344116-26.329834,17.7450256-36.7558594c8.0600891-8.9366455,18.7831421-12.5341797,30.2616577-14.9222412
	c-1.4321594-1.8305664-2.8612366-3.6685791-4.2955017-5.5043945c-1.8520203-2.3753662,0.0875244-4.0594482,2.823822-3.5651855
	c4.591217,0.8294678,8.8642578,3.3486328,11.8043823,6.9724121c0.316864,0.3986816,0.642334,0.8179932,1.1043091,1.0227051
	c0.1197205,0.0539551,0.2507019,0.0911865,0.3774109,0.1179199c0.2460632,0.0505371,0.5000305,0.0611572,0.7518616,0.0666504
	C443.9796143,1160.0252686,452.3202209,1160.8695068,460.7016907,1162.5489502z"/>
<g>
	<polygon class="st1" points="1837.7111816,979.3894653 1780.3178711,965.3624268 1682.4522705,1143.8847656 
		1734.9880371,1261.1555176 	"/>
</g>
<path class="st0" d="M1758.9293213,1272.9924316c0.0235596,1.1357422,0.5705566,2.1834717,1.1086426,3.1789551
	c8.6679688,16.0230713,25.2888184,31.2121582,29.9578857,48.9729004c1.4688721,5.5919189,1.1845703,10.9342041-0.166626,16.4866943
	c10.9169922-5.0018311,21.5766602-15.3018799,29.7747803-23.916748
	c21.2080078-22.2895508,6.7109375-57.8614502-19.7590332-69.0864258c-6.4903564-2.7491455-13.4051514-3.0869141-20.741333,1.1002197
	c-7.7114258,4.4030762-13.1402588,11.8251953-18.3325195,19.0284424
	C1759.8562012,1270.027832,1758.8969727,1271.4208984,1758.9293213,1272.9924316z"/>
<path class="st0" d="M1785.9753418,1357.8051758c-15.7349854,10.7103271-33.7071533,16.9659424-51.3012695,23.8829346
	l-0.2718506,0.112793c-4.5053711,1.9179688-9.1347656,3.6202393-13.2366943,6.3439941
	c-0.5368652,0.3563232-1.0812988,0.7460938-1.3626709,1.3237305c-0.3122559,0.6378174-0.2434082,1.3845215-0.2054443,2.0880127
	c0.1479492,2.5140381-0.3334961,4.9749756-0.1959229,7.4846191c0.1357422,2.4847412,0.6279297,4.9462891,1.3886719,7.3178711
	c3.7689209,11.7647705,13.2322998,21.1352539,25.2219238,24.3188477
	c16.4764404,4.3743896,34.3491211-5.4404297,49.3249512-11.309082c10.3200684-4.043457,20.5445557-8.3271484,30.6611328-12.8502197
	c17.9976807-8.0405273,35.7276611-16.3317871,38.9196777-35.3967285c0.588501-3.5305176,0.6862793-7.4342041,0.1903076-11.7719727
	c-1.6552734-14.4641113-10.5671387-27.4960938-22.2762451-36.1451416c-2.7805176-2.0499268-5.9951172-3.9626465-9.4373779-3.6748047
	c-7.6999512,0.6342773-16.8240967,12.9626465-22.1763916,17.7990723
	C1803.1751709,1344.5960693,1794.9462891,1351.6948242,1785.9753418,1357.8051758z"/>
<path class="st0" d="M1827.350708,1417.4735107c-21.5097656,9.6020508-43.7387695,21.548584-67.0482178,25.90271
	c-4.4648438,0.8330078-10.6343994,1.0041504-13.2189941,5.3287354c-1.7857666,2.980957-1.1361084,6.7553711-0.4152832,10.1513672
	c2.0480957,9.684082,4.8204346,20.2518311,12.9558105,25.8841553c4.5791016,3.1766357,10.2919922,4.3018799,15.8612061,4.5522461
	c21.6201172,0.9855957,49.463623-4.958252,68.8863525-14.2967529c12.2506104-5.887207,23.2093506-16.0270996,26.5881348-29.1960449
	c0.1463623-0.5604248,0.2750244-1.1219482,0.3879395-1.6900635c1.848999-9.0839844-0.012207-18.4840088-3.4462891-26.9940186
	c-1.5952148-3.9460449-3.4932861-9.3684082-6.6967773-12.2503662c-4.0889893-3.5523682-8.8167725,1.2012939-12.8054199,3.0466309
	C1841.4008789,1411.149292,1834.3834229,1414.329834,1827.350708,1417.4735107z"/>
<polygon class="st1" points="1016.7577515,1268.3408203 1179.6088867,310.9677429 1314.9702148,322.8388062 
	1146.4967041,1391.5961914 "/>
<path class="st2" d="M1170.1212158,1218.390625c-13.5748291-8.9501953-26.1850586-19.5968018-37.3494873-31.4121094
	c-0.7998047-0.840332-4.8070068-4.295166-4.8602295-5.4554443c0.5197754,11.0856934,5.2957764,21.9156494,13.1251221,29.7720947
	c3.5063477,3.5238037,7.7277832,6.5169678,12.552124,7.7215576c4.1138916,1.022583,8.3863525,0.6973877,12.6123047,0.0454102
	C1167.5063477,1218.8594971,1168.8201904,1218.6263428,1170.1212158,1218.390625z"/>
<path class="st0" d="M1222.177124,1128.9135742c-0.2883301,1.1580811-0.0219727,2.3708496,0.2498779,3.5279541
	c4.3818359,18.6295166,17.0565186,38.6004639,16.9061279,57.8920898c-0.048584,6.0736084-1.8060303,11.4117432-4.7030029,16.6699219
	c12.4442139-2.0690918,26.0845947-9.5806885,36.7657471-16.0606689
	c27.6324463-16.7668457,22.7165527-56.8198242-1.0340576-75.4801025c-5.824585-4.5723877-12.7425537-6.8164062-21.3320312-4.5887451
	c-9.029541,2.34375-16.5749512,8.3758545-23.8203125,14.2512207
	C1223.9321289,1126.1627197,1222.5765381,1127.3114014,1222.177124,1128.9135742z"/>
<path class="st0" d="M1229.7752686,1018.4225464c-2.0001221,1.230957-3.0498047,4.6978149-3.713501,8.5123901
	c-1.0426025,5.9916992-2.6102295,11.8676758-4.6762695,17.5876465c-3.0944824,8.567749-2.9284668,23.0760498-2.5802002,28.9008789
	c0.0552979,0.9237061,0.3133545,1.8157959,0.6923828,2.6600342c5.7272949,12.7553711,0.3006592,25.6435547,1.685791,39.5056152
	c0.201416,2.0131836,20.2017822-8.7412109,20.3887939-8.4029541c5.4890137-1.864624,7.1101074-7.1403809,12.3670654-9.6911621
	c0.2302246-0.1119385,0.4709473-0.225708,0.7209473-0.3410645c12.4654541-5.7496338,21.3652344-17.3647461,22.923584-31.00354
	c0.4685059-4.1011963,0.5098877-8.1396484-0.2169189-11.6081543c-2.0699463-9.897583-8.9025879-17.4188232-16.4025879-23.7619629
	c-0.2772217-0.2344971-0.5352783-0.4893799-0.7736816-0.7633057
	C1257.7359619,1027.1972656,1242.4786377,1010.6044922,1229.7752686,1018.4225464z"/>
<polygon class="st1" points="1054.6403809,1113.5380859 1006.0281372,1294.869751 1059.6391602,1351.9903564 
	1132.7711182,1370.1563721 1149.4453125,1353.1932373 1193.1236572,1099.1817627 "/>
<path class="st0" d="M1113.4609375,1157.4968262c-3.0925293-4.0703125-8.7214355-4.9475098-13.7165527-6.0076904
	c-18.3166504-3.8831787-35.1270752-14.4920654-46.520752-29.3493652c11.3179932,0.592041,20.5306396,8.7835693,30.4129639,14.335083
	c5.8604736,3.2867432,12.9818115,5.4412842,19.7504883,4.6751709c7.2008057-0.8134766,10.6329346-5.1591797,15.1586914-10.4973145
	c1.9945068-2.3546143,8.5001221-8.7563477,12.2099609-12.3688965c0.7697754-0.7496338,2.02771,0.041748,1.6837158,1.0595703
	c-0.7246094,2.1435547-1.9626465,5.1022949-4.0134277,8.5396729c-3.7678223,6.3103027-6.222168,10.3651123-5.0526123,18.1687012
	c0.8977051,6.0270996,3.6658936,11.8248291,7.0185547,16.8642578
	c11.9133301,17.9290771,27.5987549,33.3266602,45.7124023,44.9550781c4.4193115,3.9366455,26.7113037,7.3477783,33.6916504,5.416626
	c8.6447754-2.3864746,14.1793213-8.4914551,16.4371338-17.15979c1.7734375-6.810791,0.7775879-13.987915-1.059082-20.6940918
	c-3.4893799-12.7407227-4.8425293-20.0739746-11.0875244-31.5440674c-6.0455322-14.293457-5.2081299-30.3917236-6.4713135-45.855835
	c-0.1547852-1.880249-0.3520508-3.7634277-0.6025391-5.635498c-1.2463379-9.243042-3.7441406-18.682373-9.078125-26.4655762
	c-5.5880127-8.1505127-14.0600586-12.0179443-23.1695557-15.1456299c-20.458252-7.019043-42.5931396-7.0333252-63.8917236-7.0969238
	c-20.876709-0.059082-41.7512207,0.1595459-62.6097412,1.0545654c-9.8634033,0.4248047-19.8455811,1.4296875-28.5376587,5.9584961
	c-11.7354736,6.1149902-19.4907227,17.8203125-25.2112427,29.7510986
	c-13.2959595,27.7293701-28.4475098,65.3475342-36.9923096,94.8892822
	c-6.1045532,21.1109619-13.3775635,47.7156982-22.2178955,66.7325439
	c-23.227417,49.9716797-119.0488281,286.0524902-160.0704346,326.9624023
	c-9.8377075,9.80896-8.7277832,26.0429688,2.2658691,34.5180664l37.1896362,8.8232422
	c48.4577637,10.3994141,74.6575928,7.9373779,125.4180908-0.505249l40.0455933-10.1380615
	c0,0,23.4458008-4.199707,30.8425903-15.2561035c15.1613159-22.6575928,42.7432251-121.4273682,61.8126831-140.907959
	c-0.472168,0.4865723-7.8286133-5.5054932-8.5568848-6.1191406c-2.6815186-2.2612305-5.1851807-4.7434082-7.4796143-7.4001465
	c-4.3468018-5.0373535-7.9475098-10.7231445-10.6040039-16.8302002
	c12.2943115,5.7619629,21.2111816,15.2177734,33.2879639,20.2747803c13.0076904,5.4464111,27.869873,1.3538818,41.1768799-3.2958984
	c43.1745605-15.0821533,84.4244385-35.6624756,122.4442139-61.083252
	c-19.2198486,1.1210938-38.6079102-0.7526855-57.2554932-5.5327148
	c-12.3879395-3.1628418-25.3101807-8.2747803-32.2764893-19.0026855
	c-4.0994873-6.3164062-5.5201416-13.4555664-5.3519287-20.8845215c0.2427979-10.5649414,3.7069092-21.6982422,7.2756348-31.7960205
	c-8.3553467-6.3515625-15.2009277-14.6806641-19.8122559-24.1079102
	c-11.1538086,41.6177979-51.3427734,73.6561279-94.401123,75.2404785
	c14.9935303-11.8706055,34.68396-16.3897705,50.0689697-27.7421875
	c25.6324463-18.9055176,34.6287842-52.6431885,40.6612549-83.920166c0.6053467-3.1373291,1.1945801-6.3989258,0.4023438-9.4943848
	C1140.2142334,1187.0876465,1113.4609375,1157.4968262,1113.4609375,1157.4968262z"/>
<path class="st0" d="M1226.2747803,1222.3426514c-18.8991699,6.5317383-38.8413086,7.9317627-58.5821533,10.1063232
	l-0.3066406,0.0396729c-5.0953369,0.7054443-10.2572021,1.1583252-15.1651611,2.7918701
	c-0.642334,0.2137451-1.3016357,0.4591064-1.7456055,0.9674072c-0.4920654,0.560791-0.6276855,1.336792-0.7825928,2.0604248
	c-0.5413818,2.5895996-1.7062988,4.9523926-2.256958,7.53479c-0.5456543,2.5565186-0.7236328,5.1876221-0.6046143,7.8013916
	c0.5859375,12.9647217,7.6037598,25.0679932,18.8845215,31.5930176c15.5023193,8.9663086,36.3223877,3.9302979,53.1202393,2.0986328
	c11.5754395-1.2614746,23.1201172-2.7928467,34.6210938-4.5966797c20.4589844-3.2027588,40.715332-6.7332764,49.1947021-25.1853027
	c1.567749-3.4176025,2.7403564-7.3487549,3.4304199-11.8831787c2.2995605-15.1202393-3.1522217-30.7840576-12.6455078-42.7734375
	c-2.2553711-2.8430176-4.9885254-5.6663818-8.5578613-6.3212891c-7.9813232-1.4744873-20.6226807,8.5161133-27.3793945,11.9477539
	C1247.3461914,1213.6800537,1237.0506592,1218.6143799,1226.2747803,1222.3426514z"/>
<path class="st1" d="M1154.8206787,1351.2416992l-7.1291504,38.9283447c0,0-71.7277832,10.293335-111.0808105-16.6082764
	l8.9023438-33.8022461l52.2246094-21.7783203l24.9969482-31.9763184l13.3830566-37.1512451l23.0179443,46.5394287
	L1154.8206787,1351.2416992z"/>
<g>
	<polygon class="st3" points="287.470459,937.1448975 344.8637085,923.1177979 442.7293396,1101.6401367 390.193573,1218.9110107 	
		"/>
	<path class="st1" d="M389.5059204,1238.1169434L277.9203186,932.041626l70.6133118-17.2579346l102.2570801,186.5324707
		L389.5059204,1238.1169434z"/>
</g>
<path class="st0" d="M395.2137146,1327.5166016c3.7199707,1.6520996,7.5640869,3.0155029,11.5984192,3.1011963
	c4.7322693,0.0955811,9.3563538-1.602417,13.4558105-3.9660645c9.1506653-5.2666016,16.2370911-14.026123,19.4770508-24.0810547
	c-0.3379822,1.0526123-4.8804016,3.2280273-5.8245239,3.8007812c-13.2011719,8.0727539-27.4393311,14.7115479-42.1408386,19.5513916
	C392.9160767,1326.463623,394.065094,1327.005249,395.2137146,1327.5166016z"/>
<path class="st0" d="M364.4105225,1226.5118408c-5.1923523-7.2032471-10.6211548-14.6252441-18.3326111-19.0284424
	c-7.3360901-4.1870117-14.2509155-3.8493652-20.7413025-1.1000977
	c-26.4699097,11.2248535-40.9670105,46.796875-19.7590027,69.0863037
	c8.1981506,8.6148682,18.8578186,18.914917,29.7748108,23.9168701c-1.3512268-5.5526123-1.6355286-10.8947754-0.166687-16.4866943
	c4.6690979-17.7608643,21.2899475-32.9499512,29.9578552-48.9730225c0.538147-0.9953613,1.0851135-2.0430908,1.1087341-3.1789551
	C366.2846069,1229.1762695,365.3254395,1227.7832031,364.4105225,1226.5118408z"/>
<path class="st0" d="M313.963501,1295.0844727c-5.352356-4.8363037-14.476532-17.1647949-22.1764832-17.7990723
	c-3.4422607-0.2878418-6.6567688,1.6248779-9.4372559,3.6748047c-11.709198,8.6491699-20.6210938,21.6810303-22.2763062,36.1451416
	c-0.4959412,4.3377686-0.3982544,8.2415771,0.1903381,11.7719727c3.1920166,19.0649414,20.921936,27.3562012,38.9195862,35.3967285
	c10.1165771,4.5231934,20.341156,8.8068848,30.6611633,12.8502197
	c14.9758606,5.8687744,32.8485107,15.6834717,49.3249207,11.3092041
	c11.9896851-3.1835938,21.4530334-12.5541992,25.2219849-24.3188477c0.7606812-2.3717041,1.2528687-4.833252,1.3886414-7.3178711
	c0.1375427-2.5097656-0.343811-4.9707031-0.1958923-7.4847412c0.0379944-0.7034912,0.106781-1.4500732-0.2055054-2.0880127
	c-0.281311-0.5776367-0.8258057-0.9672852-1.3626404-1.3237305c-4.1019287-2.7236328-8.7312927-4.4260254-13.2366943-6.3438721
	l-0.2718506-0.112915c-17.5941467-6.9169922-35.5662537-13.1726074-51.3013-23.8828125
	C330.235321,1309.4501953,322.0063782,1302.3514404,313.963501,1295.0844727z"/>
<path class="st0" d="M276.7823792,1365.6676025c-3.9885559-1.845459-8.7163391-6.5991211-12.8053894-3.0467529
	c-3.2035217,2.8820801-5.1015625,8.3044434-6.6967468,12.2503662c-3.4341125,8.5101318-5.2952423,17.9100342-3.4463196,26.9941406
	c0.1129913,0.5679932,0.2416077,1.1296387,0.38797,1.6899414c3.3788147,13.1689453,14.3375244,23.30896,26.5881348,29.1960449
	c19.4226685,9.338623,47.2662048,15.2823486,68.8863525,14.2967529c5.5692749-0.2503662,11.282135-1.3756104,15.8612366-4.5522461
	c8.1352844-5.6322021,10.9076538-16.2000732,12.9557495-25.8841553c0.7207947-3.3959961,1.3704529-7.1702881-0.4153137-10.1512451
	c-2.5845337-4.324707-8.7540588-4.4958496-13.2189026-5.3287354c-23.3095093-4.354248-45.5384827-16.3006592-67.0482178-25.90271
	C290.7981567,1372.0852051,283.7806702,1368.9046631,276.7823792,1365.6676025z"/>
<path class="st4" d="M1255.7030029,1595.5509033"/>
<rect x="1098.6495361" y="1523.6517334" class="st0" width="300.0628662" height="91.258255"/>
<g>
	<path class="st5" d="M688.8587646,912.7520142l-77.3164673-415.403656c0,0,65.4130859-13.9778748,172.1228638-30.3799438
		c225.3978882-34.6452637,635.045166-80.1061707,1001.6671143-27.5l-7.6008301,438.6790466
		C1777.7314453,878.1474609,1236.6456299,795.0584106,688.8587646,912.7520142z"/>
	<path class="st1" d="M676.7091064,930.9959106l-82.9155273-445.4833679l14.5549927-3.1109619
		c0.6583862-0.1393127,67.0720215-14.2581482,172.994873-30.5394592
		c216.0130615-33.2009888,633.9668579-80.9271545,1006.1594849-27.5229492l13.3427734,1.9153442l-8.1357422,469.6515503
		l-17.2961426-2.6533203c-1.3481445-0.2056274-137.0675049-20.7388306-337.6699219-26.6772461
		c-184.9147949-5.4740601-464.3930664,0.6849365-745.6738892,61.1187134L676.7091064,930.9959106z M629.3162231,509.3208923
		l71.7036743,385.2419128c158.232605-32.8743286,410.6422119-68.2692871,738.1501465-58.5250244
		c160.9206543,4.7875366,280.6290283,18.90802,323.5809326,24.5927124l7.06604-407.90271
		c-364.8961182-49.8288879-772.0856934-3.1988831-983.8303223,29.3454285
		C709.7193604,493.7958069,654.2141113,504.3658752,629.3162231,509.3208923z"/>
</g>
<polygon class="st0" points="1622.0554199,473.098877 1627.7878418,570.7471313 1735.0412598,575.7144775 1739.7557373,465.5965271 
	"/>
<path class="st1" d="M901.0285645,611.802063c0,0,311.2788086-73.7816772,582.5192871-39.8706055l4.5513916,51.5622559
	c0,0-283.640625-35.7644043-573.9256592,39.1121216L901.0285645,611.802063z"/>
<path class="st1" d="M915.9578247,682.819458l3.5073853,39.7353516c0.0097656,0.1101685,0.0922852,0.1915894,0.2006226,0.1692505
	c7.8482666-1.6165771,267.9592896-54.4923706,569.0424194-24.2694702c0.1196289,0.0120239,0.2189941-0.0913696,0.201416-0.2102661
	l-7.1083984-48.0749512c-0.0119629-0.0808105-0.0615234-0.1421509-0.1424561-0.1540527
	c-6.338623-0.9316406-258.2646484-37.2299805-565.5563965,32.6063843
	C916.0119019,682.6422729,915.949646,682.7269287,915.9578247,682.819458z"/>
<path class="st1" d="M926.7297363,749.9085693l6.9102173,35.1152344l111.9711304-6.9966431
	c0,0-9.7774658-34.862915-9.8103027-34.8687134C1034.0874023,742.8546143,970.6934204,731.7894897,926.7297363,749.9085693z"/>
<polygon class="st1" points="819.1337891,567.0668335 678.348938,591.0412598 667.3099365,531.3909912 824.1027832,508.8904114 "/>
<path class="st0" d="M1251.8154297,1294.2185059c-24.4492188,3.8200684-50.2723389,9.8193359-75.1031494,7.8237305
	c-4.7559814-0.3834229-11.0582275-1.9064941-14.868042,1.7674561c-2.6303711,2.53125-3.0096436,6.5366211-3.2127686,10.1781006
	c-0.5866699,10.3818359-0.6820068,21.8588867,6.0174561,29.8066406c3.769043,4.4801025,9.2518311,7.1921387,14.8295898,8.9775391
	c21.6495361,6.9449463,51.5145264,8.5758057,73.7751465,4.4489746c14.0397949-2.5999756,27.9393311-9.8670654,34.9866943-22.2896729
	c0.3024902-0.5279541,0.5874023-1.0618896,0.8581543-1.6068115c4.3728027-8.7017822,5.0709229-18.7441406,3.9294434-28.3168945
	c-0.5322266-4.4394531-0.9654541-10.4591064-3.4208984-14.262207c-3.1689453-4.7261963-9.2696533-1.206665-13.821167-0.4326172
	C1267.8001709,1291.6702881,1259.8105469,1292.9650879,1251.8154297,1294.2185059z"/>
<path class="st0" d="M1689.7324219,1201.9970703c0.2518311-0.0054932,0.5058594-0.0162354,0.7519531-0.0666504
	c0.126709-0.0267334,0.2576904-0.0639648,0.3773193-0.1179199c0.4620361-0.2047119,0.7874756-0.6241455,1.1043701-1.0227051
	c2.9400635-3.6239014,7.2131348-6.1429443,11.8043213-6.9724121c2.7363281-0.4942627,4.6759033,1.1898193,2.8238525,3.5650635
	c-1.4342041,1.8359375-2.8632812,3.6738281-4.2955322,5.5045166c11.4785156,2.3880615,22.2016602,5.9854736,30.2617188,14.9222412
	c9.4106445,10.4259033,12.8658447,23.9661865,17.7449951,36.7558594c0.6867676,1.7993164,1.3999023,3.5792236,2.1411133,5.364502
	c0.1402588,0.3380127,0.2237549,0.6220703,0.4798584,0.8861084c4.578125-3.0808105,8.5319824-8.6716309,12.7259521-12.3250732
	c4.4072266-3.8453369,8.9543457-6.7624512,13.8371582-9.9912109l0.2642822-0.1829834l0.0744629-0.2978516
	c2.9221191-12.1525879,2.7247314-22.8978271-3.3562012-34.8267822c-4.4520264-8.7420654-12.8341064-13.9833984-21.479126-17.9698486
	c-31.6766357-14.6060791-66.8405762-5.2053223-91.2110596,18.2119141l-1.9697266,1.8945312l2.6677246-0.53479
	C1672.8613281,1203.1140137,1681.2020264,1202.2697754,1689.7324219,1201.9970703z"/>
<g>
	<path class="st5" d="M1569.9796143,914.5537109l222.729248,19.8272705
		c-14.9776611,133.8574219-14.8356934,134.3118896-31.5466309,202.8250732
		c-20.9343262,85.8277588-39.894165,102.6876221-39.894165,102.6876221l-106.1560059,45.9741211L1569.9796143,914.5537109z"/>
	<path class="st1" d="M1562.4810791,907.2924805l237.5015869,21.1421509l-1.6654053,14.887085
		c-14.0443115,125.5507202-14.3123779,127.9494019-30.774292,195.4404907
		c-20.8188477,85.3538818-39.8133545,104.1741943-41.9106445,106.0393066l-0.7873535,0.7004395l-115.1917725,49.887085
		L1562.4810791,907.2924805z M1728.3447266,1216.0360107c6.3602295-13.3022461,16.1098633-38.0466309,26.4366455-80.3863525
		c15.9578857-65.4245605,16.2628174-66.6743164,30.4819336-193.7883911l0.1715088-1.5341797l-207.9564209-18.512146
		l43.0924072,354.5314941l96.8441162-41.94104C1718.8743896,1232.7022705,1722.8618164,1227.5037842,1728.3447266,1216.0360107z"/>
</g>
<path class="st0" d="M1750.1177979,1490.0697021c-5.34021-4.7814941-8.4244385-10.9862061-10.1210938-17.8531494
	c-2.409668-9.7666016-2.0014648-20.8581543-1.2391357-31.024292c-9.2587891-3.7531738-17.6234131-9.6993408-24.2091064-17.2110596
	c0.1236572,41.0140381-28.8145752,80.4625244-67.9777832,92.6478271
	c10.8166504-14.6419678,27.7802734-23.7003174,39.0856934-37.963623
	c18.8376465-23.7561035,18.6955566-56.9929199,16.4436035-87.2304688c-0.2255859-3.0330811-0.4969482-6.1763916-1.9962158-8.8227539
	c-1.800293-3.1846924-5.095459-5.1673584-8.0385742-7.3392334c-10.8171387-7.9943848-18.2928467-20.3779297-20.3258057-33.6774902
	c-0.8369141-5.5010986-1.1573486-11.854126-5.5657959-15.2523193c-3.8553467-2.9688721-9.2452393-2.3720703-14.0985107-2.1013184
	c-17.7952881,0.9968262-35.8826904-4.5606689-50.0524902-15.3709717c10.5454102-2.2763672,21.050293,2.9534912,31.5126953,5.5911865
	c6.203125,1.559082,13.2823486,1.7640381,19.3100586-0.6265869c6.4127197-2.541748,8.4829102-7.3892822,11.3104248-13.4212646
	c1.2441406-2.6569824,5.6164551-10.1444092,8.1259766-14.3905029c0.526123-0.8902588,1.8856201-0.4685059,1.8186035,0.5628662
	c-0.1330566,2.1483154-0.5340576,5.1660156-1.5576172,8.8210449c-1.8891602,6.7362061-3.1335449,11.072998-0.1143799,17.9508057
	c2.3265381,5.3133545,6.3144531,9.9499512,10.6503906,13.7442627c15.4125977,13.5029297,33.65979,23.7401123,53.1986084,29.9094238
	c5.0410156,2.5153809,26.3708496,0.0942383,32.3026123-3.4193115c7.34729-4.3466797,10.9106445-11.3344727,10.8248291-19.8608398
	c-0.0679932-6.6989746-2.7713623-13.0445557-6.1297607-18.7478027
	c-6.3806152-10.8355713-9.4511719-17.2354736-18.0466309-26.2169189c-9.1159668-11.625-12.3581543-26.6231689-17.3721924-40.5155029
	c-0.6107178-1.6888428-1.2612305-3.369751-1.9578857-5.0270996c-3.4482422-8.1811523-8.0952148-16.2307129-14.9350586-22.052002
	c-7.1647949-6.095459-15.9118652-7.5373535-25.0601807-8.1407471c-20.5441895-1.3504639-40.8833008,4.1522217-60.4663086,9.4012451
	c-19.1942139,5.1479492-38.3172607,10.5505371-57.2572021,16.5705566
	c-8.9556885,2.8481445-17.8759766,6.2587891-24.7329102,12.5854492
	c-9.2575684,8.5422363-13.4655762,21.2285156-15.7480469,33.6149902
	c-5.3051758,28.7884521-9.8509521,67.1240234-10.3394775,96.3935547
	c-0.3476562,20.9158936-0.3997803,47.1702881-3.7825928,66.8441162
	c-8.8867188,51.6973877-26.5079346,92.0247803-54.0003662,139.8312988
	c-6.5936279,11.4630127-1.5285645,26.100708,10.6832275,31.1473389l78.3184814,32.3533936l81.3907471,33.6231689
	c11.7025146,4.8360596,25.100708-1.1916504,29.1409912-13.1923828c8.2827148-24.59375,18.8372803-48.4251709,31.5021973-71.0740967
	c-0.3125,0.5646973-8.564209-3.1070557-9.3861084-3.4893799c-3.0269775-1.4091797-5.9456787-3.0656738-8.7156982-4.9348145
	c-5.2487793-3.5445557-9.9735107-7.8708496-13.9359131-12.8195801c12.7307129,2.2299805,23.2790527,8.6950684,35.6342773,10.331543
	c13.307373,1.7623291,25.9415283-5.7010498,37.0080566-13.2888184
	c35.9064941-24.6147461,68.6745605-53.8011475,97.2689209-86.6295166
	c-17.3779297,5.8193359-35.6568604,8.9291992-53.9796143,9.1845703
	C1772.3366699,1499.6656494,1759.19104,1498.1894531,1750.1177979,1490.0697021z"/>
<g>
	<polygon class="st0" points="1767.4364014,952.2272339 1759.4368896,993.8783569 1730.0003662,991.633606 
		1735.2546387,949.6001587 	"/>
</g>
<g>
	<path class="st1" d="M1648.2053223,1219.7563477c6.1743164-55.6060791,8.3623047-152.7923584,8.3773193-153.8125
		l-13.1341553-0.1534424c-0.0150146,1.0151367-1.5698242,102.1665039-7.6888428,157.2755127L1648.2053223,1219.7563477z"/>
</g>
<g>
	<path class="st2" d="M1675.8964844,1072.4571533c0,0,1.1337891,84.2609863-7.7828369,143.4152832"/>
	<path class="st1" d="M1674.6230469,1213.3129883c8.8773193-58.894165,7.8520508-143.414917,7.8405762-144.2618408
		l-13.1345215,0.1398926c0.0112305,0.838623,1.6082764,87.8603516-7.1407471,145.9042969L1674.6230469,1213.3129883z"/>
</g>
<path class="st6" d="M1732.1030273,1367.354126c0,0-24.7463379-13.3902588-51.270752-31.0732422
	C1676.1712646,1333.173584,1707.2445068,1398.4273682,1732.1030273,1367.354126z"/>
<g>
	<g>
		<path class="st5" d="M555.2019653,872.3091431l-222.7292175,19.8272705
			c14.9776001,133.8574829,14.8356323,134.3119507,31.5466614,202.8250122
			c20.9342346,85.8278809,39.894165,102.6876221,39.894165,102.6876221l106.1559143,45.9741211L555.2019653,872.3091431z"/>
		<path class="st1" d="M516.5255737,1254.883667l-116.8416443-50.6016846l-0.9316101-0.8284912
			c-2.1256714-1.8905029-21.3764954-20.9440918-42.2796021-106.6518555
			c-16.481842-67.5721436-16.7503967-69.9724121-30.8061829-195.6262207l-1.7979431-16.0706787l240.2030029-21.3840942
			L516.5255737,1254.883667z M408.4247742,1191.1364746l95.1890564,41.2236328l42.7180786-351.4611816l-205.2562256,18.2706909
			l0.0318604,0.2791748c13.9465332,124.6842651,14.2135925,127.0663452,30.4587402,193.6720581
			C386.6644287,1155.0229492,401.802002,1183.6428223,408.4247742,1191.1364746z"/>
	</g>
</g>
<g>
	<polygon class="st0" points="357.7451477,909.982666 365.7446899,951.6337891 395.1811829,949.3890381 389.927002,907.3555908 	"/>
</g>
<g>
	<path class="st3" d="M475.1660461,1013.8989258c0,0,1.501709,114.3814697,7.7198181,177.3210449"/>
	<path class="st1" d="M476.3500061,1191.8654785c-6.1742249-62.4953613-7.7359924-176.7337646-7.7510681-177.880249
		l13.1341858-0.1725464c0.0150452,1.1410522,1.5697632,114.824646,7.6888428,176.7614136L476.3500061,1191.8654785z"/>
</g>
<g>
	<path class="st3" d="M449.2850647,1032.2445068c0,0-1.1337585,94.7005615,7.7828369,161.1838379"/>
	<path class="st1" d="M450.5585327,1194.3011475c-8.8773193-66.19104-7.8520813-161.1835938-7.8405457-162.135376
		l13.134491,0.1571045c-0.0112305,0.9425049-1.024292,94.9970703,7.7247925,160.2324219L450.5585327,1194.3011475z"/>
</g>
<path class="st0" d="M340.6759033,1457.2398682c-18.3227844-0.2553711-36.6017456-3.3651123-53.9797058-9.1845703
	c28.5944214,32.8283691,61.3625183,62.0147705,97.2689209,86.6296387
	c11.0665283,7.5876465,23.7006836,15.0510254,37.0081482,13.2888184
	c12.3551636-1.6364746,22.9035034-8.1016846,35.6342468-10.331543c-3.9624023,4.9486084-8.6871948,9.2749023-13.9358826,12.8195801
	c-2.7700195,1.8690186-5.6887207,3.5256348-8.7156982,4.9348145c-0.8219604,0.3822021-9.0736084,4.0539551-9.3861084,3.4892578
	c12.664856,22.6489258,23.2193909,46.4803467,31.5021667,71.0740967
	c4.0403137,12.0008545,17.4385376,18.0284424,29.1409302,13.1923828l81.3908386-33.6231689l78.3184204-32.3533936
	c12.211853-5.0466309,17.2769165-19.6843262,10.6832275-31.1473389
	c-27.4924316-47.8065186-45.1135864-88.1337891-54.0003052-139.8311768
	c-3.3828125-19.6739502-3.4349365-45.9282227-3.7825928-66.8442383
	c-0.4885864-29.2694092-5.0343628-67.6051025-10.3395386-96.3935547
	c-2.2824097-12.3864746-6.4904175-25.0727539-15.7480469-33.6148682
	c-6.8568726-6.3267822-15.7772217-9.7373047-24.7329102-12.5855713
	c-18.9399414-6.0198975-38.0629272-11.4226074-57.2572021-16.5705566
	c-19.5830078-5.2490234-39.9220581-10.751709-60.4662476-9.4012451c-9.1483459,0.6033936-17.8954468,2.0452881-25.0602112,8.1407471
	c-6.8399048,5.8212891-11.4868164,13.8708496-14.9350891,22.052002c-0.6966858,1.6574707-1.3471985,3.3383789-1.9578857,5.0272217
	c-5.0139771,13.8922119-8.2561951,28.8903809-17.3721313,40.5155029
	c-8.59552,8.9813232-11.6660156,15.3812256-18.0466919,26.2167969c-3.3583984,5.7032471-6.0617981,12.0488281-6.1297607,18.7479248
	c-0.0858154,8.5262451,3.4775696,15.5140381,10.8248596,19.8607178c5.9317322,3.5135498,27.2615967,5.9348145,32.3026123,3.4194336
	c19.5387573-6.1694336,37.7860107-16.4066162,53.1985779-29.9094238c4.335968-3.7944336,8.3238831-8.4310303,10.6504517-13.7443848
	c3.019104-6.8778076,1.7747192-11.2144775-0.1143799-17.9508057c-1.0235596-3.6550293-1.4245605-6.6726074-1.5576477-8.8209229
	c-0.0670776-1.0313721,1.2924194-1.4532471,1.8186035-0.5628662c2.509491,4.2460938,6.8818665,11.7333984,8.1259766,14.3903809
	c2.8275146,6.0319824,4.8977356,10.8796387,11.3104553,13.4213867c6.0276184,2.3905029,13.1069031,2.1856689,19.3099976,0.6264648
	c10.4623718-2.6376953,20.9673462-7.8675537,31.5127563-5.5910645
	c-14.1697998,10.8101807-32.2572021,16.3676758-50.0524902,15.3708496
	c-4.8533325-0.2706299-10.2431641-0.8675537-14.0985718,2.1013184c-4.4083862,3.3983154-4.7288818,9.7512207-5.5657654,15.2524414
	c-2.03302,13.2994385-9.5086365,25.6829834-20.3258057,33.6774902c-2.9431152,2.171875-6.2383423,4.1544189-8.0385742,7.3391113
	c-1.4992676,2.6463623-1.7706299,5.7896729-1.9962158,8.8227539c-2.2519531,30.2376709-2.3940735,63.4744873,16.4436035,87.2304688
	c11.3054199,14.2634277,28.2689819,23.3217773,39.0856628,37.963623
	c-39.1632385-12.1851807-68.1014404-51.6337891-67.9777832-92.6478271
	c-6.5856323,7.5117188-14.9503174,13.4580078-24.2091064,17.2111816
	c0.7622986,10.1661377,1.1705017,21.2575684-1.2390747,31.0241699c-1.6967468,6.8669434-4.7809448,13.0716553-10.1210938,17.8531494
	C365.9905396,1455.9448242,352.8448792,1457.4211426,340.6759033,1457.2398682z"/>
<g>
	<path class="st2" d="M2209.8671875,918.5390625h-115.7089844l-18.5488281,54.7631836h-79.0527344l112.1757812-310.0292969
		h87.4443359l112.1757812,310.0292969h-79.9365234L2209.8671875,918.5390625z M2190.4355469,860.2431641l-38.4228516-113.5009766
		l-37.9804688,113.5009766H2190.4355469z"/>
	<path class="st2" d="M2729.8945312,752.0419922c18.1074219,18.5488281,27.1611328,44.3154297,27.1611328,77.2866211v143.9736328
		h-75.078125v-133.815918c0-15.8989258-4.1962891-28.1889648-12.5869141-36.8769531
		c-8.3916016-8.6811523-19.9492188-13.0283203-34.6689453-13.0283203c-14.7255859,0-26.2773438,4.347168-34.6679688,13.0283203
		c-8.3916016,8.6879883-12.5869141,20.9780273-12.5869141,36.8769531v133.815918h-75.078125v-133.815918
		c0-15.8989258-4.1953125-28.1889648-12.5869141-36.8769531c-8.390625-8.6811523-19.9492188-13.0283203-34.6689453-13.0283203
		c-14.7255859,0-26.2773438,4.347168-34.6679688,13.0283203c-8.3916016,8.6879883-12.5869141,20.9780273-12.5869141,36.8769531
		v133.815918h-75.5195312V726.8686523h75.5195312v30.9145508c7.6533203-10.3027344,17.6660156-18.4726562,30.03125-24.5107422
		c12.3662109-6.03125,26.3466797-9.0537109,41.9560547-9.0537109c18.5488281,0,35.1103516,3.9746094,49.6835938,11.9243164
		c14.5742188,7.9492188,25.9814453,19.2871094,34.2275391,34.0058594
		c8.5361328-13.5390625,20.1630859-24.5795898,34.8886719-33.1225586
		c14.7197266-8.5361328,30.7636719-12.8076172,48.1386719-12.8076172
		C2687.421875,724.21875,2711.7880859,733.4931641,2729.8945312,752.0419922z"/>
	<path class="st2" d="M2916.0410156,733.9345703c12.953125-7.065918,28.1132812-10.5991211,45.4892578-10.5991211
		c20.3154297,0,38.7119141,5.1547852,55.2041016,15.4575195c16.4863281,10.309082,29.5146484,25.0283203,39.0849609,44.1635742
		c9.5644531,19.1420898,14.3535156,41.3691406,14.3535156,66.6870117c0,25.3251953-4.7890625,47.6279297-14.3535156,66.9082031
		c-9.5703125,19.2871094-22.5986328,34.1582031-39.0849609,44.6054688
		c-16.4921875,10.4545898-34.8886719,15.6782227-55.2041016,15.6782227c-17.0791016,0-32.1708984-3.5332031-45.2675781-10.5996094
		c-13.1044922-7.065918-23.3378906-16.1884766-30.6943359-27.3813477v151.9228516h-75.5195312V726.8686523h75.5195312v34.8891602
		C2892.9248047,750.2753906,2903.0820312,741.0009766,2916.0410156,733.9345703z M2977.6503906,805.2592773
		c-10.4550781-10.7441406-23.3378906-16.1196289-38.6435547-16.1196289c-15.015625,0-27.7539062,5.4511719-38.2021484,16.340332
		c-10.4541016,10.8959961-15.6777344,25.7666016-15.6777344,44.6054688c0,18.8452148,5.2236328,33.7163086,15.6777344,44.6054688
		c10.4482422,10.8959961,23.1865234,16.340332,38.2021484,16.340332s27.8232422-5.5205078,38.421875-16.5615234
		c10.5996094-11.0405273,15.8994141-25.9804688,15.8994141-44.8261719
		C2993.328125,830.8051758,2988.0976562,816.0102539,2977.6503906,805.2592773z"/>
	<path class="st2" d="M3185.4335938,646.4907227v326.8115234h-75.5195312V646.4907227H3185.4335938z"/>
	<path class="st2" d="M3245.7167969,689.550293c-8.3916016-7.7978516-12.5869141-17.4448242-12.5869141-28.9272461
		c0-11.7724609,4.1953125-21.5644531,12.5869141-29.3691406c8.390625-7.7973633,19.2109375-11.703125,32.4599609-11.703125
		c12.9521484,0,23.6279297,3.9057617,32.0185547,11.703125c8.3916016,7.8046875,12.5869141,17.5966797,12.5869141,29.3691406
		c0,11.4824219-4.1953125,21.1293945-12.5869141,28.9272461c-8.390625,7.8046875-19.0664062,11.703125-32.0185547,11.703125
		C3264.9277344,701.253418,3254.1074219,697.3549805,3245.7167969,689.550293z M3315.7158203,726.8686523v246.4335938h-75.5195312
		V726.8686523H3315.7158203z"/>
	<path class="st2" d="M3494.1367188,789.5810547h-40.6308594v183.7211914h-75.5195312V789.5810547h-27.3818359v-62.7124023
		h27.3818359v-7.0664062c0-30.3212891,8.6806641-53.3623047,26.0566406-69.1162109
		c17.3681641-15.7470703,42.8388672-23.6274414,76.4033203-23.6274414c5.5888672,0,9.7158203,0.1518555,12.3652344,0.4414062
		v64.0375977c-14.4287109-0.8833008-24.5869141,1.1801758-30.4726562,6.1831055
		c-5.8935547,5.0097656-8.8330078,13.9873047-8.8330078,26.9394531v2.2084961h40.6308594V789.5810547z"/>
	<path class="st2" d="M3781.1953125,726.8686523l-154.5732422,363.4672852h-81.2617188l56.5302734-125.4248047
		l-100.2519531-238.0424805h84.3525391L3642.9628906,881l56.5292969-154.1313477H3781.1953125z"/>
</g>
<g>
	<g>
		<path class="st2" d="M2026.6054688,1340.6923828c-8.7382812-4.84375-15.5976562-11.703125-20.5791016-20.5791016
			c-4.9853516-8.8720703-7.4746094-19.1103516-7.4746094-30.7148438c0-11.6015625,2.5595703-21.8398438,7.6787109-30.7158203
			c5.1191406-8.8720703,12.1132812-15.7314453,20.9892578-20.5791016c8.8720703-4.84375,18.7685547-7.2695312,29.6914062-7.2695312
			c10.9199219,0,20.8154297,2.4257812,29.6914062,7.2695312c8.8720703,4.8476562,15.8691406,11.7070312,20.9882812,20.5791016
			c5.1201172,8.8759766,7.6796875,19.1142578,7.6796875,30.7158203c0,11.6044922-2.6308594,21.8427734-7.8837891,30.7148438
			c-5.2568359,8.8759766-12.3564453,15.7353516-21.2958984,20.5791016
			c-8.9433594,4.8476562-18.9414062,7.2695312-29.9990234,7.2695312
			C2045.1689453,1347.9619141,2035.3398438,1345.5400391,2026.6054688,1340.6923828z M2070.7324219,1319.1923828
			c4.5722656-2.5244141,8.2236328-6.3125,10.9560547-11.3652344c2.7285156-5.0488281,4.0947266-11.1914062,4.0947266-18.4287109
			c0-10.7822266-2.8349609-19.0751953-8.4980469-24.8798828c-5.6660156-5.8007812-12.5927734-8.7021484-20.7832031-8.7021484
			c-8.1914062,0-15.0507812,2.9013672-20.5800781,8.7021484c-5.5283203,5.8046875-8.2929688,14.0976562-8.2929688,24.8798828
			c0,10.7851562,2.6943359,19.078125,8.0888672,24.8789062c5.390625,5.8037109,12.1835938,8.703125,20.3740234,8.703125
			C2061.2783203,1322.9804688,2066.1572266,1321.7197266,2070.7324219,1319.1923828z"/>
		<path class="st2" d="M2231.9853516,1243.8369141c8.3251953,8.5332031,12.4912109,20.4453125,12.4912109,35.7324219v66.5498047
			h-28.6679688v-62.6591797c0-9.0097656-2.2519531-15.9365234-6.7568359-20.7841797
			c-4.5048828-4.84375-10.6484375-7.2695312-18.4296875-7.2695312c-7.9189453,0-14.1640625,2.4257812-18.7363281,7.2695312
			c-4.5751953,4.8476562-6.859375,11.7744141-6.859375,20.7841797v62.6591797h-28.6679688v-113.4414062h28.6679688v14.1289062
			c3.8203125-4.9150391,8.7021484-8.7705078,14.640625-11.5693359c5.9384766-2.796875,12.4560547-4.1982422,19.5556641-4.1982422
			C2212.7373047,1231.0390625,2223.6572266,1235.3076172,2231.9853516,1243.8369141z"/>
		<path class="st2" d="M2376.3457031,1297.9980469h-82.9306641c0.6806641,8.1914062,3.5478516,14.609375,8.5996094,19.2490234
			c5.0488281,4.6425781,11.2626953,6.9619141,18.6337891,6.9619141c10.6484375,0,18.2246094-4.5722656,22.7294922-13.7197266
			h30.9199219c-3.2763672,10.9228516-9.5566406,19.8974609-18.8388672,26.9267578
			c-9.2841797,7.0332031-20.6816406,10.5458984-34.1962891,10.5458984c-10.9228516,0-20.7167969-2.421875-29.3837891-7.2695312
			c-8.6708984-4.84375-15.4277344-11.703125-20.2724609-20.5791016c-4.8466797-8.8720703-7.2685547-19.1103516-7.2685547-30.7148438
			c0-11.7392578,2.3867188-22.0449219,7.1660156-30.9199219c4.7773438-8.8730469,11.4677734-15.6972656,20.0673828-20.4775391
			c8.6005859-4.7763672,18.4970703-7.1669922,29.6914062-7.1669922c10.7832031,0,20.4423828,2.3232422,28.9755859,6.9628906
			c8.5292969,4.6425781,15.1523438,11.2294922,19.8623047,19.7597656
			c4.7099609,8.5332031,7.0644531,18.3271484,7.0644531,29.3847656
			C2377.1650391,1291.0361328,2376.8896484,1294.7226562,2376.3457031,1297.9980469z M2347.4736328,1278.75
			c-0.1376953-7.3710938-2.7998047-13.2744141-7.9863281-17.7119141
			c-5.1894531-4.4345703-11.5371094-6.6552734-19.0429688-6.6552734c-7.0996094,0-13.0732422,2.1503906-17.9179688,6.4501953
			c-4.8466797,4.2998047-7.8164062,10.2734375-8.9072266,17.9169922H2347.4736328z"/>
		<path class="st2" d="M2485.2802734,1260.9355469v24.1621094h-86.8222656v-24.1621094H2485.2802734z"/>
		<path class="st2" d="M2517.2226562,1258.5810547c4.7773438-8.8056641,11.3974609-15.6298828,19.8632812-20.4775391
			c8.4628906-4.84375,18.1533203-7.2695312,29.0771484-7.2695312c14.0585938,0,25.6982422,3.5166016,34.9130859,10.5458984
			c9.2138672,7.0322266,15.3896484,16.8935547,18.53125,29.5888672H2588.6875
			c-1.6386719-4.9140625-4.4023438-8.7695312-8.2929688-11.5693359c-3.890625-2.7958984-8.703125-4.1972656-14.4365234-4.1972656
			c-8.1904297,0-14.6757812,2.96875-19.453125,8.9072266c-4.7802734,5.9384766-7.1669922,14.3691406-7.1669922,25.2890625
			c0,10.7851562,2.3867188,19.1455078,7.1669922,25.0839844c4.7773438,5.9384766,11.2626953,8.9072266,19.453125,8.9072266
			c11.6015625,0,19.1777344-5.1865234,22.7294922-15.5625h30.9199219
			c-3.1416016,12.2861328-9.3525391,22.0478516-18.6337891,29.2822266
			c-9.2851562,7.2373047-20.8867188,10.8525391-34.8105469,10.8525391c-10.9238281,0-20.6142578-2.421875-29.0771484-7.2695312
			c-8.4658203-4.84375-15.0859375-11.671875-19.8632812-20.4765625c-4.7792969-8.8046875-7.1660156-19.0751953-7.1660156-30.8173828
			C2510.0566406,1277.6591797,2512.4433594,1267.3857422,2517.2226562,1258.5810547z"/>
		<path class="st2" d="M2669.3642578,1194.5908203v151.5283203h-28.6679688v-151.5283203H2669.3642578z"/>
		<path class="st2" d="M2699.5673828,1214.3505859c-3.3466797-3.2060547-5.0166016-7.1992188-5.0166016-11.9785156
			c0-4.7773438,1.6699219-8.7705078,5.0166016-11.9794922c3.34375-3.2060547,7.5410156-4.8115234,12.59375-4.8115234
			c5.0488281,0,9.2460938,1.6054688,12.5927734,4.8115234c3.34375,3.2089844,5.0166016,7.2021484,5.0166016,11.9794922
			c0,4.7792969-1.6728516,8.7724609-5.0166016,11.9785156c-3.3466797,3.2089844-7.5439453,4.8125-12.5927734,4.8125
			C2707.1083984,1219.1630859,2702.9111328,1217.5595703,2699.5673828,1214.3505859z M2726.2900391,1232.6777344v113.4414062
			h-28.6679688v-113.4414062H2726.2900391z"/>
		<path class="st2" d="M2754.3427734,1258.5810547c4.7773438-8.8056641,11.3974609-15.6298828,19.8632812-20.4775391
			c8.4628906-4.84375,18.1533203-7.2695312,29.0771484-7.2695312c14.0585938,0,25.6982422,3.5166016,34.9130859,10.5458984
			c9.2138672,7.0322266,15.3896484,16.8935547,18.53125,29.5888672h-30.9199219
			c-1.6386719-4.9140625-4.4023438-8.7695312-8.2929688-11.5693359c-3.890625-2.7958984-8.703125-4.1972656-14.4365234-4.1972656
			c-8.1904297,0-14.6757812,2.96875-19.453125,8.9072266c-4.7802734,5.9384766-7.1669922,14.3691406-7.1669922,25.2890625
			c0,10.7851562,2.3867188,19.1455078,7.1669922,25.0839844c4.7773438,5.9384766,11.2626953,8.9072266,19.453125,8.9072266
			c11.6015625,0,19.1777344-5.1865234,22.7294922-15.5625h30.9199219
			c-3.1416016,12.2861328-9.3525391,22.0478516-18.6337891,29.2822266
			c-9.2851562,7.2373047-20.8867188,10.8525391-34.8105469,10.8525391c-10.9238281,0-20.6142578-2.421875-29.0771484-7.2695312
			c-8.4658203-4.84375-15.0859375-11.671875-19.8632812-20.4765625c-4.7792969-8.8046875-7.1660156-19.0751953-7.1660156-30.8173828
			C2747.1767578,1277.6591797,2749.5634766,1267.3857422,2754.3427734,1258.5810547z"/>
		<path class="st2" d="M2944.9804688,1346.1191406l-38.4960938-48.3251953v48.3251953h-28.6679688v-151.5283203h28.6679688
			v86.2070312l38.0869141-48.1201172h37.2675781L2931.875,1289.6025391l50.3730469,56.5166016H2944.9804688z"/>
		<path class="st2" d="M3090.0566406,1236.0556641c6.4824219-3.4804688,13.8896484-5.2216797,22.2177734-5.2216797
			c9.6914062,0,18.4609375,2.390625,26.3125,7.1669922c7.8486328,4.7802734,14.0585938,11.5693359,18.6337891,20.375
			c4.5722656,8.8046875,6.8603516,19.0117188,6.8603516,30.6123047c0,11.6054688-2.2880859,21.8789062-6.8603516,30.8183594
			c-4.5751953,8.9423828-10.7851562,15.8691406-18.6337891,20.7841797c-7.8515625,4.9140625-16.6210938,7.3710938-26.3125,7.3710938
			c-8.328125,0-15.6650391-1.7080078-22.0126953-5.1191406c-6.3476562-3.4101562-11.5019531-7.7109375-15.4599609-12.9003906
			v70.2353516h-28.6679688v-167.5h28.6679688v16.3808594
			C3078.4873047,1243.8720703,3083.5712891,1239.5371094,3090.0566406,1236.0556641z M3130.6005859,1271.2763672
			c-2.7988281-4.9814453-6.4853516-8.7695312-11.0576172-11.3652344c-4.5751953-2.5908203-9.5214844-3.890625-14.8457031-3.890625
			c-5.1894531,0-10.0683594,1.3310547-14.640625,3.9931641c-4.5751953,2.6621094-8.2607422,6.5205078-11.0576172,11.5693359
			c-2.7998047,5.0527344-4.1972656,10.9902344-4.1972656,17.8154297c0,6.8271484,1.3974609,12.765625,4.1972656,17.8144531
			c2.796875,5.0527344,6.4824219,8.9072266,11.0576172,11.5693359c4.5722656,2.6621094,9.4511719,3.9931641,14.640625,3.9931641
			c5.3242188,0,10.2705078-1.3632812,14.8457031-4.0957031c4.5722656-2.7285156,8.2587891-6.6191406,11.0576172-11.6708984
			c2.796875-5.0488281,4.1982422-11.0576172,4.1982422-18.0205078
			C3134.7988281,1282.1640625,3133.3974609,1276.2607422,3130.6005859,1271.2763672z"/>
		<path class="st2" d="M3228.0693359,1236.1582031c5.9384766-3.4101562,12.7285156-5.1191406,20.375-5.1191406v30.1015625
			h-7.5761719c-9.0097656,0-15.8027344,2.1171875-20.375,6.3476562c-4.5751953,4.2324219-6.859375,11.6044922-6.859375,22.1142578
			v56.5166016h-28.6679688v-113.4414062h28.6679688v17.609375
			C3217.3193359,1244.2822266,3222.1318359,1239.5722656,3228.0693359,1236.1582031z"/>
		<path class="st2" d="M3288.5771484,1340.6923828c-8.7382812-4.84375-15.5976562-11.703125-20.5791016-20.5791016
			c-4.9853516-8.8720703-7.4746094-19.1103516-7.4746094-30.7148438c0-11.6015625,2.5595703-21.8398438,7.6787109-30.7158203
			c5.1191406-8.8720703,12.1132812-15.7314453,20.9892578-20.5791016c8.8720703-4.84375,18.7685547-7.2695312,29.6914062-7.2695312
			c10.9199219,0,20.8154297,2.4257812,29.6914062,7.2695312c8.8720703,4.8476562,15.8691406,11.7070312,20.9882812,20.5791016
			c5.1201172,8.8759766,7.6796875,19.1142578,7.6796875,30.7158203c0,11.6044922-2.6308594,21.8427734-7.8837891,30.7148438
			c-5.2568359,8.8759766-12.3564453,15.7353516-21.2958984,20.5791016
			c-8.9433594,4.8476562-18.9414062,7.2695312-29.9990234,7.2695312
			C3307.140625,1347.9619141,3297.3115234,1345.5400391,3288.5771484,1340.6923828z M3332.7041016,1319.1923828
			c4.5722656-2.5244141,8.2236328-6.3125,10.9560547-11.3652344c2.7285156-5.0488281,4.0947266-11.1914062,4.0947266-18.4287109
			c0-10.7822266-2.8349609-19.0751953-8.4980469-24.8798828c-5.6660156-5.8007812-12.5927734-8.7021484-20.7832031-8.7021484
			c-8.1914062,0-15.0507812,2.9013672-20.5800781,8.7021484c-5.5283203,5.8046875-8.2929688,14.0976562-8.2929688,24.8798828
			c0,10.7851562,2.6943359,19.078125,8.0888672,24.8789062c5.390625,5.8037109,12.1835938,8.703125,20.3740234,8.703125
			C3323.25,1322.9804688,3328.1289062,1321.7197266,3332.7041016,1319.1923828z"/>
		<path class="st2" d="M3431.7070312,1256.2255859v54.8779297c0,3.8232422,0.921875,6.5878906,2.7646484,8.2929688
			c1.8427734,1.7089844,4.9462891,2.5595703,9.3173828,2.5595703h13.3095703v24.1630859h-18.0195312
			c-24.1630859,0-36.2441406-11.7392578-36.2441406-35.2197266v-54.6738281h-13.5146484v-23.5478516h13.5146484v-28.0537109
			h28.8720703v28.0537109h25.3916016v23.5478516H3431.7070312z"/>
		<path class="st2" d="M3582.4140625,1297.9980469h-82.9306641c0.6806641,8.1914062,3.5478516,14.609375,8.5996094,19.2490234
			c5.0488281,4.6425781,11.2626953,6.9619141,18.6337891,6.9619141c10.6484375,0,18.2246094-4.5722656,22.7294922-13.7197266
			h30.9199219c-3.2763672,10.9228516-9.5566406,19.8974609-18.8388672,26.9267578
			c-9.2841797,7.0332031-20.6816406,10.5458984-34.1962891,10.5458984c-10.9228516,0-20.7167969-2.421875-29.3837891-7.2695312
			c-8.6708984-4.84375-15.4277344-11.703125-20.2724609-20.5791016c-4.8466797-8.8720703-7.2685547-19.1103516-7.2685547-30.7148438
			c0-11.7392578,2.3867188-22.0449219,7.1660156-30.9199219c4.7773438-8.8730469,11.4677734-15.6972656,20.0673828-20.4775391
			c8.6005859-4.7763672,18.4970703-7.1669922,29.6914062-7.1669922c10.7832031,0,20.4423828,2.3232422,28.9755859,6.9628906
			c8.5292969,4.6425781,15.1523438,11.2294922,19.8623047,19.7597656
			c4.7099609,8.5332031,7.0644531,18.3271484,7.0644531,29.3847656
			C3583.2333984,1291.0361328,3582.9580078,1294.7226562,3582.4140625,1297.9980469z M3553.5419922,1278.75
			c-0.1376953-7.3710938-2.7998047-13.2744141-7.9863281-17.7119141
			c-5.1894531-4.4345703-11.5371094-6.6552734-19.0429688-6.6552734c-7.0996094,0-13.0732422,2.1503906-17.9179688,6.4501953
			c-4.8466797,4.2998047-7.8164062,10.2734375-8.9072266,17.9169922H3553.5419922z"/>
		<path class="st2" d="M3622.546875,1342.9453125c-7.3720703-3.34375-13.2080078-7.8837891-17.5078125-13.6171875
			c-4.3007812-5.7333984-6.6552734-12.0810547-7.0644531-19.0439453h28.8720703
			c0.5439453,4.3710938,2.6943359,7.9863281,6.4501953,10.8535156c3.7529297,2.8662109,8.4277344,4.2998047,14.0263672,4.2998047
			c5.4589844,0,9.7265625-1.0908203,12.7978516-3.2763672c3.0722656-2.1816406,4.6074219-4.9814453,4.6074219-8.3955078
			c0-3.6855469-1.8779297-6.4501953-5.6308594-8.2929688c-3.7558594-1.8427734-9.7265625-3.8554688-17.9169922-6.0410156
			c-8.4658203-2.0478516-15.3935547-4.1621094-20.7841797-6.3476562
			c-5.3945312-2.1816406-10.0341797-5.5283203-13.9248047-10.0332031
			c-3.8896484-4.5048828-5.8349609-10.578125-5.8349609-18.2246094c0-6.2773438,1.8076172-12.0107422,5.4257812-17.2011719
			c3.6152344-5.1855469,8.8046875-9.28125,15.5625-12.2861328c6.7578125-3.0009766,14.7080078-4.5048828,23.8554688-4.5048828
			c13.5146484,0,24.296875,3.3789062,32.3535156,10.1367188c8.0527344,6.7568359,12.4912109,15.8691406,13.3095703,27.3359375
			h-27.4384766c-0.4091797-4.5048828-2.2880859-8.0878906-5.6308594-10.75
			c-3.3466797-2.6621094-7.8164062-3.9931641-13.4130859-3.9931641c-5.1894531,0-9.1826172,0.9570312-11.9785156,2.8671875
			c-2.7998047,1.9130859-4.1982422,4.5751953-4.1982422,7.9853516c0,3.8242188,1.9101562,6.7255859,5.734375,8.703125
			c3.8193359,1.9804688,9.7578125,3.9931641,17.8144531,6.0410156c8.1904297,2.046875,14.9482422,4.1650391,20.2724609,6.3476562
			c5.3232422,2.1855469,9.9306641,5.5634766,13.8212891,10.1357422c3.890625,4.5751953,5.9033203,10.6162109,6.0410156,18.1220703
			c0,6.5527344-1.8115234,12.4238281-5.4267578,17.6103516c-3.6181641,5.1894531-8.8046875,9.25-15.5625,12.1835938
			c-6.7568359,2.9335938-14.640625,4.4023438-23.6503906,4.4023438
			C3638.2431641,1347.9619141,3629.9179688,1346.2890625,3622.546875,1342.9453125z"/>
		<path class="st2" d="M3749.0917969,1256.2255859v54.8779297c0,3.8232422,0.921875,6.5878906,2.7646484,8.2929688
			c1.8427734,1.7089844,4.9462891,2.5595703,9.3173828,2.5595703h13.3095703v24.1630859h-18.0195312
			c-24.1630859,0-36.2441406-11.7392578-36.2441406-35.2197266v-54.6738281h-13.5146484v-23.5478516h13.5146484v-28.0537109
			h28.8720703v28.0537109h25.3916016v23.5478516H3749.0917969z"/>
	</g>
</g>
</svg>
