<?xml version="1.0" encoding="utf-8"?>
<!-- Generator: Adobe Illustrator 26.0.1, SVG Export Plug-In . SVG Version: 6.00 Build 0)  -->
<svg version="1.1" id="Layer_1" xmlns="http://www.w3.org/2000/svg" xmlns:xlink="http://www.w3.org/1999/xlink" x="0px" y="0px"
	 viewBox="0 0 3000 3000" style="enable-background:new 0 0 3000 3000;" xml:space="preserve">
<style type="text/css">
	.st0{fill:#0C3F75;}
	.st1{fill:#FFFFFF;}
	.st2{fill:#ADADAD;}
	.st3{fill:#FC5E47;}
	.st4{fill:none;stroke:#FFFFFF;stroke-miterlimit:10;}
	.st5{fill:#DD6545;}
</style>
<path class="st0" d="M840.4281006,2042.3875732h1318.6907959c17.4318848,0,31.5654297-13.9301758,31.5654297-31.1112061V310.5544434
	c0-17.1809998-14.1335449-31.111145-31.5654297-31.111145H840.4281006c-17.4318848,0-31.5654297,13.9301453-31.5654297,31.111145
	v1700.7219238C808.8626709,2028.4573975,822.9962158,2042.3875732,840.4281006,2042.3875732z"/>
<path class="st1" d="M1350.9145508,483.3129883c0,0,71.9854736,393.1516724,127.3590088,437.4505005l238.105957-166.1204834
	c0,0-77.5228271-166.1204224-71.9854736-426.3757629L1350.9145508,483.3129883z"/>
<path class="st2" d="M1407.2747803,536.0830688l-6.9321289-15.5031128
	c0.4290771-0.1928101,43.4443359-19.5538635,75.9494629-44.1409912l10.244873,13.545166
	C1452.4522705,515.7632446,1409.1032715,535.2652588,1407.2747803,536.0830688z"/>
<path class="st2" d="M1409.2230225,571.6449585l18.0477295,63.1669312c0,0,95.65271-55.9478149,160.6243896-79.4098511
	l-16.2429199-66.7764282L1409.2230225,571.6449585z"/>
<path class="st2" d="M1441.7088623,667.2977295l108.2861328-48.7287598l9.0239258,16.2429199l50.5334473-23.4619751
	l16.2429199,37.9001465c0,0-135.357666,54.1430054-160.6243896,83.0193481L1441.7088623,667.2977295z"/>
<rect x="1483.1086426" y="761.8890991" transform="matrix(0.8759477 -0.482406 0.482406 0.8759477 -180.3612061 824.5246582)" class="st2" width="59.7770157" height="2.1228499"/>
<path class="st1" d="M1122.8554688,1312.7139893c0,0-188.2698364-105.2095947-343.3155518-227.03125
	c0,0,193.8071899-88.5975952,271.3300781-343.3156128l265.2288818,137.822937
	C1316.098877,880.1900635,1261.2891846,1224.1164551,1122.8554688,1312.7139893z"/>
<path class="st2" d="M1041.9963379,876.8045044c0,0-18.5093994,50.9009399-41.6461792,69.4103394
	c0,0,106.4291382,106.4291992,189.7216187,106.4291992c0,0,50.9008789-46.2735596,60.1556396-83.2924194L1041.9963379,876.8045044z"
	/>
<path class="st2" d="M977.2133789,978.6063232c0,0,97.1744385,101.8018799,175.8394775,111.0565186l-25.5397949,43.3765869
	c0,0-85.5167236-29.4945068-117.9082031-66.5133057l-19.2542114,21.394165c0,0-57.7525635-28.9707031-57.7525635-61.3621826
	L977.2133789,978.6063232z"/>
<path class="st2" d="M954.0819702,1155.1264648c-0.2197266,0-0.4415894-0.0145264-0.6654663-0.0426025
	c-38.3820801-4.7969971-88.8810425-54.9102783-91.012085-57.0413818c-2.0730591-2.0720215-2.0730591-5.4312744,0-7.5043945
	c2.0688477-2.0709229,5.4313354-2.0718994,7.5043335-0.0009766c0.4954834,0.49646,50.0511475,49.6687012,84.8262329,54.0158691
	c2.9063721,0.3626709,4.9711304,3.0151367,4.6062622,5.923584
	C959.0054321,1153.1611328,956.7188721,1155.1264648,954.0819702,1155.1264648z"/>
<path class="st2" d="M1119.3271484,869.9151611c-0.4934082,0-0.9951172-0.069458-1.4904785-0.2145996
	c-23.5931396-6.8980103-51.4318848-27.7340088-52.6052246-28.618103c-2.3404541-1.762085-2.80896-5.0892944-1.046875-7.4307861
	c1.762085-2.3404541,5.0872803-2.8120728,7.4298096-1.0489502c0.2735596,0.2052002,27.4799805,20.5592651,49.2011719,26.9110107
	c2.8131104,0.8219604,4.4259033,3.7697754,3.6029053,6.5828857
	C1123.7406006,868.4121704,1121.6240234,869.9151611,1119.3271484,869.9151611z"/>
<path class="st0" d="M1739.5935059,722.0429688l-25.4732666-70.0517578c0,0-40.3328857-14.859436-59.4378662,4.2455444
	c0,0-10.1685791-170.2863159-204.8482666-94.4636841c-201.6641846,78.5428467-100.8321533,268.5316772-100.8321533,268.5316772
	l153.9016113,85.9725952l223.9533691-143.2876587L1739.5935059,722.0429688z"/>
<path class="st1" d="M1030.8511963,1442.4753418l138.4337158-83.0601807c0,0,71.9854736,188.2697754,177.1950684,215.956543
	c0,0-172.6072998,158.1760254-193.8071289,149.5084229
	C1083.5820312,1696.6320801,1030.8511963,1442.4753418,1030.8511963,1442.4753418z"/>
<path class="st2" d="M1065.8203125,1457.9423828l97.1745605-46.2735596c0,0,10.8778076,39.5491943,34.2283936,65.0224609
	c0,0-50.9467773,38.210083-99.0114746,64.5435791L1065.8203125,1457.9423828z"/>
<path class="st2" d="M1171.4907227,1659.9355469c-2.0212402,0-3.9511719-1.15979-4.838501-3.1209717
	c-1.2084961-2.6700439-0.0227051-5.8137207,2.6473389-7.0223389c0.427002-0.192749,42.8702393-19.5891113,62.8106689-44.7348633
	c1.8200684-2.2969971,5.1556396-2.6824951,7.456665-0.8613281c2.2947998,1.821167,2.6804199,5.159668,0.8602295,7.4555664
	c-21.5532227,27.180542-64.9188232,46.9820557-66.7556152,47.8123779
	C1172.9625244,1659.7841797,1172.220459,1659.9355469,1171.4907227,1659.9355469z"/>
<path class="st3" d="M538.0467529,2168.0974121c63.46875,0,115.1065063,51.6376953,115.1065063,115.1064453
	c0,15.8918457,12.8848267,28.7768555,28.7766113,28.7768555H873.291687c13.9246216,0,25.8399048-9.9624023,28.3129272-23.6621094
	c9.6530762-53.3378906,55.9233398-92.0627441,110.0200195-92.0627441s100.3809814,38.7248535,110.0340576,92.0766602
	c2.4730225,13.685791,14.4023438,23.6481934,28.3129883,23.6481934h211.4688721
	c13.9245605,0,25.8399658-9.9624023,28.3129883-23.6621094c9.6530762-53.3378906,55.9232178-92.0627441,110.0200195-92.0627441
	c54.0966797,0,100.3668213,38.7248535,110.0200195,92.0627441c2.4729004,13.699707,14.3883057,23.6621094,28.3128662,23.6621094
	h211.4688721c13.9106445,0,25.8399658-9.9624023,28.3129883-23.6481934
	c9.6530762-53.3518066,55.9373779-92.0766602,110.0340576-92.0766602s100.3669434,38.7248535,110.0200195,92.0627441
	c2.4729004,13.699707,14.3884277,23.6621094,28.3129883,23.6621094h191.3618164
	c15.8916016,0,28.7766113-12.8850098,28.7766113-28.7768555c0-63.46875,51.6376953-115.1064453,115.1064453-115.1064453
	c15.8918457,0,28.7766113-12.8847656,28.7766113-28.7766113v-150.4731445c0-14.3320312-10.5522461-26.4862061-24.7580566-28.4956055
	c-54.9677734-7.7561035-96.418457-55.206665-96.418457-110.3852539c0-55.1787109,41.4506836-102.6291504,96.418457-110.385376
	c14.2058105-2.0092773,24.7580566-14.1635742,24.7580566-28.4956055v-181.6103516
	c0-14.3321533-10.5522461-26.4863281-24.7580566-28.4956055c-54.9677734-7.7562256-96.418457-55.2208252-96.418457-110.385376
	s41.4506836-102.6151123,96.4326172-110.385376c14.1916504-2.0092773,24.7438965-14.1634521,24.7438965-28.4956055v-181.5961914
	c0-14.3321533-10.5522461-26.4863281-24.7438965-28.4956055c-54.9819336-7.7702637-96.4326172-55.2208252-96.4326172-110.385376
	c0-55.1646118,41.4506836-102.6291504,96.418457-110.385376c14.2058105-2.0092773,24.7580566-14.1635132,24.7580566-28.4956055
	V610.7449951c0-14.3320923-10.5522461-26.4862671-24.7580566-28.4956055
	c-54.9677734-7.7561646-96.418457-55.2067261-96.418457-110.3853149c0-55.1786499,41.4506836-102.6291504,96.418457-110.385376
	c14.2058105-2.0093079,24.7580566-14.1634827,24.7580566-28.4956055V182.5099945
	c0-15.8917847-12.8847656-28.7766266-28.7766113-28.7766266c-63.46875,0-115.1064453-51.6377563-115.1064453-115.1065216
	c0-15.8917828-12.8850098-28.7766304-28.7766113-28.7766304h-191.3618164c-13.9245605,0-25.8400879,9.9622221-28.3129883,23.6620331
	c-9.6530762,53.3379364-55.9233398,92.0627365-110.0200195,92.0627365s-100.3809814-38.7248001-110.0340576-92.0767899
	c-2.4730225-13.6857586-14.4023438-23.6479797-28.3129883-23.6479797h-211.4688721
	c-13.9245605,0-25.8399658,9.9622221-28.3128662,23.6620331c-9.6531982,53.3379364-55.9233398,92.0627365-110.0200195,92.0627365
	c-54.0968018,0-100.3669434-38.7248001-110.0200195-92.0627365c-2.4730225-13.6998119-14.3884277-23.6620331-28.3129883-23.6620331
	h-211.4688721c-13.9106445,0-25.8399658,9.9622221-28.3129883,23.6479797
	c-9.6530762,53.3519897-55.9373779,92.0767899-110.0340576,92.0767899S911.2576904,86.8501816,901.6046143,33.5122452
	c-2.4730225-13.6998119-14.3883057-23.6620331-28.3129272-23.6620331H681.9298706
	c-15.8917847,0-28.7766113,12.8848486-28.7766113,28.7766304c0,63.4687691-51.6377563,115.1065216-115.1065063,115.1065216
	c-15.8917847,0-28.7766418,12.8848419-28.7766418,28.7766266v150.4730988c0,14.3321228,10.5523376,26.4862976,24.7580261,28.4956055
	c54.9678345,7.7562256,96.4185791,55.2067261,96.4185791,110.385376c0,55.1785889-41.4507446,102.6291504-96.4185791,110.3853149
	c-14.2056885,2.0093384-24.7580261,14.1635132-24.7580261,28.4956055v181.6103516
	c0,14.3320923,10.5523376,26.4863281,24.7580261,28.4956055c54.9678345,7.7562256,96.4185791,55.2207642,96.4185791,110.385376
	c0,55.1645508-41.4507446,102.6151123-96.4326172,110.385376c-14.1916504,2.0092773-24.743988,14.1634521-24.743988,28.4956055
	v181.5961914c0,14.3321533,10.5523376,26.4863281,24.743988,28.4956055
	c54.9818726,7.7702637,96.4326172,55.2208252,96.4326172,110.385376s-41.4507446,102.6291504-96.4185791,110.385376
	c-14.2056885,2.0092773-24.7580261,14.1634521-24.7580261,28.4956055v181.6103516
	c0,14.3320312,10.5523376,26.4863281,24.7580261,28.4956055c54.9678345,7.7562256,96.4185791,55.206665,96.4185791,110.385376
	c0,55.1785889-41.4507446,102.6291504-96.4185791,110.3852539c-14.2056885,2.0093994-24.7580261,14.1635742-24.7580261,28.4956055
	v150.4731445C509.2701111,2155.2126465,522.1549683,2168.0974121,538.0467529,2168.0974121z M566.8233643,2011.9195557
	c70.5786133-21.1047363,121.1765747-86.8076172,121.1765747-161.9527588
	c0-75.1452637-50.5979614-140.8481445-121.1765747-161.9528809v-135.4665527
	c70.5786133-21.1047363,121.1765747-86.8076172,121.1765747-161.9528809
	c0-75.1311035-50.5979614-140.8339844-121.1765747-161.9528809V1093.189209
	c70.5786133-21.1188965,121.1765747-86.8217163,121.1765747-161.9528809
	c0-75.1452637-50.5979614-140.8481445-121.1765747-161.9528809V633.8168945
	c70.5786133-21.1047363,121.1765747-86.8076172,121.1765747-161.9528198s-50.5979614-140.848114-121.1765747-161.9528503
	V208.8838806c72.194519-12.1541901,129.3262329-69.2859192,141.4804077-141.4804077h142.7169189
	c22.7767944,68.3023376,86.8778687,115.724762,160.6039429,115.724762c73.7120361,0,137.8271484-47.4224243,160.618042-115.724762
	h166.9268799c22.7768555,68.3023376,86.8779297,115.724762,160.6040039,115.724762
	c73.7259521,0,137.8270264-47.4224243,160.6038818-115.724762h166.927002
	c22.7907715,68.3023376,86.9058838,115.724762,160.6179199,115.724762c73.7260742,0,137.8271484-47.4224243,160.6040039-115.724762
	h142.7167969c12.1542969,72.1944885,69.2858887,129.3262177,141.4804688,141.4804077v101.0273438
	c-70.5786133,21.1047363-121.1765137,86.8076172-121.1765137,161.9528503s50.5979004,140.8480835,121.1765137,161.9528198
	v135.4665527c-70.5786133,21.1047363-121.1765137,86.8076172-121.1765137,161.9528809
	c0,75.1311646,50.5979004,140.8339844,121.1765137,161.9528809v135.4523926
	c-70.5786133,21.1188965-121.1765137,86.8217773-121.1765137,161.9528809
	c0,75.1452637,50.5979004,140.8481445,121.1765137,161.9528809v135.4665527
	c-70.5786133,21.1047363-121.1765137,86.8076172-121.1765137,161.9528809
	c0,75.1451416,50.5979004,140.8480225,121.1765137,161.9527588v101.0274658
	c-72.1945801,12.1540527-129.3261719,69.2858887-141.4804688,141.4802246h-142.7167969
	c-22.7768555-68.3022461-86.8779297-115.7246094-160.6040039-115.7246094
	c-73.7120361,0-137.8271484,47.4223633-160.6179199,115.7246094h-166.927002
	c-22.7768555-68.3022461-86.8779297-115.7246094-160.6038818-115.7246094
	c-73.7260742,0-137.8271484,47.4223633-160.6040039,115.7246094h-166.9268799
	c-22.7908936-68.3022461-86.9060059-115.7246094-160.618042-115.7246094
	c-73.7260742,0-137.8271484,47.4223633-160.6039429,115.7246094H708.303772
	c-12.1541748-72.1943359-69.2858887-129.3261719-141.4804077-141.4802246V2011.9195557z"/>
<path class="st3" d="M1406.9213867,658.7722778c0.5473633-0.2403564,1.0948486-0.4940796,1.5888672-0.8278809
	c0.2537842-0.173584,0.5073242-0.3738403,0.7210693-0.6008301c0.8278809-0.8679199,1.1616211-2.0830078,1.4954834-3.2446899
	c3.1645508-10.6151733,10.2546387-20.0152588,19.574707-25.9971924c5.5545654-3.5651245,11.3361816-1.6289673,9.4267578,5.2608643
	c-1.4820557,5.3276367-2.9509277,10.6552734-4.4329834,15.9695435c27.3458252-5.1674194,54.1308594-6.9967041,79.9144287,5.3009033
	c30.0964355,14.3405151,49.951416,40.9119263,72.25,64.5457153c3.1378174,3.3247681,6.3156738,6.5827637,9.5603027,9.8273926
	c0.6142578,0.6142578,1.0549316,1.1616821,1.8560791,1.5088501c7.2503662-10.9089355,10.8554688-26.7583008,16.7438965-38.5751953
	c6.182251-12.4311523,13.5126953-22.9528809,21.2972412-34.4626465l0.4139404-0.6409302l-0.1068115-0.7210693
	c-4.6066895-29.3085938-14.78125-52.7020874-38.935791-73.3582764
	c-17.6920166-15.1416626-40.8317871-19.0405884-63.4107666-19.9485474
	c-82.7316895-3.3247681-151.3499756,49.177002-183.5827637,122.6421509l-2.6037598,5.9418335l5.3676758-3.5917969
	C1370.9230957,676.5176392,1388.4549561,667.104187,1406.9213867,658.7722778z"/>
<path class="st3" d="M1653.3674316,983.7173462c-36.6391602,2.7105713-73.8924561,1.0548096-110.1710205-4.6867065
	c-2.590332-0.4005737-14.5274658-1.0548096-16.2232666-3.0577393c16.2232666,19.1207275,39.7102051,31.9123535,64.559082,35.1703491
	c11.1359863,1.46875,22.8193359,1.0014038,33.1140137-3.4983521c8.772583-3.84552,15.9696045-10.3214111,22.6324463-17.3181152
	C1649.3349609,988.1636963,1651.364502,985.9338379,1653.3674316,983.7173462z"/>
<path class="st3" d="M1623.0839844,751.7854004c1.081665,2.4702148,3.2313232,4.2727661,5.3143311,5.9685669
	c33.5413818,27.2923584,83.7731934,45.545166,110.1175537,80.2749023
	c8.2918701,10.9356079,12.5112305,22.9127808,14.5808105,36.3186035
	c19.4144287-20.869873,33.4613037-53.1293335,43.6358643-79.4603882
	c26.317627-68.1241455-37.7340088-133.0170288-105.9783936-133.6445923
	c-16.7305908-0.1469116-32.2060547,5.3810425-44.5036621,21.217041
	c-12.9251709,16.6504517-18.105957,37.854126-22.9661865,58.3635254
	C1622.4298096,744.4415283,1621.588623,748.3671875,1623.0839844,751.7854004z"/>
<path class="st3" d="M1759.3056641,913.3232422c-24.8088379,37.7607422-58.5638428,67.7769775-90.8900146,98.9015503
	l-0.4940186,0.4940186c-8.1450195,8.2918701-16.7574463,16.2232056-23.2867432,25.9170532
	c-0.8544922,1.2685547-1.6956787,2.6170654-1.7891846,4.1392822c-0.1068115,1.682373,0.7210693,3.2580566,1.4421387,4.7668457
	c2.6036377,5.3809814,3.7786865,11.2160645,6.3557129,16.5970459c2.550415,5.3276367,5.8616943,10.2813721,9.680542,14.7945557
	c18.9337158,22.3919678,48.1889648,34.3692627,77.3774414,30.4836426
	c40.1107178-5.3409424,70.4207764-43.0749512,97.9534912-69.5262451
	c18.9737549-18.2260742,37.5203857-36.8927612,55.612915-55.9867554
	c32.1928711-33.9552612,63.5710449-68.2176514,53.2895508-112.9349976
	c-1.9093018-8.2785034-5.2341309-16.9308472-10.2546387-25.9971924
	c-16.7438965-30.2299194-48.1087646-50.7392578-81.6368408-59.0979004
	c-7.9580078-1.9761963-16.7438965-3.2579956-24.0344238,0.4940186
	c-16.3166504,8.3720093-25.1560059,43.689209-32.5131836,59.1513672
	C1785.0625,868.7528076,1773.4459229,891.7857666,1759.3056641,913.3232422z"/>
<path class="st3" d="M1904.1663818,1006.7102661c-38.4818115,40.5647583-76.4160156,86.9243774-123.6036377,117.6083374
	c-9.0395508,5.875-22.4187012,11.8436279-24.1679688,23.6738281c-1.2150879,8.1583252,3.6318359,15.8493652,8.2918701,22.645752
	c13.2723389,19.3876953,28.9348145,40.057373,51.8875732,45.0378418c12.925293,2.8172607,26.4780273,0.1068115,38.9224854-4.3929443
	c48.3225098-17.4383545,104.0155029-55.7197266,138.1577148-93.8143311
	c21.5374756-24.0209961,36.385376-56.2004395,31.8588867-88.152832c-0.1868896-1.3619385-0.4138184-2.7105713-0.6809082-4.0592041
	c-4.1794434-21.604187-16.7840576-40.5379639-32.0325928-56.0935669
	c-7.0767822-7.2103271-16.1564941-17.3848877-25.796875-20.8031006
	c-12.1907959-4.0858154-18.2528076,10.62854-25.3297119,18.2928467
	C1929.2556152,980.098877,1916.7443848,993.4379272,1904.1663818,1006.7102661z"/>
<path class="st3" d="M1800.5513916,1235.9851074c-16.0496826-5.6481934-28.4406738-16.463623-38.3883057-29.989624
	c-14.1401367-19.2408447-23.2999268-43.9428711-30.8441162-66.935791
	c-23.7139893,0.1602783-47.4545898-5.3009033-68.7116699-15.8093262
	c37.4536133,89.8619385,9.7338867,202.6367188-65.1331787,264.8724365
	c10.4549561-41.9266357,39.4564209-77.177124,51.3267822-118.7165527
	c19.7883301-69.1923828-10.6552734-141.9765625-43.0083008-206.2685547
	c-3.2446289-6.4492188-6.6895752-13.0987549-12.3776855-17.5450439c-6.8364258-5.3543701-15.8626709-6.7163086-24.2880859-8.8126221
	c-30.9776611-7.7310791-58.6038818-28.1202393-75.1208496-55.4526978
	c-6.8231201-11.3095703-13.2856445-24.9557495-26.0372314-28.4140015
	c-11.149292-3.0177002-22.4321289,3.1778564-32.8336182,8.1716919
	c-38.1346436,18.3195801-82.8519287,22.5255737-123.7371826,11.6566772
	c21.0701904-14.5541382,48.8565674-12.6046753,74.199585-16.3033447
	c15.0214844-2.203125,30.7373047-8.1716919,41.7932129-18.8803711
	c11.7634277-11.3896484,11.9102783-23.9008789,12.6446533-39.6967773c0.3204346-6.956665,3.1245117-27.3458252,4.7802734-38.93573
	c0.347168-2.4301758,3.7119141-2.7372437,4.4997559-0.4139404c1.6557617,4.8335571,3.5117188,11.8168945,4.579834,20.7630615
	c1.9628906,16.4902344,3.1645508,27.1321411,16.0229492,39.4831543c9.9208984,9.5469971,22.8728027,16.1030884,35.824585,20.4960327
	c46.0526123,15.6491089,95.3631592,21.564209,143.8192139,17.3848877
	c13.3391113,0.947998,57.9362793-23.7006226,67.7636719-36.7860107
	c12.1773682-16.1965332,13.6595459-34.7564087,5.7415771-53.3830566
	c-6.22229-14.6342773-17.9056396-26.1040649-30.4436035-35.5709229
	c-23.8208008-17.9857178-36.3586426-29.2418823-63.3572998-41.1522217
	c-30.5369873-17.2380371-51.2467041-47.2009277-74.8404541-73.1313477
	c-2.8707275-3.1511841-5.8216553-6.2489624-8.8526611-9.2532349c-14.9814453-14.821228-32.4731445-28.2671509-52.7554932-34.8365479
	c-21.2437744-6.8765259-41.7397461-2.1096802-62.355957,4.8602905
	c-46.2928467,15.6624146-85.9228516,46.1727295-124.1242676,75.4412842
	c-37.4401855,28.694397-74.4932861,57.8828735-110.5849609,88.2597046
	c-17.0643311,14.3671875-33.5412598,29.9361572-42.8479004,50.0315552
	c-12.5646973,27.1322021-10.2947998,58.7774658-4.0725098,88.0193481
	c14.4606934,67.9639282,39.2427979,156.1835327,64.7059326,220.8361206
	c18.1993408,46.1993408,41.8865967,103.8419189,52.3015137,150.0679932
	c27.3724365,121.4672852,25.276123,554.7069092,8.3051758,684.5061035
	c-4.0726318,31.1243896,20.30896,58.6439209,51.6738281,58.6439209l201.1412354-0.0268555l209.0324707-0.0266113
	c30.0562744,0,53.9838867-25.3696289,51.9676514-55.3591309c-4.1258545-61.4613037-2.5770264-452.1066895,4.6733398-513.274292
	c-0.173584,1.5220947-21.604248,0.947998-23.7539062,0.8546143c-7.9179688-0.347168-15.8227539-1.3352051-23.59375-2.9241943
	c-14.7277832-3.0177002-29.0148926-8.2250977-42.1937256-15.4888916
	c29.9494629-6.6495361,58.9510498-2.0296631,87.5386963-9.6405029c30.7906494-8.1983643,51.7407227-36.0249023,69.138916-62.703125
	c56.4541016-86.550415,101.8791504-180.284668,134.8463135-278.2248535
	c-32.8469238,28.520874-70.1269531,51.9143066-110.0909424,69.0855713
	C1857.9936523,1236.8930664,1827.8170166,1245.5721436,1800.5513916,1235.9851074z"/>
<polygon class="st1" points="1927.4595947,395.0387573 1927.4595947,599.9206543 1722.5777588,494.7110291 1822.25,328.5905762 "/>
<path class="st1" d="M1562.6177979,1380.1977539l265.7926025-199.3444824c0,0,265.7927246,398.6890869,166.1204834,636.7950439
	c0,0-299.0167236,160.5830078-465.137207,60.9107666C1529.3936768,1878.559082,1667.8273926,1562.9302979,1562.6177979,1380.1977539
	z"/>
<path class="st2" d="M1676.975708,1822.6610107c-40.1131592,0-59.6783447-12.7263184-60.9449463-13.5814209
	c-4.8591309-3.2806396-6.1381836-9.8780518-2.8566895-14.7362061c3.2608643-4.8280029,9.7991943-6.1236572,14.6501465-2.9135742
	c0.3565674,0.2259521,10.8896484,6.7362061,32.3724365,9.1378174c20.3508301,2.2772217,54.8688965,1.2252197,103.777832-16.690918
	c5.5037842-2.013916,11.6005859,0.8105469,13.6176758,6.3154297c2.0150146,5.5039062-0.8126221,11.600708-6.3165283,13.6166992
	C1732.2073975,1818.1210938,1700.9274902,1822.6610107,1676.975708,1822.6610107z"/>
<path class="st2" d="M1650.5258789,1467.5679932c-4.9068604,0-9.3120117-3.4205322-10.3713379-8.411377
	c-1.2167969-5.730835,2.4399414-11.3643799,8.1697998-12.5853271l0,0
	c14.3101807-3.0618896,54.0957031-15.574707,66.1586914-36.4230957c2.9394531-5.0727539,9.4301758-6.8067627,14.5028076-3.8703613
	c5.0748291,2.9354248,6.8078613,9.4291992,3.8724365,14.5029297
	c-19.2687988,33.2969971-77.6411133,46.0284424-80.1184082,46.5539551
	C1651.9978027,1467.4923096,1651.2556152,1467.5679932,1650.5258789,1467.5679932z"/>
<path class="st2" d="M1652.8170166,1501.0219727c0,0,3.8400879,80.640625-11.5200195,103.6807861
	c0,0,69.1204834,23.0401611,215.0415039-72.9605713l-7.6800537-46.0803223l34.5601807-26.880127l-26.880127-76.8005371
	C1856.338501,1381.9812012,1741.1376953,1485.6618652,1652.8170166,1501.0219727z"/>
<path class="st2" d="M1652.8170166,1650.7830811l-15.3601074,42.2402344c0,0,42.2403564,19.2001953,103.6807861-19.2000732
	l3.8399658-49.9204102C1744.9776611,1623.902832,1687.3773193,1658.4631348,1652.8170166,1650.7830811z"/>
<g>
	<path class="st1" d="M1067.1196289,1877.8031006c0,0,201.5019531,29.9228516,301.1741943-152.8096924
		c0,0,204.6160889,294.4770508,243.0856934,585.1606445c21.8450928,165.065918-465.7266846,130.7629395-465.7266846,130.7629395
		S1216.6280518,2232.1933594,1067.1196289,1877.8031006z"/>
	<path class="st2" d="M1314.9260254,2442.6862793c-109.8952637,0-168.4215088,0.4350586-169.4580078,0.3447266l-2.6949463-0.2353516
		l0.8686523-2.5622559c0.1782227-0.5202637,17.6496582-53.1254883,16.685791-148.2255859
		c-0.8914795-87.7885742-18.1245117-230.767334-95.1623535-413.3792725l-1.4677734-3.477417l3.7335205,0.5523682
		c0.4996338,0.074707,50.8203125,7.2421875,112.5509033-7.8806152
		c56.8631592-13.9306641,135.3666992-50.1951904,186.4481201-143.8463135l1.3392334-2.4554443l2.0045166,1.9508057
		c0.3056641-0.5142822,37.3521729,44.9456787,116.0490723,203.036499
		c63.2670898,127.0946045,109.4764404,240.7047119,129.4085693,391.3143311
		c2.6079102,19.6970215-2.7857666,37.9597168-17.8549805,52.4611816
		c-20.8736572,20.0869141-48.7751465,47.9885254-188.2827148,65.427002
		C1394.6956787,2437.510498,1329.0080566,2442.6862793,1314.9260254,2442.6862793z M1148.4613037,2439.0187988
		c38.5561523-3.6682129,347.8244629,21.105957,449.3344727-75.157959
		c14.1937256-13.4604492,19.1446533-30.6113281,16.7149658-48.9680176
		c-19.8098145-149.6882324-93.8111572-322.1182861-146.1264648-412.7982178
		c-64.2977295-111.4493408-86.6761475-160.7823486-99.5848389-173.6185303
		c-51.8837891,93.2509766-130.7209473,129.5145264-187.9655762,143.5084229
		c-52.8912354,12.9326172-97.5441895,9.7028809-110.3431396,8.3574219
		c76.1651611,181.7838135,93.2261963,324.2142334,94.0843506,411.8939209
		C1165.3959961,2376.1489258,1151.9217529,2427.3093262,1148.4613037,2439.0187988z"/>
</g>
<path class="st4" d="M1288.5588379,2224.7329102"/>
<path class="st2" d="M1202.8929443,1981.5357666c-20.3405762,0-34.3769531-4.5098877-35.6291504-4.9266357
	c-5.5618896-1.854248-8.5656738-7.8649902-6.7124023-13.4259033c1.8511963-5.5546875,7.8504639-8.5543213,13.4000244-6.7218018
	c2.4399414,0.7950439,57.4498291,17.951416,105.9835205-26.848877c4.3098145-3.9770508,11.0223389-3.7086182,14.9984131,0.5991211
	s3.7086182,11.0223389-0.5991211,14.9984131C1262.3474121,1974.7362061,1227.8666992,1981.5357666,1202.8929443,1981.5357666z"/>
<path class="st2" d="M1276.1939697,2310.4384766c-32.0744629,0-48.4559326-4.1774902-49.7706299-4.527832
	c-5.630249-1.5012207-8.9790039-7.2827148-7.4766846-12.9128418c1.5002441-5.6179199,7.2519531-8.9626465,12.880127-7.486084
	c0.7357178,0.1887207,61.8387451,15.2150879,184.9661865-16.5585938c5.6342773-1.4570312,11.3963623,1.9350586,12.8533936,7.5795898
	c1.454834,5.6425781-1.9393311,11.3974609-7.5817871,12.8535156
	C1357.019165,2306.1723633,1308.5982666,2310.4384766,1276.1939697,2310.4384766z"/>
<path class="st2" d="M1189.3997803,2031.9484863c0,0,198.9763184-23.1368408,235.9952393-92.5472412l50.9008789,92.5472412
	c0,0-87.9197998,87.9196777-263.7592773,87.9196777L1189.3997803,2031.9484863z"/>
<path class="st2" d="M1239.7563477,2170.769043c0,0,139.3649902,0,195.9820557-60.1555176l17.4206543,55.5283203
	c0,0-126.2995605,60.1555176-222.1130371,50.9008789L1239.7563477,2170.769043z"/>
<path class="st2" d="M1811.1444092,431.6876526l39.3494873,13.9627075l-3.8079834,12.6933899l36.810791,12.6933594
	l-1.1409912,21.3612061c-0.0693359,1.0385742-1.0072021,1.7988586-2.0375977,1.6516724l-12.2963867-4.4514465
	c-33.9644775-12.7366943-50.9466553-21.2278137-72.1092529-35.0627747l2.0574951-3.1472778L1811.1444092,431.6876526z"/>
<path class="st2" d="M1832.3034668,512.3043823c-32.1298828-2.6772766-52.0992432-23.6169434-52.9346924-24.5062561
	l7.744751-7.2597656l-3.8723145,3.6298828l3.8640137-3.6381531c0.1783447,0.1886292,18.1431885,18.8697205,46.0814209,21.1977234
	L1832.3034668,512.3043823z"/>
<path class="st2" d="M809.1254883,1111.3171387l-30.9959106-26.565918l1.5361328-0.6829834
	c0.1907349-0.0839844,19.1029663-8.534668,29.4867554-16.8413086l1.3267212,1.6584473
	c-8.9741211,7.178833-23.6594238,14.2260742-28.4274292,16.4298096l28.4544067,24.3912354L809.1254883,1111.3171387z"/>
<path class="st0" d="M1286.3800049,1822.7044678l-1.0614014-15.9207764l-270.65448,45.6397705l97.6478882,189.9887695
	l12.7366943-1.0614014l-53.0695801-161.3312988C1071.979126,1880.0195312,1188.7320557,1894.8790283,1286.3800049,1822.7044678z"/>
<polygon class="st5" points="1300.1781006,1813.1519775 1286.3800049,1822.7044678 1286.3800049,1812.0905762 "/>
<polygon class="st2" points="1112.3120117,1563.5106201 1200.2929688,1506.4102783 1213.144043,1531.4543457 
	1122.1975098,1595.5670166 "/>
<path class="st0" d="M1296.9938965,1822.7386475l-21.2277832-0.0683594
	c0.5493164-170.8039551-4.1854248-436.394043-19.4802246-468.0056152
	c-15.1518555-31.3151855-96.3917236-236.0960693-115.3225098-373.7192383
	c-7.3571777-53.480957,7.5084229-108.3395386,40.7825928-150.506958
	c21.1282959-26.7741699,40.4510498-44.6540527,57.4311523-53.144165l9.4945068,18.9868774
	c-13.9700928,6.9850464-31.3504639,23.3433228-50.2626953,47.3075562
	c-29.7167969,37.6596069-42.9903564,86.6712036-36.4168701,134.4648438
	c17.6331787,128.1877441,95.3862305,330.1275635,113.4029541,367.3653564
	C1297.7319336,1391.5883789,1297.1348877,1778.744873,1296.9938965,1822.7386475z"/>
<polygon class="st1" points="1296.9938965,1816.3361816 1284.2572021,1824.8272705 1307.6077881,1833.3183594 "/>
<g>
	<path class="st0" d="M724.6314087,2802.078125H601.7483521l-18.6782227,56.5251465H481.8181763l126.3197021-346.5244141
		h111.0848999l125.8326416,346.5244141H743.3096313L724.6314087,2802.078125z M700.5446167,2728.3496094l-37.3564453-112.0690918
		l-36.8625488,112.0690918H700.5446167z"/>
	<path class="st0" d="M1318.6351318,2611.8562012c19.8226318,20.9770508,29.7373047,49.6450195,29.7373047,86.0170898v160.7299805
		h-96.3405762v-147.9509277c0-14.7443848-4.100708-26.2121582-12.2852783-34.4033203
		c-8.1947021-8.1879883-19.3389893-12.2888184-33.4259033-12.2888184c-14.0904541,0-25.2346191,4.1008301-33.4226074,12.2888184
		c-8.1947021,8.1911621-12.2885742,19.6589355-12.2885742,34.4033203v147.9509277h-96.3371582v-147.9509277
		c0-14.7443848-4.019043-26.2121582-12.043457-34.4033203c-8.034668-8.1879883-19.09375-12.2888184-33.1773071-12.2888184
		c-14.4241943,0-25.7285156,4.1008301-33.9164429,12.2888184c-8.1947021,8.1911621-12.2886353,19.6589355-12.2886353,34.4033203
		v147.9509277h-96.3371582v-275.7453613h96.3371582v36.3720703c8.5183105-11.7946777,19.5773926-21.2121582,33.1773071-28.2624512
		c13.5965576-7.043457,29.2468262-10.5686035,46.9407959-10.5686035c20.3164062,0,38.4156494,4.4243164,54.3145752,13.2729492
		c15.8887939,8.8452148,28.4226074,21.3041992,37.6016846,37.3564453
		c9.8294678-15.0715332,22.7720947-27.2817383,38.8311768-36.6208496
		c16.052124-9.3391113,33.7460938-14.0085449,53.085083-14.0085449
		C1271.5240479,2580.3989258,1298.8056641,2590.8891602,1318.6351318,2611.8562012z"/>
	<path class="st0" d="M1529.2485352,2590.722168c13.7600098-7.5339355,29.9825439-11.3041992,48.6607666-11.3041992
		c21.947876,0,41.8557129,5.7355957,59.7198486,17.2033691c17.8540039,11.4711914,31.9477539,27.8537598,42.2712402,49.151123
		c10.3199463,21.3041992,15.4833984,46.2050781,15.4833984,74.7128906s-5.1634521,53.4973145-15.4833984,74.9580078
		c-10.3234863,21.4643555-24.4172363,37.9321289-42.2712402,49.3964844
		c-17.8641357,11.4746094-37.7719727,17.2033691-59.7198486,17.2033691c-18.6782227,0-34.8223877-3.7634277-48.4155273-11.3041992
		c-13.6033936-7.5339355-24.3320312-17.6938477-32.1964111-30.4731445v170.0656738h-96.3371582v-407.4736328h96.3371582v38.3374023
		C1504.8312988,2608.4162598,1515.4851074,2598.2629395,1529.2485352,2590.722168z M1583.0693359,2678.4594727
		c-9.6695557-9.9931641-21.5494385-14.9929199-35.6364746-14.9929199c-14.09375,0-25.9737549,5.0849609-35.6363525,15.2380371
		c-9.6695557,10.1599121-14.4991455,24.0834961-14.4991455,41.7807617c0,18.0241699,4.8295898,32.1181641,14.4991455,42.2712402
		c9.6625977,10.1599121,21.5426025,15.2382812,35.6363525,15.2382812c14.0870361,0,25.9669189-5.1635742,35.6364746-15.4836426
		c9.6625977-10.3232422,14.4990234-24.3320312,14.4990234-42.0258789
		C1597.5683594,2702.4680176,1592.7319336,2688.4592285,1583.0693359,2678.4594727z"/>
	<path class="st0" d="M1831.5296631,2494.8754883v363.7277832h-96.3371582v-363.7277832H1831.5296631z"/>
	<path class="st0" d="M1894.1955566,2543.2910156c-10.3199463-9.3391113-15.4799805-21.052002-15.4799805-35.1459961
		c0-14.4138184,5.1600342-26.3720703,15.4799805-35.8815918c10.3234863-9.4990234,24.001709-14.2539062,41.0450439-14.2539062
		c16.7095947,0,30.2277832,4.7548828,40.5512695,14.2539062c10.3199463,9.5095215,15.4799805,21.4677734,15.4799805,35.8815918
		c0,14.0939941-5.1600342,25.8068848-15.4799805,35.1459961c-10.3234863,9.3391113-23.8416748,14.0087891-40.5512695,14.0087891
		C1918.1972656,2557.2998047,1904.519043,2552.630127,1894.1955566,2543.2910156z M1982.9171143,2582.8579102v275.7453613
		h-96.3371582v-275.7453613H1982.9171143z"/>
	<path class="st0" d="M2186.9025879,2662.9760742h-43.2556152v195.6271973H2046.81604v-195.6271973h-29.9825439v-80.1181641
		h29.9825439v-2.4589844c0-35.3879395,10.3983154-62.4992676,31.2120361-81.3476562
		c20.8068848-18.8383789,50.7043457-28.2624512,89.7023926-28.2624512c7.8642578,0,13.927002,0.170166,18.1877441,0.4936523
		v82.0834961c-2.6259766-0.3237305-6.2294922-0.4904785-10.8139648-0.4904785
		c-10.4902344,0-18.1843262,2.3806152-23.1025391,7.1252441c-4.9145508,4.7546387-7.7006836,12.3737793-8.3547363,22.8571777
		h43.2556152V2662.9760742z"/>
	<path class="st0" d="M2518.1818848,2582.8579102l-174.9838867,406.9831543h-104.6918945l65.8640137-143.0358887
		l-113.0534668-263.9472656h107.154541l57.9997559,156.3056641l56.034668-156.3056641H2518.1818848z"/>
</g>
<polygon class="st2" points="1818.2056885,392.09375 1866.4405518,420.019165 1868.979248,393.3630676 1829.6297607,370.5149841 "/>
</svg>
