<?xml version="1.0" standalone="no"?>
<!DOCTYPE svg PUBLIC "-//W3C//DTD SVG 20010904//EN"
 "http://www.w3.org/TR/2001/REC-SVG-20010904/DTD/svg10.dtd">
<svg version="1.0" xmlns="http://www.w3.org/2000/svg"
 width="1200.000000pt" height="628.000000pt" viewBox="0 0 1200.000000 628.000000"
 preserveAspectRatio="xMidYMid meet">
<metadata>
Created by potrace 1.16, written by Peter Selinger 2001-2019
</metadata>
<g transform="translate(0.000000,628.000000) scale(0.100000,-0.100000)"
fill="#000000" stroke="none">
<path d="M0 3140 l0 -3140 385 0 c212 0 385 4 385 8 0 4 -6 14 -12 21 -11 11
-10 13 3 8 13 -4 15 -1 12 14 -3 10 -10 16 -17 12 -6 -3 -6 0 1 8 7 7 13 18
13 24 0 5 -5 3 -11 -5 -7 -11 -9 -3 -6 30 3 25 7 56 11 70 3 15 -1 38 -13 60
-19 36 -18 90 1 90 5 0 6 4 3 10 -3 5 -1 19 5 30 6 11 7 20 3 19 -21 -4 -33 2
-33 16 0 8 8 15 17 15 15 0 14 2 -3 15 -12 9 -15 18 -9 22 6 5 16 19 24 32 11
21 11 26 -1 35 -14 10 -14 13 0 25 13 13 13 16 -2 27 -16 11 -16 13 -2 21 13
7 14 15 5 47 -6 22 -9 50 -6 62 2 13 0 24 -6 24 -6 0 -5 5 1 13 17 20 11 59
-9 54 -12 -3 -15 1 -12 14 3 11 9 19 14 19 5 0 9 4 9 10 0 5 -7 7 -14 4 -13
-5 -13 -2 -3 19 6 14 15 23 19 21 5 -3 8 8 8 25 0 17 -7 34 -15 39 -14 7 -14
13 -2 43 18 44 16 64 -6 63 -12 -1 -15 2 -8 10 5 6 9 31 9 55 1 24 4 62 7 83
5 27 3 38 -5 38 -10 0 -10 3 -1 14 8 10 9 16 1 21 -5 3 -10 12 -10 18 0 8 4 7
9 -2 6 -9 7 9 4 50 -3 35 -10 70 -16 77 -6 7 -6 12 0 12 5 0 10 16 10 35 0 19
-3 35 -7 35 -4 0 -7 7 -7 15 0 8 4 12 9 9 12 -8 10 10 -4 24 -7 7 -8 12 -2 12
5 0 10 23 11 50 2 35 -1 49 -9 44 -8 -5 -9 2 -4 22 11 46 16 135 7 129 -5 -3
-4 14 2 37 8 31 7 43 -1 46 -7 2 -9 8 -6 13 3 6 0 17 -8 26 -9 12 -9 15 0 9
13 -8 15 -1 13 54 -1 19 -1 44 0 55 1 11 2 38 3 60 1 50 -18 860 -30 1330 -4
110 -7 295 -8 410 -2 116 -6 341 -9 500 -4 160 -9 396 -12 525 -3 129 -7 323
-10 430 -2 107 -7 353 -11 545 -7 323 -8 378 -12 413 -2 9 -73 12 -322 12
l-320 0 0 -3140z"/>
<path d="M700 6240 c0 -44 4 -48 27 -24 12 11 18 12 23 4 6 -9 9 -9 12 1 3 8
10 10 24 4 10 -4 22 -7 27 -7 4 1 7 -2 7 -7 0 -5 16 -15 35 -22 26 -10 35 -19
35 -36 0 -14 6 -23 15 -23 9 0 20 -12 25 -26 8 -19 15 -24 28 -19 9 4 26 10
38 12 16 4 19 10 16 36 -5 32 -5 32 16 14 23 -21 42 -15 42 11 1 13 5 10 16
-8 13 -22 14 -23 9 -3 -5 18 -2 21 14 18 12 -2 21 0 21 6 0 5 5 9 11 9 5 0 8
-4 5 -8 -3 -5 -1 -22 4 -38 4 -16 9 -21 9 -11 1 19 16 23 26 7 4 -6 14 -9 23
-8 11 2 18 -5 20 -21 3 -16 0 -21 -9 -16 -8 5 -10 4 -5 -4 4 -6 12 -9 17 -6 5
4 9 -6 9 -22 1 -25 2 -26 11 -9 9 15 13 16 20 5 8 -12 11 -12 19 1 8 13 10 13
10 -2 0 -11 5 -15 15 -12 10 4 15 0 15 -12 0 -9 3 -14 7 -11 3 4 15 -1 26 -10
10 -10 29 -18 42 -18 19 -1 25 7 36 47 7 27 16 44 19 38 4 -6 12 1 18 15 10
21 9 25 -3 25 -8 0 -15 7 -15 16 0 8 4 12 10 9 5 -3 16 6 22 21 10 22 10 28 0
32 -7 2 -9 9 -5 15 4 7 8 23 9 37 0 14 6 24 12 23 7 -2 12 1 12 6 0 6 -105 10
-260 11 -171 0 -260 -3 -260 -10 0 -5 3 -10 8 -10 12 0 11 -53 -3 -73 -11 -15
-13 -16 -18 -2 -6 13 -37 23 -37 11 0 -15 14 -35 21 -30 5 3 9 -4 9 -16 0 -28
-24 -21 -28 8 -2 12 -9 22 -17 22 -19 0 -25 49 -7 66 10 10 18 12 25 5 5 -5
16 -7 23 -4 11 4 11 7 0 18 -9 10 -50 14 -144 14 l-132 1 0 -40z"/>
<path d="M3375 6270 c3 -5 -22 -46 -55 -91 -33 -46 -60 -88 -60 -95 0 -6 -7
-17 -15 -24 -15 -13 -89 -144 -100 -179 -3 -11 -22 -46 -41 -78 -19 -31 -34
-63 -34 -70 0 -8 -20 -48 -45 -91 -25 -42 -48 -92 -51 -112 -3 -19 -15 -54
-25 -76 -26 -55 -28 -260 -5 -431 13 -94 14 -143 7 -219 -9 -102 -2 -162 14
-113 4 13 8 27 10 32 7 19 7 23 5 45 -1 12 4 22 10 22 7 0 10 7 6 15 -3 8 0
15 6 15 7 0 7 4 -1 14 -10 11 -8 16 8 21 12 3 22 11 22 16 1 5 2 14 3 19 0 6
8 15 16 20 8 5 11 10 6 10 -5 0 1 8 12 19 12 10 22 25 22 32 0 11 2 11 8 1 7
-10 14 -8 34 7 22 18 28 18 44 7 16 -12 20 -12 31 3 8 10 12 12 13 4 0 -7 7
-13 16 -13 8 0 12 -4 9 -10 -3 -5 1 -10 10 -10 12 0 15 5 11 16 -4 11 1 10 20
-5 15 -12 34 -21 43 -20 10 0 12 2 3 6 -6 2 -9 9 -6 15 4 6 -1 8 -12 4 -13 -4
-23 1 -31 13 -22 36 13 32 54 -5 26 -24 45 -34 61 -31 12 2 22 0 22 -4 0 -5 4
-9 9 -9 4 0 6 11 3 25 -3 20 -1 24 12 19 12 -5 15 -2 10 12 -5 18 -5 18 9 2
21 -26 31 -22 13 4 -20 29 -20 44 0 27 13 -11 15 -9 9 17 -5 25 -4 26 4 7 15
-33 22 -28 14 9 -5 26 -3 30 9 25 23 -8 34 81 12 98 -9 6 -14 20 -12 31 4 23
-39 51 -56 34 -5 -5 -15 -10 -20 -10 -6 0 -4 5 4 11 12 8 11 9 -5 6 -11 -2
-19 -9 -18 -15 4 -16 -3 -15 -31 3 -13 9 -28 15 -32 14 -5 -1 -17 1 -26 5 -9
4 -25 3 -35 -3 -16 -9 -15 -10 6 -7 29 3 62 -21 54 -40 -3 -8 -9 -14 -15 -14
-5 0 -6 5 -2 11 3 6 -5 4 -19 -5 -33 -23 -73 -12 -86 22 -5 15 -10 20 -10 11
-1 -9 -7 -22 -15 -28 -11 -9 -15 -8 -20 6 -7 18 16 43 40 43 7 0 15 4 18 9 7
11 -44 9 -61 -2 -7 -5 -13 -4 -13 0 0 15 23 33 41 33 9 0 22 7 29 15 10 13 9
15 -9 15 -11 0 -21 5 -21 11 0 5 5 7 10 4 6 -3 10 -1 10 4 0 6 -4 11 -10 11
-5 0 -7 7 -3 16 4 11 9 12 16 5 6 -6 18 -11 26 -10 12 0 11 2 -3 8 -17 7 -18
8 -1 24 11 12 16 28 13 47 -4 24 -1 29 12 25 11 -3 16 1 16 15 0 13 -5 19 -13
16 -7 -3 -13 -1 -13 4 0 6 7 10 15 10 9 0 20 11 25 25 5 14 14 25 19 25 6 0 8
-7 4 -16 -5 -14 -3 -14 16 -3 11 8 21 17 21 22 0 4 -5 5 -12 1 -8 -5 -9 -2 -5
10 4 10 7 21 7 24 0 4 5 0 10 -8 6 -10 10 -11 10 -2 0 6 7 12 15 12 8 0 20 8
26 18 8 12 21 18 38 16 14 -2 18 -1 8 2 -23 7 -16 29 9 29 13 0 18 -6 16 -18
-3 -17 -2 -17 22 -1 32 20 33 27 4 19 -20 -5 -20 -3 6 19 31 26 66 40 66 26 0
-4 -10 -10 -22 -14 -19 -5 -20 -8 -8 -16 9 -5 16 -6 18 0 2 5 10 6 19 3 11 -4
14 -2 9 5 -5 8 1 12 16 11 13 0 17 -3 11 -6 -7 -2 -13 -9 -13 -14 0 -6 7 -6
18 0 11 6 24 6 33 0 11 -7 9 -9 -8 -9 -13 0 -23 -4 -23 -10 0 -5 7 -10 15 -10
8 0 14 -6 13 -12 -2 -7 3 -12 10 -10 6 1 12 -2 12 -7 0 -5 -6 -12 -12 -14 -9
-4 -7 -6 3 -6 9 -1 28 -10 43 -22 14 -11 26 -16 26 -10 0 6 -5 11 -11 11 -5 0
-7 5 -4 10 3 6 -1 10 -9 10 -9 0 -16 7 -16 15 0 24 19 17 38 -13 9 -16 23 -28
30 -26 7 1 8 0 2 -3 -7 -3 -5 -12 6 -24 16 -18 16 -19 1 -13 -9 3 -17 9 -17
14 0 4 -14 7 -30 8 -17 0 -28 -4 -25 -9 4 -5 13 -9 21 -9 8 0 17 -7 20 -15 7
-17 54 -21 54 -5 0 18 18 10 49 -21 32 -32 40 -46 19 -33 -7 5 -24 7 -39 6
-15 -1 -32 5 -39 13 -7 8 -20 15 -29 15 -14 -1 -14 -2 1 -14 10 -7 15 -16 11
-19 -3 -4 3 -7 15 -7 24 0 26 -7 13 -44 -12 -30 8 -51 38 -41 11 3 23 1 27 -6
4 -8 3 -9 -4 -5 -7 4 -12 3 -12 -3 0 -5 5 -13 10 -16 8 -5 7 -11 -1 -21 -8
-10 -8 -14 0 -14 6 0 11 -7 11 -16 0 -14 -3 -14 -15 -4 -22 18 -18 3 5 -20 12
-12 18 -25 15 -30 -5 -8 26 -23 51 -24 13 -1 45 -32 43 -43 -3 -20 2 -27 11
-13 7 11 11 9 19 -13 7 -17 16 -25 24 -21 8 3 17 -2 20 -10 4 -10 13 -13 23
-9 12 4 15 2 12 -8 -3 -8 -15 -13 -27 -11 -20 3 -21 1 -11 -17 8 -17 8 -21 -4
-21 -8 0 -18 9 -21 20 -3 11 -11 20 -17 20 -6 0 -6 -6 2 -15 11 -13 10 -14 -4
-9 -12 4 -16 1 -16 -14 0 -29 -20 -38 -27 -13 -6 22 -25 30 -22 9 3 -26 -1
-39 -11 -33 -5 3 -10 -1 -10 -9 0 -8 -12 -24 -26 -35 -18 -14 -22 -21 -11 -21
8 0 18 6 20 13 4 9 6 9 6 0 1 -6 -3 -15 -9 -18 -5 -3 -10 -19 -10 -36 0 -16
-5 -29 -11 -29 -7 0 -10 -12 -7 -30 3 -18 0 -31 -8 -34 -7 -3 -13 -13 -12 -23
1 -21 -11 -83 -17 -93 -3 -4 -7 -25 -10 -46 -8 -49 -31 -101 -51 -112 -9 -5
-15 -12 -14 -16 0 -4 -24 -32 -54 -62 -31 -30 -56 -50 -56 -44 0 5 -5 9 -12 8
-8 -2 -11 8 -9 29 2 32 2 32 -31 23 -29 -9 -35 -7 -56 16 -13 14 -48 37 -78
51 -48 23 -52 27 -43 45 6 11 7 18 1 14 -5 -3 -17 3 -27 14 -10 11 -24 20 -32
20 -7 0 -13 4 -13 8 0 5 -6 9 -12 10 -7 0 -20 2 -28 3 -25 4 -100 -13 -100
-22 0 -5 11 -14 24 -20 17 -8 23 -18 21 -35 -1 -14 2 -27 6 -30 5 -3 9 2 9 10
0 9 5 16 10 16 6 0 4 -13 -5 -30 -17 -34 -19 -44 -5 -35 6 3 10 1 10 -4 0 -6
-5 -11 -11 -11 -5 0 -8 -4 -4 -9 3 -5 0 -13 -7 -17 -7 -5 -3 -11 13 -18 l24
-10 -27 -4 c-27 -3 -31 -10 -31 -55 1 -16 -6 -18 -33 -15 -19 2 -35 0 -36 -4
-2 -4 -14 -9 -28 -10 -20 -2 -24 1 -22 18 2 16 -3 20 -20 20 -19 -1 -22 3 -19
24 4 29 22 58 36 56 6 0 11 9 13 21 3 17 0 21 -12 17 -9 -3 -16 -2 -16 4 0 5
7 12 15 16 9 3 12 12 8 22 -5 15 -7 15 -15 0 -5 -9 -13 -14 -19 -11 -5 4 -17
-7 -27 -24 -17 -31 -42 -49 -42 -30 0 6 -7 4 -15 -5 -18 -17 -20 -30 -3 -20 6
4 8 3 5 -4 -4 -5 -18 -9 -32 -7 -16 1 -25 -3 -25 -12 0 -8 5 -11 10 -8 13 8
13 -1 0 -26 -7 -12 -8 -48 -4 -95 8 -83 30 -120 67 -108 10 3 30 7 43 9 13 1
36 11 51 21 15 10 31 17 36 16 4 -1 6 1 6 5 -4 27 2 32 28 22 14 -5 32 -8 40
-5 7 3 27 3 43 -1 26 -5 29 -8 18 -21 -11 -13 -11 -14 1 -8 7 5 27 12 45 16
17 4 40 11 51 16 17 7 18 5 8 -8 -7 -8 -9 -19 -5 -23 4 -5 -1 -5 -10 -2 -22 8
-35 -12 -17 -24 11 -7 11 -9 -3 -9 -9 0 -28 -13 -41 -30 -14 -16 -33 -30 -43
-30 -10 0 -15 -3 -11 -6 8 -9 87 -11 81 -3 -7 13 14 20 57 21 25 0 43 6 46 14
3 8 11 14 19 14 8 0 14 5 14 12 0 9 3 9 12 0 18 -18 32 -14 17 5 -12 15 -12
16 2 11 9 -4 22 -1 29 5 7 7 5 0 -5 -15 -9 -16 -23 -28 -30 -28 -7 0 -16 -7
-19 -16 -4 -10 -2 -13 7 -8 6 4 -6 -13 -29 -37 -42 -45 -66 -80 -95 -137 -16
-30 -16 -32 -1 -20 9 7 24 21 34 31 10 9 25 17 33 17 7 0 18 7 22 15 8 13 12
13 30 -4 11 -11 24 -17 27 -14 6 6 10 -20 7 -44 -1 -7 3 -13 9 -13 5 0 10 -4
10 -10 0 -5 -6 -10 -14 -10 -8 0 -14 -10 -14 -22 0 -35 -6 -53 -25 -79 -10
-13 -15 -18 -12 -11 7 14 -1 14 -30 3 -11 -5 -24 -5 -30 -1 -11 9 -123 -16
-141 -31 -25 -20 -8 -112 27 -150 37 -39 40 -56 14 -81 -28 -27 -31 -41 -10
-58 11 -9 12 -17 4 -31 -5 -11 -8 -28 -4 -38 4 -12 -2 -21 -20 -29 -14 -7 -29
-20 -32 -29 -9 -24 -29 -43 -37 -36 -3 4 -6 -1 -6 -9 0 -9 -12 -37 -26 -62
-15 -26 -24 -50 -21 -53 9 -9 21 3 42 44 11 21 26 44 33 51 6 8 17 22 22 33
19 34 117 99 169 111 50 11 87 6 76 -11 -3 -6 3 -14 12 -20 15 -9 15 -12 4
-20 -11 -7 -11 -9 0 -14 10 -4 10 -6 2 -6 -17 -1 -17 -21 0 -21 8 0 14 -14 15
-35 2 -23 -2 -35 -10 -35 -9 0 -8 -3 2 -10 13 -9 13 -10 0 -10 -9 0 -21 5 -28
12 -9 9 -12 8 -12 -8 -1 -17 -4 -16 -23 9 -24 28 -40 36 -32 14 5 -11 -15 -23
-70 -41 -11 -4 -22 -8 -25 -8 -3 0 -14 -6 -24 -14 -14 -10 -24 -10 -39 -3 -14
8 -18 8 -13 0 4 -7 -1 -11 -13 -11 -12 0 -21 -7 -21 -15 0 -8 -4 -15 -10 -15
-5 0 -10 -7 -10 -15 0 -8 -4 -15 -8 -15 -4 0 -14 -16 -21 -35 -11 -31 -25 -41
-53 -36 -5 0 -8 -3 -8 -9 0 -5 5 -10 10 -10 6 0 10 -7 10 -15 0 -8 -6 -14 -12
-13 -15 3 -12 -55 3 -60 5 -2 9 -10 9 -18 0 -8 5 -14 11 -14 5 0 7 -4 4 -10
-3 -6 1 -10 9 -10 8 0 18 5 22 11 3 6 15 9 25 6 20 -6 53 28 65 66 9 32 34 57
56 57 22 0 23 -10 3 -36 -22 -30 -18 -40 25 -59 22 -10 40 -24 40 -32 0 -7 3
-14 8 -14 43 -8 52 -5 64 22 7 16 19 29 25 29 7 0 13 5 13 10 0 6 5 10 10 10
6 0 9 -10 8 -22 -5 -42 17 -34 26 10 10 43 26 57 26 23 0 -11 5 -23 11 -26 6
-4 9 0 7 10 -2 10 3 20 10 22 7 3 12 -4 12 -17 0 -17 3 -20 13 -13 17 15 47
12 47 -4 0 -7 5 -13 11 -13 6 0 9 7 5 15 -3 8 -1 15 4 15 6 0 10 -12 10 -26 0
-14 -4 -23 -10 -19 -6 4 -10 -5 -10 -21 0 -17 -13 -39 -37 -63 -57 -56 -117
-73 -242 -72 -63 1 -103 16 -145 54 -11 9 -23 17 -28 17 -12 0 -10 -24 4 -38
9 -9 9 -12 -1 -12 -7 0 -9 -5 -6 -10 4 -6 10 -8 14 -6 4 3 8 -1 8 -8 0 -22 33
-86 45 -86 5 0 8 -6 5 -14 -7 -18 14 -27 44 -19 15 4 20 3 15 -5 -5 -8 0 -12
13 -12 12 0 21 -7 21 -15 0 -8 9 -15 20 -15 11 0 23 -7 26 -15 4 -10 13 -13
24 -10 10 3 22 1 25 -6 6 -8 10 -7 16 2 6 10 9 11 9 2 0 -16 34 -17 60 -3 16
8 18 8 14 -5 -4 -9 0 -15 9 -15 8 0 17 5 19 11 3 9 9 9 25 1 16 -9 23 -9 26 1
3 6 6 7 6 1 1 -5 -7 -19 -17 -30 -21 -22 -34 -62 -23 -69 10 -6 51 33 51 48 0
7 -7 3 -15 -7 -12 -15 -15 -16 -15 -5 0 9 12 26 26 40 24 22 26 23 24 4 -1
-11 -1 -23 0 -27 1 -5 3 -14 4 -20 1 -7 9 -12 19 -12 12 1 15 -2 9 -10 -5 -6
-6 -20 -2 -31 4 -11 5 -26 2 -34 -4 -10 -1 -12 9 -6 11 7 11 5 -1 -10 -15 -18
-15 -18 -19 0 -3 17 -5 16 -16 -5 -7 -13 -21 -24 -31 -25 -11 -2 -27 -6 -36
-10 -11 -4 -18 -3 -18 5 0 6 6 8 13 4 9 -5 9 -4 0 6 -12 13 -37 4 -28 -11 4
-5 0 -12 -8 -15 -9 -3 -20 -18 -27 -34 -9 -21 -21 -30 -46 -35 -19 -3 -32 -10
-29 -15 9 -14 -88 -17 -111 -3 -12 7 -29 11 -38 7 -9 -3 -16 -1 -16 6 0 6 -4
9 -8 6 -4 -2 -14 -1 -22 5 -12 7 -12 9 3 9 15 0 16 2 5 14 -7 8 -16 10 -19 4
-3 -5 -11 -2 -18 6 -7 8 -10 20 -6 26 4 6 3 10 -2 9 -20 -3 -34 2 -28 11 3 5
13 6 22 3 13 -5 13 -3 -3 14 -10 11 -22 18 -27 16 -4 -3 -6 -1 -5 4 1 4 -4 19
-11 32 -7 13 -8 21 -3 17 6 -4 8 2 5 15 -3 11 -11 18 -17 16 -7 -3 -13 4 -13
14 -1 15 2 17 17 9 14 -8 19 -5 23 11 4 16 3 18 -9 8 -9 -7 -14 -8 -14 -1 0 6
-9 14 -20 17 -11 3 -23 18 -26 31 -6 22 -11 25 -33 19 -14 -4 -27 -8 -28 -9
-6 -6 71 -216 108 -294 81 -174 150 -267 231 -308 103 -52 272 -68 441 -40 43
7 80 9 83 5 5 -8 -11 -346 -22 -469 -19 -218 -53 -417 -80 -471 -21 -43 -94
-129 -108 -129 -7 0 -20 -8 -29 -18 -9 -10 -37 -28 -62 -41 -25 -12 -45 -27
-45 -32 0 -5 -7 -9 -15 -9 -8 0 -15 -4 -15 -10 0 -5 -4 -10 -10 -10 -5 0 -21
-11 -35 -24 -65 -59 -92 -92 -99 -120 -3 -14 -15 -30 -26 -36 -13 -7 -20 -21
-20 -40 0 -15 -5 -30 -11 -32 -13 -4 -31 -79 -30 -124 0 -17 -5 -39 -13 -49
-10 -14 -11 -25 -3 -42 7 -17 6 -28 -6 -46 -9 -14 -13 -28 -9 -32 4 -4 8 -41
10 -83 1 -42 5 -96 8 -119 l6 -43 1571 0 c1545 0 1572 0 1592 20 11 10 38 36
61 57 108 101 144 136 201 199 34 38 79 87 99 109 20 22 45 59 55 82 11 23 24
45 30 48 5 4 7 15 4 25 -7 23 29 50 67 50 16 0 28 5 28 10 0 18 84 100 103
100 9 0 17 -5 17 -11 0 -6 7 -9 15 -5 13 4 13 2 5 -14 -13 -24 -3 -50 19 -50
16 0 17 -4 12 -65 -1 -11 -81 -15 -81 -4 0 4 -8 5 -19 2 -23 -6 -39 16 -20 28
10 6 6 9 -13 9 -18 0 -29 -6 -33 -21 -6 -17 -12 -20 -38 -15 -18 3 -39 1 -47
-4 -13 -9 -13 -10 0 -11 8 -1 21 -1 28 0 6 1 12 -2 12 -7 0 -5 11 -7 25 -4 15
2 25 0 25 -7 0 -12 -11 -14 -46 -12 -23 2 -34 -22 -29 -64 1 -14 -3 -25 -9
-25 -17 0 -56 -38 -56 -54 0 -18 37 -27 44 -11 3 8 0 16 -7 18 -7 3 14 3 46 1
46 -3 57 -1 57 11 0 9 -7 18 -15 21 -8 4 -12 10 -9 15 8 13 42 11 47 -3 4 -10
7 -10 18 -1 10 10 16 10 28 -1 9 -8 36 -16 61 -17 38 -3 45 -1 49 16 3 16 1
17 -12 7 -12 -10 -18 -10 -31 3 -9 9 -13 21 -10 27 4 7 -2 8 -17 3 -13 -4 -21
-4 -17 0 4 5 0 14 -10 21 -9 8 -12 14 -5 14 6 0 14 -4 18 -10 3 -5 12 -7 20
-4 8 4 27 2 42 -4 16 -5 38 -6 51 -1 12 5 22 4 22 -1 0 -5 7 -16 16 -25 13
-13 19 -14 25 -4 6 10 18 3 44 -24 39 -40 66 -43 93 -9 9 12 15 13 23 5 6 -6
18 -9 25 -6 18 7 18 -24 0 -42 -7 -8 -17 -11 -21 -7 -5 4 -5 -1 -2 -11 6 -15
3 -16 -13 -7 -26 14 -42 5 -61 -34 -15 -33 -15 -34 8 -34 13 0 23 4 23 7 0 4
7 16 16 27 15 18 15 17 10 -18 -4 -35 -3 -37 19 -28 20 7 22 6 18 -11 -3 -11
-9 -22 -14 -25 -5 -3 -9 -17 -9 -31 0 -21 2 -24 15 -13 21 17 20 -10 0 -50
-20 -38 -5 -39 17 -2 l17 27 -3 -25 c-1 -14 -5 -30 -8 -35 -5 -9 -3 -36 3 -82
2 -10 456 -13 2231 -13 l2228 0 0 3140 0 3140 -2470 0 c-2189 0 -2470 -2
-2470 -15 0 -8 5 -15 10 -15 6 0 10 -7 10 -16 0 -8 -4 -13 -9 -9 -15 8 -24
-14 -12 -29 7 -9 7 -16 -1 -24 -18 -18 -18 -40 -1 -47 14 -5 13 -8 -3 -27 -17
-19 -17 -21 -2 -15 12 4 15 2 12 -8 -3 -8 -2 -20 2 -27 4 -7 9 -22 10 -35 2
-19 0 -21 -10 -10 -7 7 -15 19 -19 27 -4 10 -6 8 -6 -6 -1 -12 6 -27 14 -34 9
-7 14 -19 11 -26 -3 -9 1 -11 12 -7 14 6 15 5 2 -9 -8 -9 -19 -14 -24 -11 -5
3 -4 -2 1 -12 6 -10 8 -27 5 -38 -4 -15 -2 -18 8 -12 9 6 8 1 -3 -15 -11 -16
-13 -29 -7 -46 5 -13 7 -24 3 -24 -4 0 2 -6 12 -14 13 -9 16 -19 10 -32 -7
-17 -8 -18 -12 -1 -3 9 -9 17 -14 17 -14 0 -11 -11 8 -32 13 -14 14 -21 5 -26
-8 -6 -3 -18 17 -41 19 -22 27 -40 23 -54 -4 -15 -2 -18 9 -11 8 4 20 9 28 11
11 1 11 -1 -1 -14 -13 -13 -14 -19 -3 -40 12 -22 11 -28 -1 -41 -13 -12 -13
-17 2 -39 9 -14 11 -23 6 -19 -6 3 -12 3 -15 -1 -2 -5 -2 -2 -1 5 2 6 -4 12
-12 12 -8 0 -12 -4 -9 -10 3 -5 1 -10 -5 -10 -12 0 -5 52 10 81 13 24 13 36
-1 22 -6 -6 -18 -9 -25 -6 -17 6 -18 -9 -1 -26 10 -11 10 -13 0 -7 -8 4 -13 2
-14 -6 0 -7 -5 -3 -11 10 -6 12 -17 22 -24 22 -18 0 -24 13 -17 38 4 17 9 20
18 12 10 -8 19 -6 34 7 12 9 21 23 21 29 0 16 -28 26 -36 12 -4 -7 -3 -8 4 -4
7 4 12 1 12 -9 0 -9 -6 -15 -12 -14 -32 4 -48 -2 -48 -19 0 -10 -8 -28 -17
-42 -15 -21 -15 -23 0 -17 11 4 14 2 10 -9 -4 -11 -8 -12 -20 -3 -7 7 -12 18
-9 26 3 7 -1 13 -9 13 -8 0 -15 8 -15 17 0 13 3 14 12 5 17 -17 28 -15 28 4 0
8 -5 12 -11 8 -8 -4 -9 0 -4 15 8 25 -15 29 -39 6 -8 -8 -19 -15 -24 -15 -6 0
-13 -7 -16 -16 -3 -8 -2 -12 4 -9 14 8 13 4 -9 -40 -10 -21 -21 -33 -25 -27
-3 6 -2 13 4 17 16 10 12 25 -5 19 -9 -4 -15 0 -16 7 0 8 -2 24 -3 36 -2 14 2
19 11 16 20 -8 15 13 -7 28 -23 16 -18 64 6 55 8 -3 14 -1 14 5 0 6 4 8 8 5 5
-3 9 1 9 9 0 11 -4 12 -13 4 -7 -6 -17 -8 -23 -5 -5 3 -16 -12 -25 -34 -9 -22
-18 -40 -20 -40 -6 0 -1 28 7 36 4 4 7 14 7 22 0 9 8 24 17 34 10 12 13 22 7
26 -5 4 -18 20 -27 35 -10 16 -23 27 -29 25 -16 -6 -29 -46 -18 -53 6 -4 10 3
10 15 0 27 24 21 27 -6 3 -23 -32 -67 -48 -62 -8 3 -6 10 5 21 20 19 7 24 -13
5 -11 -11 -12 -9 -3 8 9 16 8 26 -3 40 -8 11 -15 14 -15 8 0 -21 -32 -25 -46
-7 -7 10 -13 23 -13 28 -1 6 7 0 17 -13 17 -23 18 -23 35 -4 9 10 14 22 10 25
-3 4 -1 7 5 7 7 0 12 -5 12 -11 0 -8 5 -8 15 1 12 10 13 16 4 26 -6 8 -16 11
-21 8 -6 -4 -6 1 0 13 8 14 7 27 -2 45 -10 19 -11 29 -3 37 8 8 8 14 -1 23 -9
9 -12 8 -12 -6 0 -9 -5 -14 -10 -11 -16 10 -24 -24 -12 -50 8 -18 17 -23 29
-18 16 5 16 4 3 -8 -8 -8 -20 -20 -26 -27 -8 -10 -11 -6 -12 16 -1 37 -34 100
-49 95 -15 -5 -10 26 5 36 14 9 4 51 -13 51 -8 0 -12 -11 -10 -30 1 -17 -1
-33 -6 -36 -5 -3 -9 -16 -9 -30 0 -13 -4 -24 -10 -24 -11 0 -8 35 3 46 14 14
7 51 -13 69 -19 17 -20 17 -29 -9 -6 -14 -16 -26 -22 -26 -7 0 -9 -3 -6 -7 4
-3 2 -12 -4 -19 -7 -8 -7 -14 1 -19 5 -3 10 -5 11 -3 0 2 2 11 4 21 4 21 24
47 35 47 4 0 7 -11 6 -25 0 -15 -6 -23 -13 -21 -7 3 -10 -1 -6 -10 3 -8 2 -14
-3 -13 -18 4 -44 -13 -44 -29 0 -13 -3 -13 -12 -4 -9 9 -10 15 -2 20 16 10 14
71 -2 65 -7 -3 -14 -16 -16 -29 -3 -24 -4 -24 -23 -9 -11 9 -14 14 -7 10 24
-12 11 12 -25 46 -20 18 -31 25 -23 15 11 -14 12 -20 3 -23 -7 -2 -9 -11 -6
-19 3 -8 0 -14 -6 -14 -6 0 -11 5 -11 11 0 5 -4 8 -9 5 -12 -8 -34 21 -27 33
4 6 14 7 24 4 16 -5 16 -5 0 12 -14 15 -20 16 -32 5 -21 -16 -21 3 -1 24 17
16 21 41 5 31 -6 -3 -14 4 -19 17 -12 32 -43 58 -48 41 -3 -7 -9 -13 -15 -13
-7 0 -6 5 1 14 9 10 7 19 -8 37 l-20 24 5 -30 c4 -24 -5 -58 -23 -84 -2 -3
-10 4 -18 15 -14 19 -15 18 -21 -3 -3 -13 -10 -20 -16 -17 -5 3 -6 15 -2 26 4
13 2 18 -4 14 -6 -3 -12 -1 -14 6 -6 16 -49 21 -45 5 1 -7 -6 -11 -17 -9 -13
3 -17 -1 -13 -12 4 -11 -1 -14 -20 -13 -18 2 -31 13 -44 37 -11 19 -19 40 -19
47 0 15 -16 17 -25 4 -3 -6 3 -14 12 -20 17 -10 17 -10 1 -11 -10 0 -27 9 -37
19 -11 11 -22 17 -25 14 -3 -3 2 -12 11 -18 13 -10 15 -19 7 -45 -5 -19 -15
-35 -22 -38 -7 -2 -11 0 -10 5 2 4 -5 19 -15 33 -12 18 -17 20 -17 8 0 -9 6
-18 13 -21 6 -2 9 -7 5 -11 -3 -4 -16 -2 -29 4 -18 10 -21 10 -17 -2 3 -8 0
-22 -8 -33 -8 -10 -14 -14 -14 -9 0 6 6 16 13 23 10 11 8 12 -11 6 -19 -5 -24
-2 -33 24 -6 17 -15 29 -19 26 -4 -3 -11 3 -15 13 -6 16 -7 16 -16 0 -13 -22
-29 -23 -29 -2 0 14 -2 14 -16 3 -24 -20 -47 -17 -60 6 -13 24 -7 38 13 31 8
-3 12 -2 10 2 -2 4 -7 15 -10 25 -6 17 -10 15 -32 -11 -14 -17 -25 -35 -25
-40 0 -6 -6 -14 -12 -18 -7 -4 -10 -4 -6 0 7 8 -52 72 -64 68 -4 -1 -8 7 -8
18 0 20 -4 20 -1075 20 -637 -1 -1073 -5 -1070 -10z m1100 -1291 c-3 -15 2
-23 16 -26 18 -5 19 -6 2 -20 -17 -13 -17 -13 4 -11 12 2 22 0 23 -4 1 -26 -2
-29 -20 -23 -22 7 -28 -10 -7 -19 9 -5 9 -7 -1 -12 -6 -3 -9 -10 -6 -15 3 -6
0 -16 -6 -24 -12 -15 -7 -47 7 -43 13 3 53 -13 53 -22 0 -4 -10 -10 -22 -14
-19 -5 -21 -8 -8 -16 13 -8 12 -10 -3 -10 -10 0 -15 -4 -12 -10 3 -5 1 -11 -4
-11 -26 -3 -30 -4 -36 -10 -3 -4 10 -10 30 -13 19 -4 33 -11 30 -17 -4 -5 1
-9 9 -9 19 0 20 -5 6 -31 -6 -10 -17 -19 -25 -19 -8 0 -15 -6 -15 -14 0 -19
-18 -24 -62 -18 -23 2 -38 10 -38 18 0 7 -4 15 -9 18 -5 4 -7 -2 -4 -13 5 -19
-12 -25 -97 -38 l-35 -5 23 22 c25 24 23 41 -3 20 -10 -8 -15 -9 -15 -1 0 6 5
11 10 11 6 0 10 9 10 20 0 28 -26 25 -63 -6 l-32 -27 -9 32 c-5 17 -12 31 -16
31 -9 0 3 71 15 90 4 7 8 26 7 42 0 22 2 27 11 20 8 -7 17 -3 30 13 16 23 16
24 0 35 -17 11 -17 11 0 6 9 -3 17 0 17 6 0 7 5 6 15 -2 9 -7 18 -10 22 -6 3
3 1 6 -6 6 -7 0 5 16 26 35 21 19 40 30 41 25 6 -16 17 -12 48 15 46 40 53 45
64 45 5 0 10 5 10 10 0 6 6 10 14 10 10 0 13 -8 11 -21z m2565 -309 l0 -100
-110 0 -110 0 0 -430 0 -430 -100 0 -100 0 0 430 0 430 -105 0 -105 0 0 100 0
100 315 0 315 0 0 -100z m360 -110 l0 -210 110 0 110 0 0 210 0 210 100 0 100
0 0 -530 0 -530 -100 0 -100 0 0 215 0 215 -110 0 -110 0 -2 -212 -3 -213
-100 0 -100 0 -3 528 -2 527 105 0 105 0 0 -210z m1210 110 l0 -100 -215 0
-215 0 0 -110 0 -110 115 0 115 0 0 -105 0 -105 -115 0 -115 0 0 -110 0 -110
215 0 215 0 0 -105 0 -105 -315 0 -315 0 0 530 0 530 315 0 315 0 0 -100z
m-4110 -231 c0 -5 -8 -9 -17 -10 -11 0 -13 -3 -5 -6 6 -2 12 -16 12 -29 0 -13
4 -24 10 -24 5 0 7 -7 4 -15 -4 -8 -1 -15 5 -15 6 0 11 -7 11 -16 0 -13 -6
-15 -27 -10 -16 4 -35 8 -43 9 -17 3 -94 51 -128 81 -13 12 -25 20 -28 19 -2
-2 -3 0 -1 5 1 4 4 6 7 5 3 -1 14 -4 25 -8 19 -6 19 -6 1 5 -14 10 -16 14 -5
20 7 5 20 5 28 1 9 -5 34 -11 56 -14 l40 -5 -30 13 c-16 8 -35 14 -42 15 -6 0
-14 3 -17 8 -2 4 11 7 29 6 25 -1 32 2 28 12 -3 9 12 4 41 -12 25 -14 46 -30
46 -35z m2352 -1012 c70 -34 140 -110 162 -174 24 -71 21 -177 -8 -238 -13
-27 -31 -59 -39 -70 -13 -17 -13 -22 10 -52 38 -49 52 -100 53 -184 0 -65 -4
-84 -30 -137 -33 -65 -76 -109 -143 -144 -39 -21 -57 -23 -244 -26 l-203 -3 0
531 0 532 193 -4 c186 -3 195 -4 249 -31z m744 4 c64 -28 136 -101 165 -166
17 -37 22 -69 23 -126 0 -94 -33 -168 -100 -227 -24 -22 -44 -44 -44 -49 0 -5
41 -109 90 -231 50 -122 90 -225 90 -228 0 -2 -46 -3 -101 -2 l-102 3 -85 213
-86 212 -43 0 -43 0 0 -215 0 -215 -100 0 -100 0 0 531 0 531 193 -4 c171 -4
197 -7 243 -27z m974 -76 l0 -105 -215 0 -215 0 0 -110 0 -110 115 0 115 0 0
-105 0 -105 -115 0 -115 0 0 -110 0 -110 215 0 215 0 0 -100 0 -100 -315 0
-315 0 0 530 0 530 315 0 315 0 0 -105z m682 -400 c70 -275 130 -512 134 -527
l6 -28 -101 0 -100 0 -12 43 c-6 23 -19 71 -28 107 l-17 65 -111 3 -111 3 -27
-111 -27 -110 -103 0 -102 0 99 388 c54 213 115 451 135 530 l36 143 100 -3
101 -3 128 -500z m688 400 l0 -105 -105 0 -105 0 0 -425 0 -425 -100 0 -100 0
0 425 0 425 -110 0 -110 0 0 105 0 105 315 0 315 0 0 -105z m360 -115 l0 -210
115 0 115 0 0 210 0 210 100 0 100 0 0 -525 0 -525 -100 0 -100 0 0 210 0 210
-115 0 -115 0 0 -210 0 -210 -100 0 -100 0 0 525 0 525 100 0 100 0 0 -210z
m1218 113 l-3 -98 -212 -3 -213 -2 0 -110 0 -110 110 0 110 0 0 -105 0 -105
-110 0 -110 0 0 -110 0 -110 210 0 210 0 0 -100 0 -100 -310 0 -310 0 0 525 0
525 315 0 316 0 -3 -97z m-7754 -194 c14 -11 26 -24 26 -29 0 -5 -33 -19 -72
-30 -40 -12 -88 -28 -106 -36 -34 -15 -127 -10 -137 7 -7 11 24 87 38 92 14 5
93 -7 119 -17 11 -5 18 -1 23 13 9 29 72 29 109 0z m3171 -1531 c72 -281 131
-520 133 -530 3 -16 -5 -18 -97 -18 l-100 0 -9 34 c-6 18 -18 68 -28 110 l-18
76 -111 0 -112 0 -29 -110 -29 -110 -101 0 -102 0 114 448 c63 246 124 484
135 530 l21 82 102 0 101 0 130 -512z m804 497 c144 -34 280 -143 345 -278 20
-39 39 -87 42 -104 l7 -33 -105 0 -104 0 -12 34 c-20 54 -96 132 -160 163 -76
37 -190 39 -270 4 -67 -30 -154 -122 -176 -187 -21 -61 -20 -167 1 -230 23
-69 120 -165 190 -188 80 -27 181 -23 251 9 65 30 145 108 164 161 l12 34 104
0 105 0 -7 -32 c-20 -102 -130 -250 -235 -317 -202 -130 -473 -98 -651 78
-210 208 -211 532 -1 742 135 135 315 187 500 144z m1121 -85 l0 -100 -105 0
-105 0 0 -248 c0 -137 -3 -331 -7 -430 l-6 -182 -99 0 -98 0 0 430 0 430 -105
0 -105 0 0 100 0 100 315 0 315 0 0 -100z"/>
<path d="M708 6078 c-3 -29 -4 -78 -2 -108 2 -30 6 -190 9 -355 3 -165 8 -388
10 -495 3 -107 7 -325 10 -485 7 -442 15 -746 20 -785 3 -19 11 -39 18 -45 8
-5 12 -16 9 -24 -2 -7 5 -4 17 8 11 11 21 25 21 30 0 5 9 11 21 14 20 5 20 5
3 -14 -9 -10 -15 -21 -13 -23 2 -1 13 -9 24 -15 15 -9 16 -11 3 -7 -21 6 -23
-4 -5 -23 10 -11 8 -12 -12 -6 l-24 7 19 -25 c15 -20 22 -23 33 -14 12 10 12
9 3 -10 -17 -32 4 -40 28 -11 l20 23 -13 -27 c-6 -16 -16 -28 -20 -28 -5 0 -6
-9 -2 -19 3 -11 0 -29 -7 -41 -11 -17 -11 -22 0 -29 11 -7 11 -9 -2 -14 -17
-7 -19 -1 -16 51 1 22 -5 39 -17 49 -10 8 -12 12 -5 8 20 -10 14 12 -12 40
-15 16 -27 22 -31 15 -3 -5 1 -13 9 -16 19 -7 21 -35 4 -53 -11 -12 -10 -13 6
-7 15 5 17 2 13 -14 -3 -11 -1 -20 5 -20 5 0 6 -5 3 -11 -5 -7 -14 -4 -26 7
-16 15 -19 15 -19 2 0 -9 -6 -21 -14 -27 -10 -9 -13 -42 -12 -139 0 -70 5
-133 10 -141 6 -9 5 -12 -2 -8 -6 5 -8 0 -5 -13 3 -11 12 -20 20 -20 8 0 12 4
9 9 -3 5 1 14 9 21 8 7 15 9 15 4 0 -5 6 3 14 17 16 32 16 101 -1 107 -9 2
-13 -8 -13 -34 0 -28 -3 -35 -11 -27 -6 6 -11 24 -11 40 0 15 -5 37 -11 48 -9
18 -9 19 7 5 26 -21 60 -24 52 -5 -4 11 0 15 11 13 10 -2 19 5 21 15 3 16 -14
23 -42 18 -5 -1 -6 5 -2 14 3 9 6 19 6 21 0 2 7 4 16 4 8 0 13 -4 9 -9 -3 -5
3 -12 14 -16 22 -7 32 -36 19 -59 -6 -10 -5 -16 2 -16 5 0 10 6 10 13 0 7 9
18 20 25 11 7 20 19 20 27 0 18 12 19 28 3 9 -9 12 -9 12 0 0 7 -4 12 -10 12
-5 0 -10 5 -10 11 0 5 5 7 12 3 6 -4 4 3 -5 17 -20 28 -22 46 -4 30 8 -6 17
-8 20 -4 4 3 7 -8 7 -27 0 -28 2 -31 15 -20 17 14 17 82 0 78 -6 -2 -9 -7 -7
-11 1 -5 -2 -6 -8 -2 -12 8 -13 35 -1 35 5 0 7 10 3 22 -3 12 -7 17 -9 11 -3
-7 -10 -10 -18 -7 -7 3 -16 -3 -19 -13 -4 -10 -17 -26 -30 -35 -23 -16 -23
-16 -20 8 1 14 10 31 20 38 10 8 15 20 11 29 -3 9 0 23 8 31 8 7 11 17 7 21
-4 4 0 5 8 3 8 -3 14 -11 12 -18 -3 -11 0 -11 12 -1 10 9 13 22 9 42 -7 36 4
37 34 3 16 -19 28 -24 42 -19 30 9 26 28 -4 21 -25 -6 -29 0 -28 41 0 6 -5 9
-12 7 -7 -3 -15 2 -18 10 -4 9 -11 16 -18 16 -6 0 -9 -7 -5 -15 3 -8 1 -15 -4
-15 -14 0 -22 18 -11 25 5 3 10 13 10 23 3 48 6 62 18 62 17 0 12 41 -9 72
-10 14 -18 34 -18 45 0 14 -2 15 -9 4 -12 -19 -2 -49 22 -66 12 -8 16 -15 9
-15 -6 0 -14 -11 -18 -25 -7 -30 -18 -31 -44 -5 -22 22 -27 66 -9 72 6 2 12
22 14 43 1 22 5 55 10 74 5 26 4 32 -6 29 -8 -3 -14 -14 -14 -26 0 -11 -4 -24
-8 -28 -18 -18 -5 59 13 78 11 12 20 29 20 37 0 11 -4 10 -16 -5 -8 -10 -13
-14 -10 -8 3 7 8 28 11 48 3 26 1 35 -7 30 -7 -4 -27 -8 -45 -9 -28 -1 -33 3
-39 28 -3 16 -3 31 0 34 3 4 6 -1 6 -9 0 -9 7 -21 15 -28 12 -10 15 -10 15 1
0 8 6 5 15 -7 8 -11 15 -14 15 -6 0 6 7 12 15 12 8 0 15 9 15 20 0 22 15 27
23 8 4 -9 6 -8 6 2 1 8 -8 21 -19 28 -24 14 -26 32 -5 32 8 0 15 3 15 8 0 14
-36 39 -53 36 -9 -1 -17 4 -17 12 0 8 7 14 16 14 10 0 14 6 11 14 -4 10 -1 13
7 10 10 -4 12 2 8 22 -3 18 -1 25 6 20 6 -4 8 -14 5 -23 -4 -11 -2 -14 8 -11
8 3 12 12 10 19 -2 8 -6 27 -9 42 -2 16 -11 31 -18 34 -8 3 -14 14 -14 24 0
10 -5 19 -11 19 -7 0 -9 -10 -5 -24 3 -14 2 -28 -4 -31 -10 -6 -15 21 -11 63
1 15 -2 21 -9 17 -6 -3 -8 -11 -5 -16 4 -5 1 -9 -4 -9 -20 0 -12 48 9 55 26 8
26 29 0 22 -24 -6 -37 10 -21 26 17 17 13 29 -7 23 -12 -4 -19 -1 -19 8 0 8 9
13 23 11 14 -1 21 2 18 10 -4 9 3 11 20 8 14 -3 26 -1 26 5 0 5 -16 9 -36 8
-35 -1 -35 -1 -14 16 22 18 19 38 -6 38 -8 0 -14 10 -14 23 0 13 -6 29 -12 36
-11 10 -9 11 6 5 15 -6 17 -4 11 14 -4 13 -2 22 4 22 6 0 11 -18 11 -39 0 -42
20 -60 40 -36 6 8 18 11 26 8 8 -3 14 1 14 10 0 9 5 19 12 23 8 5 9 2 5 -9 -3
-10 -2 -17 3 -17 6 0 10 9 10 20 0 11 -4 20 -10 20 -5 0 -7 6 -4 14 7 19 -16
32 -27 15 -12 -20 -11 -31 2 -23 7 4 10 1 7 -7 -2 -8 -18 -15 -34 -17 -26 -2
-27 -1 -12 11 10 8 15 17 11 20 -3 4 -1 7 5 7 6 0 9 7 5 15 -3 10 -1 15 8 13
17 -4 44 51 31 64 -6 6 -12 -3 -16 -24 -5 -26 -9 -30 -16 -18 -12 19 -13 57
-1 65 6 3 6 18 0 38 -13 47 -12 67 6 61 18 -7 20 -30 3 -37 -10 -4 -10 -6 0
-6 7 -1 17 10 22 24 5 14 14 25 19 25 15 0 21 29 11 55 -5 14 -14 25 -20 25
-14 0 -13 -33 2 -48 9 -9 9 -15 0 -24 -12 -12 -12 -12 -27 37 -2 8 -9 15 -15
15 -7 0 -9 -8 -5 -20 5 -16 3 -19 -10 -14 -12 5 -15 14 -10 33 4 14 7 37 7 51
0 24 0 24 14 5 13 -18 14 -18 14 7 0 34 -25 56 -35 31 -6 -16 -8 -15 -16 6 -7
18 -6 27 3 33 10 6 9 8 -3 8 -17 0 -34 28 -24 38 2 3 7 -3 11 -12 13 -33 29
-15 31 35 2 39 -1 49 -10 41 -17 -13 -41 -1 -45 23 -2 20 -2 20 13 1 19 -25
22 -21 29 44 5 48 4 53 -8 37 -20 -26 -26 -8 -10 33 7 19 13 29 13 22 1 -10 4
-10 15 0 10 9 11 17 4 26 -8 9 -7 11 5 6 14 -5 16 4 13 73 -2 44 1 84 7 91 5
7 7 15 3 19 -3 4 -12 -2 -20 -12 -12 -17 -14 -15 -20 18 -4 23 -14 38 -26 42
-11 4 -20 11 -20 18 0 6 -6 2 -14 -8 -13 -18 -14 -17 -21 13 -3 17 -4 36 0 42
3 5 2 10 -4 10 -5 0 -12 -6 -14 -12 -5 -12 -11 16 -8 35 0 4 -3 7 -8 7 -5 0
-7 9 -4 19 3 13 -2 21 -16 26 -15 4 -21 16 -23 47 -4 61 -24 59 -30 -4z"/>
<path d="M800 3230 c0 -11 -4 -20 -10 -20 -5 0 -10 5 -10 10 0 6 -4 10 -10 10
-6 0 -10 -35 -9 -87 1 -87 14 -244 17 -210 1 9 6 17 11 17 5 0 7 -9 4 -20 -3
-11 -9 -20 -13 -20 -14 0 -9 -329 6 -400 9 -46 10 -68 2 -77 -13 -16 -2 -186
12 -191 14 -5 12 -22 -3 -22 -12 0 -13 -15 -9 -127 1 -24 7 -43 13 -43 8 0 10
12 6 35 -3 19 -1 37 4 40 5 4 9 -3 9 -14 0 -25 18 -37 33 -21 9 10 9 11 -2 5
-11 -7 -13 -4 -6 11 4 10 10 33 13 51 3 24 -1 34 -17 42 -20 11 -20 13 -5 36
18 28 38 34 75 24 30 -8 62 6 42 19 -14 9 -11 38 6 55 10 9 11 9 6 -4 -4 -10
0 -16 10 -16 8 0 15 4 15 9 0 4 7 8 15 8 8 0 15 -4 15 -10 0 -5 -4 -10 -10
-10 -5 0 -10 -7 -10 -15 0 -18 17 -20 23 -2 2 6 8 9 12 5 10 -10 -17 -36 -33
-30 -6 2 -12 -1 -12 -7 0 -6 11 -11 24 -11 26 0 43 -15 27 -24 -5 -4 -11 0
-14 6 -2 7 -8 10 -12 6 -4 -4 -2 -14 5 -23 11 -14 14 -13 27 2 14 17 14 17 9
0 -3 -10 -6 -23 -6 -28 0 -4 -7 -6 -15 -3 -8 4 -15 2 -15 -4 0 -11 30 -21 48
-15 6 3 9 9 6 15 -9 15 -11 167 -2 162 4 -3 8 2 8 10 0 9 5 16 10 16 13 0 13
-12 0 -44 -7 -19 -6 -29 5 -40 9 -8 11 -17 6 -20 -5 -3 -7 -15 -4 -26 3 -11 0
-27 -7 -35 -10 -12 -10 -15 3 -15 8 0 17 10 20 22 5 17 9 19 21 9 12 -10 14
-6 13 23 0 20 -3 33 -6 31 -2 -3 -10 0 -18 6 -15 13 -18 53 -4 44 5 -3 12 -1
15 4 3 5 -1 11 -9 15 -8 3 -15 14 -15 25 0 11 -5 23 -11 27 -6 3 -17 22 -25
40 -8 19 -20 34 -27 34 -18 0 -37 -21 -37 -41 0 -25 -26 -44 -34 -24 -3 9 0
15 10 15 9 0 14 7 13 18 -2 9 2 27 9 39 7 12 9 28 6 37 -4 12 0 14 20 10 28
-5 36 13 11 22 -8 4 -12 11 -8 17 3 6 1 7 -6 3 -6 -4 -9 -12 -6 -17 4 -5 -1
-9 -11 -9 -12 0 -15 7 -12 29 3 20 0 27 -8 24 -7 -2 -10 -11 -7 -19 3 -8 0
-14 -7 -14 -9 0 -9 -4 1 -17 14 -16 14 -51 0 -65 -4 -5 -5 8 -3 29 4 33 3 35
-17 30 -13 -3 -19 -1 -15 5 4 6 -1 8 -15 3 -20 -6 -26 4 -23 36 1 3 -5 6 -13
6 -16 0 -9 -25 18 -54 26 -29 12 -52 -14 -24 -11 12 -27 21 -35 21 -45 0 -60
73 -27 133 17 30 22 34 27 20 4 -11 10 -13 14 -7 4 6 15 13 24 17 15 5 16 2
11 -23 -4 -21 -2 -30 8 -30 10 0 10 -3 1 -12 -7 -7 -12 -16 -12 -21 0 -5 6 -2
13 5 12 13 15 83 3 95 -12 13 -6 35 9 30 11 -5 12 -1 5 17 -5 13 -5 40 0 60 4
21 4 38 -1 42 -5 3 -7 9 -5 13 3 4 1 13 -5 21 -7 13 -9 12 -9 -2 0 -10 -6 -18
-12 -18 -8 0 -9 -3 -3 -8 14 -10 18 -39 6 -46 -5 -4 -9 2 -9 11 0 10 -3 26 -7
36 -4 11 -3 17 5 17 10 0 10 3 1 14 -15 18 5 27 35 15 17 -6 20 -3 20 14 -1
12 -7 28 -13 35 -7 7 -13 20 -13 28 0 8 -7 14 -15 14 -8 0 -15 -4 -15 -10 0
-5 -9 -19 -20 -30 -11 -11 -20 -16 -20 -11 0 6 5 13 10 16 6 4 8 11 4 16 -3 6
1 18 10 28 14 15 14 18 -4 31 -11 8 -20 19 -20 24 0 5 9 1 20 -9 20 -18 21
-18 41 2 l21 20 -21 6 c-12 3 -19 1 -16 -3 3 -5 1 -11 -5 -15 -6 -4 -10 7 -10
27 0 24 3 29 10 18 5 -8 12 -11 16 -7 4 4 14 1 23 -6 30 -26 46 -26 46 -1 0
26 -5 30 -21 14 -7 -7 -18 -4 -34 10 -28 25 -50 26 -50 3 0 -15 -2 -16 -10 -3
-6 10 -10 11 -10 3 0 -7 -4 -13 -10 -13 -5 0 -10 7 -10 15 0 8 -6 15 -13 15
-7 0 -18 10 -26 21 -12 20 -11 21 8 16 29 -7 35 7 16 43 -18 35 -25 38 -25 10z"/>
</g>
</svg>
