<?xml version="1.0" standalone="no"?>
<!DOCTYPE svg PUBLIC "-//W3C//DTD SVG 20010904//EN"
 "http://www.w3.org/TR/2001/REC-SVG-20010904/DTD/svg10.dtd">
<svg version="1.0" xmlns="http://www.w3.org/2000/svg"
 width="1122.000000pt" height="634.000000pt" viewBox="0 0 1122.000000 634.000000"
 preserveAspectRatio="xMidYMid meet">

<g transform="translate(0.000000,634.000000) scale(0.100000,-0.100000)"
fill="#000000" stroke="none">
<path d="M484 6272 c-12 -8 -27 -72 -17 -72 3 0 12 8 19 18 13 16 15 16 28 0
7 -10 18 -18 25 -18 15 0 14 -12 -4 -46 -19 -37 -53 -40 -62 -5 -6 23 -7 24
-14 6 -13 -35 -10 -65 11 -87 29 -31 24 -88 -7 -88 -11 0 -13 -7 -8 -32 11
-48 29 -55 33 -13 2 27 8 35 23 35 10 0 19 5 19 10 0 18 29 10 35 -10 3 -11
11 -20 16 -20 5 0 6 -12 3 -27 -10 -40 -14 -45 -29 -33 -10 8 -19 8 -35 0 -12
-7 -31 -9 -42 -7 -16 5 -19 2 -15 -13 3 -11 -1 -21 -9 -24 -8 -3 -14 -17 -14
-31 l0 -25 37 20 c60 32 70 28 88 -37 24 -84 24 -85 36 -78 6 4 8 14 5 22 -10
25 41 112 66 113 8 0 -61 -153 -73 -160 -9 -6 9 -100 20 -100 4 0 12 5 19 12
9 9 12 9 12 -1 0 -8 -7 -19 -16 -25 -13 -10 -13 -18 -2 -59 6 -26 15 -47 18
-47 3 0 11 15 19 33 33 80 41 93 41 70 0 -12 -4 -25 -10 -28 -5 -3 -10 -18
-10 -32 0 -15 -9 -36 -20 -48 -19 -20 -19 -21 20 -213 22 -106 44 -210 49
-230 14 -50 68 -291 96 -427 12 -60 34 -157 48 -215 14 -58 31 -141 37 -185
22 -153 48 -300 58 -326 10 -26 12 -26 59 -15 26 6 53 14 58 18 7 4 2 46 -16
125 -30 128 -54 253 -74 378 -7 44 -16 87 -19 95 -3 8 -17 78 -31 155 -14 77
-39 208 -55 290 -17 83 -39 196 -49 251 -11 56 -23 110 -29 120 -5 11 -15 48
-21 84 -38 195 -65 307 -79 323 -11 12 -12 17 -2 17 7 0 10 6 5 18 -4 9 -11
42 -16 72 -6 37 -16 60 -30 71 -16 12 -18 18 -9 21 16 5 6 70 -41 253 -7 28
-13 61 -14 75 -2 14 -6 37 -10 53 -7 25 -11 27 -59 27 -28 0 -56 -4 -62 -8z
m98 -174 c-7 -7 -12 -8 -12 -2 0 14 12 26 19 19 2 -3 -1 -11 -7 -17z"/>
<path d="M1634 6213 c3 -38 10 -142 16 -233 30 -499 34 -549 47 -512 3 6 9 12
14 12 5 0 0 -15 -10 -33 -13 -23 -18 -48 -15 -78 2 -24 8 -147 14 -274 13
-286 16 -302 43 -311 12 -4 27 -13 35 -20 7 -8 21 -14 31 -14 10 0 26 -9 36
-20 18 -20 17 -20 -18 -20 -26 0 -37 4 -37 15 0 8 -7 15 -15 15 -8 0 -15 -5
-15 -11 0 -6 -9 -8 -21 -4 -20 7 -21 5 -15 -82 4 -48 13 -212 21 -363 9 -151
18 -314 21 -361 l6 -86 -108 -6 c-60 -4 -266 -12 -457 -18 -388 -14 -360 -18
-372 58 -8 52 -63 274 -98 393 -14 47 -41 146 -61 220 -19 74 -41 160 -49 190
-8 30 -29 123 -46 205 -18 83 -43 196 -56 252 -14 57 -25 113 -25 126 0 13 -3
27 -8 31 -4 4 -7 20 -8 34 0 15 -6 56 -12 92 -6 36 -14 92 -18 125 -13 118
-16 67 -8 -135 4 -113 7 -214 7 -225 -2 -46 18 -235 32 -300 16 -74 52 -301
80 -495 20 -140 51 -295 75 -375 18 -60 50 -193 50 -208 0 -4 -30 -7 -67 -5
l-68 3 -13 40 c-8 23 -16 103 -18 190 -5 147 -11 190 -61 410 -41 184 -39 179
-47 105 -12 -105 20 -411 60 -572 20 -80 32 -176 22 -179 -2 0 -84 -2 -183 -5
-99 -2 -199 -7 -222 -10 l-43 -5 0 -70 0 -69 173 1 c94 0 233 4 307 8 146 9
201 2 140 -17 -19 -5 -48 -13 -65 -17 -34 -7 -75 -31 -75 -44 0 -5 17 -18 37
-28 20 -11 41 -28 47 -38 6 -11 17 -25 23 -33 7 -7 15 -23 17 -35 3 -12 9 -42
14 -67 l9 -45 12 30 c30 75 134 248 173 287 21 21 78 24 78 6 1 -17 20 -216
24 -248 18 -133 49 -408 56 -500 6 -63 12 -126 15 -140 4 -24 55 -527 55 -549
0 -6 16 -11 35 -11 l35 0 -5 43 c-3 23 -14 141 -25 262 -11 121 -26 290 -34
375 -8 85 -20 236 -26 335 -6 99 -16 202 -21 229 -8 41 -7 51 6 58 8 5 15 17
15 27 0 11 7 22 16 25 12 4 15 18 13 53 l-3 48 54 7 c30 3 147 11 260 17 113
6 242 13 288 16 l82 5 0 -35 c0 -45 18 -358 25 -445 3 -36 8 -119 11 -185 2
-66 6 -133 9 -150 2 -16 7 -97 11 -180 3 -82 8 -152 9 -155 2 -3 6 -80 10
-170 3 -91 8 -204 10 -252 4 -85 3 -88 -18 -89 -18 -1 -17 -2 7 -9 27 -9 93
-4 486 36 85 8 200 19 255 24 55 5 152 14 215 20 63 7 149 15 190 18 l75 7 3
98 c1 54 -1 231 -7 395 -5 163 -6 300 -2 304 3 3 36 9 72 13 l66 7 7 -93 c13
-190 29 -851 27 -1096 -1 -138 3 -289 8 -335 13 -104 16 -218 7 -239 -5 -11 3
-21 28 -34 38 -21 56 -51 56 -95 0 -16 11 -41 24 -57 l24 -28 -27 -31 c-18
-22 -42 -35 -81 -45 -75 -19 -285 -17 -379 3 -85 19 -82 4 5 -19 42 -12 101
-17 204 -17 180 1 329 31 457 94 107 53 126 77 121 153 -5 66 0 69 63 36 25
-12 77 -24 132 -30 112 -12 356 -2 413 16 61 20 246 9 276 -17 11 -10 16 -18
11 -18 -6 0 -13 -8 -16 -19 -5 -21 -74 -38 -90 -22 -6 6 -17 7 -26 2 -20 -11
-142 -24 -201 -22 -25 1 -73 -6 -107 -15 -49 -13 -68 -14 -94 -5 -22 8 -36 8
-43 1 -5 -5 -19 -10 -30 -11 l-21 0 20 -9 c11 -4 68 -8 125 -7 58 0 130 -5
160 -12 30 -6 90 -12 132 -14 43 -1 78 -3 78 -4 0 -1 -11 -22 -24 -46 -14 -24
-30 -66 -36 -93 -7 -27 -18 -63 -26 -81 -8 -17 -14 -38 -14 -47 0 -9 -8 -16
-20 -16 -11 0 -20 5 -20 10 0 18 -29 10 -41 -11 -9 -17 -8 -20 3 -13 11 6 11
5 -1 -9 -7 -9 -24 -17 -37 -17 -13 0 -24 -4 -24 -9 0 -5 -9 -11 -20 -14 -11
-3 -19 -9 -18 -14 2 -5 -7 -19 -19 -32 -43 -47 9 -77 106 -62 29 4 54 4 57 0
3 -5 45 -9 94 -9 49 0 109 -6 132 -14 63 -20 228 -31 443 -28 226 4 354 15
365 32 5 7 11 37 14 67 3 29 9 78 12 108 5 45 10 55 25 55 11 0 19 7 19 15 0
8 6 15 14 15 18 0 39 -26 33 -42 -7 -20 12 -48 28 -42 9 4 17 -4 22 -25 4 -17
11 -31 16 -31 4 0 17 0 28 0 20 0 21 4 17 45 -4 33 -2 45 8 45 11 0 31 39 22
43 -33 17 -43 28 -43 46 -1 28 -53 59 -60 36 -3 -8 -7 -22 -10 -30 -10 -33
-40 -15 -60 35 -17 44 -23 50 -42 45 -18 -4 -23 -1 -23 12 0 10 5 25 10 33 8
12 10 12 10 -5 1 -18 2 -17 11 4 7 17 13 21 22 14 6 -6 36 -13 64 -16 l52 -6
-5 43 c-4 27 -2 46 5 50 7 5 11 -3 11 -23 0 -34 18 -51 31 -30 11 17 12 42 1
35 -4 -2 -12 6 -18 18 -9 19 -7 25 7 34 15 10 22 6 40 -20 25 -35 29 -79 8
-104 -7 -9 -12 -27 -11 -39 2 -13 -2 -26 -8 -30 -5 -3 -8 -11 -4 -16 3 -5 10
-7 15 -4 5 4 9 2 9 -3 0 -6 16 -10 35 -9 45 1 49 -5 35 -49 -11 -33 -11 -39 6
-51 16 -12 14 -13 -18 -13 -20 0 -39 -4 -43 -9 -3 -5 8 -9 23 -9 50 2 71 -24
30 -36 l-23 -7 26 -14 c28 -15 30 -21 50 -132 10 -60 14 -70 24 -57 9 13 16
14 33 5 11 -6 46 -11 76 -11 41 0 57 -4 64 -17 7 -11 15 -14 28 -8 27 11 86
14 104 4 9 -5 21 -2 32 8 15 13 20 13 45 0 31 -17 109 -37 144 -37 12 0 31 -7
41 -16 12 -12 21 -14 30 -7 17 13 128 24 128 13 0 -8 63 -7 244 5 37 2 75 10
82 16 10 8 14 8 14 0 0 -14 47 -38 93 -46 25 -5 37 -4 37 4 0 15 27 14 32 -1
8 -23 28 4 28 39 0 26 5 36 19 40 11 3 23 20 30 44 13 44 38 52 68 20 24 -25
51 -29 90 -12 28 12 38 11 78 -5 34 -15 45 -24 45 -41 0 -27 6 -29 27 -8 17
18 33 11 33 -14 0 -10 6 -24 14 -31 8 -6 16 -21 18 -33 2 -15 10 -22 25 -21
12 0 22 -2 21 -5 -3 -31 3 -34 67 -27 58 6 66 4 77 -14 14 -21 43 -27 53 -10
8 13 55 13 75 0 12 -7 11 -12 -5 -31 -20 -22 -20 -22 0 -11 11 6 39 20 61 31
l42 20 -9 -37 c-5 -20 -9 -40 -9 -43 0 -9 96 -59 114 -59 11 0 16 -9 16 -28 0
-20 -8 -32 -30 -45 -16 -10 -30 -25 -30 -33 0 -12 104 -14 755 -14 l756 0 -7
53 c-3 28 -19 117 -34 197 -28 145 -50 383 -56 610 -2 113 -18 358 -31 473 -3
32 -11 61 -17 63 -6 2 -80 8 -165 12 l-155 7 -32 155 c-18 85 -44 205 -59 265
-25 108 -52 332 -40 343 3 3 72 0 153 -7 259 -22 464 -40 572 -51 93 -9 281
-26 540 -50 108 -10 372 -36 560 -55 80 -8 196 -18 258 -22 l112 -6 0 29 c0
42 18 400 30 609 25 437 51 954 50 1000 -2 74 7 93 44 97 l31 3 0 75 c0 74 0
75 -27 78 -25 3 -28 7 -28 43 0 21 -1 39 -3 39 -1 0 -16 -4 -34 -9 -39 -11
-48 -4 -27 21 11 11 25 16 39 12 21 -5 23 -2 29 73 3 43 8 155 12 248 3 94 10
213 15 265 5 52 9 138 9 190 0 52 2 109 5 125 3 17 8 273 12 570 4 473 3 538
-10 527 -8 -7 -27 -10 -46 -6 -25 5 -31 11 -29 28 2 17 10 21 44 21 l41 0 2
123 1 122 -767 0 c-760 -1 -768 -1 -743 -20 25 -19 25 -20 3 -20 -12 0 -27 9
-33 20 -10 20 -21 20 -452 20 -394 0 -442 -2 -453 -16 -10 -15 -13 -15 -27 0
-13 12 -36 16 -98 16 -52 0 -79 -4 -75 -10 3 -5 2 -10 -4 -10 -5 0 -13 5 -16
10 -4 7 -973 10 -2873 10 l-2867 0 -49 -24 -50 -24 -19 24 -18 24 -515 0 -515
0 5 -67z m7016 33 c0 -15 -37 -32 -47 -22 -9 8 17 36 33 36 8 0 14 -6 14 -14z
m1206 -22 c-22 -16 -72 -19 -81 -5 -3 6 10 13 30 17 19 3 38 11 41 16 4 6 11
5 18 -2 8 -8 6 -15 -8 -26z m357 29 c-7 -2 -19 -2 -25 0 -7 3 -2 5 12 5 14 0
19 -2 13 -5z m-932 -40 c15 -41 8 -58 -29 -61 -25 -3 -32 -7 -28 -19 4 -9 1
-13 -6 -11 -20 7 -23 48 -4 48 21 0 21 29 0 37 -9 3 -25 1 -36 -6 -15 -10 -23
-9 -35 0 -24 21 11 39 74 39 49 0 54 -2 64 -27z m-7172 0 c12 -10 -29 -31 -72
-38 -38 -5 -48 -3 -53 10 -8 20 -2 26 38 35 30 7 76 3 87 -7z m6458 11 c-3 -3
-12 -4 -19 -1 -8 3 -5 6 6 6 11 1 17 -2 13 -5z m394 -27 c-8 -8 -11 -7 -11 4
0 9 3 19 7 23 4 4 9 2 11 -4 3 -7 -1 -17 -7 -23z m64 13 c3 -5 1 -10 -4 -10
-6 0 -11 5 -11 10 0 6 2 10 4 10 3 0 8 -4 11 -10z m82 -30 c28 -25 30 -30 14
-30 -11 0 -22 4 -25 9 -3 5 -14 7 -25 4 -15 -4 -18 0 -14 21 3 14 8 26 10 26
3 0 21 -13 40 -30z m-7206 -4 c-12 -14 -61 -19 -61 -5 0 8 23 16 54 18 15 1
16 -2 7 -13z m8743 -23 c-13 -9 -20 -10 -22 -3 -5 15 32 42 37 28 2 -6 -5 -17
-15 -25z m-6484 17 c0 -5 -5 -10 -11 -10 -5 0 -7 5 -4 10 3 6 8 10 11 10 2 0
4 -4 4 -10z m5890 -6 c0 -8 -5 -12 -10 -9 -6 4 -8 11 -5 16 9 14 15 11 15 -7z
m-5680 -9 c0 -8 -7 -15 -16 -15 -14 0 -14 3 -4 15 7 8 14 15 16 15 2 0 4 -7 4
-15z m-832 -25 c20 0 21 -16 2 -28 -15 -9 -18 -9 -14 2 3 7 -2 19 -11 26 -8 7
-15 18 -15 24 0 6 7 3 14 -6 7 -10 18 -18 24 -18z m179 -2 c-3 -7 -5 -2 -5 12
0 14 2 19 5 13 2 -7 2 -19 0 -25z m5610 14 c-9 -10 -22 -33 -28 -50 -14 -40
-39 -43 -36 -5 1 18 13 36 32 49 37 27 54 30 32 6z m1421 3 c-2 -1 -21 -6 -43
-9 -41 -8 -41 8 0 16 18 4 50 -1 43 -7z m160 -10 c-3 -3 -9 2 -12 12 -6 14 -5
15 5 6 7 -7 10 -15 7 -18z m-9118 5 c0 -5 -4 -10 -10 -10 -5 0 -10 5 -10 10 0
6 5 10 10 10 6 0 10 -4 10 -10z m8417 -15 c-9 -21 -107 -22 -107 -1 0 11 15
16 53 18 61 4 61 3 54 -17z m-8377 11 c0 -3 -4 -8 -10 -11 -5 -3 -10 -1 -10 4
0 6 5 11 10 11 6 0 10 -2 10 -4z m7235 -13 c6 -17 7 -17 20 1 8 11 21 16 30
13 18 -8 20 -27 3 -27 -7 0 -22 -3 -33 -6 -13 -3 -24 2 -33 16 -7 11 -8 20 -3
20 5 0 12 -8 16 -17z m1445 1 c0 -14 -3 -15 -17 -3 -10 7 -20 15 -22 16 -2 2
5 3 17 3 14 0 22 -6 22 -16z m98 10 c16 -5 21 -12 17 -25 -3 -10 1 -29 10 -43
11 -16 13 -26 6 -31 -6 -3 -20 9 -31 29 -12 19 -27 37 -35 40 -18 7 -20 36 -2
36 6 0 22 -3 35 -6z m-259 -13 c25 -16 5 -55 -34 -67 -19 -6 -35 -7 -35 -3 0
5 -9 9 -20 9 -11 0 -20 5 -20 10 0 6 9 10 21 10 12 0 23 8 26 20 3 11 9 18 13
15 5 -3 11 -1 15 5 8 12 16 12 34 1z m-1133 -48 c-3 -8 -6 -21 -6 -29 0 -8 -5
-14 -11 -14 -6 0 -9 7 -5 15 3 8 -2 18 -10 23 -9 5 -12 15 -8 25 5 13 10 14
26 6 12 -6 17 -17 14 -26z m-6866 17 c0 -5 17 -10 38 -11 l37 -1 -38 -9 c-25
-6 -45 -5 -58 1 -25 14 -24 30 1 30 11 0 20 -4 20 -10z m540 0 c0 -5 -4 -10
-9 -10 -5 0 -18 -3 -28 -6 -16 -6 -16 -5 2 9 23 19 35 21 35 7z m94 -31 c-7
-11 -15 -11 -34 1 -13 9 -13 11 0 19 16 11 43 -5 34 -20z m6833 -1 c18 -18 33
-38 33 -46 0 -10 10 -13 40 -10 45 4 51 -4 16 -20 -32 -14 -80 -1 -85 24 -5
32 -29 52 -56 46 -27 -5 -32 7 -13 26 18 18 29 15 65 -20z m-7057 11 c12 -8
10 -9 -7 -4 -12 3 -33 1 -45 -6 -21 -11 -22 -11 -9 4 15 19 39 22 61 6z m890
7 c0 -3 -4 -8 -10 -11 -5 -3 -10 -1 -10 4 0 6 5 11 10 11 6 0 10 -2 10 -4z
m5480 -6 c0 -5 -7 -10 -15 -10 -8 0 -15 5 -15 10 0 6 7 10 15 10 8 0 15 -4 15
-10z m-7143 -31 c2 -12 -1 -18 -7 -14 -5 3 -10 16 -10 27 0 26 13 16 17 -13z
m277 16 c-11 -28 5 -65 27 -65 12 0 23 -8 26 -20 3 -11 9 -20 14 -20 5 0 9 -4
9 -10 0 -5 -7 -10 -15 -10 -8 0 -15 7 -15 15 0 8 -9 15 -20 15 -11 0 -20 5
-20 10 0 6 -17 10 -39 10 -36 0 -38 1 -33 27 5 28 38 62 59 63 7 0 10 -7 7
-15z m256 -5 c0 -5 -4 -10 -10 -10 -5 0 -10 5 -10 10 0 6 5 10 10 10 6 0 10
-4 10 -10z m-603 -6 c-3 -3 -12 -4 -19 -1 -8 3 -5 6 6 6 11 1 17 -2 13 -5z
m8314 -17 c-13 -13 -26 -3 -16 12 3 6 11 8 17 5 6 -4 6 -10 -1 -17z m-8051 -8
c0 -5 -4 -9 -10 -9 -5 0 -10 7 -10 16 0 8 5 12 10 9 6 -3 10 -10 10 -16z m159
5 c2 -2 2 -7 -2 -10 -3 -3 -16 2 -29 11 l-23 17 25 -7 c14 -4 27 -9 29 -11z
m6816 6 c15 -25 13 -50 -6 -60 -10 -6 -19 -17 -19 -25 0 -8 -7 -15 -16 -15
-11 0 -14 -6 -9 -20 9 -30 -22 -38 -47 -12 l-20 20 23 12 c29 15 82 70 75 78
-3 3 -17 0 -31 -6 -29 -14 -41 0 -19 22 17 18 59 21 69 6z m815 6 c0 -3 -4 -8
-10 -11 -5 -3 -10 -1 -10 4 0 6 5 11 10 11 6 0 10 -2 10 -4z m-8033 -40 c-19
-19 -27 -20 -27 -3 0 20 22 39 33 28 6 -6 4 -16 -6 -25z m783 26 c0 -11 -46
-32 -70 -32 -11 0 -20 -4 -20 -10 0 -5 -4 -10 -10 -10 -5 0 -10 6 -10 14 0 9
20 21 48 29 59 18 62 19 62 9z m905 -2 c-3 -5 -11 -10 -16 -10 -6 0 -7 5 -4
10 3 6 11 10 16 10 6 0 7 -4 4 -10z m75 8 c-1 -13 -29 -80 -30 -70 0 7 -11 17
-25 24 -27 12 -24 25 9 38 20 8 46 13 46 8z m6940 -78 c5 0 10 -7 10 -15 0
-19 -62 17 -90 52 -35 45 -21 47 25 4 24 -22 49 -41 55 -41z m-8785 58 c27
-12 33 -28 11 -28 -25 0 -46 12 -46 26 0 17 2 17 35 2z m2395 3 c0 -15 -42
-41 -67 -41 -32 0 -28 12 10 31 38 19 57 22 57 10z m6437 -11 c-3 -12 1 -23
10 -29 12 -6 13 -12 4 -30 -7 -11 -18 -21 -27 -21 -12 0 -14 8 -9 38 8 48 13
62 21 62 3 0 4 -9 1 -20z m388 10 c3 -5 -1 -10 -9 -10 -9 0 -16 5 -16 10 0 6
4 10 9 10 6 0 13 -4 16 -10z m-9285 -20 c0 -5 -2 -10 -4 -10 -3 0 -8 5 -11 10
-3 6 -1 10 4 10 6 0 11 -4 11 -10z m225 0 c-3 -5 -17 -10 -31 -10 -13 0 -24 5
-24 10 0 6 14 10 31 10 17 0 28 -4 24 -10z m555 0 c0 -5 -7 -10 -16 -10 -8 0
-12 5 -9 10 3 6 10 10 16 10 5 0 9 -4 9 -10z m740 0 c0 -5 -4 -10 -10 -10 -5
0 -10 5 -10 10 0 6 5 10 10 10 6 0 10 -4 10 -10z m5749 -20 c6 0 11 -4 11 -9
0 -17 -20 -23 -35 -11 -11 9 -26 5 -70 -20 -31 -18 -58 -30 -60 -28 -3 2 23
26 57 52 54 41 64 45 74 32 6 -9 16 -16 23 -16z m-6579 -1 c0 -5 -7 -9 -15 -9
-15 0 -20 12 -9 23 8 8 24 -1 24 -14z m1105 11 c4 -6 11 -8 16 -5 5 4 9 1 9
-4 0 -6 10 -11 21 -11 18 0 19 -2 9 -15 -10 -12 -16 -12 -26 -4 -8 6 -21 9
-29 5 -8 -3 -15 -1 -15 3 0 5 -3 16 -6 25 -7 17 11 22 21 6z m6768 -10 c4 -15
0 -19 -17 -17 -18 2 -21 -3 -18 -28 1 -16 2 -45 2 -63 0 -18 4 -31 9 -28 5 3
14 0 20 -8 14 -16 -3 -32 -36 -34 -26 -1 -26 -2 -13 55 6 23 6 52 2 64 -6 15
-4 32 5 51 17 33 38 37 46 8z m-1159 -28 c-4 -20 -12 -32 -23 -32 -10 0 -12 3
-5 8 6 4 14 20 18 36 9 38 18 28 10 -12z m615 15 c-27 -21 -43 -61 -40 -105 1
-27 -2 -41 -8 -38 -13 8 -39 -31 -47 -72 -4 -22 -3 -32 5 -32 21 0 8 -45 -14
-48 -16 -3 -18 -1 -7 9 23 24 13 32 -36 26 -40 -5 -50 -2 -60 14 -17 26 -16
29 17 40 28 10 47 44 30 54 -14 9 2 35 22 35 21 0 24 -11 8 -27 -11 -11 -4
-53 9 -53 4 0 15 14 25 32 14 25 15 33 5 40 -10 6 -7 10 9 14 29 8 29 61 0 70
-17 5 -12 10 29 30 53 26 79 31 53 11z m-7562 -3 c-3 -3 -12 -4 -19 -1 -8 3
-5 6 6 6 11 1 17 -2 13 -5z m7923 1 c0 -10 -91 -57 -98 -50 -4 3 0 10 8 15 8
5 24 16 35 24 19 14 55 22 55 11z m-6320 -15 c0 -5 -4 -10 -10 -10 -5 0 -10 5
-10 10 0 6 5 10 10 10 6 0 10 -4 10 -10z m7080 3 c0 -5 -19 -17 -43 -28 -50
-24 -109 -62 -118 -77 -8 -13 -167 -16 -187 -4 -7 4 -10 12 -7 17 4 5 17 2 31
-7 20 -14 29 -14 54 -4 16 7 43 10 60 8 25 -4 37 2 63 29 17 18 39 33 48 33 9
0 22 6 29 14 6 8 24 17 38 19 15 2 28 5 30 6 1 0 2 -2 2 -6z m-8920 -37 c0 -2
-8 -10 -17 -17 -16 -13 -17 -12 -4 4 13 16 21 21 21 13z m7660 0 c0 -3 -4 -8
-10 -11 -5 -3 -10 -1 -10 4 0 6 5 11 10 11 6 0 10 -2 10 -4z m-7933 -42 c-2
-2 -12 -2 -21 2 -13 5 -14 9 -5 21 11 12 14 12 22 -2 5 -9 7 -19 4 -21z m573
20 c0 -2 -9 -4 -20 -4 -11 0 -20 4 -20 9 0 5 9 7 20 4 11 -3 20 -7 20 -9z
m6700 -4 c0 -5 -8 -10 -17 -10 -15 0 -16 2 -3 10 19 12 20 12 20 0z m710 1 c0
-6 -5 -13 -10 -16 -15 -9 -43 3 -35 15 8 13 45 13 45 1z m670 -6 c0 -8 -4 -15
-10 -15 -5 0 -10 7 -10 15 0 8 5 15 10 15 6 0 10 -7 10 -15z m-6085 -33 c-8
-8 -25 10 -19 20 4 6 9 5 15 -3 4 -7 6 -15 4 -17z m4755 24 c0 -3 -4 -8 -10
-11 -5 -3 -10 -1 -10 4 0 6 5 11 10 11 6 0 10 -2 10 -4z m1061 -6 c19 0 19 -2
5 -22 -25 -36 -20 -51 14 -46 23 3 29 1 26 -8 -3 -8 0 -16 6 -20 7 -4 6 -9 -3
-15 -17 -11 -29 -11 -28 -1 4 22 -3 30 -21 25 -27 -7 -25 -37 3 -52 22 -11 22
-11 -3 -6 -14 2 -35 5 -47 5 -29 0 -30 25 -3 42 23 15 27 58 6 58 -8 0 -18 -4
-21 -10 -9 -15 -45 -12 -39 3 3 8 15 13 27 13 16 -1 23 6 25 22 3 16 8 22 19
18 8 -3 24 -6 34 -6z m-8065 -14 c15 -12 17 -17 7 -27 -10 -10 -16 -10 -25 -1
-7 7 -27 12 -44 12 -32 0 -50 11 -37 24 12 11 79 6 99 -8z m6878 -7 c-3 -5
-10 -7 -15 -3 -5 3 -7 10 -3 15 3 5 10 7 15 3 5 -3 7 -10 3 -15z m-7099 1 c4
-6 -5 -10 -20 -10 -15 0 -24 4 -20 10 3 6 12 10 20 10 8 0 17 -4 20 -10z
m7175 0 c0 -5 -6 -10 -14 -10 -8 0 -18 5 -21 10 -3 6 3 10 14 10 12 0 21 -4
21 -10z m1950 -10 c0 -5 -5 -10 -11 -10 -5 0 -7 5 -4 10 3 6 8 10 11 10 2 0 4
-4 4 -10z m-8030 -10 c0 -5 -2 -10 -4 -10 -3 0 -8 5 -11 10 -3 6 -1 10 4 10 6
0 11 -4 11 -10z m960 6 c0 -3 -4 -8 -10 -11 -5 -3 -10 -1 -10 4 0 6 5 11 10
11 6 0 10 -2 10 -4z m7210 -4 c0 -15 -38 -44 -51 -40 -9 3 -6 11 9 26 22 22
42 29 42 14z m-9172 -19 c-4 -20 -58 -32 -58 -13 0 7 7 9 15 6 9 -3 18 1 21 9
8 21 26 19 22 -2z m185 -8 c3 -16 0 -24 -7 -22 -14 4 -21 47 -8 47 5 0 12 -11
15 -25z m6785 -10 c-9 -9 -30 14 -23 25 6 9 10 8 17 -4 6 -10 8 -19 6 -21z
m2137 14 c-4 -5 -13 -9 -22 -9 -13 0 -13 3 -3 15 13 15 35 11 25 -6z m-1234
-32 c-9 -9 -14 -8 -21 3 -16 24 -11 31 11 19 16 -8 18 -14 10 -22z m1149 26
c-1 -23 -60 -57 -60 -35 0 10 39 41 53 41 4 1 7 -2 7 -6z m-1385 -14 c11 -17
-1 -21 -15 -4 -8 9 -8 15 -2 15 6 0 14 -5 17 -11z m445 -4 c-7 -9 -15 -13 -17
-11 -7 7 7 26 19 26 6 0 6 -6 -2 -15z m-1530 -19 c0 -8 -4 -18 -10 -21 -5 -3
-10 3 -10 14 0 12 5 21 10 21 6 0 10 -6 10 -14z m2191 3 c20 -10 20 -11 3 -30
-21 -23 -64 -26 -64 -4 0 8 -5 15 -11 15 -7 0 -9 -9 -6 -21 3 -13 1 -19 -6
-16 -23 7 -17 32 10 49 33 20 47 22 74 7z m-6906 -9 c3 -5 2 -10 -4 -10 -5 0
-13 5 -16 10 -3 6 -2 10 4 10 5 0 13 -4 16 -10z m4965 0 c0 -5 -4 -10 -10 -10
-5 0 -10 5 -10 10 0 6 5 10 10 10 6 0 10 -4 10 -10z m-402 -21 c24 -12 68 -45
97 -73 68 -67 80 -114 60 -237 -7 -46 -11 -87 -9 -90 6 -10 -25 -79 -36 -79
-5 0 -7 21 -3 50 5 41 3 50 -10 50 -23 0 -47 -11 -42 -20 2 -4 -5 -16 -16 -26
-20 -18 -21 -18 -34 0 -13 18 -15 17 -44 -3 -32 -23 -71 -35 -71 -22 0 14 35
39 65 47 54 13 75 67 31 78 -30 7 -38 47 -17 89 12 25 11 31 -3 45 -16 16 -18
15 -36 -8 l-19 -25 -3 50 -3 50 -22 -40 c-20 -36 -22 -37 -23 -15 0 14 -4 31
-9 39 -7 11 -12 3 -21 -30 -17 -67 -23 -78 -27 -49 -11 81 -15 93 -24 79 -5
-8 -9 -32 -10 -54 -1 -24 -4 -31 -6 -17 -2 12 -8 20 -12 18 -4 -3 -6 9 -5 27
2 18 1 24 -2 15 -3 -10 -9 -18 -14 -18 -5 0 -11 8 -14 18 -3 9 -4 -2 -2 -25 2
-24 2 -43 0 -43 -2 0 -20 18 -40 40 -23 25 -45 40 -60 40 -32 0 -39 -17 -9
-24 35 -9 32 -45 -6 -82 l-30 -29 -28 34 -29 35 -15 -30 c-8 -16 -18 -46 -21
-67 -19 -119 -21 -107 19 -107 19 0 35 -4 35 -8 0 -5 -21 -9 -47 -9 -27 0 -49
-5 -51 -11 -2 -7 -10 -12 -17 -12 -16 0 -26 -25 -19 -45 4 -8 1 -15 -4 -15 -6
0 -14 15 -17 34 -8 38 -41 80 -56 70 -5 -3 -21 1 -34 10 -30 20 -35 20 -35 2
0 -16 -108 -28 -124 -15 -5 5 -22 -3 -38 -16 -38 -32 -58 -32 -58 1 0 43 17
64 54 64 39 0 63 23 72 68 5 24 2 38 -11 52 -25 27 -9 55 53 98 47 32 112 44
112 21 0 -17 121 -149 131 -143 5 3 16 20 24 37 8 18 28 52 44 77 16 25 30 52
30 61 1 22 28 44 86 70 59 26 118 36 239 38 73 1 98 -3 134 -20z m-4643 1 c-3
-5 -11 -10 -16 -10 -6 0 -7 5 -4 10 3 6 11 10 16 10 6 0 7 -4 4 -10z m203 -20
c19 -24 19 -60 -1 -60 -6 0 -19 7 -29 17 -17 15 -18 15 -18 0 0 -19 -11 -22
-26 -7 -8 8 -8 21 0 44 8 27 15 34 33 32 12 -2 31 -13 41 -26z m277 20 c3 -5
-1 -10 -10 -10 -9 0 -13 5 -10 10 3 6 8 10 10 10 2 0 7 -4 10 -10z m6705 3 c0
-5 -4 -15 -10 -23 -11 -18 -25 -7 -17 15 6 15 27 21 27 8z m-6755 -33 c3 -6
-1 -17 -9 -26 -15 -14 -16 -14 -16 0 0 9 -6 16 -14 16 -9 0 -12 7 -9 20 4 15
9 17 24 10 10 -6 21 -15 24 -20z m5665 20 c0 -5 -7 -10 -15 -10 -8 0 -15 5
-15 10 0 6 7 10 15 10 8 0 15 -4 15 -10z m188 -11 c-10 -5 -20 -25 -24 -44 -4
-26 -11 -35 -26 -35 -10 0 -17 4 -14 8 3 5 -3 18 -14 30 -19 20 -12 40 10 27
5 -3 22 1 37 9 31 17 58 21 31 5z m-6763 -9 c-3 -5 -12 -10 -18 -10 -7 0 -6 4
3 10 19 12 23 12 15 0z m1155 -11 c0 -5 -4 -9 -10 -9 -5 0 -10 7 -10 16 0 8 5
12 10 9 6 -3 10 -10 10 -16z m6184 6 c-4 -8 -1 -15 5 -15 6 0 11 -4 11 -10 0
-5 -11 -10 -24 -10 -27 0 -44 29 -24 42 21 13 38 9 32 -7z m-7274 -5 c0 -5 -4
-10 -10 -10 -5 0 -10 5 -10 10 0 6 5 10 10 10 6 0 10 -4 10 -10z m920 -5 c0
-8 -4 -15 -9 -15 -13 0 -22 16 -14 24 11 11 23 6 23 -9z m118 -20 c-3 -3 -9 2
-12 12 -6 14 -5 15 5 6 7 -7 10 -15 7 -18z m5012 9 c0 -8 -5 -12 -10 -9 -6 4
-8 11 -5 16 9 14 15 11 15 -7z m1268 -9 c-3 -3 -9 2 -12 12 -6 14 -5 15 5 6 7
-7 10 -15 7 -18z m173 -26 c-33 -27 -36 -28 -53 -12 -24 22 -23 36 2 23 17 -9
26 -7 47 10 40 31 43 12 4 -21z m-8064 25 c-3 -3 -12 -4 -19 -1 -8 3 -5 6 6 6
11 1 17 -2 13 -5z m6953 -13 c0 -5 -9 -11 -20 -14 -20 -5 -26 3 -13 16 9 10
33 8 33 -2z m40 -12 c0 -6 -4 -7 -10 -4 -5 3 -10 11 -10 16 0 6 5 7 10 4 6 -3
10 -11 10 -16z m-7250 1 c0 -5 -6 -10 -14 -10 -8 0 -18 5 -21 10 -3 6 3 10 14
10 12 0 21 -4 21 -10z m6782 -5 c-2 -5 -10 -9 -18 -7 -9 2 -22 -2 -30 -9 -17
-14 -29 -6 -21 15 6 16 74 17 69 1z m75 -2 c4 -10 15 -26 26 -35 20 -18 20
-18 0 -18 -18 0 -73 47 -73 63 0 15 41 6 47 -10z m43 7 c0 -5 -2 -10 -4 -10
-3 0 -8 5 -11 10 -3 6 -1 10 4 10 6 0 11 -4 11 -10z m-5449 -15 c26 -11 29
-14 13 -15 -12 0 -26 -10 -32 -22 l-11 -23 0 22 c-1 12 -6 25 -11 28 -6 4 -8
11 -5 16 8 12 7 12 46 -6z m6303 -1 c3 -8 2 -12 -4 -9 -6 3 -10 10 -10 16 0
14 7 11 14 -7z m356 3 c0 -17 -20 -37 -37 -37 -7 0 -13 5 -13 10 0 6 9 10 21
10 15 0 19 5 15 15 -3 8 -1 15 4 15 6 0 10 -6 10 -13z m-7730 -7 c0 -5 -5 -10
-11 -10 -5 0 -7 5 -4 10 3 6 8 10 11 10 2 0 4 -4 4 -10z m1485 0 c-7 -12 -55
-14 -55 -2 0 4 14 8 30 9 18 1 28 -2 25 -7z m6305 0 c0 -5 -5 -10 -11 -10 -5
0 -7 5 -4 10 3 6 8 10 11 10 2 0 4 -4 4 -10z m-7140 -19 c0 -12 -20 -25 -27
-18 -7 7 6 27 18 27 5 0 9 -4 9 -9z m5530 -12 c0 -6 -4 -7 -10 -4 -5 3 -10 11
-10 16 0 6 5 7 10 4 6 -3 10 -11 10 -16z m56 6 c-26 -19 -42 -19 -26 0 7 8 20
15 29 15 13 -1 13 -3 -3 -15z m-5461 -26 c0 -31 -13 -49 -35 -49 -10 0 -20 -5
-22 -12 -3 -7 -12 -9 -23 -4 -18 6 -18 8 5 20 17 8 24 19 23 34 -3 20 0 21 18
11 19 -10 20 -9 14 11 -5 16 -3 21 6 18 8 -3 14 -16 14 -29z m6186 2 c20 -4
35 -14 37 -24 2 -12 -1 -15 -12 -11 -9 3 -22 1 -30 -5 -8 -7 -22 -8 -36 -3
-21 8 -21 9 -5 25 21 21 7 22 -23 1 -28 -19 -28 -7 0 23 14 15 24 19 29 12 3
-6 22 -14 40 -18z m79 25 c0 -3 -4 -8 -10 -11 -5 -3 -10 -1 -10 4 0 6 5 11 10
11 6 0 10 -2 10 -4z m-7310 -76 c28 0 33 -17 7 -22 -30 -6 -53 19 -48 52 5 43
16 47 19 8 2 -29 8 -38 22 -38z m6980 35 c0 -26 -14 -33 -25 -15 -9 14 1 40
15 40 5 0 10 -11 10 -25z m-95 -15 c-3 -5 -11 -10 -16 -10 -6 0 -7 5 -4 10 3
6 11 10 16 10 6 0 7 -4 4 -10z m-7155 -20 c0 -11 -4 -20 -10 -20 -5 0 -10 9
-10 20 0 11 5 20 10 20 6 0 10 -9 10 -20z m-330 1 c0 -5 -6 -14 -14 -20 -12
-10 -14 -9 -11 6 2 10 4 19 4 21 2 6 21 1 21 -7z m60 -6 c0 -8 -2 -15 -4 -15
-2 0 -6 7 -10 15 -3 8 -1 15 4 15 6 0 10 -7 10 -15z m230 0 c0 -8 -9 -15 -20
-15 -11 0 -20 7 -20 15 0 8 9 15 20 15 11 0 20 -7 20 -15z m7440 5 c0 -5 -5
-10 -11 -10 -5 0 -7 5 -4 10 3 6 8 10 11 10 2 0 4 -4 4 -10z m-7310 -10 c0 -5
-2 -10 -4 -10 -3 0 -8 5 -11 10 -3 6 -1 10 4 10 6 0 11 -4 11 -10z m1288 -9
c3 -8 -1 -12 -9 -9 -7 2 -15 10 -17 17 -3 8 1 12 9 9 7 -2 15 -10 17 -17z
m5460 -20 c3 -10 -2 -11 -19 -6 -27 9 -40 25 -32 38 6 10 45 -14 51 -32z
m-7247 -2 c-13 -14 -21 -18 -21 -9 0 13 32 42 38 35 2 -2 -5 -14 -17 -26z
m7872 20 c7 -1 1 -4 -13 -8 -29 -9 -43 -4 -34 10 3 6 13 8 21 5 8 -3 20 -6 26
-7z m-6155 -11 c-3 -7 -11 -13 -18 -13 -7 0 -15 6 -17 13 -3 7 4 12 17 12 13
0 20 -5 18 -12z m1395 -5 c15 -3 27 -9 27 -14 0 -5 14 -24 31 -44 22 -24 40
-35 59 -35 56 0 78 -28 48 -58 -18 -18 -28 -15 -28 9 0 18 -5 20 -52 17 l-53
-3 2 -35 c1 -19 9 -40 19 -47 19 -14 94 -18 94 -5 0 4 12 12 26 19 28 13 29
13 58 -86 21 -69 20 -94 -2 -114 -25 -23 -62 -12 -62 19 0 15 6 24 15 24 8 0
15 7 15 16 0 10 -6 14 -14 11 -8 -3 -30 7 -48 23 -24 21 -39 28 -53 23 -11 -4
-46 -8 -79 -8 -51 0 -61 -4 -80 -28 -12 -15 -29 -27 -39 -27 -21 0 -22 -10 -2
-36 17 -22 19 -44 5 -44 -5 0 -14 19 -20 43 -7 23 -16 58 -22 79 -14 48 -1
162 23 210 10 20 19 46 19 57 0 23 47 53 70 45 8 -3 27 -8 43 -11z m-1491 -15
c-7 -7 -12 -25 -12 -40 0 -22 -5 -28 -21 -28 -15 0 -19 4 -15 16 3 9 6 26 6
39 0 17 7 25 23 27 28 5 34 1 19 -14z m3348 7 c21 -26 0 -35 -80 -35 -105 0
-121 25 -25 41 67 11 92 10 105 -6z m-4625 -5 c3 -5 -1 -10 -9 -10 -9 0 -16 5
-16 10 0 6 4 10 9 10 6 0 13 -4 16 -10z m-85 -14 c0 -8 -4 -18 -10 -21 -5 -3
-10 3 -10 14 0 12 5 21 10 21 6 0 10 -6 10 -14z m310 7 c0 -5 -11 -13 -25 -20
-20 -9 -25 -8 -25 2 0 13 14 23 38 24 6 1 12 -2 12 -6z m121 -16 c-6 -6 -11
-21 -11 -32 0 -27 -8 -35 -26 -28 -13 5 -12 8 1 23 11 13 13 20 5 25 -16 10 7
35 26 28 11 -4 12 -9 5 -16z m1169 3 c0 -5 -4 -10 -9 -10 -6 0 -13 5 -16 10
-3 6 1 10 9 10 9 0 16 -4 16 -10z m5341 -6 c12 -14 11 -16 -5 -13 -11 2 -21
10 -24 17 -5 17 13 15 29 -4z m-6601 -4 c0 -5 -4 -10 -10 -10 -5 0 -10 5 -10
10 0 6 5 10 10 10 6 0 10 -4 10 -10z m950 0 c0 -5 -4 -10 -10 -10 -5 0 -10 5
-10 10 0 6 5 10 10 10 6 0 10 -4 10 -10z m246 -26 c8 3 14 1 14 -4 0 -13 -37
-13 -45 0 -3 6 -3 16 2 23 5 9 9 7 11 -6 2 -11 9 -16 18 -13z m5772 7 c3 -8
-1 -12 -9 -9 -7 2 -15 10 -17 17 -3 8 1 12 9 9 7 -2 15 -10 17 -17z m-2469
-35 c-1 -23 -3 -33 -6 -24 -3 13 -12 15 -38 11 -27 -4 -34 -2 -40 16 -9 30 -1
38 45 38 l40 0 -1 -41z m-4634 23 c11 -17 -1 -21 -15 -4 -8 9 -8 15 -2 15 6 0
14 -5 17 -11z m1460 2 c3 -5 1 -12 -5 -16 -5 -3 -10 1 -10 9 0 18 6 21 15 7z
m2965 -1 c0 -5 -4 -10 -10 -10 -5 0 -10 5 -10 10 0 6 5 10 10 10 6 0 10 -4 10
-10z m107 4 c-3 -3 -12 -4 -19 -1 -8 3 -5 6 6 6 11 1 17 -2 13 -5z m2081 -21
c-2 -9 -15 -20 -30 -24 -32 -8 -35 -3 -11 23 20 23 46 24 41 1z m-6738 -13 c0
-5 11 -10 25 -10 14 0 25 -5 25 -11 0 -6 -9 -8 -22 -3 -13 4 -31 8 -40 8 -22
0 -24 26 -3 26 8 0 15 -4 15 -10z m170 0 c0 -6 -7 -13 -15 -16 -8 -4 -15 -12
-15 -20 0 -8 -7 -14 -15 -14 -8 0 -15 5 -15 11 0 5 -5 7 -11 3 -7 -4 -10 1 -7
12 3 16 22 25 71 33 4 0 7 -4 7 -9z m4427 -12 c-3 -8 -6 -5 -6 6 -1 11 2 17 5
13 3 -3 4 -12 1 -19z m-4307 2 c0 -5 -5 -10 -11 -10 -5 0 -7 5 -4 10 3 6 8 10
11 10 2 0 4 -4 4 -10z m-46 -9 c3 -5 -3 -11 -14 -14 -21 -5 -28 -27 -10 -27 6
0 24 7 39 14 28 15 28 14 29 -15 1 -24 -2 -28 -16 -20 -9 5 -39 12 -67 16 -27
4 -43 10 -35 13 8 2 23 13 33 23 19 21 33 24 41 10z m1069 -9 c21 -23 26 -63
10 -69 -7 -3 -16 4 -20 14 -4 10 -16 25 -27 34 -20 16 -15 39 8 39 7 0 20 -8
29 -18z m5185 6 c20 -20 13 -28 -13 -16 -14 6 -25 15 -25 20 0 12 24 10 38 -4z
m-4918 -13 c0 -8 -4 -15 -10 -15 -5 0 -10 7 -10 15 0 8 5 15 10 15 6 0 10 -7
10 -15z m340 -5 c14 -14 33 -20 65 -20 64 0 92 -17 133 -80 26 -40 36 -69 39
-105 5 -69 -12 -100 -57 -100 -28 0 -34 -4 -32 -17 2 -14 -4 -18 -29 -18 -27
0 -30 2 -19 15 25 30 6 43 -46 34 -50 -10 -90 -39 -105 -76 -5 -13 -13 -23
-18 -23 -11 0 -56 94 -66 138 -10 47 18 133 64 195 22 31 41 61 41 67 0 15 8
12 30 -10z m5360 10 c0 -5 -5 -10 -11 -10 -5 0 -7 5 -4 10 3 6 8 10 11 10 2 0
4 -4 4 -10z m-2550 -10 c0 -5 -2 -10 -4 -10 -3 0 -8 5 -11 10 -3 6 -1 10 4 10
6 0 11 -4 11 -10z m-3992 -25 c-11 -24 -38 -35 -38 -16 0 8 38 41 47 41 1 0
-3 -11 -9 -25z m5617 15 c-3 -5 -17 -10 -31 -10 -14 0 -22 4 -19 10 3 6 17 10
31 10 14 0 22 -4 19 -10z m-6360 -10 c3 -6 -5 -10 -19 -10 -14 0 -28 5 -31 10
-3 6 5 10 19 10 14 0 28 -4 31 -10z m78 -23 c14 -5 25 -27 14 -27 -18 0 -67
35 -67 47 0 14 2 14 18 1 9 -8 25 -18 35 -21z m6457 3 c-27 -20 -36 -19 -27 5
4 8 17 15 29 15 l23 0 -25 -20z m-1842 -29 c-15 -5 -19 4 -11 24 6 18 7 18 13
-1 4 -10 3 -21 -2 -23z m1671 18 c-22 -22 -35 -20 -26 6 4 8 16 15 27 15 20 0
20 0 -1 -21z m-1634 -19 c3 -5 1 -10 -4 -10 -6 0 -11 5 -11 10 0 6 2 10 4 10
3 0 8 -4 11 -10z m558 -2 l22 -12 -25 -6 c-31 -8 -41 -4 -33 15 6 18 8 18 36
3z m-3805 -20 c18 -18 15 -28 -8 -28 -11 0 -20 5 -20 10 0 6 -7 10 -15 10 -8
0 -15 5 -15 10 0 14 43 13 58 -2z m4145 -38 c34 0 43 -16 17 -30 -22 -12 -80
-2 -60 10 9 6 9 13 0 31 -10 21 -10 22 3 7 8 -10 26 -18 40 -18z m-4513 16 c0
-3 -4 -8 -10 -11 -5 -3 -10 -1 -10 4 0 6 5 11 10 11 6 0 10 -2 10 -4z m3023
-10 c10 -8 15 -20 11 -30 -3 -9 -1 -16 5 -16 6 0 11 -4 11 -10 0 -5 -6 -10
-14 -10 -7 0 -19 -7 -26 -15 -10 -12 -9 -16 4 -21 9 -3 16 -12 16 -19 0 -7 11
-16 25 -19 37 -9 31 -31 -20 -68 -24 -18 -47 -41 -50 -51 -12 -33 -23 -7 -30
72 -5 63 -3 91 10 133 26 77 26 78 58 54z m1591 -33 c-10 -7 -29 -13 -43 -13
-26 0 -26 0 4 16 17 8 34 20 40 25 6 6 11 6 14 -2 2 -7 -4 -18 -15 -26z
m-5874 7 c0 -13 -20 -13 -40 0 -12 8 -9 10 13 10 15 0 27 -4 27 -10z m4620
-83 c0 -21 -5 -58 -11 -81 -11 -43 -11 -43 -37 -30 -15 8 -38 23 -52 34 l-25
20 28 23 c15 13 27 28 27 34 0 6 8 14 18 18 15 6 15 8 -7 26 -22 18 -22 19 -3
19 11 0 23 8 27 18 6 14 9 12 21 -13 7 -16 13 -47 14 -68z m1453 86 c-7 -2
-19 -2 -25 0 -7 3 -2 5 12 5 14 0 19 -2 13 -5z m1187 -3 c0 -5 -5 -10 -11 -10
-5 0 -7 5 -4 10 3 6 8 10 11 10 2 0 4 -4 4 -10z m-7540 -7 c-1 -20 -29 -43
-44 -37 -23 9 -20 27 4 19 14 -5 20 -2 20 9 0 9 5 16 10 16 6 0 10 -3 10 -7z
m1367 1 c-3 -3 -12 -4 -19 -1 -8 3 -5 6 6 6 11 1 17 -2 13 -5z m578 -4 c3 -5
2 -10 -4 -10 -5 0 -13 5 -16 10 -3 6 -2 10 4 10 5 0 13 -4 16 -10z m5355 -10
c0 -15 -7 -20 -27 -20 l-28 1 24 19 c29 25 31 25 31 0z m-4000 -10 c9 -17 8
-20 -13 -20 -30 0 -40 10 -26 27 16 18 26 16 39 -7z m-3205 -11 c5 -5 1 -9
-12 -9 -11 0 -27 7 -34 16 -12 15 -11 16 11 9 14 -4 29 -11 35 -16z m8035 -17
c0 -7 -4 -10 -10 -7 -5 3 -10 16 -10 28 0 18 2 19 10 7 5 -8 10 -21 10 -28z
m-4920 19 c0 -12 -28 -22 -34 -12 -3 5 -3 11 1 15 9 9 33 7 33 -3z m4419 -35
c7 -8 10 -20 7 -25 -4 -5 -2 -13 4 -16 23 -14 -11 -36 -46 -29 -31 6 -34 4
-34 -19 0 -24 -2 -26 -45 -22 -48 4 -58 -7 -25 -25 11 -6 17 -16 14 -22 -5 -7
0 -9 14 -6 25 7 57 -24 49 -46 -4 -9 -2 -18 3 -21 6 -4 10 -15 10 -25 0 -10 6
-23 14 -27 7 -4 17 -18 20 -30 6 -19 3 -23 -13 -23 -11 0 -24 7 -29 16 -8 14
-13 12 -36 -12 -39 -43 -35 -57 9 -28 18 11 29 13 38 6 6 -5 21 -12 32 -15 12
-3 7 -5 -15 -6 -19 -1 -39 -5 -45 -9 -19 -14 -55 -71 -55 -88 0 -10 -5 -14
-14 -11 -11 4 -13 1 -9 -10 4 -11 3 -14 -5 -9 -7 4 -15 0 -19 -11 -4 -10 -13
-23 -21 -29 -9 -6 -12 -17 -8 -25 4 -8 1 -5 -8 5 -13 16 -18 17 -31 6 -8 -7
-19 -10 -23 -6 -4 4 1 12 11 17 9 6 17 17 17 25 0 8 8 17 18 21 9 3 25 14 34
24 9 9 22 19 27 20 6 2 13 18 17 36 6 28 4 31 -14 26 -17 -4 -21 -1 -19 16 1
12 6 21 12 21 6 0 19 6 28 13 15 11 15 16 1 56 -11 33 -12 46 -3 51 7 5 8 13
1 26 -5 11 -7 26 -5 34 3 12 1 12 -9 -2 -17 -20 -60 -27 -65 -10 -3 6 3 12 12
12 16 0 16 2 0 26 -19 29 -13 43 10 24 13 -11 15 -10 10 1 -9 26 9 41 38 30
24 -9 27 -8 27 9 0 13 5 18 15 14 12 -5 15 3 15 35 0 23 5 50 12 60 11 17 15
18 38 6 15 -8 32 -21 39 -29z m411 24 c0 -11 -7 -20 -15 -20 -13 0 -13 3 -3
20 7 11 14 20 15 20 2 0 3 -9 3 -20z m650 6 c0 -21 -21 -31 -30 -15 -5 7 -6
17 -4 21 9 14 34 9 34 -6z m-3976 -31 c8 -19 20 -35 25 -35 6 0 11 -13 11 -29
0 -28 -2 -29 -54 -33 -53 -3 -55 -2 -59 25 -2 18 3 33 16 45 11 9 23 27 28 40
11 30 16 28 33 -13z m1066 26 c24 -7 24 -8 -13 -20 -21 -7 -46 -10 -55 -6 -16
6 -15 8 2 21 21 15 28 16 66 5z m1450 -8 c0 -7 -10 -13 -22 -13 -16 0 -19 -3
-10 -8 9 -6 6 -14 -12 -31 l-24 -22 -20 25 c-12 16 -30 26 -46 26 -32 0 -34
13 -3 28 31 15 137 11 137 -5z m256 0 c20 -27 17 -53 -5 -53 -26 0 -34 15 -27
46 8 29 14 30 32 7z m-3194 -41 c4 11 8 11 20 0 11 -9 18 -10 23 -3 4 7 16 6
37 -5 28 -14 30 -19 24 -52 -3 -21 -6 -44 -6 -53 0 -9 -17 -33 -37 -53 -21
-20 -32 -36 -26 -36 12 0 24 -35 15 -44 -3 -3 -12 0 -20 6 -12 10 -19 7 -38
-15 -29 -34 -30 -47 -3 -54 11 -3 18 -11 16 -17 -2 -6 -10 -28 -18 -48 -8 -24
-19 -38 -30 -38 -9 0 -20 -10 -23 -22 l-6 -23 -20 24 c-30 35 -25 66 15 97 28
21 35 33 35 61 0 20 -4 32 -10 28 -6 -4 -10 21 -10 67 0 40 -3 89 -6 109 -5
29 -2 41 16 59 16 16 25 19 35 10 10 -8 14 -8 17 2z m2535 -4 c5 -7 9 -20 8
-28 -5 -46 -5 -46 -15 -28 -6 9 -18 14 -28 11 -10 -2 -24 3 -31 11 -11 13 -11
16 2 16 8 0 20 7 27 15 15 18 25 19 37 3z m-3493 -31 c30 -40 9 -54 -83 -59
-60 -2 -75 0 -84 13 -8 13 -6 21 6 33 15 15 19 15 45 2 27 -14 31 -14 48 5 16
17 16 22 4 30 -11 7 -8 9 14 7 18 -2 37 -14 50 -31z m4856 23 c0 -5 -5 -10
-11 -10 -5 0 -7 5 -4 10 3 6 8 10 11 10 2 0 4 -4 4 -10z m-7040 -10 c0 -5 -4
-10 -10 -10 -5 0 -10 5 -10 10 0 6 5 10 10 10 6 0 10 -4 10 -10z m5584 -6 c4
-9 4 -19 2 -21 -8 -8 -26 8 -26 23 0 19 16 18 24 -2z m1751 -4 c-3 -5 -13 -6
-21 -3 -12 4 -13 8 -3 14 15 9 32 2 24 -11z m115 5 c-12 -15 -30 -12 -30 6 0
5 10 9 21 9 18 0 19 -2 9 -15z m-1465 -5 c3 -5 -12 -18 -35 -30 -46 -23 -54
-12 -12 19 31 23 38 25 47 11z m1189 -15 c3 -8 12 -15 20 -15 20 0 85 -33 86
-43 0 -9 -51 2 -64 14 -6 5 -16 9 -23 9 -15 0 -53 31 -53 42 0 14 28 8 34 -7z
m-2044 -5 c0 -11 -56 -26 -122 -33 -35 -3 -48 -1 -52 10 -4 8 -4 19 0 24 7 12
174 12 174 -1z m1890 -10 c0 -5 -4 -10 -10 -10 -5 0 -10 5 -10 10 0 6 5 10 10
10 6 0 10 -4 10 -10z m312 -20 c-5 -37 -22 -50 -22 -18 0 19 16 48 25 48 1 0
0 -14 -3 -30z m-6096 5 c16 -13 17 -16 4 -25 -11 -7 -18 -5 -27 7 -25 33 -11
44 23 18z m-2338 -28 c2 -12 -1 -15 -12 -11 -19 7 -22 38 -3 32 6 -3 13 -12
15 -21z m1714 1 c-7 -7 -12 -8 -12 -2 0 6 3 14 7 17 3 4 9 5 12 2 2 -3 -1 -11
-7 -17z m-119 -8 c-3 -12 -8 -19 -11 -16 -5 6 5 36 12 36 2 0 2 -9 -1 -20z
m1987 -10 c0 -13 -19 -22 -30 -15 -14 9 0 34 16 28 8 -3 14 -9 14 -13z m-2537
-6 c-8 -21 -32 -24 -42 -5 -9 15 -6 18 19 18 18 0 26 -5 23 -13z m2620 4 c12
-7 32 -21 44 -32 19 -16 27 -17 67 -7 63 16 104 14 168 -7 54 -18 144 -79 133
-90 -3 -3 -15 4 -28 15 -47 43 -109 66 -193 71 -71 4 -86 1 -130 -21 -28 -14
-67 -42 -87 -62 -20 -20 -37 -33 -37 -28 0 5 5 14 11 20 9 9 8 21 -5 47 -17
35 -14 59 12 89 18 20 17 20 45 5z m947 2 c0 -5 -4 -10 -10 -10 -5 0 -10 5
-10 10 0 6 5 10 10 10 6 0 10 -4 10 -10z m-3750 -26 c0 -17 -22 -14 -28 4 -2
7 3 12 12 12 9 0 16 -7 16 -16z m250 12 c0 -3 -4 -8 -10 -11 -5 -3 -10 -1 -10
4 0 6 5 11 10 11 6 0 10 -2 10 -4z m4765 -6 c-3 -5 -14 -10 -23 -10 -15 0 -15
2 -2 10 20 13 33 13 25 0z m1005 -10 c0 -5 -2 -10 -4 -10 -3 0 -8 5 -11 10 -3
6 -1 10 4 10 6 0 11 -4 11 -10z m-6747 -7 c-7 -2 -19 -2 -25 0 -7 3 -2 5 12 5
14 0 19 -2 13 -5z m1005 -25 c-3 -7 -11 -13 -18 -13 -7 0 -15 6 -17 13 -3 7 4
12 17 12 13 0 20 -5 18 -12z m2222 -2 c0 -8 -7 -16 -15 -20 -13 -4 -14 -2 -5
14 13 23 20 26 20 6z m167 -23 c-3 -10 -5 -4 -5 12 0 17 2 24 5 18 2 -7 2 -21
0 -30z m3482 16 c40 -14 40 -27 -1 -24 -21 1 -34 8 -36 19 -4 19 -4 19 37 5z
m296 1 c-3 -5 -11 -10 -16 -10 -6 0 -7 5 -4 10 3 6 11 10 16 10 6 0 7 -4 4
-10z m-6125 -10 c0 -5 -2 -10 -4 -10 -3 0 -8 5 -11 10 -3 6 -1 10 4 10 6 0 11
-4 11 -10z m1677 -7 c3 -7 -3 -9 -16 -6 -24 6 -27 -10 -12 -67 5 -19 12 -63
15 -96 l7 -61 -71 71 -71 71 55 53 c53 51 84 63 93 35z m1473 -8 c0 -14 -4
-25 -10 -25 -11 0 -14 33 -3 43 11 11 13 8 13 -18z m2810 -25 c0 -20 -21 -9
-30 16 -14 35 -13 37 10 14 11 -11 20 -24 20 -30z m-2414 17 c4 -4 1 -14 -6
-23 -10 -11 -23 -14 -47 -9 -18 3 -42 1 -54 -5 -27 -15 -77 14 -60 34 12 14
154 16 167 3z m2926 -19 c-10 -10 -15 -10 -22 2 -6 9 -5 17 3 22 18 11 33 -10
19 -24z m-268 -3 c-17 -27 -29 -31 -39 -15 -3 6 1 10 10 10 8 0 18 7 21 15 4
8 10 15 15 15 5 0 2 -11 -7 -25z m206 9 c0 -8 -4 -12 -10 -9 -5 3 -10 10 -10
16 0 5 5 9 10 9 6 0 10 -7 10 -16z m-6305 -4 c3 -5 2 -10 -4 -10 -5 0 -13 5
-16 10 -3 6 -2 10 4 10 5 0 13 -4 16 -10z m625 -5 c0 -9 -9 -15 -22 -15 -22 1
-23 1 -4 15 25 19 26 19 26 0z m1925 5 c-3 -5 -13 -10 -21 -10 -8 0 -14 5 -14
10 0 6 9 10 21 10 11 0 17 -4 14 -10z m3255 0 c0 -5 -4 -10 -10 -10 -5 0 -10
5 -10 10 0 6 5 10 10 10 6 0 10 -4 10 -10z m-3546 -16 c10 -9 16 -32 16 -57
l-1 -42 -19 50 c-27 69 -26 80 4 49z m5073 -15 c0 -30 -1 -30 -13 -8 -12 23
-10 39 5 39 4 0 8 -14 8 -31z m-5322 1 c0 -14 -43 -43 -81 -54 -22 -7 -74 32
-74 56 0 9 3 9 12 0 7 -7 26 -12 43 -12 17 0 36 -5 43 -12 9 -9 12 -9 12 3 0
19 21 40 35 36 5 -2 10 -10 10 -17z m3995 6 c0 -2 -3 -11 -6 -20 -5 -13 -8
-13 -20 -1 -19 19 -18 25 6 25 11 0 20 -2 20 -4z m-6386 -19 c16 -12 13 -13
-20 -14 -21 -1 -43 -8 -49 -16 -7 -10 -17 -12 -35 -5 -18 7 -27 5 -36 -6 -6
-9 -26 -18 -45 -21 -19 -3 -28 -3 -21 1 6 3 12 12 12 20 0 9 11 14 30 14 17 0
30 5 30 11 0 7 9 9 23 5 14 -3 32 1 43 9 24 18 45 19 68 2z m142 -7 c24 0 47
-6 53 -14 18 -21 -3 -29 -42 -17 -17 6 -52 12 -75 15 -50 5 -69 16 -29 16 15
0 27 5 27 12 0 9 3 9 12 0 7 -7 31 -12 54 -12z m6754 10 c0 -5 -9 -14 -21 -20
-19 -11 -20 -10 -9 9 11 22 30 29 30 11z m-5978 -22 c-7 -7 -12 -8 -12 -2 0 6
3 14 7 17 3 4 9 5 12 2 2 -3 -1 -11 -7 -17z m1901 -6 c7 1 32 -3 57 -10 33
-10 61 -11 105 -3 47 7 65 6 82 -5 12 -8 29 -14 37 -14 19 0 29 -17 22 -36 -4
-11 -10 -12 -25 -5 -10 6 -21 8 -24 5 -14 -14 75 -145 96 -141 17 3 25 -65 14
-136 -8 -60 -12 -66 -48 -90 -30 -20 -47 -24 -74 -20 -22 4 -34 10 -31 18 2 6
0 18 -5 26 -6 9 -9 10 -9 2 0 -7 -14 -12 -32 -12 -18 -1 -48 -1 -65 -1 -18 0
-33 -4 -33 -8 0 -11 41 -48 60 -55 14 -5 -26 -10 -93 -11 -31 -1 -58 -33 -35
-41 7 -2 20 -4 28 -3 8 1 41 0 74 0 53 -2 58 -4 53 -22 -8 -30 31 -49 50 -24
17 24 29 10 15 -20 -14 -31 -65 -56 -113 -56 -32 0 -48 9 -108 62 -92 81 -111
126 -118 290 l-6 116 31 16 c29 15 30 19 28 68 -3 59 10 98 32 98 8 0 12 6 9
14 -3 8 -3 17 1 21 4 4 8 0 10 -9 2 -9 9 -15 15 -14z m3940 -12 c20 0 20 0 1
-15 -24 -18 -64 -19 -64 -2 0 19 12 29 28 22 7 -3 23 -5 35 -5z m904 -10 c1
-11 -4 -20 -13 -20 -16 0 -16 2 -8 24 8 22 19 20 21 -4z m-1577 -16 c0 -9 -5
-14 -12 -12 -18 6 -21 28 -4 28 9 0 16 -7 16 -16z m130 6 c0 -5 -2 -10 -4 -10
-3 0 -8 5 -11 10 -3 6 -1 10 4 10 6 0 11 -4 11 -10z m-5330 -19 c0 -5 -9 -11
-20 -14 -20 -5 -26 3 -13 16 9 10 33 8 33 -2z m4005 -28 c-8 -43 -18 -52 -60
-53 -28 0 -78 -5 -100 -9 -5 -1 1 -6 13 -12 13 -5 26 -18 29 -29 7 -25 12 -25
29 -2 10 13 28 17 84 18 l71 0 -7 -30 c-3 -17 -18 -41 -33 -53 -14 -12 -20
-22 -13 -23 19 0 14 -20 -5 -20 -15 0 -14 -2 2 -14 19 -14 19 -15 1 -35 -11
-12 -24 -29 -30 -39 -6 -10 -30 -47 -53 -82 -41 -63 -43 -64 -82 -61 -31 2
-42 -2 -50 -17 -9 -16 -18 -18 -63 -14 -53 5 -70 15 -62 37 3 6 0 24 -6 39 -8
21 -7 32 1 43 10 11 8 20 -9 43 -12 16 -22 38 -22 50 0 11 -4 20 -10 20 -5 0
-10 11 -10 25 0 18 5 25 19 25 26 0 36 -17 21 -35 -14 -17 -8 -51 15 -80 14
-18 15 -14 9 52 -6 63 -4 74 11 79 9 4 28 18 41 30 12 13 29 24 36 24 7 0 18
11 25 25 12 26 5 31 -25 16 -18 -9 -102 -39 -137 -49 -18 -5 -19 -4 -6 12 13
15 13 19 1 26 -8 5 -12 11 -10 12 35 27 65 39 68 30 5 -17 32 -15 32 2 0 21
20 30 33 17 16 -16 24 -14 30 9 3 11 17 22 33 25 16 3 45 11 65 17 20 6 42 8
47 4 6 -3 13 -2 17 4 3 5 20 10 37 10 30 0 30 -1 23 -37z m100 25 c25 -7 45
-15 45 -18 0 -8 -67 -70 -74 -70 -3 0 -3 7 0 15 5 12 0 14 -25 9 -34 -7 -39 4
-21 50 11 30 14 30 75 14z m-3142 -30 c27 -27 29 -33 15 -36 -21 -4 -23 -13
-6 -30 9 -9 8 -12 -5 -12 -20 0 -20 -1 -7 -34 11 -29 4 -32 -24 -11 -39 29
-39 14 -2 -24 21 -22 35 -44 32 -50 -4 -6 2 -25 14 -41 12 -17 16 -30 10 -30
-6 0 -8 -4 -5 -10 3 -5 33 -10 65 -10 57 0 59 1 62 28 2 21 10 29 36 37 17 5
32 13 32 17 0 4 6 8 14 8 8 0 16 7 20 15 3 8 15 15 26 15 11 0 23 -7 26 -15
10 -25 25 -17 22 13 -3 25 0 27 30 25 40 -1 77 28 59 47 -7 6 11 -1 38 -16 28
-15 56 -34 63 -43 12 -15 14 -15 23 1 5 9 26 19 48 23 43 7 81 43 81 76 0 29
22 19 33 -15 14 -42 55 -81 86 -81 16 0 26 -5 26 -15 0 -8 -6 -14 -12 -13 -7
2 -13 -6 -13 -17 0 -14 5 -18 17 -13 14 5 15 1 10 -24 -4 -21 -1 -35 7 -42 19
-16 28 -71 15 -87 -6 -8 -8 -25 -5 -40 5 -18 2 -32 -10 -45 -28 -31 -63 -24
-104 21 -27 29 -45 40 -66 40 -16 0 -40 7 -52 16 -32 22 -40 9 -14 -19 28 -30
28 -37 -1 -37 -13 0 -34 11 -46 24 -23 24 -67 31 -88 14 -7 -6 -35 -11 -63
-11 -27 0 -50 -4 -50 -8 0 -5 27 -18 60 -30 33 -12 60 -25 60 -30 0 -10 -66
-29 -105 -29 -47 -1 -236 -45 -272 -63 -39 -21 -44 -21 -37 -2 4 10 0 15 -11
15 -14 0 -16 -6 -11 -27 7 -27 31 -53 49 -53 4 0 5 5 2 10 -3 6 -13 10 -21 10
-8 0 -12 5 -9 10 3 6 22 10 41 10 19 0 34 5 34 10 0 6 13 10 29 10 17 0 33 5
36 11 4 6 13 8 21 5 7 -3 16 0 20 5 3 6 15 8 27 5 11 -3 29 0 39 5 14 7 24 7
34 -2 12 -10 17 -8 28 6 9 12 15 14 20 7 4 -6 12 -9 19 -7 48 17 174 5 189
-18 4 -7 15 -12 25 -13 63 -3 61 -2 53 -36 -4 -18 -11 -42 -15 -53 -12 -32
-69 -104 -82 -105 -6 0 -9 -9 -6 -22 5 -19 3 -21 -8 -10 -17 16 -40 15 -33 -1
3 -8 -3 -20 -12 -28 -13 -11 -18 -11 -21 -1 -3 6 -11 12 -18 12 -14 0 -30 -41
-40 -105 -11 -63 -28 -107 -37 -92 -10 16 -10 50 1 43 4 -3 6 6 3 19 -2 14 0
25 6 25 5 0 13 12 16 26 9 33 -9 56 -19 25 -6 -19 -9 -18 -46 20 -41 42 -48
59 -24 59 18 0 20 21 3 38 -8 8 -15 8 -24 1 -9 -7 -16 -5 -26 6 -35 45 -60 66
-66 60 -4 -4 3 -15 16 -25 15 -13 22 -29 22 -54 0 -42 -12 -47 -28 -11 -7 14
-20 25 -31 25 -11 0 -23 5 -26 10 -3 6 -12 10 -18 10 -7 -1 -6 -5 4 -13 23
-18 40 -53 33 -71 -8 -21 -24 -21 -24 0 0 8 -4 12 -10 9 -9 -6 -15 8 -11 29 2
9 -18 26 -32 26 -13 0 5 -52 24 -71 12 -12 19 -33 19 -60 0 -45 -11 -44 -37 4
-14 26 -18 29 -21 13 -3 -16 -9 -13 -43 20 -21 21 -39 46 -39 56 0 25 14 22
30 -6 13 -25 40 -43 40 -27 0 5 -9 20 -20 34 -28 35 -26 49 6 41 l27 -7 -23
31 c-13 18 -32 34 -42 38 -23 7 -13 24 14 24 21 0 21 1 3 20 -10 11 -23 19
-29 17 -6 -3 -23 2 -38 10 -33 16 -37 4 -8 -22 11 -10 20 -25 20 -33 0 -13 -3
-13 -18 1 -10 10 -26 17 -36 17 -9 0 -31 7 -47 16 -48 24 -45 10 8 -43 51 -49
90 -103 75 -103 -4 0 -16 14 -26 31 -19 32 -75 62 -106 57 -10 -2 -30 8 -44
21 -27 26 -48 22 -26 -4 17 -21 3 -19 -37 6 -19 12 -52 22 -74 23 -21 0 -39 4
-39 8 0 4 -22 19 -49 33 -27 13 -53 30 -57 36 -12 19 79 1 94 -18 11 -16 13
-16 28 -1 21 21 11 56 -10 39 -11 -9 -16 -9 -21 0 -5 7 -21 9 -40 6 -18 -3
-37 -2 -41 3 -5 4 -27 10 -49 13 -22 3 -50 8 -62 12 -35 11 -28 -11 7 -24 17
-5 30 -15 30 -20 0 -6 5 -11 11 -11 16 0 87 -53 94 -70 3 -8 16 -33 30 -55 36
-58 31 -79 -6 -24 -16 26 -50 60 -76 75 -25 16 -49 39 -54 52 -8 21 -29 31
-29 13 0 -15 64 -90 77 -90 29 -2 74 -57 87 -108 7 -29 9 -53 5 -53 -5 0 -9 5
-9 10 0 21 -96 101 -157 131 -58 28 -80 49 -51 49 6 0 4 6 -7 13 -22 17 -12
37 18 38 l22 0 -22 11 c-12 6 -37 8 -56 4 -25 -5 -37 -14 -50 -41 -17 -37 -41
-46 -51 -20 -3 8 -12 15 -20 15 -14 0 -96 112 -96 131 0 19 -25 7 -57 -27 -37
-40 -42 -64 -15 -65 13 0 12 -2 -6 -9 -12 -5 -25 -16 -28 -25 -5 -11 -11 -12
-24 -5 -23 13 -50 13 -50 1 0 -16 70 -35 83 -22 6 6 22 11 37 10 23 -1 22 -2
-7 -10 -18 -5 -33 -16 -33 -24 0 -8 -9 -15 -20 -15 -11 0 -20 4 -20 8 0 11
-116 9 -126 -1 -4 -4 15 -7 43 -7 33 0 55 -5 63 -15 7 -8 20 -15 29 -15 14 -1
13 -2 -2 -11 -13 -8 -22 -7 -32 1 -8 7 -39 13 -69 14 -46 2 -52 0 -38 -11 9
-7 35 -13 57 -13 22 0 51 -8 65 -16 25 -15 25 -15 -12 -9 -47 7 -50 -9 -5 -25
32 -12 32 -12 7 -19 -17 -5 -21 -9 -12 -15 25 -15 11 -23 -30 -16 -55 9 -99
30 -91 43 4 7 -1 8 -12 3 -10 -4 -21 -2 -25 5 -6 8 -13 8 -29 0 -26 -14 -27
-31 -2 -31 11 0 22 -6 24 -12 4 -10 7 -10 14 -1 7 10 13 10 29 -3 18 -15 18
-15 -3 -9 -14 4 -23 2 -23 -4 0 -6 -10 -11 -21 -11 -17 0 -19 -3 -10 -14 10
-11 8 -15 -6 -19 -15 -3 -13 -6 10 -15 31 -13 37 -37 8 -29 -15 3 -18 1 -14
-11 5 -12 2 -14 -13 -7 -33 14 -95 18 -107 6 -17 -17 -50 -14 -43 4 8 21 -3
45 -22 45 -13 0 -12 3 4 15 10 8 14 15 8 15 -6 0 -17 -7 -24 -15 -17 -21 -37
-19 -43 4 -2 11 -15 21 -28 23 -13 2 -23 9 -22 16 4 18 -17 15 -40 -5 -16 -15
-21 -15 -25 -4 -3 8 -12 -2 -22 -25 -11 -23 -15 -45 -11 -54 27 -52 18 -120
-16 -120 -15 0 -15 -2 2 -13 17 -13 17 -14 -5 -20 -12 -3 -19 -10 -15 -16 3
-6 -1 -11 -9 -11 -9 0 -16 -6 -16 -14 0 -7 -15 -18 -32 -23 l-33 -10 28 -13
c27 -13 36 -43 17 -55 -6 -4 -17 -1 -25 5 -12 10 -15 9 -15 -8 0 -13 9 -23 23
-28 22 -7 22 -7 -5 -16 -15 -5 -28 -16 -30 -23 -2 -11 -7 -12 -18 -4 -11 8
-12 12 -2 16 37 15 -4 59 -45 48 l-28 -7 23 -15 c12 -9 22 -22 22 -29 0 -18
-8 -18 -26 1 -17 17 -44 20 -44 5 0 -5 -7 -10 -15 -10 -12 0 -15 -13 -15 -55
0 -66 -29 -119 -74 -135 -35 -12 -36 -12 -36 -2 0 4 16 16 34 26 41 22 69 74
60 111 -7 29 -5 28 -38 15 -19 -7 -24 -16 -24 -38 1 -39 -8 -52 -38 -52 -13 0
-33 -5 -44 -12 -10 -7 -21 -10 -22 -8 -2 3 -21 26 -41 52 -33 42 -67 112 -67
140 0 6 7 7 16 4 9 -3 26 4 41 19 26 23 26 25 9 44 -12 13 -14 21 -6 26 6 4
17 -1 25 -11 12 -17 15 -18 32 -3 10 9 28 20 40 23 12 4 50 28 86 54 119 87
162 116 208 139 70 36 92 63 91 119 -2 62 11 82 64 105 24 11 65 40 90 65 25
24 50 44 55 44 25 0 98 43 141 83 26 24 64 48 85 54 127 37 122 35 111 53 -17
26 -3 48 33 52 29 3 34 8 50 57 14 40 16 58 8 73 -8 16 -8 23 2 29 12 7 12 12
1 30 -12 18 -11 24 1 36 13 13 14 12 10 -11 -4 -22 -2 -26 17 -26 18 0 21 -4
16 -27 -3 -16 -8 -62 -12 -103 -8 -101 -2 -107 103 -91 43 6 103 11 133 11 30
0 64 0 75 1 51 4 223 -15 247 -28 26 -12 120 -16 160 -6 13 3 16 9 9 21 -5 9
-12 38 -15 64 -6 41 -4 48 13 58 11 5 26 29 33 51 7 25 20 44 32 49 12 4 30
25 41 46 10 22 27 51 37 66 10 14 18 32 18 40 0 24 30 58 51 58 11 0 35 -14
52 -32z m4268 -1 c-8 -8 -11 -7 -11 4 0 20 13 34 18 19 3 -7 -1 -17 -7 -23z
m99 23 c0 -5 -5 -10 -11 -10 -5 0 -7 5 -4 10 3 6 8 10 11 10 2 0 4 -4 4 -10z
m-1040 -30 c-6 -11 -12 -47 -14 -81 -3 -46 -11 -71 -33 -102 -15 -23 -33 -53
-39 -67 -6 -14 -32 -46 -58 -71 -25 -26 -46 -56 -46 -66 0 -11 -12 -30 -26
-44 -43 -40 -84 -152 -127 -344 -10 -49 -17 -61 -35 -63 -30 -4 -37 20 -19 58
9 16 12 32 8 34 -4 3 -8 44 -9 91 -2 82 -1 90 27 134 17 25 45 64 63 85 18 22
48 64 66 95 18 31 43 65 56 76 12 11 34 39 49 63 15 23 32 42 38 42 6 0 1 -12
-10 -26 -27 -34 -27 -54 -1 -47 12 3 20 14 20 27 0 11 14 48 30 81 16 33 30
69 30 80 0 19 25 65 36 65 3 0 0 -9 -6 -20z m-4330 0 c0 -5 -4 -10 -10 -10 -5
0 -10 5 -10 10 0 6 5 10 10 10 6 0 10 -4 10 -10z m5840 -11 c0 -6 -4 -7 -10
-4 -5 3 -10 11 -10 16 0 6 5 7 10 4 6 -3 10 -11 10 -16z m-6294 -11 c-9 -5
-24 -7 -34 -5 -14 3 -12 6 8 14 29 12 50 5 26 -9z m5842 -9 c-3 -8 -7 -3 -11
10 -4 17 -3 21 5 13 5 -5 8 -16 6 -23z m-5294 -11 c-8 -28 -3 -25 -44 -32 -27
-5 -30 -4 -13 3 12 6 27 19 33 30 15 28 33 27 24 -1z m3365 -30 l24 -51 -24
-19 c-13 -10 -33 -27 -44 -37 -17 -15 -22 -16 -33 -5 -10 11 -5 17 27 34 50
25 65 46 19 27 -18 -7 -46 -17 -63 -21 -30 -7 -30 -7 -8 9 13 9 20 22 16 30
-8 22 25 85 45 85 10 -1 26 -20 41 -52z m2478 6 c-3 -3 -12 -4 -19 -1 -8 3 -5
6 6 6 11 1 17 -2 13 -5z m-3381 -59 c-10 -27 -23 -8 -18 27 5 31 6 32 15 11 5
-12 7 -29 3 -38z m-986 35 c0 -13 -30 -13 -50 0 -11 7 -7 10 18 10 17 0 32 -4
32 -10z m4960 -14 c0 -3 -4 -8 -10 -11 -5 -3 -10 -1 -10 4 0 6 5 11 10 11 6 0
10 -2 10 -4z m-2876 -51 c-7 -16 -24 -21 -24 -6 0 8 7 13 27 20 1 1 0 -6 -3
-14z m-4899 -5 c-3 -5 -11 -10 -16 -10 -6 0 -7 5 -4 10 3 6 11 10 16 10 6 0 7
-4 4 -10z m560 0 c3 -5 2 -10 -4 -10 -5 0 -13 5 -16 10 -3 6 -2 10 4 10 5 0
13 -4 16 -10z m4225 -132 c29 -73 52 -149 52 -168 0 -68 -4 -73 -70 -86 -71
-15 -82 -20 -82 -39 0 -12 -61 -64 -67 -58 -2 1 -17 -3 -35 -10 -18 -6 -36
-10 -40 -9 -4 1 -5 -4 -2 -12 10 -26 -15 -26 -41 0 -33 33 -45 24 -16 -12 26
-33 26 -45 1 -77 -25 -31 -26 -66 -3 -82 16 -12 17 -15 1 -47 -13 -25 -17 -28
-17 -13 -1 11 -12 41 -26 67 -29 55 -34 88 -10 68 10 -8 15 -9 15 -1 0 13 -31
51 -43 51 -10 0 -3 -60 10 -86 7 -12 8 -25 2 -35 -5 -7 -9 -23 -9 -34 1 -19 1
-19 14 -2 17 22 27 9 19 -21 -6 -26 -10 -27 -31 -5 -9 9 -15 28 -14 43 2 15
-4 32 -12 40 -9 7 -16 19 -16 26 0 8 -5 14 -10 14 -6 0 -17 15 -25 33 l-14 32
-1 -28 c0 -16 11 -43 25 -61 14 -18 25 -43 25 -55 0 -22 -1 -22 -39 8 -21 17
-42 31 -46 31 -3 0 -20 14 -37 31 -23 23 -28 33 -19 39 9 5 10 10 3 14 -6 4
-9 13 -6 21 3 7 -5 24 -18 37 -22 22 -23 22 -26 4 -3 -11 3 -25 13 -32 11 -8
16 -24 15 -46 -3 -52 -2 -55 29 -61 19 -4 32 -14 37 -29 3 -13 10 -25 14 -28
11 -8 21 -72 10 -65 -6 3 -10 12 -10 20 0 20 -52 75 -72 75 -9 0 -20 5 -23 10
-3 6 -11 10 -17 10 -6 0 -4 -8 5 -18 25 -27 21 -35 -8 -15 -13 10 -25 24 -25
31 0 6 -4 12 -10 12 -13 0 -13 -6 2 -30 17 -27 4 -35 -26 -14 -33 21 -44 12
-26 -21 20 -37 5 -41 -34 -12 l-34 27 5 -40 c7 -52 -3 -51 -27 4 -19 43 -46
74 -55 64 -3 -3 6 -22 20 -42 14 -20 25 -45 25 -54 0 -15 -2 -15 -10 -2 -8 13
-11 13 -22 1 -10 -11 -10 -14 0 -18 6 -3 12 -12 12 -21 0 -12 -3 -13 -12 -4
-17 17 -31 15 -24 -3 4 -12 0 -14 -17 -10 -17 5 -26 -1 -39 -22 -25 -41 -72
-94 -58 -66 5 12 15 25 21 28 5 4 22 31 36 61 14 30 31 53 37 51 6 -2 19 0 29
5 16 8 16 11 -3 48 -11 21 -25 42 -31 45 -16 10 -23 -3 -11 -18 15 -18 -30
-63 -73 -72 l-30 -7 38 32 c45 38 43 49 -5 24 -33 -17 -33 -17 -15 3 23 26 22
32 -5 26 l-23 -6 24 26 c28 30 23 44 -8 27 -27 -14 -27 -2 2 28 l22 25 -27 -7
c-19 -4 -28 -2 -28 5 0 8 -7 6 -18 -5 -18 -15 -20 -14 -35 25 -9 23 -14 46
-11 50 7 12 41 11 49 -1 4 -6 29 -22 56 -35 27 -14 49 -32 49 -41 0 -8 7 -22
15 -30 13 -14 16 -14 21 1 4 9 3 20 -2 24 -5 3 -15 18 -21 34 -7 15 -19 27
-27 27 -8 0 -21 12 -28 27 -7 14 -20 29 -28 31 -12 4 -13 2 -2 -9 19 -20 14
-31 -10 -23 -44 13 -129 76 -126 93 1 9 -1 22 -6 29 -11 17 -1 26 20 18 11 -4
14 -13 10 -31 -4 -14 -2 -25 3 -25 5 0 17 -3 27 -7 14 -5 16 -2 12 15 -6 20
-2 22 40 23 26 1 52 0 57 -1 6 -1 19 -5 30 -8 16 -4 18 -2 8 9 -7 7 -29 13
-48 12 -25 -1 -38 4 -46 18 -12 23 -35 25 -47 3 -8 -15 -13 -15 -40 -3 -32 14
-48 54 -30 76 5 7 7 17 3 23 -6 10 24 43 73 83 17 13 21 23 16 42 -7 29 10 55
37 55 10 0 23 8 28 18 10 16 12 16 25 0 18 -24 28 -22 24 4 -4 30 28 37 37 9
8 -27 29 -28 22 -1 -8 30 11 38 88 38 39 0 78 3 87 7 10 4 24 -1 38 -15 19
-19 22 -19 36 -5 21 20 112 15 129 -8 8 -11 16 -12 28 -6 25 14 60 -7 54 -32
-6 -24 19 -37 36 -20 16 16 47 14 47 -4 0 -45 85 -81 175 -73 l40 3 -32 15
c-18 8 -33 18 -33 22 0 22 110 138 132 138 3 0 30 -60 58 -132z m2150 117 c15
-18 50 -20 51 -2 0 10 2 10 6 0 2 -7 12 -13 20 -13 11 0 13 -3 5 -12 -5 -7
-12 -24 -14 -37 -2 -14 -17 -33 -38 -46 l-35 -22 -1 24 c-2 21 1 24 22 19 34
-9 30 2 -17 46 -22 21 -38 42 -34 48 9 14 20 12 35 -5z m795 6 c3 -5 1 -12 -5
-16 -5 -3 -10 1 -10 9 0 18 6 21 15 7z m-7245 -30 c0 -6 -5 -13 -11 -16 -15
-10 -61 4 -54 15 8 13 65 13 65 1z m7170 0 c0 -14 -18 -23 -31 -15 -8 4 -7 9
2 15 18 11 29 11 29 0z m-7895 -11 c-3 -5 -15 -10 -26 -10 -11 0 -17 5 -14 10
3 6 15 10 26 10 11 0 17 -4 14 -10z m7121 -27 c-2 -16 -10 -29 -19 -31 -11 -2
-14 2 -10 17 3 12 1 21 -6 21 -6 0 -11 5 -11 10 0 6 11 10 24 10 21 0 24 -4
22 -27z m714 18 c0 -5 -6 -13 -13 -19 -10 -8 -13 -6 -14 9 -1 10 5 19 13 19 8
0 14 -4 14 -9z m-7910 -15 c0 -2 -9 -6 -20 -9 -11 -3 -18 -1 -14 4 5 9 34 13
34 5z m502 -19 c-25 -11 -30 -37 -7 -37 8 0 15 -4 15 -10 0 -15 -40 -12 -41 3
-4 38 23 73 44 60 6 -4 1 -11 -11 -16z m6420 -15 c22 -18 14 -32 -18 -32 -20
0 -24 5 -24 31 0 31 7 32 42 1z m1428 18 c0 -5 -6 -10 -14 -10 -8 0 -18 5 -21
10 -3 6 3 10 14 10 12 0 21 -4 21 -10z m-7450 -4 c0 -2 -7 -7 -16 -10 -8 -3
-12 -2 -9 4 6 10 25 14 25 6z m6920 -6 c0 -5 -4 -10 -10 -10 -5 0 -10 5 -10
10 0 6 5 10 10 10 6 0 10 -4 10 -10z m-3881 -60 c-13 -35 -27 -40 -23 -7 1 12
3 25 3 30 1 4 8 7 15 7 12 0 13 -6 5 -30z m3061 5 c0 -17 -2 -18 -24 -9 -23 9
-20 24 4 24 11 0 20 -7 20 -15z m-6941 -39 c10 -12 8 -13 -9 -9 -25 7 -37 23
-17 23 8 0 20 -6 26 -14z m8771 -16 c0 -5 -2 -10 -4 -10 -3 0 -8 5 -11 10 -3
6 -1 10 4 10 6 0 11 -4 11 -10z m-5735 -58 c-8 -8 -35 20 -35 37 1 12 5 11 21
-8 11 -13 17 -26 14 -29z m725 29 c0 -6 -4 -13 -10 -16 -5 -3 -10 1 -10 9 0 9
5 16 10 16 6 0 10 -4 10 -9z m-3790 -24 c0 -32 -24 -65 -35 -47 -4 7 -2 16 5
20 7 4 9 16 5 29 -5 15 -2 21 9 21 10 0 16 -9 16 -23z m3700 -41 c0 -2 -7 -6
-15 -10 -8 -3 -15 -1 -15 4 0 6 7 10 15 10 8 0 15 -2 15 -4z m3701 -44 c-7 -2
-18 1 -23 6 -8 8 -4 9 13 5 13 -4 18 -8 10 -11z m-5377 -31 c4 -5 -3 -7 -14
-4 -23 6 -26 13 -6 13 8 0 17 -4 20 -9z m6230 -45 c-10 -8 -21 -12 -24 -10 -5
6 21 24 34 24 6 0 1 -6 -10 -14z m-1324 -11 c-7 -9 -15 -13 -17 -11 -7 7 7 26
19 26 6 0 6 -6 -2 -15z m55 -25 c-3 -5 -19 -19 -36 -31 -30 -21 -31 -21 -18
-1 7 11 22 25 34 31 26 13 27 13 20 1z m750 0 c3 -5 -1 -10 -9 -10 -9 0 -16 5
-16 10 0 6 4 10 9 10 6 0 13 -4 16 -10z m-5997 -18 c6 -18 -15 -14 -22 4 -4
10 -1 14 6 12 6 -2 14 -10 16 -16z m6563 6 c18 -6 43 -20 54 -31 20 -20 20
-20 -5 -13 -14 4 -40 11 -58 16 -40 10 -46 15 -37 29 8 13 5 13 46 -1z m-8091
-12 c0 -22 -19 -29 -36 -15 -14 12 -14 14 3 20 27 11 33 10 33 -5z m65 4 c-3
-5 -10 -10 -16 -10 -5 0 -9 5 -9 10 0 6 7 10 16 10 8 0 12 -4 9 -10z m1878
-45 c15 -27 21 -45 14 -45 -10 0 -34 40 -56 94 -11 26 21 -10 42 -49z m-548
25 c3 -5 -3 -10 -14 -10 -12 0 -21 5 -21 10 0 6 6 10 14 10 8 0 18 -4 21 -10z
m6050 -20 c3 -5 0 -10 -9 -10 -8 0 -16 -6 -19 -12 -2 -7 -7 -10 -11 -7 -10 9
5 39 19 39 8 0 17 -4 20 -10z m-7585 -15 c0 -18 -4 -19 -31 -2 -17 10 -22 9
-38 -12 -17 -22 -38 -17 -23 5 17 26 92 33 92 9z m1495 5 c3 -6 -4 -10 -17
-10 -18 0 -20 2 -8 10 19 12 18 12 25 0z m739 -15 c65 -29 156 -108 156 -136
0 -28 -13 -23 -32 11 -21 38 -37 39 -31 3 l4 -28 -18 30 -18 30 -3 -38 c-3
-38 -4 -39 -24 -20 -11 10 -23 18 -27 18 -3 0 -13 28 -22 63 -19 72 -19 71
-49 77 -30 6 -38 15 -13 15 11 0 46 -11 77 -25z m253 -1 c-3 -3 -12 -4 -19 -1
-8 3 -5 6 6 6 11 1 17 -2 13 -5z m4633 2 c0 -3 -4 -8 -10 -11 -5 -3 -10 -1
-10 4 0 6 5 11 10 11 6 0 10 -2 10 -4z m495 -5 c3 -5 1 -12 -5 -16 -5 -3 -10
1 -10 9 0 18 6 21 15 7z m756 -1 c10 -6 19 -16 19 -22 0 -9 -3 -9 -12 0 -7 7
-22 12 -34 12 -13 0 -26 5 -29 10 -8 13 31 13 56 0z m-6443 -22 c7 -6 18 -21
24 -32 9 -16 5 -15 -22 7 -36 31 -48 30 -30 -2 6 -12 7 -21 3 -21 -10 1 -73
58 -73 66 0 10 82 -5 98 -18z m-423 2 c4 -6 -7 -10 -25 -10 -18 0 -29 4 -25
10 3 6 15 10 25 10 10 0 22 -4 25 -10z m672 4 c-3 -3 -12 -4 -19 -1 -8 3 -5 6
6 6 11 1 17 -2 13 -5z m2679 -26 c-3 -18 -13 -38 -21 -44 -9 -7 -18 -22 -20
-34 -6 -31 -7 -31 -51 -22 -30 6 -40 13 -42 30 -2 12 -8 20 -13 17 -5 -4 -9 3
-9 14 l0 21 20 -20 c21 -21 40 -26 40 -10 0 15 71 80 88 80 11 0 13 -8 8 -32z
m2221 5 c-9 -9 -20 -13 -24 -9 -4 4 -1 11 7 16 25 16 35 11 17 -7z m1663 -8
c0 -14 5 -25 10 -25 6 0 10 -4 10 -10 0 -17 -26 -11 -45 10 -15 16 -15 22 -5
35 18 22 30 18 30 -10z m-7170 5 c0 -5 -6 -10 -14 -10 -8 0 -18 5 -21 10 -3 6
3 10 14 10 12 0 21 -4 21 -10z m6374 -14 c-3 -9 -12 -16 -20 -16 -11 0 -10 4
4 18 20 22 25 21 16 -2z m-7900 -2 c9 -24 7 -28 -9 -14 -17 14 -20 30 -6 30 5
0 12 -7 15 -16z m8416 7 c0 -12 -20 -25 -27 -18 -7 7 6 27 18 27 5 0 9 -4 9
-9z m-6293 -21 c3 -11 9 -20 14 -20 13 0 31 -51 24 -68 -9 -23 -64 46 -65 81
0 31 19 37 27 7z m-1610 -22 c-3 -7 -5 -2 -5 12 0 14 2 19 5 13 2 -7 2 -19 0
-25z m2201 2 c1 -16 -2 -30 -8 -30 -11 0 -14 43 -3 53 9 10 8 10 11 -23z
m-2863 0 c3 -5 2 -10 -4 -10 -5 0 -13 5 -16 10 -3 6 -2 10 4 10 5 0 13 -4 16
-10z m425 -5 c0 -8 -7 -15 -15 -15 -26 0 -18 20 13 29 1 1 2 -6 2 -14z m1210
-5 c0 -4 -12 -5 -27 -2 -23 4 -25 2 -20 -17 3 -14 1 -21 -9 -21 -8 0 -14 7
-14 15 0 8 -6 15 -12 15 -8 1 -7 6 4 14 17 13 78 10 78 -4z m-1475 0 c-3 -5 3
-10 14 -10 12 0 21 -4 21 -10 0 -5 -6 -10 -14 -10 -17 0 -38 24 -29 33 10 10
15 8 8 -3z m2015 -94 c0 -5 -3 -6 -7 -3 -3 4 -12 2 -20 -4 -10 -9 -22 -3 -53
25 -22 20 -36 36 -30 36 5 0 10 8 10 18 0 10 3 22 8 26 7 8 92 -82 92 -98z
m-184 17 c16 -38 17 -43 6 -43 -9 0 -62 91 -62 105 0 17 43 -32 56 -62z m204
34 c0 -5 -4 -5 -10 -2 -5 3 -10 14 -10 23 0 15 2 15 10 2 5 -8 10 -19 10 -23z
m620 8 c0 -8 -4 -17 -10 -20 -6 -4 -10 5 -10 20 0 15 4 24 10 20 6 -3 10 -12
10 -20z m420 1 c0 -14 -4 -27 -9 -30 -12 -8 -22 20 -15 39 9 23 24 18 24 -9z
m605 -29 c-4 -23 -11 -59 -17 -79 -9 -30 -8 -39 6 -53 9 -9 16 -21 16 -26 0
-5 9 -9 20 -9 40 0 53 -64 19 -94 -20 -17 -22 -17 -40 3 -10 11 -19 25 -19 31
0 18 -34 7 -45 -15 -7 -15 -18 -19 -40 -17 -23 3 -27 1 -18 -8 15 -16 -4 -60
-27 -60 -9 0 -31 -16 -50 -35 -19 -19 -40 -35 -47 -35 -7 0 -13 -4 -13 -10 0
-5 -11 -10 -25 -10 -14 0 -25 -3 -25 -8 0 -4 27 -27 60 -51 75 -55 79 -76 13
-66 -27 4 -52 10 -58 13 -10 7 -176 30 -255 35 -25 2 -60 7 -79 12 -25 6 -32
5 -27 -3 4 -7 1 -12 -6 -12 -32 0 -8 130 29 160 37 29 68 25 139 -20 35 -22
73 -40 84 -40 20 0 112 42 138 63 10 8 9 15 -4 35 -16 24 -16 26 2 39 10 7 32
13 50 13 39 0 47 11 50 67 5 85 62 138 65 59 1 -18 3 -24 6 -13 3 11 13 27 23
37 10 10 25 42 35 71 9 30 18 60 21 67 9 30 24 -2 19 -41z m-1231 18 c7 -29 0
-48 -16 -39 -6 4 -5 9 3 15 11 6 11 11 1 21 -14 14 -16 28 -3 28 5 0 12 -11
15 -25z m-1104 -18 c0 -23 -2 -22 -19 10 -10 19 -9 22 4 17 8 -4 15 -15 15
-27z m148 -3 c-4 -3 -12 5 -18 18 -12 22 -12 22 6 6 10 -10 15 -20 12 -24z
m77 8 c-3 -3 -11 0 -18 7 -9 10 -8 11 6 5 10 -3 15 -9 12 -12z m199 -42 c-8
-7 -24 24 -23 45 0 15 4 13 14 -10 7 -16 11 -32 9 -35z m606 30 c18 -43 9 -45
-12 -4 -10 19 -14 34 -9 34 5 0 14 -14 21 -30z m221 -43 c-13 -13 -15 15 -3
53 7 24 7 23 10 -9 2 -18 -1 -38 -7 -44z m-1326 53 c3 -5 2 -10 -4 -10 -5 0
-13 5 -16 10 -3 6 -2 10 4 10 5 0 13 -4 16 -10z m1505 -21 c7 -13 6 -28 -4
-51 l-14 -33 -2 30 -2 30 -11 -32 c-17 -45 -27 -51 -28 -17 0 28 0 28 -10 5
-7 -18 -12 -21 -22 -12 -11 8 -17 3 -30 -24 -11 -24 -21 -33 -32 -29 -17 7
-19 32 -5 54 9 13 10 13 10 0 0 -13 1 -13 10 0 5 8 7 23 4 32 -7 22 40 36 61
18 13 -11 14 -8 9 18 -5 24 -2 31 12 34 26 6 43 -1 54 -23z m1583 7 c11 0 17
-8 17 -23 0 -29 -17 -29 -47 -1 -27 25 -30 43 -5 33 9 -5 25 -8 35 -9z m-3123
-6 c0 -5 -4 -10 -10 -10 -5 0 -10 5 -10 10 0 6 5 10 10 10 6 0 10 -4 10 -10z
m150 0 c0 -5 -2 -10 -4 -10 -3 0 -8 5 -11 10 -3 6 -1 10 4 10 6 0 11 -4 11
-10z m180 -43 c21 -34 26 -62 10 -52 -5 3 -10 14 -10 23 0 9 -15 31 -32 50
-27 28 -29 32 -10 23 13 -7 32 -27 42 -44z m2016 38 c7 -18 -14 -47 -27 -39
-5 3 -9 16 -9 30 0 27 27 34 36 9z m713 -22 c14 -48 14 -73 1 -73 -5 0 -10 18
-10 39 0 22 -4 43 -10 46 -13 8 -13 25 0 25 5 0 14 -17 19 -37z m-2968 2 c-1
-15 -24 -12 -29 3 -3 9 2 13 12 10 10 -1 17 -7 17 -13z m3088 1 c8 -10 8 -16
-3 -25 -11 -9 -15 -8 -20 5 -13 34 1 47 23 20z m125 -8 c9 -12 16 -32 16 -43
-1 -20 -1 -20 -12 0 -6 11 -20 30 -31 43 -17 18 -18 22 -4 22 9 0 23 -10 31
-22z m-2934 2 c0 -5 -2 -10 -4 -10 -3 0 -8 5 -11 10 -3 6 -1 10 4 10 6 0 11
-4 11 -10z m2623 -4 c3 -8 3 -17 0 -20 -7 -7 -33 13 -33 25 0 15 27 10 33 -5z
m-2957 -23 c-7 -7 -26 7 -26 19 0 6 6 6 15 -2 9 -7 13 -15 11 -17z m232 15
c14 -14 16 -38 4 -38 -15 0 -52 37 -45 44 10 10 28 7 41 -6z m451 -14 c12 -15
20 -38 20 -53 -2 -23 -2 -24 -6 -4 -2 13 -21 36 -41 53 -32 26 -34 30 -15 30
12 0 31 -12 42 -26z m2387 1 c8 -13 14 -32 12 -42 -3 -13 -10 -7 -26 25 -24
45 -13 59 14 17z m-2956 -6 c0 -18 -2 -19 -15 -9 -15 12 -12 30 6 30 5 0 9
-10 9 -21z m646 5 c17 -14 17 -15 1 -10 -10 3 -23 6 -28 6 -5 0 -9 5 -9 10 0
14 13 12 36 -6z m175 -8 c15 -12 35 -26 45 -33 18 -11 18 -12 -2 -12 -11 -1
-29 6 -40 14 -10 8 -25 15 -31 15 -20 0 -15 -38 5 -43 14 -4 14 -5 1 -6 -24
-2 -69 37 -69 59 0 34 51 37 91 6z m-451 -7 c8 -11 32 -28 53 -36 38 -15 49
-33 22 -33 -30 0 -75 30 -90 60 -18 34 -7 41 15 9z m6210 7 c0 -8 -5 -18 -11
-22 -8 -5 -8 -9 1 -14 7 -4 9 -13 5 -19 -11 -19 -32 5 -33 39 0 23 4 30 19 30
10 0 19 -6 19 -14z m-5472 -21 c-3 -3 -9 2 -12 12 -6 14 -5 15 5 6 7 -7 10
-15 7 -18z m1699 -18 c-7 -21 -24 -17 -35 8 -17 36 -15 38 13 19 14 -9 24 -22
22 -27z m204 3 c12 0 12 -47 0 -55 -13 -7 -32 62 -23 83 6 14 7 13 10 -5 2
-13 8 -23 13 -23z m87 -1 l-3 -24 -13 23 c-7 12 -10 27 -6 33 10 17 26 -6 22
-32z m4112 37 c0 -3 -4 -8 -10 -11 -5 -3 -10 -1 -10 4 0 6 5 11 10 11 6 0 10
-2 10 -4z m136 -11 c-3 -8 -1 -15 4 -15 6 0 10 -7 10 -15 0 -8 5 -15 10 -15 6
0 10 -4 10 -10 0 -5 -9 -10 -20 -10 -14 0 -20 7 -20 21 0 14 -5 19 -17 17 -12
-2 -17 -14 -18 -43 0 -29 -5 -41 -18 -43 -14 -3 -17 4 -17 34 0 23 -6 42 -17
50 -17 13 -17 13 0 14 9 0 17 6 18 13 0 10 2 10 6 0 7 -18 40 -16 47 2 3 8 10
15 17 15 6 0 9 -7 5 -15z m-5441 -5 c5 -7 11 -8 19 -1 6 5 50 9 96 8 70 -2 84
-5 81 -17 -3 -8 -5 -28 -6 -45 l-2 -30 -84 -1 c-106 0 -149 -9 -223 -45 -33
-16 -65 -29 -71 -29 -15 0 -37 78 -24 86 5 3 14 -6 21 -20 12 -28 16 -30 36
-18 9 6 10 16 3 34 -12 31 5 54 26 37 7 -7 13 -18 13 -26 0 -9 8 -13 23 -11
18 2 21 8 19 34 -3 27 1 33 25 42 37 14 41 14 48 2z m3455 0 c0 -5 -2 -10 -4
-10 -3 0 -8 5 -11 10 -3 6 -1 10 4 10 6 0 11 -4 11 -10z m2098 -17 c0 -24 -2
-25 -13 -10 -7 9 -17 17 -23 17 -6 0 -14 5 -17 10 -4 6 6 10 23 10 25 0 30 -4
30 -27z m-7870 -2 c3 -8 -1 -12 -9 -9 -7 2 -15 10 -17 17 -3 8 1 12 9 9 7 -2
15 -10 17 -17z m7315 13 c3 -3 -29 -40 -71 -82 -52 -50 -70 -73 -55 -69 20 4
21 2 13 -14 -9 -15 -14 -17 -34 -8 -24 11 -23 12 42 81 37 38 71 76 75 84 9
15 20 18 30 8z m-5513 -71 c0 -3 -7 0 -15 7 -8 7 -15 24 -15 39 1 25 1 25 15
-8 8 -18 15 -36 15 -38z m1480 41 c0 -8 -4 -14 -10 -14 -5 0 -10 9 -10 21 0
11 5 17 10 14 6 -3 10 -13 10 -21z m3821 -20 l-9 -39 -1 36 c-1 20 2 39 6 42
12 13 13 0 4 -39z m-6740 19 c13 -16 12 -17 -3 -4 -17 13 -22 21 -14 21 2 0
10 -8 17 -17z m213 1 c10 -25 -1 -29 -14 -5 -6 12 -7 21 -1 21 5 0 12 -7 15
-16z m7359 10 c13 -5 12 -9 -5 -26 -23 -23 -29 -20 -21 10 6 25 6 24 26 16z
m-2078 -13 c7 -12 -22 -41 -41 -41 -12 0 -12 4 3 25 19 26 29 30 38 16z
m-5335 -27 c0 -8 -4 -12 -10 -9 -5 3 -10 13 -10 21 0 8 5 12 10 9 6 -3 10 -13
10 -21z m2618 -21 c-3 -15 -6 -14 -17 6 -11 19 -11 25 0 32 15 9 23 -9 17 -38z
m-2077 20 c13 -16 12 -17 -3 -4 -10 7 -18 15 -18 17 0 8 8 3 21 -13z m506 -31
l-26 -26 6 25 c7 29 36 56 42 38 2 -6 -8 -23 -22 -37z m-1115 3 c6 -30 -7 -33
-22 -5 -6 11 -18 20 -28 21 -10 1 -8 4 8 8 32 10 37 7 42 -24z m1318 -11 c0
-13 -4 -24 -10 -24 -5 0 -10 14 -10 31 0 17 4 28 10 24 6 -3 10 -17 10 -31z
m1590 7 c0 -16 3 -38 6 -48 6 -16 4 -15 -8 2 -24 32 -31 75 -13 75 10 0 15
-10 15 -29z m144 23 c9 -3 16 -12 16 -19 0 -25 -15 -24 -27 1 -12 26 -12 27
11 18z m56 -10 c0 -8 -4 -12 -10 -9 -5 3 -10 10 -10 16 0 5 5 9 10 9 6 0 10
-7 10 -16z m2943 5 c20 -11 20 -12 -14 -28 -30 -14 -34 -20 -31 -48 3 -24 -2
-34 -18 -43 -21 -11 -40 -6 -40 11 0 6 10 8 23 4 14 -4 17 -3 9 3 -24 17 -23
52 3 64 14 6 27 19 30 30 7 21 10 22 38 7z m-5883 -20 c16 -30 8 -31 -13 -3
-10 13 -13 24 -8 24 6 0 15 -9 21 -21z m194 -26 c6 -15 5 -16 -11 -1 -10 8
-26 18 -35 21 -10 4 -18 11 -18 17 0 16 56 -16 64 -37z m473 41 c-3 -3 -12 -4
-19 -1 -8 3 -5 6 6 6 11 1 17 -2 13 -5z m342 -39 c6 -3 11 -19 11 -36 0 -16 5
-29 10 -29 6 0 10 -10 9 -22 l0 -23 -9 23 c-10 25 -20 28 -38 10 -18 -18 -20
-9 -14 62 3 47 7 59 13 43 4 -11 12 -24 18 -28z m1639 13 c2 -20 -1 -24 -20
-23 -26 2 -37 33 -16 46 20 13 33 5 36 -23z m42 11 c0 -5 -4 -9 -10 -9 -5 0
-10 7 -10 16 0 8 5 12 10 9 6 -3 10 -10 10 -16z m590 11 c0 -5 -4 -10 -9 -10
-6 0 -13 5 -16 10 -3 6 1 10 9 10 9 0 16 -4 16 -10z m2050 -5 c0 -8 -4 -15
-10 -15 -5 0 -10 7 -10 15 0 8 5 15 10 15 6 0 10 -7 10 -15z m1940 0 c32 -17
43 -43 13 -29 -10 4 -37 9 -60 12 -42 4 -55 15 -30 25 23 10 48 7 77 -8z
m-7740 -27 c0 -6 -7 -5 -15 2 -8 7 -15 17 -15 22 0 6 7 5 15 -2 8 -7 15 -17
15 -22z m1565 1 c9 -17 14 -33 12 -35 -8 -8 -47 48 -41 57 8 14 12 11 29 -22z
m100 -145 l-2 -177 -32 -13 -31 -13 7 42 c14 86 9 140 -15 175 -28 38 -17 43
13 5 l22 -26 13 47 c12 42 11 48 -5 60 -10 7 -15 18 -11 25 6 9 11 9 22 0 12
-9 14 -6 14 20 0 17 2 31 4 31 2 0 3 -79 1 -176z m1281 160 c-4 -9 -1 -23 5
-31 17 -20 2 -30 -17 -11 -17 17 -11 58 8 58 5 0 7 -7 4 -16z m-2698 -51 c2
-11 0 -14 -5 -8 -4 6 -20 18 -35 28 -16 10 -28 22 -28 28 0 18 65 -28 68 -48z
m3223 14 c-8 -8 -11 -5 -11 9 0 27 14 41 18 19 2 -9 -1 -22 -7 -28z m2940 28
c0 -6 -10 -12 -23 -13 -19 -4 -20 -2 -9 12 15 17 33 18 32 1z m-2571 -5 c0 -5
-4 -10 -10 -10 -5 0 -10 5 -10 10 0 6 5 10 10 10 6 0 10 -4 10 -10z m1916 -5
c11 -29 -2 -37 -19 -11 -15 23 -16 26 -2 26 9 0 18 -7 21 -15z m-5819 -17 c-3
-8 -6 -5 -6 6 -1 11 2 17 5 13 3 -3 4 -12 1 -19z m1479 -44 c-14 -13 -16 -14
-16 0 0 8 5 27 12 43 l12 28 4 -28 c2 -16 -3 -34 -12 -43z m779 41 c30 -29 32
-45 6 -45 -29 0 -85 26 -73 34 6 4 9 13 5 21 -9 25 35 18 62 -10z m1131 -2
c-7 -7 -26 7 -26 19 0 6 6 6 15 -2 9 -7 13 -15 11 -17z m221 -5 c-3 -7 -5 -2
-5 12 0 14 2 19 5 13 2 -7 2 -19 0 -25z m3423 11 c0 -6 -4 -7 -10 -4 -5 3 -10
11 -10 16 0 6 5 7 10 4 6 -3 10 -11 10 -16z m-3949 -33 c6 -6 9 -3 9 7 0 9 5
17 10 17 6 0 10 -12 10 -26 0 -14 -4 -23 -9 -20 -5 4 -11 1 -13 -6 -3 -8 -12
-2 -22 15 -12 17 -15 33 -11 44 7 16 8 16 13 -2 2 -11 8 -24 13 -29z m-2656
24 c3 -5 2 -10 -4 -10 -5 0 -13 5 -16 10 -3 6 -2 10 4 10 5 0 13 -4 16 -10z
m2905 -23 c0 -18 -2 -19 -10 -7 -13 20 -13 43 0 35 6 -3 10 -16 10 -28z
m-4509 7 c12 -14 11 -16 -5 -13 -11 2 -21 10 -24 17 -5 17 13 15 29 -4z m1239
0 c0 -2 -7 -4 -15 -4 -8 0 -15 4 -15 10 0 5 7 7 15 4 8 -4 15 -8 15 -10z m116
-21 c-7 -7 -26 7 -26 19 0 6 6 6 15 -2 9 -7 13 -15 11 -17z m763 -30 c34 -32
4 -30 -32 2 -28 27 -32 37 -20 49 5 4 12 0 18 -10 5 -10 21 -28 34 -41z m2310
30 c0 -25 -1 -25 -8 -8 -5 11 -7 23 -4 28 8 14 13 7 12 -20z m-3229 7 c0 -5
-2 -10 -4 -10 -3 0 -8 5 -11 10 -3 6 -1 10 4 10 6 0 11 -4 11 -10z m1587 -5
c9 -25 -4 -29 -17 -6 -7 15 -7 21 0 21 6 0 13 -7 17 -15z m-1479 -20 c-3 -3
-9 2 -12 12 -6 14 -5 15 5 6 7 -7 10 -15 7 -18z m572 -28 c0 -13 -29 12 -42
37 -10 19 -8 18 16 -3 14 -14 26 -29 26 -34z m2294 38 c4 -10 -7 -27 -31 -48
-52 -46 -65 -54 -114 -71 -61 -22 -95 -20 -102 3 -4 17 -1 18 27 10 53 -15 69
-12 62 14 -5 21 -3 23 31 19 25 -3 34 -1 29 7 -4 6 3 15 16 21 32 13 58 35 58
49 0 16 17 13 24 -4z m475 -27 c1 -5 -3 -8 -9 -8 -5 0 -10 12 -9 28 0 24 1 25
9 7 5 -11 9 -23 9 -27z m366 22 c4 -13 -1 -29 -13 -45 l-19 -25 0 25 c0 14 3
25 7 25 5 0 6 9 3 20 -7 26 14 26 22 0z m-435 -44 c-1 -17 -2 -18 -9 -6 -5 8
-12 26 -15 40 -7 24 -6 24 8 6 9 -11 16 -29 16 -40z m2433 39 c-4 -15 -56 -12
-61 3 -3 10 5 13 29 10 19 -2 33 -7 32 -13z m-6751 -17 c-7 -7 -12 -8 -12 -2
0 14 12 26 19 19 2 -3 -1 -11 -7 -17z m1308 1 c0 -6 -4 -7 -10 -4 -5 3 -10 11
-10 16 0 6 5 7 10 4 6 -3 10 -11 10 -16z m1823 4 c-5 -15 -3 -16 8 -5 19 18
39 15 39 -7 0 -27 -28 -48 -36 -28 -4 11 -15 14 -40 10 -29 -5 -34 -3 -34 14
0 26 8 33 41 33 23 0 27 -4 22 -17z m417 -13 c0 -6 -3 -9 -7 -8 -5 1 -18 -3
-30 -10 -20 -11 -23 -10 -23 6 0 28 20 43 42 31 10 -5 18 -14 18 -19z m55 21
c7 -12 -12 -24 -25 -16 -11 7 -4 25 10 25 5 0 11 -4 15 -9z m485 -16 c0 -8 -4
-17 -10 -20 -6 -4 -10 5 -10 20 0 15 4 24 10 20 6 -3 10 -12 10 -20z m916 -2
c-7 -7 -26 7 -26 19 0 6 6 6 15 -2 9 -7 13 -15 11 -17z m2938 6 c-6 -11 -24
-2 -24 11 0 5 7 7 15 4 8 -4 12 -10 9 -15z m150 12 c3 -5 -1 -12 -10 -15 -20
-8 -29 -1 -19 13 8 13 22 14 29 2z m-8138 -28 c-7 -7 -26 7 -26 19 0 6 6 6 15
-2 9 -7 13 -15 11 -17z m659 7 c3 -5 1 -10 -4 -10 -6 0 -11 5 -11 10 0 6 2 10
4 10 3 0 8 -4 11 -10z m1752 -22 c-3 -7 -5 -2 -5 12 0 14 2 19 5 13 2 -7 2
-19 0 -25z m5898 22 c3 -5 2 -10 -4 -10 -5 0 -13 5 -16 10 -3 6 -2 10 4 10 5
0 13 -4 16 -10z m-5815 -37 c0 -7 -4 -13 -10 -13 -5 0 -10 12 -10 28 0 21 2
24 10 12 5 -8 10 -21 10 -27z m4276 29 c6 -4 17 -18 24 -31 10 -19 10 -25 -1
-32 -10 -6 -15 -2 -17 14 -2 12 -11 30 -19 40 -16 17 -8 23 13 9z m1304 -13
c0 -10 -12 -11 -34 -3 -9 3 -14 10 -11 14 6 10 45 1 45 -11z m-7440 1 c0 -5
-4 -10 -9 -10 -6 0 -13 5 -16 10 -3 6 1 10 9 10 9 0 16 -4 16 -10z m7338 -1
c-2 -6 -7 -10 -11 -10 -4 1 -14 1 -22 1 -8 0 -15 5 -15 10 0 6 12 10 26 10 14
0 24 -5 22 -11z m-5661 -21 c-3 -8 -6 -5 -6 6 -1 11 2 17 5 13 3 -3 4 -12 1
-19z m5904 6 c12 -14 11 -16 -5 -13 -11 2 -21 10 -24 17 -5 17 13 15 29 -4z
m175 -11 c-10 -10 -19 5 -10 18 6 11 8 11 12 0 2 -7 1 -15 -2 -18z m264 7 c0
-5 -7 -10 -15 -10 -8 0 -15 5 -15 10 0 6 7 10 15 10 8 0 15 -4 15 -10z m-5040
-10 c0 -5 6 -10 14 -10 8 0 16 -7 20 -15 3 -9 0 -15 -8 -15 -8 0 -17 7 -20 16
-4 9 -13 14 -21 10 -15 -5 -20 5 -8 17 10 10 23 8 23 -3z m590 1 c0 -17 -18
-21 -24 -6 -3 9 0 15 9 15 8 0 15 -4 15 -9z m-1750 -17 c0 -8 -4 -12 -10 -9
-5 3 -10 10 -10 16 0 5 5 9 10 9 6 0 10 -7 10 -16z m-1821 -3 c7 -5 10 -14 6
-20 -5 -9 -10 -9 -21 0 -26 22 -14 38 15 20z m1702 -38 c-9 -16 -10 -16 -11
-1 0 9 3 25 7 35 7 16 8 17 11 1 2 -10 -1 -25 -7 -35z m468 31 c-17 -20 -69
-47 -77 -39 -9 9 50 54 72 55 16 0 16 -2 5 -16z m1450 -6 c5 -13 12 -34 15
-48 6 -21 4 -20 -13 8 -20 30 -28 62 -16 62 3 0 9 -10 14 -22z m-4329 2 c8 -5
11 -10 5 -10 -5 0 -17 5 -25 10 -8 5 -10 10 -5 10 6 0 17 -5 25 -10z m2473
-21 c-5 -19 -7 -19 -22 -4 -14 14 -14 17 -1 25 20 12 29 4 23 -21z m1775 2 c3
-10 0 -10 -16 -2 -30 16 -38 33 -11 22 13 -4 25 -14 27 -20z m-2458 9 c0 -5
-2 -10 -4 -10 -3 0 -8 5 -11 10 -3 6 -1 10 4 10 6 0 11 -4 11 -10z m6387 4
c-3 -3 -12 -4 -19 -1 -8 3 -5 6 6 6 11 1 17 -2 13 -5z m-8093 -19 c3 -8 1 -15
-3 -15 -5 0 -11 7 -15 15 -3 8 -1 15 3 15 5 0 11 -7 15 -15z m516 -11 c0 -12
-4 -12 -20 -4 -11 6 -18 15 -15 20 8 13 35 0 35 -16z m3166 -1 c-7 -7 -26 7
-26 19 0 6 6 6 15 -2 9 -7 13 -15 11 -17z m-2516 -4 c0 -4 -7 -6 -15 -3 -8 4
-15 10 -15 15 0 4 7 6 15 3 8 -4 15 -10 15 -15z m630 6 c7 -9 10 -18 7 -21
-10 -11 -37 5 -37 21 0 19 14 19 30 0z m2520 -11 c0 -22 -2 -25 -15 -14 -12
10 -13 16 -4 26 16 20 19 18 19 -12z m90 10 c0 -8 -5 -12 -10 -9 -6 4 -8 11
-5 16 9 14 15 11 15 -7z m3000 -14 c0 -5 -4 -10 -9 -10 -6 0 -13 5 -16 10 -3
6 1 10 9 10 9 0 16 -4 16 -10z m-2881 -12 c-1 -7 -5 -24 -9 -38 -7 -22 -8 -21
-9 13 -1 20 4 37 9 37 6 0 10 -6 9 -12z m83 -30 c-10 -22 -11 -21 -11 12 -1
26 2 31 11 22 8 -8 8 -17 0 -34z m-4036 20 c10 -16 -6 -23 -17 -8 -8 13 -11
13 -19 -1 -5 -9 -21 -20 -35 -23 -14 -4 -25 -13 -25 -21 0 -20 -10 -19 -26 2
-7 10 -15 15 -19 11 -4 -4 5 -18 19 -32 29 -26 22 -40 -16 -31 -18 5 -32 -2
-56 -25 -22 -21 -32 -25 -32 -15 0 9 13 28 28 43 16 16 32 40 36 55 4 16 13
27 24 27 9 0 25 7 36 15 20 15 93 18 102 3z m1661 -30 c-3 -8 -6 -5 -6 6 -1
11 2 17 5 13 3 -3 4 -12 1 -19z m1923 12 c0 -5 -2 -10 -4 -10 -3 0 -8 5 -11
10 -3 6 -1 10 4 10 6 0 11 -4 11 -10z m50 -16 c0 -8 -4 -12 -10 -9 -5 3 -10
13 -10 21 0 8 5 12 10 9 6 -3 10 -13 10 -21z m600 -10 c0 -8 -4 -12 -10 -9 -5
3 -10 13 -10 21 0 8 5 12 10 9 6 -3 10 -13 10 -21z m-1214 -46 l16 -30 -39 6
c-21 4 -54 7 -74 6 -24 0 -39 5 -43 15 -3 8 -16 16 -28 16 -13 1 0 6 27 11 28
5 54 13 59 18 15 15 66 -11 82 -42z m664 26 c0 -14 -4 -23 -10 -19 -5 3 -10
15 -10 26 0 10 5 19 10 19 6 0 10 -12 10 -26z m307 -11 c-3 -10 -5 -4 -5 12 0
17 2 24 5 18 2 -7 2 -21 0 -30z m3923 27 c0 -11 -39 -34 -46 -27 -6 6 25 37
37 37 5 0 9 -4 9 -10z m186 1 c-10 -16 -56 -20 -56 -5 0 9 11 14 31 14 16 0
28 -4 25 -9z m-8149 -7 c-3 -3 -12 -4 -19 -1 -8 3 -5 6 6 6 11 1 17 -2 13 -5z
m2606 -28 c9 -1 26 -12 37 -24 l20 -21 -28 4 c-36 5 -62 15 -94 37 -40 28 -34
41 10 22 20 -9 45 -17 55 -18z m-846 2 c-3 -8 -6 -5 -6 6 -1 11 2 17 5 13 3
-3 4 -12 1 -19z m-2460 6 c-3 -3 -12 -4 -19 -1 -8 3 -5 6 6 6 11 1 17 -2 13
-5z m123 -8 c0 -2 -3 -12 -6 -20 -5 -13 -9 -14 -20 -5 -20 16 -17 29 6 29 11
0 20 -2 20 -4z m7190 -11 c0 -8 -4 -15 -9 -15 -13 0 -22 16 -14 24 11 11 23 6
23 -9z m-4943 -37 c-3 -7 -5 -2 -5 12 0 14 2 19 5 13 2 -7 2 -19 0 -25z m1943
-21 c0 -5 -9 -2 -20 8 -11 10 -20 25 -20 34 1 12 5 10 20 -8 11 -13 20 -28 20
-34z m90 32 c0 -5 -4 -9 -10 -9 -5 0 -10 7 -10 16 0 8 5 12 10 9 6 -3 10 -10
10 -16z m-1680 -21 c0 -5 -4 -8 -10 -8 -5 0 -10 10 -10 23 0 18 2 19 10 7 5
-8 10 -18 10 -22z m2320 8 c0 -14 -4 -27 -9 -30 -10 -6 -23 33 -15 46 10 16
24 7 24 -16z m2853 7 l52 -17 -49 -9 c-60 -10 -76 -5 -69 22 6 25 2 25 66 4z
m-2912 -55 c9 -3 7 -10 -7 -25 -10 -11 -23 -27 -29 -37 -7 -13 -10 1 -11 54
l-1 71 18 -30 c9 -16 23 -31 30 -33z m-4655 15 c-8 -9 -37 18 -30 28 3 5 12 2
21 -6 8 -9 13 -19 9 -22z m2080 10 c-10 -10 -19 5 -10 18 6 11 8 11 12 0 2 -7
1 -15 -2 -18z m1950 0 c-7 -7 -26 7 -26 19 0 6 6 6 15 -2 9 -7 13 -15 11 -17z
m-901 -39 c66 -31 68 -33 35 -33 -35 -1 -200 25 -207 33 -2 2 11 13 29 25 37
23 43 22 143 -25z m4295 36 c0 -5 -12 -10 -26 -10 -14 0 -23 4 -19 10 3 6 15
10 26 10 10 0 19 -4 19 -10z m-5213 -32 c-3 -8 -6 -5 -6 6 -1 11 2 17 5 13 3
-3 4 -12 1 -19z m2279 -4 c13 -14 24 -33 24 -42 0 -12 -9 -7 -30 18 -44 52
-38 73 6 24z m344 5 c0 -6 -4 -7 -10 -4 -5 3 -10 11 -10 16 0 6 5 7 10 4 6 -3
10 -11 10 -16z m-672 -8 c3 -8 -1 -12 -9 -9 -7 2 -15 10 -17 17 -3 8 1 12 9 9
7 -2 15 -10 17 -17z m3219 -3 c-3 -8 -6 -5 -6 6 -1 11 2 17 5 13 3 -3 4 -12 1
-19z m-7342 3 c8 -14 -13 -24 -33 -16 -14 5 -14 7 -2 15 19 12 27 12 35 1z
m2402 -13 c-3 -8 -6 -5 -6 6 -1 11 2 17 5 13 3 -3 4 -12 1 -19z m-257 -19 c0
-5 -4 -9 -10 -9 -5 0 -10 7 -10 16 0 8 5 12 10 9 6 -3 10 -10 10 -16z m2395
-11 c-4 -36 -4 -38 -15 -38 -11 0 -13 30 -4 54 9 22 22 11 19 -16z m-2458 0
c-3 -8 -6 -5 -6 6 -1 11 2 17 5 13 3 -3 4 -12 1 -19z m-1562 -13 c-16 -13 -64
-50 -105 -82 -41 -31 -91 -71 -110 -89 -28 -26 -42 -33 -72 -31 -33 2 -36 4
-31 25 6 26 -12 52 -38 52 -22 0 -30 12 -20 28 11 18 50 1 64 -28 27 -55 68
-38 282 114 58 41 74 47 30 11z m4175 -6 c0 -11 -4 -17 -10 -14 -5 3 -10 15
-10 26 0 11 5 17 10 14 6 -3 10 -15 10 -26z m-1800 4 c0 -15 1 -15 14 2 17 24
46 13 46 -17 l0 -23 13 24 c17 34 31 31 35 -6 3 -33 32 -56 32 -25 0 38 12 42
88 30 54 -8 72 -14 72 -26 0 -12 3 -13 12 -4 18 18 45 14 68 -10 16 -17 23
-20 29 -10 6 10 10 10 21 -2 7 -9 16 -14 20 -11 9 5 23 -55 15 -64 -3 -3 -14
0 -24 6 -13 8 -21 9 -29 1 -8 -8 -13 -7 -18 5 -5 13 -10 14 -26 6 -15 -8 -27
-8 -47 2 -14 6 -35 13 -46 13 -17 1 -20 7 -17 36 2 33 2 34 -13 16 -8 -11 -15
-26 -15 -34 0 -7 -8 -12 -17 -10 -13 2 -17 11 -15 30 5 40 -16 44 -24 3 -5
-29 -10 -34 -28 -30 -11 2 -39 7 -61 10 -22 4 -44 10 -50 13 -5 4 -28 8 -50 9
-22 2 -45 10 -51 18 -6 8 -14 12 -17 9 -3 -3 -15 -3 -27 1 -30 9 -19 31 13 27
19 -2 27 1 27 12 0 12 10 16 35 16 26 0 35 -4 35 -17z m4298 -8 c-3 -3 -9 2
-12 12 -6 14 -5 15 5 6 7 -7 10 -15 7 -18z m-7178 5 c0 -5 -4 -10 -9 -10 -6 0
-13 5 -16 10 -3 6 1 10 9 10 9 0 16 -4 16 -10z m270 0 c0 -5 -4 -10 -10 -10
-5 0 -10 5 -10 10 0 6 5 10 10 10 6 0 10 -4 10 -10z m2007 -12 c-3 -8 -6 -5
-6 6 -1 11 2 17 5 13 3 -3 4 -12 1 -19z m-2493 -7 c3 -5 -10 -11 -29 -13 -19
-2 -35 -1 -35 3 0 16 55 25 64 10z m7868 -100 c3 -22 -1 -26 -27 -28 -16 -1
-23 1 -14 3 14 4 16 17 13 72 l-4 67 15 -44 c8 -25 16 -56 17 -70z m332 95
c-4 -11 -12 -12 -35 -4 -38 13 -37 18 6 18 26 0 33 -4 29 -14z m-5598 -24 c1
-12 7 -30 14 -39 7 -10 1 -5 -14 10 -27 29 -35 62 -13 55 6 -3 13 -14 13 -26z
m4604 12 c0 -8 -5 -12 -10 -9 -6 4 -8 11 -5 16 9 14 15 11 15 -7z m-6680 -19
c10 -12 9 -15 -8 -15 -11 0 -22 7 -26 15 -3 9 0 15 8 15 7 0 19 -7 26 -15z
m4250 1 c0 -3 -4 -8 -10 -11 -5 -3 -10 -1 -10 4 0 6 5 11 10 11 6 0 10 -2 10
-4z m-2293 -38 c-3 -8 -6 -5 -6 6 -1 11 2 17 5 13 3 -3 4 -12 1 -19z m5823 13
c0 -11 -29 -35 -35 -29 -10 9 7 38 21 38 8 0 14 -4 14 -9z m363 -18 c7 -35 -1
-47 -19 -32 -7 6 -12 15 -9 19 3 4 -3 11 -13 15 -16 7 -15 8 3 15 30 13 32 12
38 -17z m87 18 c0 -18 -18 -21 -30 -6 -10 13 -9 15 9 15 11 0 21 -4 21 -9z
m-8860 -11 c0 -5 -5 -10 -11 -10 -5 0 -7 5 -4 10 3 6 8 10 11 10 2 0 4 -4 4
-10z m570 -10 c0 -5 -4 -10 -10 -10 -5 0 -10 5 -10 10 0 6 5 10 10 10 6 0 10
-4 10 -10z m-840 -4 c0 -3 -4 -8 -10 -11 -5 -3 -10 -1 -10 4 0 6 5 11 10 11 6
0 10 -2 10 -4z m5200 -82 c0 -14 -4 -22 -10 -19 -5 3 -10 17 -10 31 0 14 4 22
10 19 6 -3 10 -17 10 -31z m-4475 -19 c0 -17 -41 -17 -55 0 -12 15 -10 16 21
13 19 -2 34 -7 34 -13z m8400 5 c-3 -5 -10 -10 -16 -10 -5 0 -9 5 -9 10 0 6 7
10 16 10 8 0 12 -4 9 -10z m-7715 -34 c0 -5 -7 -3 -15 4 -8 7 -12 17 -9 22 7
10 24 -9 24 -26z m1610 3 c0 -6 -4 -7 -10 -4 -5 3 -10 11 -10 16 0 6 5 7 10 4
6 -3 10 -11 10 -16z m-2283 -11 c-3 -8 -6 -5 -6 6 -1 11 2 17 5 13 3 -3 4 -12
1 -19z m763 -2 c0 -9 -30 -14 -35 -6 -4 6 3 10 14 10 12 0 21 -2 21 -4z
m-1110 -70 c0 -3 -4 -8 -10 -11 -5 -3 -10 -1 -10 4 0 6 5 11 10 11 6 0 10 -2
10 -4z m1285 -56 c-19 -21 -35 -26 -35 -12 0 5 10 14 23 20 31 15 32 14 12 -8z
m1517 -60 c2 -18 15 -31 44 -45 23 -11 45 -29 50 -40 8 -18 20 -20 98 -22 83
-2 88 -1 83 17 -3 11 -1 23 4 26 5 3 9 -4 9 -16 0 -28 28 -37 44 -15 8 11 20
16 30 12 20 -8 21 -37 1 -37 -8 0 -15 -7 -15 -15 0 -7 -8 -18 -17 -24 -17 -9
-17 -11 2 -25 11 -8 23 -12 28 -9 15 9 67 -9 67 -23 0 -17 -12 -18 -28 -2 -9
9 -13 7 -18 -6 -4 -11 3 -27 22 -47 24 -26 25 -29 8 -29 -16 0 -15 -3 9 -26
35 -32 32 -64 -6 -82 -24 -12 -35 -12 -65 0 -33 12 -38 18 -42 58 -3 25 -10
51 -14 59 -7 11 -5 13 6 8 17 -6 38 10 38 29 0 6 -12 15 -26 18 -20 5 -25 12
-21 26 4 14 -3 24 -24 34 -28 14 -30 14 -39 -8 -5 -13 -22 -28 -39 -34 -25 -9
-34 -7 -56 10 -22 17 -30 19 -52 9 -14 -7 -28 -9 -31 -6 -3 3 0 5 6 5 7 0 12
17 12 45 0 25 -3 45 -6 45 -4 0 -17 -11 -30 -26 -26 -27 -31 -53 -12 -72 6 -6
12 -34 12 -62 1 -51 18 -65 24 -18 4 32 46 57 70 41 10 -6 16 -22 16 -40 -2
-34 30 -63 49 -44 6 6 16 11 22 11 11 0 35 -55 35 -82 0 -8 14 -27 30 -41 36
-32 36 -35 10 -93 -19 -41 -40 -58 -40 -33 0 6 -7 9 -15 5 -28 -10 -45 5 -45
40 0 35 -13 45 -27 19 -7 -12 -12 -12 -33 -2 -22 12 -25 19 -22 59 3 42 1 47
-20 50 -14 2 -29 15 -38 35 -9 21 -22 33 -35 33 -11 0 -33 10 -49 23 -25 20
-27 25 -14 38 11 10 15 49 17 154 1 77 5 143 8 148 8 13 21 -5 25 -33z m-1448
11 c3 -4 -6 -18 -19 -31 -30 -29 -22 -44 19 -36 30 6 31 6 9 -9 -20 -14 -25
-14 -48 1 -30 20 -32 34 -5 41 11 3 20 14 20 24 0 19 15 26 24 10z m1551 -1
c-3 -5 -12 -10 -20 -10 -8 0 -17 5 -20 10 -4 6 5 10 20 10 15 0 24 -4 20 -10z
m-1729 -27 c-10 -10 -19 5 -10 18 6 11 8 11 12 0 2 -7 1 -15 -2 -18z m1784 -3
c8 -5 11 -12 8 -16 -10 -9 -38 3 -38 16 0 12 10 13 30 0z m77 4 c-3 -3 -12 -4
-19 -1 -8 3 -5 6 6 6 11 1 17 -2 13 -5z m-37 -24 c0 -5 -5 -10 -11 -10 -5 0
-7 5 -4 10 3 6 8 10 11 10 2 0 4 -4 4 -10z m-3184 -10 c14 0 22 -4 19 -10 -7
-11 -55 -3 -70 13 -7 7 -4 8 8 3 10 -3 30 -6 43 -6z m7077 -32 c9 -34 -4 -42
-19 -13 -17 34 -17 35 0 35 7 0 16 -10 19 -22z m-3618 -7 c-3 -5 2 -17 12 -26
16 -16 15 -17 -3 -13 -20 3 -33 48 -14 48 6 0 9 -4 5 -9z m5191 -28 c-7 -7
-26 7 -26 19 0 6 6 6 15 -2 9 -7 13 -15 11 -17z m-7796 -22 c0 -11 -4 -9 -14
4 -8 11 -12 24 -9 28 7 11 23 -12 23 -32z m704 20 c3 -5 -1 -11 -9 -15 -15 -6
-29 7 -18 18 9 9 21 8 27 -3z m5156 -1 c-8 -5 -40 -10 -70 -10 -39 0 -51 3
-40 10 8 5 40 10 70 10 39 0 51 -3 40 -10z m400 -15 c0 -8 -4 -15 -10 -15 -5
0 -10 7 -10 15 0 8 5 15 10 15 6 0 10 -7 10 -15z m-376 -16 c-14 -23 -76 -40
-118 -34 -66 11 -72 22 -9 17 38 -3 70 1 93 11 44 19 42 19 34 6z m-5420 -15
c26 -10 7 -25 -22 -18 -39 9 -51 24 -20 24 15 0 33 -3 42 -6z m2456 -14 c0
-13 -9 -22 -25 -26 -13 -3 -24 -9 -23 -13 2 -20 -4 -31 -17 -31 -21 0 -19 -29
3 -36 55 -17 84 -36 74 -46 -8 -8 -15 -8 -26 1 -16 14 -36 7 -36 -12 0 -7 7
-25 15 -41 9 -16 14 -31 11 -33 -7 -7 -66 49 -66 64 0 8 -10 23 -22 33 -19 15
-20 20 -9 34 11 14 10 18 -8 33 -22 19 -19 31 14 50 11 6 19 16 17 23 -1 7 5
9 15 6 14 -5 43 0 81 13 1 1 2 -8 2 -19z m3215 -7 c-11 -46 -18 -46 -29 0 -5
23 -3 27 15 27 18 0 20 -4 14 -27z m811 6 c19 -22 19 -22 -3 -10 -13 6 -23 16
-23 21 0 15 5 12 26 -11z m-4335 -6 c13 -15 12 -15 -8 -4 -24 12 -29 21 -14
21 5 0 15 -7 22 -17z m479 -14 c0 -10 5 -19 10 -19 13 0 13 -43 -1 -57 -8 -8
-8 -17 1 -33 12 -22 8 -50 -7 -50 -4 0 -8 25 -8 56 0 31 -5 60 -11 65 -13 10
-6 71 7 63 5 -3 9 -14 9 -25z m-345 -10 c-48 -22 -65 -24 -65 -5 0 19 16 24
65 24 l40 0 -40 -19z m3485 -9 c0 -13 -5 -18 -15 -14 -16 7 -19 17 -8 27 12
13 23 7 23 -13z m-3485 -29 c-3 -6 -16 -11 -28 -11 -21 1 -21 1 3 15 27 14 36
13 25 -4z m266 4 c-1 -6 -5 -10 -11 -10 -12 0 -13 -9 -4 -31 8 -20 -10 -38
-30 -31 -26 10 -21 66 7 77 26 10 39 8 38 -5z m-2586 -16 c11 -16 1 -20 -34
-13 -23 5 -29 9 -19 15 18 12 46 11 53 -2z m35 -9 c0 -5 -5 -10 -11 -10 -5 0
-7 5 -4 10 3 6 8 10 11 10 2 0 4 -4 4 -10z m-546 -19 c7 -11 -41 -24 -54 -16
-6 4 -10 10 -10 16 0 12 57 12 64 0z m6390 -20 c-2 -3 -12 3 -22 13 -16 17
-16 18 5 5 12 -7 20 -15 17 -18z m-3253 -32 c-8 -21 -10 -22 -16 -6 -4 10 -2
24 6 33 17 20 23 5 10 -27z m4354 21 c-3 -5 -16 -10 -28 -9 -21 0 -21 1 -2 9
28 12 37 12 30 0z m-8318 -36 c-3 -3 -12 -4 -19 -1 -8 3 -5 6 6 6 11 1 17 -2
13 -5z m3936 -111 c-3 -13 -9 -23 -14 -23 -6 0 -5 9 1 20 9 16 7 24 -5 36 -18
19 -18 24 -3 61 11 28 12 27 19 -22 4 -27 5 -60 2 -72z m-132 10 c12 -32 2
-51 -32 -58 -34 -8 -99 27 -99 52 0 37 23 91 36 86 8 -3 14 0 14 7 0 16 70
-60 81 -87z m-191 48 c0 -22 -4 -43 -10 -46 -6 -3 -10 4 -10 17 0 13 -3 33 -6
46 -5 16 -2 22 10 22 12 0 16 -10 16 -39z m-3528 -13 c-8 -8 -9 -4 -5 13 4 13
8 18 11 10 2 -7 -1 -18 -6 -23z m1929 -90 c2 -183 -9 -273 -41 -343 -16 -36
-26 -75 -45 -173 -7 -36 -39 -60 -58 -44 -7 6 -25 12 -42 14 -27 3 -30 7 -35
48 -3 25 -9 50 -13 57 -4 6 -9 43 -12 82 -5 68 -4 74 26 117 28 41 31 52 26
97 -4 44 1 75 28 194 5 23 24 27 123 31 l42 2 1 -82z m1548 37 c1 6 6 3 11 -5
13 -20 13 -93 0 -85 -5 3 -10 19 -10 35 0 16 -4 32 -10 35 -5 3 -10 16 -9 28
0 21 1 21 9 2 5 -11 9 -15 9 -10z m3134 1 c3 -8 16 -16 29 -18 16 -2 25 -13
31 -38 5 -19 11 -177 14 -350 2 -173 5 -326 6 -340 2 -25 1 -25 -92 -28 -56
-2 -98 1 -105 8 -7 7 1 10 25 10 l34 0 0 278 c0 244 -2 282 -18 316 -17 39
-17 40 9 108 19 48 32 68 45 68 9 0 19 -6 22 -14z m-5110 -71 c4 -38 5 -103 2
-144 l-5 -74 37 -32 c33 -29 36 -36 37 -86 1 -49 5 -60 33 -88 38 -38 68 -95
58 -111 -4 -7 -21 -9 -44 -5 -28 5 -41 2 -51 -10 -11 -14 -10 -17 8 -22 34 -8
28 -35 -5 -27 -16 4 -30 7 -33 7 -3 1 -19 -4 -36 -10 -39 -14 -74 -50 -74 -77
0 -43 53 -176 70 -176 5 0 10 -7 10 -15 0 -19 -45 -19 -124 -1 -44 10 -75 12
-115 5 -31 -5 -63 -9 -72 -9 -14 0 -17 43 -27 358 -13 405 -12 554 5 559 18 6
266 31 293 30 23 -2 26 -7 33 -72z m-1012 39 c13 -16 6 -17 -39 -8 -19 4 -29
11 -26 19 6 15 49 8 65 -11z m-471 -3 c0 -6 -4 -13 -10 -16 -5 -3 -10 1 -10 9
0 9 5 16 10 16 6 0 10 -4 10 -9z m3540 -44 c0 -33 -25 -12 -28 24 -2 32 -1 33
13 15 8 -11 15 -28 15 -39z m-156 2 c31 -36 32 -46 9 -79 -10 -14 -16 -32 -15
-42 2 -9 -2 -19 -8 -23 -15 -9 -12 -25 5 -25 8 0 15 -5 15 -11 0 -5 5 -7 10
-4 16 10 72 -5 67 -18 -2 -7 -14 -11 -26 -10 -30 4 -27 -24 6 -59 23 -24 24
-28 8 -28 -17 0 -17 -2 3 -23 47 -49 16 -103 -52 -92 -23 3 -44 9 -47 13 -10
11 -18 123 -9 117 5 -3 14 4 20 16 7 11 10 21 8 22 -32 16 -43 28 -41 45 2 15
-6 23 -29 31 -40 14 -38 14 -38 -9 0 -12 -10 -25 -26 -32 -21 -10 -31 -9 -56
5 -16 9 -38 17 -48 17 -25 0 -42 33 -34 64 7 28 -11 44 -24 20 -7 -12 -14 -2
-31 45 -13 33 -21 66 -18 73 4 9 6 9 6 -2 1 -19 36 -50 55 -50 8 0 19 -14 25
-31 10 -29 12 -30 53 -23 40 7 66 7 113 1 21 -2 22 3 10 53 -5 18 0 32 15 48
28 30 43 28 74 -9z m380 -77 c-4 -18 -12 -32 -20 -32 -7 0 -15 -10 -17 -22 -2
-13 -5 -4 -6 20 -1 28 5 48 17 61 23 24 34 12 26 -27z m190 22 c49 -2 92 -6
96 -9 4 -2 10 -31 13 -63 2 -33 14 -80 25 -105 20 -46 20 -46 1 -84 -15 -29
-18 -48 -13 -86 6 -45 5 -50 -27 -83 -30 -31 -38 -34 -91 -34 -86 0 -263 21
-266 32 -2 5 -10 4 -18 -3 -8 -6 -14 -7 -14 -2 0 20 22 73 30 73 11 0 40 99
34 114 -3 7 4 21 16 31 13 12 20 31 20 56 0 22 9 62 20 91 11 29 20 63 20 75
0 20 3 21 33 12 17 -6 72 -12 121 -15z m-326 -41 c23 -51 10 -93 -30 -93 -12
0 -18 -7 -18 -21 0 -16 -5 -20 -20 -16 -13 3 -20 0 -20 -10 0 -8 -5 -11 -10
-8 -21 13 17 104 39 97 32 -11 47 50 17 70 -6 5 -3 8 9 8 12 0 25 -11 33 -27z
m-130 -15 c-1 -13 2 -33 6 -46 7 -21 5 -23 -16 -20 -17 2 -24 10 -26 31 -3 28
12 57 29 57 5 0 8 -10 7 -22z m-934 -54 c3 -9 4 -20 0 -25 -8 -14 24 -145 58
-232 17 -44 34 -96 38 -117 l7 -38 -51 -6 c-58 -7 -286 -8 -286 -2 0 3 7 34
15 71 23 96 69 188 154 305 46 64 55 70 65 44z m1146 -59 c0 -8 -7 -15 -15
-15 -11 0 -13 -8 -8 -30 4 -24 2 -30 -11 -30 -34 0 -33 74 2 83 30 8 32 7 32
-8z m1335 -75 c5 0 18 -8 29 -18 12 -10 52 -31 89 -47 72 -30 200 -134 225
-184 27 -54 -34 -116 -74 -76 -9 8 -20 15 -25 15 -6 0 -9 8 -7 18 2 12 -5 18
-27 20 -21 2 -26 0 -16 -7 11 -7 10 -11 -5 -19 -23 -12 -86 -4 -78 10 4 6 -21
9 -62 7 -38 -1 -100 2 -138 6 l-68 8 6 46 c3 25 13 82 21 126 8 44 12 95 9
113 -4 19 -1 38 6 47 10 12 19 9 59 -25 26 -22 51 -40 56 -40z m-1863 53 c8
-10 22 -31 29 -48 10 -20 22 -30 37 -30 28 0 42 -20 42 -61 0 -20 10 -39 30
-59 17 -16 30 -35 30 -42 0 -23 -43 -109 -47 -95 -3 6 -10 12 -17 12 -16 0
-40 45 -32 58 3 6 2 13 -4 17 -5 3 -10 1 -10 -6 0 -26 -30 14 -36 50 -3 20
-12 46 -20 58 -8 12 -23 47 -35 78 -16 44 -18 59 -9 70 16 19 24 19 42 -2z
m419 -48 c0 -13 -41 -19 -41 -7 0 11 20 22 33 18 5 -1 8 -6 8 -11z m86 -80 c1
-30 -1 -34 -13 -24 -8 6 -12 14 -10 18 1 3 6 14 9 24 9 26 13 21 14 -18z
m-119 -47 c-1 -7 2 -22 8 -33 6 -11 10 -27 9 -35 -1 -8 -3 -27 -3 -42 -3 -45
-16 -33 -34 32 -23 76 -23 90 2 90 12 0 20 -6 18 -12z m-90 -132 c17 -19 21
-32 17 -53 -10 -44 -28 -76 -54 -97 -23 -19 -23 -20 -5 -27 10 -4 31 -5 45 -2
36 7 44 -11 14 -31 -31 -20 -32 -39 -3 -58 13 -9 18 -17 11 -21 -17 -11 -104
65 -99 86 2 9 -1 17 -9 17 -7 0 -16 10 -20 23 -8 21 -8 21 -12 -5 -2 -15 -14
-35 -26 -43 -19 -14 -23 -13 -47 10 -14 14 -32 25 -39 25 -9 0 -11 8 -7 24 3
13 -1 43 -9 66 -19 54 -19 71 0 64 8 -4 15 -17 15 -29 0 -30 8 -34 81 -49 68
-14 86 -9 70 22 -13 25 -14 62 -2 62 6 0 9 -12 8 -27 -2 -22 3 -29 21 -31 19
-3 22 1 22 27 0 17 -7 34 -16 39 -18 10 -11 32 9 32 7 0 22 -11 35 -24z m172
-40 c-1 -22 -32 -66 -47 -66 -5 0 -7 18 -5 40 2 22 8 40 13 40 5 0 9 7 9 16 0
14 3 14 15 4 8 -7 15 -22 15 -34z m-1925 -25 c-3 -6 -11 -11 -17 -11 -6 0 -6
6 2 15 14 17 26 13 15 -4z m-161 -37 c9 -22 -1 -33 -24 -27 -23 6 -25 14 -8
31 16 16 25 15 32 -4z m2001 -4 c-4 -6 -1 -17 5 -25 10 -12 10 -18 0 -31 -12
-13 -15 -13 -28 -1 -12 13 -12 18 3 41 16 24 34 39 20 16z m72 -42 c-3 -8 -6
-5 -6 6 -1 11 2 17 5 13 3 -3 4 -12 1 -19z m-41 -53 c-5 -27 -3 -37 8 -41 12
-5 13 -10 4 -24 -9 -14 -9 -22 1 -34 9 -10 9 -16 3 -16 -16 0 -35 78 -27 117
3 18 8 33 12 33 3 0 2 -16 -1 -35z m-327 -24 c10 -6 12 -20 8 -47 -7 -39 6
-66 26 -58 8 2 12 -7 13 -26 1 -16 14 -48 29 -70 l27 -39 -23 -51 c-13 -27
-27 -50 -31 -50 -18 0 -48 42 -59 82 -12 44 -29 247 -22 261 5 9 15 9 32 -2z
m150 -67 c-7 -8 -9 -17 -5 -21 3 -3 6 -2 6 4 0 17 28 23 54 12 16 -8 26 -23
31 -47 7 -37 0 -47 -42 -58 -58 -15 -96 25 -86 91 4 23 10 30 29 31 20 2 23
-1 13 -12z m2104 -61 c-7 -2 -21 -2 -30 0 -10 3 -4 5 12 5 17 0 24 -2 18 -5z
m-1917 -200 c7 -3 14 -16 14 -30 0 -13 -4 -21 -10 -18 -5 3 -10 15 -10 26 0
10 -7 19 -15 19 -8 0 -17 12 -21 28 -3 15 -7 32 -9 37 -1 6 5 18 14 29 15 17
16 15 19 -33 2 -34 8 -54 18 -58z m1644 103 c0 -11 -19 -15 -25 -6 -3 5 1 10
9 10 9 0 16 -2 16 -4z m-20 -41 c15 -9 12 -42 -5 -49 -8 -3 -54 -3 -103 0 -48
3 -99 6 -114 5 -31 0 -38 15 -10 23 9 2 42 8 72 11 30 4 61 10 68 14 14 8 77
5 92 -4z m-2510 -89 c0 -3 -4 -8 -10 -11 -5 -3 -10 -1 -10 4 0 6 5 11 10 11 6
0 10 -2 10 -4z m62 -18 c-7 -7 -12 -8 -12 -2 0 14 12 26 19 19 2 -3 -1 -11 -7
-17z m495 0 c-3 -8 -6 -5 -6 6 -1 11 2 17 5 13 3 -3 4 -12 1 -19z m-862 -7
c-3 -5 -1 -12 5 -16 15 -9 12 -22 -7 -28 -10 -2 -27 -8 -38 -13 -19 -7 -19 -7
-2 13 9 11 17 24 17 30 0 6 6 14 13 16 18 8 19 8 12 -2z m3261 -37 c28 -73 6
-89 -93 -68 -18 3 -33 8 -33 11 0 11 27 30 52 36 19 5 28 16 33 37 9 42 20 37
41 -16z m-2066 -3 c0 -6 -5 -13 -11 -17 -8 -4 -8 -9 0 -17 6 -6 11 -22 11 -35
0 -19 -5 -23 -22 -20 -27 4 -36 44 -18 78 11 20 40 28 40 11z m1791 -54 c47
-20 125 -44 172 -54 86 -17 101 -28 79 -58 -11 -17 -85 -35 -143 -35 -30 0
-124 -9 -210 -20 -198 -24 -392 -20 -505 12 -28 8 -66 13 -85 10 -25 -3 -39 2
-53 17 -24 26 -15 47 23 56 17 4 31 13 31 21 0 8 9 14 20 14 11 0 20 -5 20
-10 0 -6 25 3 56 20 31 16 67 30 78 30 12 0 27 5 33 11 17 17 165 25 226 13
15 -3 27 -1 27 4 0 31 123 14 231 -31z m-2881 33 c0 -5 -10 -10 -22 -10 -19 0
-20 2 -8 10 19 13 30 13 30 0z m-4 -44 c11 -12 11 -16 2 -22 -7 -4 -24 -15
-38 -23 -23 -14 -24 -14 -13 0 15 18 8 29 -19 29 -10 0 -18 4 -18 9 0 23 65
27 86 7z m-97 -73 c-28 -34 -49 -53 -49 -43 0 20 32 60 47 60 13 0 13 -2 2
-17z m221 -3 c0 -6 11 -8 27 -4 l27 7 -23 -31 c-23 -33 -48 -44 -37 -17 7 20
4 19 -48 -12 -25 -15 -50 -37 -57 -50 -12 -22 -37 -38 -46 -29 -9 9 48 74 70
80 12 3 33 15 47 26 l25 20 -23 0 c-13 0 -20 4 -17 10 8 13 55 13 55 0z m1975
-30 c3 -5 1 -10 -4 -10 -6 0 -11 5 -11 10 0 6 2 10 4 10 3 0 8 -4 11 -10z
m-995 -60 c0 -5 -4 -10 -10 -10 -5 0 -10 5 -10 10 0 6 5 10 10 10 6 0 10 -4
10 -10z m1248 -250 c-7 -10 -22 -21 -35 -25 -13 -3 -23 -10 -23 -15 0 -6 -11
-10 -25 -10 -14 0 -25 5 -25 10 0 6 4 10 9 10 5 0 13 9 16 20 12 38 32 50 65
39 25 -9 28 -13 18 -29z"/>
<path d="M2000 6190 c0 -5 5 -10 10 -10 6 0 10 5 10 10 0 6 -4 10 -10 10 -5 0
-10 -4 -10 -10z"/>
<path d="M2220 6033 c1 -18 18 -35 24 -24 4 6 4 16 1 21 -7 12 -25 13 -25 3z"/>
<path d="M7530 5480 c-8 -16 -7 -27 7 -50 15 -26 23 -30 63 -30 56 1 100 31
80 55 -7 8 -29 15 -48 15 -34 0 -35 1 -16 15 18 13 15 14 -28 15 -37 0 -50 -4
-58 -20z"/>
<path d="M4903 5339 c-33 -10 -54 -29 -32 -29 7 0 0 -13 -15 -29 l-27 -28 50
-7 c31 -4 59 -2 71 4 38 20 37 92 -1 97 -8 1 -28 -3 -46 -8z"/>
<path d="M4205 5220 c-11 -5 -47 -9 -80 -9 -107 -2 -140 -54 -66 -105 35 -24
41 -26 67 -14 35 15 44 26 44 56 0 27 16 29 30 2 6 -11 20 -25 31 -31 26 -14
69 -4 69 17 0 8 7 17 15 20 21 8 19 37 -3 57 -20 18 -74 21 -107 7z"/>
<path d="M9335 5110 c3 -5 8 -10 11 -10 2 0 4 5 4 10 0 6 -5 10 -11 10 -5 0
-7 -4 -4 -10z"/>
<path d="M9287 4873 c-12 -11 -7 -40 8 -53 25 -21 42 3 25 35 -14 26 -22 30
-33 18z"/>
<path d="M8925 5109 c-4 -6 -4 -13 -1 -16 8 -8 36 5 36 17 0 13 -27 13 -35 -1z"/>
<path d="M5690 4735 c0 -10 7 -15 18 -13 21 4 19 22 -2 26 -10 2 -16 -3 -16
-13z"/>
<path d="M5525 4576 c-19 -14 -19 -15 -2 -22 17 -6 17 -7 -3 -21 -27 -19 -25
-31 8 -46 15 -6 33 -17 40 -24 18 -17 67 -16 81 1 13 16 6 102 -9 111 -24 15
-96 16 -115 1z"/>
<path d="M5753 4578 c-38 -8 -43 -13 -49 -45 -4 -20 -3 -48 2 -62 9 -24 14
-26 59 -23 32 2 55 10 65 21 8 9 23 20 33 24 9 3 17 13 17 21 0 8 3 21 6 30
11 28 -69 48 -133 34z"/>
<path d="M7488 4541 c-11 -11 -16 -28 -14 -46 2 -17 4 -36 5 -43 1 -9 6 -10
20 -2 29 15 41 12 51 -12 l9 -23 0 22 c1 12 6 25 11 28 21 13 10 35 -17 36
-25 1 -24 2 7 8 23 4 36 12 38 24 3 16 -2 18 -35 16 -21 -2 -43 0 -48 3 -6 3
-18 -2 -27 -11z"/>
<path d="M7401 4519 c-13 -5 -26 -7 -29 -5 -2 3 -13 -5 -23 -18 -21 -27 -28
-89 -7 -68 22 22 49 14 61 -17 6 -16 20 -32 31 -35 29 -8 30 -1 6 32 -16 21
-20 36 -15 49 12 25 16 73 7 72 -4 0 -18 -5 -31 -10z"/>
<path d="M5003 4489 c-18 -5 -33 -13 -33 -18 0 -20 104 -29 115 -11 9 15 -14
40 -34 39 -9 0 -31 -5 -48 -10z"/>
<path d="M4920 4460 c0 -13 11 -13 30 0 12 8 11 10 -7 10 -13 0 -23 -4 -23
-10z"/>
<path d="M5247 4423 c-4 -3 3 -17 14 -29 17 -18 19 -27 11 -37 -7 -8 -9 -17
-5 -20 11 -11 71 -8 79 4 3 6 15 9 25 6 21 -6 24 5 9 33 -8 15 -16 17 -47 10
-44 -10 -53 -7 -46 20 4 15 0 20 -14 20 -11 0 -23 -3 -26 -7z"/>
<path d="M4715 4307 c-84 -19 -115 -31 -136 -53 -13 -13 -28 -24 -36 -24 -20
0 -16 -14 12 -40 22 -21 27 -22 57 -9 30 12 31 14 10 19 -44 10 -22 25 40 28
35 1 77 9 95 17 17 8 38 15 45 15 8 0 23 9 33 20 10 11 24 20 32 20 8 0 12 4
9 8 -7 11 -110 11 -161 -1z"/>
<path d="M4388 4282 c-16 -2 -28 -6 -28 -10 0 -12 61 -42 85 -42 27 0 81 45
66 55 -10 5 -58 4 -123 -3z"/>
<path d="M3910 4270 c-11 -7 -3 -10 30 -10 33 0 41 3 30 10 -8 5 -22 10 -30
10 -8 0 -22 -5 -30 -10z"/>
<path d="M3625 4240 c-3 -5 1 -10 10 -10 9 0 13 5 10 10 -3 6 -8 10 -10 10 -2
0 -7 -4 -10 -10z"/>
<path d="M4165 4220 c-3 -5 -1 -10 4 -10 6 0 11 5 11 10 0 6 -2 10 -4 10 -3 0
-8 -4 -11 -10z"/>
<path d="M3878 4203 c7 -3 16 -2 19 1 4 3 -2 6 -13 5 -11 0 -14 -3 -6 -6z"/>
<path d="M4055 4200 c3 -5 10 -10 16 -10 5 0 9 5 9 10 0 6 -7 10 -16 10 -8 0
-12 -4 -9 -10z"/>
<path d="M4307 4199 c7 -7 15 -10 18 -7 3 3 -2 9 -12 12 -14 6 -15 5 -6 -5z"/>
<path d="M4377 4171 c-17 -6 -17 -8 -4 -20 12 -9 27 -10 59 -3 38 9 39 10 13
11 -17 1 -35 5 -40 10 -6 5 -18 6 -28 2z"/>
<path d="M3725 4160 c3 -5 12 -7 20 -3 21 7 19 13 -6 13 -11 0 -18 -4 -14 -10z"/>
<path d="M4507 4159 c7 -7 15 -10 18 -7 3 3 -2 9 -12 12 -14 6 -15 5 -6 -5z"/>
<path d="M4302 4148 c3 -7 15 -14 29 -16 24 -4 24 -3 4 12 -24 19 -38 20 -33
4z"/>
<path d="M5040 4131 c0 -11 4 -22 9 -25 4 -3 6 6 3 19 -5 30 -12 33 -12 6z"/>
<path d="M4840 4131 c0 -5 5 -13 10 -16 6 -3 10 -2 10 4 0 5 -4 13 -10 16 -5
3 -10 2 -10 -4z"/>
<path d="M3540 4110 c0 -5 9 -10 20 -10 11 0 20 5 20 10 0 6 -9 10 -20 10 -11
0 -20 -4 -20 -10z"/>
<path d="M4435 4110 c3 -5 8 -10 11 -10 2 0 4 5 4 10 0 6 -5 10 -11 10 -5 0
-7 -4 -4 -10z"/>
<path d="M4890 4110 c0 -12 28 -25 36 -17 3 3 -4 10 -15 17 -15 7 -21 7 -21 0z"/>
<path d="M3458 4093 c-16 -8 -28 -18 -28 -22 0 -10 25 -21 48 -21 13 0 13 2
-3 14 -18 13 -18 14 3 20 12 4 22 12 22 17 0 12 -9 10 -42 -8z"/>
<path d="M4350 4105 c0 -3 8 -13 19 -24 10 -10 20 -24 23 -32 3 -8 11 -10 24
-5 18 7 18 8 -6 27 -32 25 -60 41 -60 34z"/>
<path d="M4223 4093 c-23 -9 -13 -23 12 -17 14 3 37 -1 56 -10 38 -19 39 -19
39 -6 0 23 -75 47 -107 33z"/>
<path d="M5120 4082 c0 -12 19 -26 26 -19 2 2 -2 10 -11 17 -9 8 -15 8 -15 2z"/>
<path d="M3998 4048 c10 -18 27 -35 38 -37 16 -3 15 1 -7 30 -35 45 -55 50
-31 7z"/>
<path d="M4735 4070 c3 -5 8 -10 11 -10 2 0 4 5 4 10 0 6 -5 10 -11 10 -5 0
-7 -4 -4 -10z"/>
<path d="M4880 4055 c7 -9 15 -13 17 -11 7 7 -7 26 -19 26 -6 0 -6 -6 2 -15z"/>
<path d="M4920 4050 c0 -6 7 -10 15 -10 8 0 15 2 15 4 0 2 -7 6 -15 10 -8 3
-15 1 -15 -4z"/>
<path d="M3365 4030 c-4 -6 5 -10 20 -10 15 0 24 4 20 10 -3 6 -12 10 -20 10
-8 0 -17 -4 -20 -10z"/>
<path d="M4740 4006 c0 -2 8 -10 18 -17 15 -13 16 -12 3 4 -13 16 -21 21 -21
13z"/>
<path d="M4924 3929 c0 -32 0 -59 1 -59 1 0 16 7 33 16 18 8 36 13 42 9 17
-10 11 10 -14 55 -14 25 -26 36 -28 28 -4 -10 -8 -10 -19 -1 -12 10 -14 2 -15
-48z"/>
<path d="M3285 3970 c3 -5 12 -7 20 -3 21 7 19 13 -6 13 -11 0 -18 -4 -14 -10z"/>
<path d="M3386 3967 c4 -10 -4 -13 -28 -10 l-33 3 29 -10 c15 -5 36 -15 45
-22 27 -21 60 -38 76 -38 27 0 16 18 -19 30 -23 7 -33 16 -30 25 3 7 -4 18
-15 24 -26 14 -31 14 -25 -2z"/>
<path d="M3250 3850 c0 -5 5 -10 10 -10 6 0 10 5 10 10 0 6 -4 10 -10 10 -5 0
-10 -4 -10 -10z"/>
<path d="M3220 3800 c-8 -5 -12 -11 -9 -14 7 -8 49 5 49 15 0 12 -21 11 -40
-1z"/>
<path d="M6158 4399 c-24 -14 -23 -29 3 -29 25 0 59 17 59 30 0 13 -40 12 -62
-1z"/>
<path d="M6257 4346 c-55 -34 -87 -67 -87 -89 0 -15 5 -18 24 -15 14 3 27 0
29 -6 3 -6 20 -13 38 -14 19 -1 47 -5 63 -8 21 -4 26 -3 21 6 -5 8 2 11 27 9
18 -2 39 0 46 5 14 9 54 -2 65 -18 5 -8 10 -7 16 3 11 17 118 23 138 8 7 -5
22 -7 34 -4 22 6 303 -28 359 -43 61 -17 108 -13 120 11 7 11 9 23 6 26 -2 3
-42 9 -88 14 -46 5 -108 14 -138 20 -30 6 -71 14 -90 17 -19 2 -51 16 -70 31
-77 57 -94 63 -159 51 -43 -8 -71 -7 -103 1 -67 17 -145 9 -188 -22 -14 -9
-36 -20 -50 -24 -24 -6 -23 -5 8 24 50 48 41 55 -21 17z m203 -62 c0 -12 -9
-14 -42 -12 -59 4 -63 28 -4 28 35 0 46 -4 46 -16z m150 6 c0 -5 -14 -10 -31
-10 -17 0 -28 4 -24 10 3 6 17 10 31 10 13 0 24 -4 24 -10z"/>
<path d="M6015 4262 c-14 -14 -1 -22 36 -22 22 0 38 4 35 9 -6 10 -64 20 -71
13z"/>
<path d="M6410 4203 c0 -7 5 -15 11 -19 6 -3 9 -19 7 -35 -4 -23 -1 -29 13
-29 13 0 17 7 15 26 -3 25 -46 79 -46 57z"/>
<path d="M6280 4175 c0 -14 7 -37 16 -51 15 -22 15 -24 0 -18 -10 4 -16 1 -16
-9 0 -8 10 -17 21 -20 20 -5 21 -3 15 31 -3 20 -2 33 2 27 4 -5 18 -11 32 -13
14 -1 33 -13 43 -25 l19 -22 -6 25 c-3 14 -6 33 -6 43 0 10 -8 17 -21 17 -11
0 -17 -4 -14 -10 7 -11 -6 -13 -29 -4 -9 3 -16 11 -16 18 0 6 -9 17 -20 24
-18 11 -20 10 -20 -13z"/>
<path d="M6585 4190 c3 -5 8 -10 11 -10 2 0 4 5 4 10 0 6 -5 10 -11 10 -5 0
-7 -4 -4 -10z"/>
<path d="M6335 4180 c3 -5 8 -10 11 -10 2 0 4 5 4 10 0 6 -5 10 -11 10 -5 0
-7 -4 -4 -10z"/>
<path d="M6380 4179 c0 -5 5 -7 10 -4 6 3 10 8 10 11 0 2 -4 4 -10 4 -5 0 -10
-5 -10 -11z"/>
<path d="M6228 4150 c18 -16 37 -30 42 -30 13 0 -35 46 -57 54 -11 4 -5 -6 15
-24z"/>
<path d="M6630 4170 c0 -13 33 -21 42 -12 6 6 -1 11 -16 14 -14 3 -26 2 -26
-2z"/>
<path d="M6550 4156 c0 -2 7 -7 16 -10 8 -3 12 -2 9 4 -6 10 -25 14 -25 6z"/>
<path d="M6845 4150 c3 -5 13 -10 21 -10 8 0 12 5 9 10 -3 6 -13 10 -21 10 -8
0 -12 -4 -9 -10z"/>
<path d="M6490 4140 c0 -5 7 -10 16 -10 8 0 12 5 9 10 -3 6 -10 10 -16 10 -5
0 -9 -4 -9 -10z"/>
<path d="M6617 4138 c4 -7 8 -20 8 -28 0 -8 7 -15 15 -15 8 0 28 -8 43 -19 28
-19 45 -17 32 3 -3 6 -15 11 -26 11 -12 0 -17 4 -14 11 4 6 -2 13 -14 16 -12
3 -21 12 -21 19 0 8 -7 14 -16 14 -10 0 -12 -4 -7 -12z"/>
<path d="M6692 4118 c3 -7 23 -14 47 -16 32 -2 42 0 39 10 -3 7 -23 14 -47 16
-32 2 -42 0 -39 -10z"/>
<path d="M6100 4113 c0 -6 6 -15 13 -20 15 -13 85 -24 91 -15 2 4 -12 8 -32
10 -20 1 -44 10 -54 19 -10 9 -18 11 -18 6z"/>
<path d="M6230 4111 c0 -6 4 -13 10 -16 6 -3 7 1 4 9 -7 18 -14 21 -14 7z"/>
<path d="M6566 4109 c4 -8 -1 -9 -16 -4 -12 4 -20 3 -17 -2 3 -4 -13 -7 -36
-5 -34 3 -40 2 -29 -9 6 -7 12 -22 13 -33 0 -12 3 -15 6 -8 2 6 17 12 33 12
16 0 35 6 43 14 8 9 24 13 38 10 l24 -6 -25 21 c-27 22 -45 28 -34 10z"/>
<path d="M6790 4089 c0 -8 26 -19 46 -19 27 0 14 18 -16 22 -16 3 -30 1 -30
-3z"/>
<path d="M6348 4076 c-10 -7 -18 -16 -18 -20 0 -13 36 -43 84 -69 27 -15 50
-27 52 -27 14 0 -38 45 -71 62 -32 17 -36 22 -22 27 15 5 15 9 5 23 -11 14
-16 15 -30 4z"/>
<path d="M6220 4073 c0 -5 9 -18 20 -28 11 -10 20 -14 20 -8 0 5 -9 18 -20 28
-11 10 -20 14 -20 8z"/>
<path d="M6596 4046 c7 -19 48 -22 42 -3 -3 6 -14 13 -26 15 -16 3 -20 -1 -16
-12z"/>
<path d="M6202 4034 c10 -10 20 -15 24 -12 3 4 -5 12 -18 18 -22 12 -22 12 -6
-6z"/>
<path d="M6550 4025 c14 -16 40 -20 40 -6 0 9 -24 21 -42 21 -6 0 -6 -6 2 -15z"/>
<path d="M6310 4021 c0 -6 12 -18 28 -27 15 -10 39 -31 54 -48 15 -17 28 -26
28 -20 0 6 -15 27 -32 46 -36 39 -78 65 -78 49z"/>
<path d="M6690 4011 c0 -5 7 -12 16 -15 14 -5 15 -4 4 9 -14 17 -20 19 -20 6z"/>
<path d="M6480 3977 c9 -40 18 -57 30 -57 5 0 1 18 -9 40 -24 54 -31 59 -21
17z"/>
<path d="M6293 3982 c10 -10 17 -28 17 -39 0 -13 11 -25 30 -33 36 -15 102
-21 94 -8 -3 4 -11 8 -18 8 -8 0 -19 7 -26 15 -7 8 -19 15 -27 15 -8 0 -26 14
-40 30 -13 17 -30 30 -35 30 -6 0 -4 -8 5 -18z"/>
<path d="M6790 3980 c0 -5 5 -10 10 -10 6 0 10 5 10 10 0 6 -4 10 -10 10 -5 0
-10 -4 -10 -10z"/>
<path d="M6275 3950 c3 -5 8 -10 11 -10 2 0 4 5 4 10 0 6 -5 10 -11 10 -5 0
-7 -4 -4 -10z"/>
<path d="M6435 3930 c3 -5 11 -10 16 -10 6 0 7 5 4 10 -3 6 -11 10 -16 10 -6
0 -7 -4 -4 -10z"/>
<path d="M6580 3930 c0 -18 40 -50 63 -50 20 1 19 3 -13 30 -37 31 -50 36 -50
20z"/>
<path d="M6246 3905 c4 -8 13 -15 22 -15 8 0 24 -7 34 -17 24 -22 33 -11 11
15 -23 26 -75 39 -67 17z"/>
<path d="M4355 3960 c3 -5 11 -10 16 -10 6 0 7 5 4 10 -3 6 -11 10 -16 10 -6
0 -7 -4 -4 -10z"/>
<path d="M5809 3665 c-1 -3 -2 -9 -3 -14 -2 -18 -16 -24 -29 -13 -10 9 -18 8
-33 -3 -18 -13 -16 -14 22 -15 41 0 64 13 64 37 0 12 -18 19 -21 8z"/>
<path d="M5707 3014 c-8 -8 1 -24 14 -24 5 0 9 7 9 15 0 15 -12 20 -23 9z"/>
<path d="M5210 2512 c0 -12 19 -26 26 -19 2 2 -2 10 -11 17 -9 8 -15 8 -15 2z"/>
<path d="M5260 2500 c0 -5 4 -10 9 -10 6 0 13 5 16 10 3 6 -1 10 -9 10 -9 0
-16 -4 -16 -10z"/>
<path d="M5476 2291 c-4 -7 -5 -15 -2 -18 9 -9 19 4 14 18 -4 11 -6 11 -12 0z"/>
<path d="M5775 2180 c3 -5 12 -10 20 -10 8 0 17 5 20 10 4 6 -5 10 -20 10 -15
0 -24 -4 -20 -10z"/>
<path d="M5462 2073 c4 -35 33 -43 41 -11 6 22 -6 38 -31 38 -9 0 -12 -10 -10
-27z"/>
<path d="M5310 1961 c0 -5 5 -13 10 -16 6 -3 10 -2 10 4 0 5 -4 13 -10 16 -5
3 -10 2 -10 -4z"/>
<path d="M5352 1959 c2 -6 8 -10 13 -10 5 0 11 4 13 10 2 6 -4 11 -13 11 -9 0
-15 -5 -13 -11z"/>
<path d="M5570 1729 c0 -5 5 -7 10 -4 6 3 10 8 10 11 0 2 -4 4 -10 4 -5 0 -10
-5 -10 -11z"/>
<path d="M5445 1400 c-8 -13 37 -31 49 -19 12 10 8 14 -21 23 -12 4 -24 2 -28
-4z"/>
<path d="M5600 1190 c0 -5 5 -10 10 -10 6 0 10 5 10 10 0 6 -4 10 -10 10 -5 0
-10 -4 -10 -10z"/>
<path d="M760 6245 c0 -17 -16 -20 -25 -5 -3 6 -15 10 -26 10 -15 0 -19 -7
-19 -33 0 -17 5 -48 10 -67 6 -19 15 -66 20 -105 11 -80 28 -160 41 -192 9
-24 43 -31 54 -12 5 6 12 4 20 -8 20 -28 24 -13 13 47 -13 66 -15 68 -32 45
-9 -12 -15 -15 -20 -7 -4 7 -15 12 -25 12 -13 0 -18 8 -18 30 0 17 3 30 6 30
3 0 16 3 29 6 16 5 22 2 22 -10 0 -9 5 -16 10 -16 10 0 9 20 -6 103 -6 30 -19
35 -28 10 -5 -12 -9 -14 -18 -5 -7 7 -19 12 -28 12 -12 0 -16 10 -17 36 -1 26
3 34 13 30 7 -3 16 0 20 6 4 7 14 2 26 -13 l20 -24 -7 35 c-3 19 -9 50 -12 68
-6 32 -23 45 -23 17z"/>
<path d="M11153 6023 c-18 -7 -16 -23 2 -23 8 0 15 7 15 15 0 8 -1 15 -2 14
-2 0 -9 -3 -15 -6z"/>
<path d="M847 5768 c-5 -18 -9 -20 -19 -10 -6 6 -21 12 -31 12 -21 0 -21 1 3
-95 7 -27 15 -63 19 -80 l7 -30 28 48 c26 43 28 54 22 105 -8 63 -20 85 -29
50z"/>
<path d="M891 5339 c-24 -33 -24 -38 17 -188 12 -47 16 -52 25 -35 6 10 15 22
21 26 7 4 6 15 -4 32 -7 15 -14 59 -15 99 -3 114 -6 118 -44 66z"/>
<path d="M962 5110 c0 -14 2 -19 5 -12 2 6 2 18 0 25 -3 6 -5 1 -5 -13z"/>
<path d="M971 5031 c-1 -24 2 -32 9 -25 7 7 7 19 1 35 -9 23 -10 22 -10 -10z"/>
<path d="M976 4855 c-9 -24 -8 -44 5 -90 10 -34 13 -37 19 -20 9 22 2 92 -10
114 -6 10 -8 10 -14 -4z"/>
<path d="M1720 4765 c0 -8 7 -15 16 -15 14 0 14 3 4 15 -7 8 -14 15 -16 15 -2
0 -4 -7 -4 -15z"/>
<path d="M1002 4670 c0 -14 2 -19 5 -12 2 6 2 18 0 25 -3 6 -5 1 -5 -13z"/>
<path d="M1100 4106 c0 -8 5 -18 10 -21 6 -3 10 1 10 9 0 8 -4 18 -10 21 -5 3
-10 -1 -10 -9z"/>
<path d="M850 3501 c-10 -25 -8 -35 12 -72 l23 -44 3 59 c5 88 -13 115 -38 57z"/>
<path d="M740 3306 c-5 -14 -14 -37 -20 -51 -12 -32 -3 -31 40 5 29 24 33 32
24 46 -17 28 -33 28 -44 0z"/>
<path d="M373 1933 c11 -3 16 -11 13 -19 -3 -8 1 -14 10 -14 27 0 11 35 -16
37 -16 1 -18 0 -7 -4z"/>
<path d="M1363 1914 c-32 -23 10 -28 59 -6 l43 19 -42 0 c-24 0 -51 -6 -60
-13z"/>
<path d="M427 1869 c-15 -11 -26 -25 -24 -31 3 -15 -124 -67 -233 -94 -65 -17
-79 -22 -45 -18 122 14 323 81 354 118 13 16 4 46 -14 46 -7 0 -24 -9 -38 -21z"/>
<path d="M790 1871 c0 -13 26 -32 33 -24 8 7 -11 33 -24 33 -5 0 -9 -4 -9 -9z"/>
<path d="M1220 1870 c0 -13 11 -13 30 0 12 8 11 10 -7 10 -13 0 -23 -4 -23
-10z"/>
<path d="M1100 1860 c-11 -7 -4 -10 25 -10 22 0 47 5 55 10 11 7 4 10 -25 10
-22 0 -47 -5 -55 -10z"/>
<path d="M3015 1226 c-77 -25 -173 -86 -161 -104 7 -12 74 -2 87 14 6 8 19 14
28 14 42 1 130 56 131 83 0 11 -39 7 -85 -7z"/>
<path d="M2786 1111 c-15 -16 -26 -36 -24 -45 2 -13 9 -11 36 10 17 14 32 34
32 45 0 26 -12 24 -44 -10z"/>
<path d="M5670 755 c0 -8 2 -15 4 -15 2 0 6 7 10 15 3 8 1 15 -4 15 -6 0 -10
-7 -10 -15z"/>
<path d="M5486 548 c-4 -23 -14 -50 -23 -60 -8 -9 -15 -30 -15 -45 0 -15 -9
-47 -20 -70 -11 -23 -17 -47 -13 -53 3 -6 -3 -10 -17 -10 -13 0 -34 -3 -47 -7
-22 -6 -23 -4 -17 28 7 32 6 33 -9 15 -17 -23 -20 -62 -4 -71 6 -5 3 -13 -10
-22 -25 -17 -28 -61 -5 -104 8 -17 13 -33 10 -36 -9 -9 14 -43 29 -43 8 0 17
-11 21 -25 3 -14 10 -25 14 -25 11 0 -8 90 -22 108 -11 13 -10 14 2 10 8 -2
17 -13 18 -24 2 -10 11 -25 20 -31 9 -7 17 -23 19 -35 2 -12 6 -24 9 -27 8 -8
454 -9 458 -2 2 3 1 35 -2 70 -4 51 -8 64 -23 68 -11 3 -19 12 -19 19 0 8 -4
14 -10 14 -5 0 -7 6 -4 14 3 8 0 17 -6 21 -7 4 -14 -2 -17 -14 -8 -30 -57 -53
-128 -60 -52 -5 -60 -9 -65 -30 -5 -21 -7 -22 -18 -8 -9 10 -11 34 -7 77 4 45
1 70 -10 92 -8 17 -15 55 -15 84 0 45 -17 142 -36 207 -10 32 -31 18 -38 -25z
m17 -305 c-7 -2 -21 -2 -30 0 -10 3 -4 5 12 5 17 0 24 -2 18 -5z m-63 -8 c0
-2 -14 -12 -31 -21 -32 -16 -58 -7 -45 15 7 11 76 16 76 6z m7 -91 c6 -17 -12
-34 -37 -33 -10 0 -11 2 -2 6 21 8 14 36 -8 30 -11 -3 -23 -1 -26 4 -3 5 11 9
31 9 23 0 38 -5 42 -16z m361 -66 c2 -11 -14 -20 -62 -32 -56 -14 -68 -14 -98
-2 -35 16 -34 17 42 35 94 22 113 22 118 -1z m-346 -40 c-7 -7 -12 -8 -12 -2
0 14 12 26 19 19 2 -3 -1 -11 -7 -17z"/>
<path d="M7365 320 c3 -5 8 -10 11 -10 2 0 4 5 4 10 0 6 -5 10 -11 10 -5 0 -7
-4 -4 -10z"/>
<path d="M7677 171 c-45 -29 -45 -35 1 -12 23 12 42 24 42 26 0 9 -14 4 -43
-14z"/>
</g>
</svg>
