<?xml version="1.0" standalone="no"?>
<!DOCTYPE svg PUBLIC "-//W3C//DTD SVG 20010904//EN"
 "http://www.w3.org/TR/2001/REC-SVG-20010904/DTD/svg10.dtd">
<svg version="1.0" xmlns="http://www.w3.org/2000/svg"
 width="1200.000000pt" height="800.000000pt" viewBox="0 0 1200.000000 800.000000"
 preserveAspectRatio="xMidYMid meet">
<metadata>
Created by potrace 1.16, written by Peter Selinger 2001-2019
</metadata>
<g transform="translate(0.000000,800.000000) scale(0.100000,-0.100000)"
fill="#000000" stroke="none">
<path d="M9632 6180 c5 -31 -8 -41 -18 -15 -9 21 -41 19 -54 -4 -15 -29 -13
-34 16 -28 27 5 54 -14 54 -39 0 -23 23 -16 58 16 44 40 54 38 46 -9 -4 -23
-2 -41 5 -45 6 -4 8 -19 5 -35 -8 -39 10 -46 40 -16 14 14 31 25 39 25 16 0
39 -23 36 -36 -4 -23 3 -34 21 -34 10 0 35 -8 54 -17 32 -16 36 -22 36 -60 0
-34 -4 -43 -21 -48 -28 -9 -68 13 -75 41 -3 13 -12 28 -20 35 -11 9 -14 6 -14
-19 0 -26 -6 -32 -40 -46 -36 -14 -40 -19 -40 -51 0 -30 -3 -35 -24 -35 -13 0
-40 -11 -61 -25 -20 -15 -39 -24 -42 -21 -9 9 39 89 58 93 21 6 26 42 8 60 -9
9 -9 19 0 41 9 21 9 36 2 48 -5 11 -12 27 -15 37 -10 32 -36 20 -36 -17 0 -58
-11 -95 -31 -101 -11 -4 -19 -14 -19 -22 0 -9 -3 -14 -6 -10 -3 3 -17 2 -31
-4 -15 -5 -31 -5 -42 0 -12 7 -26 5 -44 -4 -15 -7 -37 -15 -49 -17 -17 -2 -22
-9 -20 -26 3 -21 -20 -57 -30 -46 -3 2 -36 8 -74 13 -55 7 -74 6 -93 -6 l-23
-15 31 -19 c21 -13 40 -17 61 -12 22 4 36 0 50 -12 16 -15 22 -15 35 -5 8 7
15 18 15 26 0 15 36 37 49 30 5 -3 11 -20 15 -37 4 -21 10 -29 20 -26 21 8 56
-21 56 -47 0 -19 -7 -25 -32 -28 -17 -3 -47 0 -66 5 -23 8 -42 8 -62 0 -24 -9
-32 -8 -45 7 -18 20 -43 20 -88 2 -16 -7 -41 -12 -55 -12 -36 0 -100 -56 -83
-73 18 -18 13 -42 -16 -68 -37 -32 -68 -49 -92 -49 -11 0 -28 -14 -40 -35 -16
-28 -26 -35 -52 -35 -26 0 -29 -2 -20 -14 7 -8 11 -30 9 -48 -3 -30 0 -34 32
-44 23 -8 41 -9 53 -2 36 19 31 -4 -7 -38 -44 -38 -44 -49 1 -32 29 11 34 9
67 -20 20 -18 42 -32 47 -32 15 0 2 -90 -16 -110 -7 -8 -17 -28 -21 -44 -4
-16 -15 -31 -25 -33 -10 -3 -16 -9 -13 -14 8 -14 -56 -11 -140 7 -42 8 -151
28 -241 43 l-165 27 -2 -106 c0 -58 0 -162 1 -231 1 -105 -1 -128 -14 -133
-20 -7 -19 -50 1 -81 15 -23 15 -25 0 -25 -12 0 -16 -10 -16 -40 0 -29 4 -40
15 -40 9 0 15 -9 15 -22 0 -13 5 -108 10 -213 18 -344 46 -565 104 -830 9 -38
16 -81 16 -94 0 -23 -1 -24 -20 -6 -24 22 -43 87 -36 123 3 15 -1 41 -9 57
-13 28 -13 25 -14 -61 -1 -104 -13 -134 -46 -110 -17 12 -21 28 -23 110 -2 53
-8 96 -12 96 -5 0 -10 -46 -12 -103 -2 -64 -9 -113 -18 -131 -17 -33 -40 -46
-40 -23 0 8 -7 20 -15 27 -24 20 -65 -6 -65 -39 l0 -26 -21 25 c-18 23 -20 36
-16 172 l3 146 -60 4 c-69 4 -86 1 -86 -17 0 -7 -9 -24 -21 -39 -12 -15 -16
-26 -9 -26 9 0 9 -4 0 -15 -7 -9 -19 -14 -27 -11 -8 3 -17 -4 -22 -17 -7 -19
-16 -22 -50 -22 -42 1 -59 -14 -18 -16 12 0 16 -3 10 -6 -12 -4 -32 -42 -46
-83 -4 -11 -6 -9 -6 4 -1 19 -1 19 -20 0 -12 -14 -17 -30 -13 -52 4 -31 3 -32
-32 -33 -45 -2 -48 -2 -65 -13 -9 -6 -12 -5 -7 2 3 6 2 14 -4 17 -6 4 -10 3
-9 -2 1 -4 -3 -21 -9 -36 -7 -16 -12 -45 -12 -65 -1 -29 -3 -33 -11 -20 -5 9
-9 41 -9 70 1 29 -4 131 -10 227 -5 96 -8 176 -6 178 2 2 36 4 75 5 46 0 71 4
71 12 2 117 9 160 25 172 13 9 22 10 30 4 9 -7 22 -5 43 7 27 15 32 16 53 2
21 -14 26 -14 50 0 24 13 29 13 50 0 21 -14 26 -14 50 0 24 13 29 13 51 -1 21
-14 27 -14 52 -1 24 13 30 13 50 0 18 -12 25 -12 40 -2 12 9 14 15 6 20 -7 4
-110 9 -230 10 -136 2 -225 7 -238 14 -16 8 -22 23 -24 59 -3 40 -6 47 -25 50
-13 2 -23 -1 -23 -7 0 -14 -33 -14 -65 1 -17 8 -32 8 -47 1 -16 -7 -30 -7 -46
0 -29 13 -35 6 -23 -26 9 -23 7 -26 -17 -31 -15 -3 -97 -6 -182 -8 l-155 -3 0
30 c-1 56 -13 76 -43 69 -30 -7 -54 -24 -34 -24 7 0 12 -8 13 -17 1 -12 4 -10
9 7 l8 25 1 -27 c1 -15 8 -34 17 -42 8 -9 11 -16 5 -16 -5 0 -15 8 -20 18 -10
16 -10 15 -11 -3 -1 -11 -4 -14 -7 -7 -6 16 -23 15 -23 -1 0 -10 -26 -16 -97
-20 -54 -4 -154 -11 -223 -16 -69 -6 -179 -13 -245 -16 -66 -3 -128 -8 -138
-11 -17 -5 -16 -7 4 -25 13 -11 33 -22 47 -26 13 -3 27 -15 31 -27 13 -33 13
-163 2 -171 -6 -3 -11 -12 -11 -18 0 -7 4 -6 10 3 7 11 10 6 10 -20 0 -23 -3
-30 -9 -21 -6 10 -10 10 -16 1 -4 -6 1 -18 11 -26 17 -12 17 -13 2 -8 -12 4
-18 1 -18 -9 0 -9 -7 -23 -16 -31 -8 -9 -15 -24 -14 -33 3 -50 -2 -118 -9
-132 -18 -35 -22 -135 -6 -165 12 -23 13 -32 3 -44 -12 -14 -10 -14 12 0 18
11 54 16 125 17 55 1 111 3 125 4 20 2 26 -3 28 -25 3 -26 1 -27 -50 -30 l-53
-3 -3 -55 c-3 -55 -2 -55 48 -98 l51 -44 27 18 c36 24 129 25 165 1 43 -28 60
-63 61 -125 1 -70 -22 -111 -77 -142 -32 -19 -49 -22 -96 -17 -48 5 -61 11
-89 42 -35 38 -37 37 -47 -35 -5 -42 -3 -48 25 -75 32 -31 40 -51 16 -42 -9 4
-13 1 -10 -6 8 -21 -148 -67 -161 -47 -6 10 -8 20 -25 110 -7 37 -8 31 -7 -42
1 -47 -1 -84 -5 -81 -5 2 -9 -37 -9 -86 -1 -50 -2 -96 -3 -103 -1 -6 5 -13 11
-15 10 -4 11 7 7 41 -5 31 -3 46 5 46 6 0 11 -4 11 -9 0 -19 42 -24 52 -7 5 9
16 16 25 16 9 0 30 11 47 24 17 13 42 27 56 31 33 10 40 22 40 68 0 25 4 37
14 37 10 0 16 -13 19 -37 3 -36 4 -35 5 8 2 53 10 59 78 59 57 0 105 -20 127
-53 9 -15 17 -29 17 -31 0 -5 -27 -7 -95 -4 -75 2 -89 0 -100 -16 -7 -9 -15
-13 -18 -9 -12 11 -8 -57 4 -79 8 -15 8 -19 0 -14 -7 5 -11 -5 -11 -28 0 -19
-3 -43 -6 -53 -3 -10 8 3 24 28 91 139 215 142 392 9 68 -51 325 -286 350
-319 17 -24 18 -25 45 -7 15 10 28 16 29 14 1 -2 13 -18 26 -37 l23 -33 -27
-22 c-25 -20 -26 -22 -11 -61 16 -44 20 -131 6 -139 -4 -3 -11 21 -14 54 -7
76 -41 139 -130 235 -64 70 -70 74 -84 58 -13 -17 -13 -16 -4 3 9 19 5 27 -35
59 -36 30 -48 35 -57 25 -9 -10 -9 -11 0 -6 12 7 73 -45 73 -63 0 -5 -7 -11
-15 -15 -8 -3 -15 -2 -15 2 0 13 -94 31 -105 20 -7 -6 -5 -13 6 -21 9 -7 14
-18 12 -24 -3 -7 1 -13 9 -13 10 0 10 -2 0 -8 -9 -6 0 -15 30 -28 49 -22 164
-132 204 -195 15 -24 32 -47 38 -51 6 -4 -6 -6 -26 -5 -20 1 -34 6 -31 10 9
15 -120 147 -185 190 -74 48 -286 149 -353 168 -24 7 -46 13 -49 14 -52 15
-132 15 -212 1 -121 -22 -158 -34 -158 -52 0 -9 5 -12 10 -9 6 3 10 3 10 -2 0
-4 24 -19 54 -33 55 -25 66 -40 66 -92 0 -27 -1 -27 -45 -21 l-45 6 0 -42 c0
-24 5 -41 11 -41 8 0 10 12 6 36 -6 36 -6 36 25 30 31 -6 57 -30 58 -53 0 -7
5 -13 11 -13 6 0 8 7 5 16 -3 8 -2 12 4 9 14 -9 12 -46 -2 -43 -18 3 -62 -13
-70 -26 -4 -6 -8 -23 -8 -38 0 -22 5 -28 21 -28 14 0 25 12 37 40 10 22 24 39
32 39 10 0 11 -2 3 -6 -7 -2 -13 -11 -13 -18 0 -19 -49 -75 -66 -75 -8 0 -18
-19 -25 -45 -11 -45 -29 -70 -29 -41 0 9 -7 16 -15 16 -8 0 -15 5 -15 11 0 13
-20 34 -40 42 -9 3 -10 6 -2 6 6 1 12 6 12 12 0 5 -4 8 -8 5 -5 -3 -9 2 -9 10
0 10 4 11 11 4 17 -17 27 -11 14 9 -7 11 -15 18 -18 16 -4 -2 -4 9 -2 25 l4
28 -42 -9 c-23 -5 -45 -7 -51 -4 -5 4 -9 -1 -9 -10 0 -13 -6 -16 -25 -11 -31
8 -31 3 -1 -37 12 -18 26 -40 29 -50 6 -17 6 -17 -17 0 -14 10 -27 26 -30 37
-7 28 -26 9 -27 -27 0 -29 -1 -30 -9 -10 -12 30 -47 63 -66 63 -10 0 -14 6
-11 14 3 7 -7 23 -23 35 -33 24 -45 27 -34 8 4 -6 -1 -5 -12 4 -44 37 -157 46
-180 14 -8 -10 -14 -12 -19 -6 -8 14 -35 14 -35 1 0 -6 10 -14 22 -19 14 -5
18 -10 10 -15 -7 -4 -19 0 -28 8 -8 9 -20 16 -26 16 -7 0 -1 11 12 25 13 14
20 25 16 25 -5 0 2 9 15 20 13 10 18 19 12 20 -7 0 -13 -5 -13 -12 0 -6 -3 -9
-6 -5 -3 3 -20 -7 -38 -24 -38 -36 -71 -46 -93 -28 -11 9 -14 10 -10 2 5 -7
-1 -18 -13 -25 -11 -7 -20 -18 -20 -25 0 -7 -12 -19 -27 -28 l-28 -15 30 5
c24 4 26 3 10 -4 -11 -5 -30 -10 -42 -10 -16 -1 -23 -7 -23 -21 0 -14 -7 -20
-21 -20 -15 0 -19 -4 -15 -16 3 -9 6 -18 6 -20 0 -12 29 -1 45 16 10 11 20 18
22 16 7 -7 -27 -66 -38 -66 -5 0 -18 -8 -29 -18 -24 -22 -12 -43 26 -48 16 -1
33 -10 40 -18 8 -12 31 -17 79 -18 42 -1 73 -7 81 -16 8 -8 24 -16 37 -18 12
-2 36 -6 53 -10 27 -5 32 -2 37 17 5 19 9 20 21 10 21 -17 53 -5 74 27 33 52
40 56 68 38 13 -9 22 -21 19 -27 -4 -5 -10 -7 -13 -5 -18 11 -3 -46 15 -59 11
-8 26 -35 33 -59 7 -25 16 -43 21 -40 15 9 10 -44 -8 -82 -14 -27 -31 -42 -70
-60 -54 -25 -93 -31 -93 -14 0 6 18 28 40 50 24 24 37 45 34 54 -8 21 -113 59
-146 52 -16 -3 -28 0 -30 6 -5 13 -42 -20 -50 -42 -3 -9 -36 -14 -113 -16 -60
-2 -117 -6 -127 -10 -26 -8 -22 -32 7 -46 14 -6 25 -16 25 -21 0 -23 41 -54
65 -49 14 2 25 9 25 14 0 5 4 7 9 4 5 -3 14 8 20 24 5 17 15 30 21 30 24 0 38
-85 15 -94 -6 -2 -50 0 -98 5 -115 12 -154 35 -156 94 0 22 -5 54 -10 72 -5
17 -7 50 -4 72 4 26 2 41 -5 41 -7 0 -9 25 -7 73 7 112 10 140 22 167 6 14 14
45 18 70 8 51 34 88 46 68 6 -9 11 -5 17 12 5 14 8 28 5 33 -7 12 -56 8 -87
-8 -20 -11 -33 -12 -40 -5 -11 11 -218 13 -368 3 l-98 -6 8 -56 c4 -31 7 -98
7 -148 -1 -91 0 -93 23 -93 12 0 36 7 52 15 17 9 30 11 30 6 0 -11 -55 -31
-86 -31 -41 0 -23 -58 40 -128 19 -20 45 -54 59 -76 l26 -38 12 25 c11 25 13
25 103 20 50 -3 96 -10 101 -15 6 -6 -27 -8 -92 -4 l-103 6 0 -25 c0 -23 3
-25 50 -25 41 0 59 -6 99 -35 27 -20 57 -52 67 -73 9 -20 30 -49 46 -65 15
-16 28 -33 28 -39 0 -7 8 -20 18 -31 19 -23 8 -18 -41 16 -16 10 -49 30 -75
44 -26 14 -65 36 -87 49 l-41 24 4 -68 3 -67 -20 25 c-11 14 -21 29 -21 33 0
5 -4 5 -10 2 -6 -4 -7 1 -3 11 4 12 3 15 -5 10 -7 -4 -12 -2 -12 6 0 7 -19 34
-43 59 -30 34 -52 48 -79 53 -21 4 -38 12 -39 19 0 7 -4 3 -9 -8 -7 -19 -8
-19 -18 5 -5 14 -17 32 -26 39 -9 7 -16 20 -16 27 0 8 -4 14 -9 14 -5 0 -9 28
-9 63 1 34 -1 79 -4 100 -3 23 0 41 8 48 7 6 16 37 20 70 4 32 10 59 14 59 12
0 21 30 13 43 -4 7 -10 3 -15 -9 -5 -12 -6 -6 -3 18 4 24 2 38 -5 38 -6 0 -8
15 -4 43 4 23 3 39 -1 35 -5 -4 -13 -4 -19 1 -8 7 -9 39 -5 103 16 214 22 451
11 444 -27 -17 -56 -93 -57 -156 -6 -236 -19 -461 -26 -466 -5 -3 -9 -18 -9
-33 0 -16 -9 -48 -19 -72 -20 -46 -42 -212 -34 -260 3 -21 -1 -30 -19 -40 -13
-6 -25 -13 -27 -15 -5 -4 39 -65 66 -91 13 -12 23 -28 23 -35 0 -9 -3 -9 -11
2 -8 12 -9 9 -4 -10 4 -14 7 -35 7 -47 0 -13 4 -23 9 -23 4 0 6 -6 3 -13 -2
-7 5 -23 16 -35 12 -12 19 -26 16 -31 -3 -5 7 -21 22 -37 15 -15 20 -24 12
-19 -8 4 -5 -3 6 -16 12 -13 24 -33 27 -44 2 -11 12 -37 21 -58 9 -20 15 -37
12 -37 -11 0 -67 99 -186 329 -30 58 -35 62 -47 45 -7 -10 -13 -25 -13 -33 -1
-20 -20 -45 -41 -53 -12 -5 -15 2 -16 28 -1 23 4 34 13 34 8 0 14 5 14 11 0 5
4 8 9 4 5 -3 13 0 17 6 4 7 3 9 -3 6 -6 -4 -13 2 -16 13 -3 11 -1 18 4 14 5
-3 13 -3 18 0 12 8 -26 128 -44 142 -8 6 -18 25 -21 43 -4 17 -10 31 -15 31
-10 0 -22 -37 -15 -49 3 -5 -1 -12 -10 -15 -8 -3 -12 -10 -9 -16 3 -5 2 -10
-3 -10 -15 0 -22 28 -9 33 7 3 0 8 -15 12 -16 4 -25 12 -22 20 3 7 -3 16 -14
19 -11 4 -23 17 -27 29 -4 14 -8 17 -12 9 -2 -7 -13 -17 -24 -22 -15 -9 -17
-8 -12 7 5 12 2 15 -10 10 -14 -5 -17 0 -17 23 l0 30 -167 -1 c-142 0 -173 -3
-198 -18 -17 -10 -30 -26 -30 -37 0 -22 -34 -64 -52 -64 -7 0 -13 -7 -13 -15
0 -14 4 -14 37 0 66 28 120 36 148 23 14 -6 24 -17 21 -25 -3 -7 4 -19 15 -27
20 -14 20 -15 3 -43 -10 -15 -19 -30 -21 -32 -1 -2 -9 2 -18 9 -12 10 -16 8
-24 -11 -8 -21 -10 -22 -16 -6 -6 14 -10 15 -21 6 -8 -7 -18 -8 -22 -4 -4 4
-1 10 6 12 6 3 9 10 6 15 -4 7 -2 8 4 4 8 -5 12 1 12 14 0 12 -4 18 -10 15 -6
-3 -10 -1 -10 4 0 11 11 14 27 9 5 -2 7 -10 5 -18 -3 -13 -2 -13 7 0 17 25 13
35 -20 47 -17 7 -29 10 -26 6 3 -3 -1 -12 -9 -21 -9 -8 -13 -23 -11 -33 3 -10
1 -33 -4 -51 l-8 -33 3 33 c1 18 -3 37 -10 43 -7 6 -10 18 -6 27 9 25 -60 -20
-73 -47 -5 -12 -13 -21 -18 -21 -4 0 -5 4 -2 10 3 5 1 10 -5 10 -6 0 -13 -7
-16 -15 -4 -8 -12 -15 -20 -15 -18 0 -18 -18 1 -36 8 -9 15 -11 15 -5 0 5 12
4 28 -5 34 -18 42 -18 42 1 0 17 25 20 35 5 4 -6 10 -8 14 -6 4 3 29 -1 56 -9
60 -19 125 -20 125 -2 0 6 12 -1 26 -16 14 -17 31 -27 39 -23 8 3 15 0 15 -7
0 -8 3 -8 9 2 7 11 9 11 13 0 4 -11 11 -12 36 -2 18 6 34 8 37 3 3 -4 7 -44
10 -89 4 -73 3 -80 -13 -74 -15 6 -15 5 -3 -10 10 -12 10 -17 1 -17 -7 0 -2
-18 14 -46 22 -39 26 -59 26 -128 0 -59 -4 -88 -16 -105 -9 -13 -19 -19 -23
-13 -3 5 -118 12 -276 16 -261 6 -344 11 -374 22 -11 4 -13 23 -8 97 3 50 2
115 -3 142 -4 28 -8 43 -9 35 -2 -24 -41 -19 -46 5 -2 11 -9 103 -15 205 -5
102 -13 215 -16 253 l-6 67 -90 0 -89 0 6 -167 c3 -93 8 -178 11 -190 2 -13 2
-23 -1 -23 -10 0 -91 135 -114 190 -52 125 -73 163 -83 149 -5 -9 -6 -4 -2 14
l6 27 -73 0 c-41 0 -198 3 -349 7 l-275 6 -12 -25 c-9 -20 -19 -25 -52 -26
-38 -2 -42 1 -61 38 -23 45 -40 45 -40 -1 0 -29 -13 -36 -38 -21 -9 6 -12 34
-10 103 l3 94 43 -1 42 0 0 43 c0 24 -4 43 -10 43 -5 0 -10 19 -10 41 0 37 -2
40 -16 28 -13 -10 -17 -10 -24 1 -6 10 -10 3 -15 -23 -5 -27 -12 -37 -26 -37
-17 0 -19 8 -19 83 0 95 7 127 26 127 8 0 22 -19 31 -41 l16 -41 14 26 c7 14
18 26 23 26 5 0 9 95 10 220 l0 221 -30 32 c-16 18 -30 35 -30 40 0 4 -7 7
-16 7 -14 0 -15 -7 -10 -40 6 -38 5 -40 -18 -40 -15 0 -27 7 -30 18 -11 39
-38 203 -34 208 3 2 35 7 71 11 47 4 71 2 82 -7 13 -11 15 -2 15 74 0 56 -4
85 -10 81 -5 -3 -10 -12 -10 -18 0 -20 -33 -34 -72 -29 -34 4 -36 6 -44 50 -4
26 -9 39 -11 30 -6 -23 -29 -23 -42 -1 -7 13 -9 3 -4 -34 6 -51 5 -53 -19 -53
-29 0 -32 12 -44 158 -7 79 -6 82 14 82 15 0 28 -13 44 -42 l22 -43 20 47 c13
31 26 48 37 48 18 0 18 -2 35 -155 8 -73 16 -57 34 73 11 78 16 92 31 92 16 0
19 8 19 53 0 53 0 54 -29 49 -32 -4 -29 -17 -46 164 -6 60 -5 62 20 66 14 3
28 2 31 -3 2 -5 8 -55 12 -111 6 -98 7 -100 13 -48 4 30 7 104 8 163 l1 109
-30 -7 c-17 -4 -36 -2 -44 4 -11 9 -231 -10 -403 -35 -44 -6 -43 -7 -47 39 -1
8 20 14 59 18 33 3 151 17 263 30 l203 23 -6 101 c-3 55 -8 124 -11 153 -4 34
-2 52 5 52 6 0 11 18 11 40 0 22 -4 40 -10 40 -5 0 -10 -4 -10 -10 0 -5 -9
-10 -20 -10 -23 0 -24 6 -7 79 7 29 21 59 30 66 15 10 17 32 17 153 l0 141
-33 -4 c-17 -2 -88 -9 -157 -15 -155 -14 -408 -44 -557 -67 -105 -15 -112 -18
-108 -37 6 -28 25 -220 25 -257 0 -22 -5 -29 -19 -29 -33 0 -34 -20 -2 -26 35
-7 31 9 71 -259 l32 -209 -22 -18 c-32 -26 -55 -22 -84 13 -14 17 -30 27 -36
24 -5 -3 -10 -2 -10 2 0 5 -12 16 -28 25 -21 12 -32 14 -46 6 -14 -8 -29 -7
-53 1 -18 7 -41 10 -51 7 -10 -4 -27 1 -38 9 -25 19 -44 19 -44 0 0 -8 -9 -24
-21 -36 -19 -19 -22 -19 -45 -4 -26 17 -26 17 -38 -37 -8 -34 -41 -55 -61 -38
-11 9 -13 27 -10 69 3 31 7 128 9 216 3 88 8 170 11 182 10 32 33 36 51 8 21
-32 31 -31 46 0 16 35 47 32 60 -5 8 -25 13 -28 24 -19 8 6 14 17 14 25 0 17
37 37 51 28 14 -8 60 16 53 28 -3 4 -20 8 -39 8 -19 0 -36 4 -40 9 -3 5 -50 9
-104 9 -77 -1 -105 3 -125 15 -33 22 -35 22 -46 -8 -9 -24 -12 -25 -115 -25
-58 0 -105 -4 -105 -9 0 -16 30 -21 55 -9 20 9 31 8 50 -2 20 -10 28 -11 37
-2 23 23 55 14 68 -18 17 -40 9 -594 -8 -627 -17 -31 -48 -38 -80 -17 -40 27
-70 30 -136 17 -38 -8 -41 -11 -51 -58 -9 -40 -12 -45 -16 -25 -4 22 -7 19
-18 -20 -7 -25 -19 -58 -27 -73 -8 -16 -14 -39 -14 -52 0 -30 -10 -56 -19 -51
-4 3 -5 -12 -3 -32 9 -65 3 -206 -7 -196 -3 2 -11 -10 -18 -27 -7 -17 -17 -28
-23 -24 -5 3 -19 1 -31 -5 -11 -7 -46 -13 -77 -16 -31 -2 -67 -6 -80 -9 -19
-5 -23 0 -28 25 -5 25 -9 28 -21 19 -11 -10 -12 -8 -8 7 4 13 2 12 -6 -3 -16
-31 -86 -63 -136 -63 -26 0 -53 8 -76 24 -19 13 -39 21 -43 18 -4 -4 -4 2 -1
13 7 20 7 20 -8 1 -15 -20 -15 -20 -15 0 0 16 -3 15 -17 -8 -36 -57 -133 -85
-193 -55 -13 7 -35 28 -47 46 l-23 34 0 -32 c0 -30 -29 -71 -50 -71 -16 0 -12
-91 5 -104 12 -8 17 -42 22 -138 6 -118 5 -129 -16 -163 -19 -33 -21 -50 -21
-222 l0 -186 109 6 c99 5 112 4 132 -14 18 -15 19 -19 6 -19 -25 0 -21 -12 18
-49 29 -27 35 -40 35 -72 0 -22 10 -59 21 -82 12 -23 22 -54 21 -69 0 -16 4
-27 11 -25 7 1 11 -6 11 -15 -2 -23 5 -23 32 3 l22 21 -8 -37 c-10 -45 -40
-81 -51 -63 -6 9 -12 2 -20 -21 -11 -30 -13 -32 -20 -15 -11 29 -10 82 2 89
17 11 -23 34 -58 35 -37 0 -44 15 -12 23 35 9 16 32 -30 35 -40 3 -42 4 -25
18 17 14 14 15 -39 11 -64 -4 -80 -17 -67 -53 7 -16 5 -24 -6 -28 -25 -10 -74
-7 -74 4 0 6 5 10 10 10 6 0 10 11 10 25 0 16 -6 25 -15 25 -13 0 -15 -15 -13
-97 l3 -98 48 -24 c33 -16 67 -24 108 -25 34 -1 58 -5 56 -11 -5 -13 -76 -14
-101 -2 -16 8 -18 6 -12 -9 4 -11 12 -45 18 -77 14 -77 6 -85 -67 -64 l-55 16
0 -179 c0 -98 4 -181 9 -184 15 -10 18 -53 5 -77 -10 -18 -13 -89 -14 -281 l0
-258 1384 0 c1216 0 1385 2 1390 15 3 8 8 38 11 67 10 81 10 81 44 63 34 -17
45 -43 42 -102 -3 -62 16 -53 24 10 10 78 13 80 84 72 57 -6 61 -9 61 -32 0
-24 -2 -25 -40 -20 -29 4 -40 2 -40 -8 0 -8 12 -15 28 -17 22 -2 26 -7 24 -26
-3 -21 0 -23 30 -20 31 3 34 6 47 61 11 45 17 57 33 57 14 0 27 -16 46 -60 36
-81 57 -81 49 0 -5 58 -4 60 18 60 27 0 35 -17 35 -76 l0 -44 78 0 77 1 -40
35 c-87 77 -85 73 -86 149 -1 38 -4 95 -8 125 l-6 55 -22 -70 c-12 -38 -24
-82 -27 -96 -5 -25 -37 -44 -50 -31 -3 3 -6 19 -7 36 l-1 31 -15 -37 c-12 -29
-21 -38 -39 -38 -23 0 -24 4 -26 65 -4 142 -5 140 17 140 15 0 21 -9 26 -35
l6 -35 4 35 c3 27 9 36 26 38 17 3 23 -4 29 -30 l7 -33 9 33 c7 27 13 32 37
32 16 0 31 5 33 11 2 7 40 16 83 20 44 5 97 12 118 15 l37 6 -1 -68 c-1 -46
-3 -61 -8 -44 -5 18 -13 24 -27 22 -34 -6 -36 -19 -5 -45 36 -30 42 -46 9 -23
-30 22 -37 20 -30 -7 5 -22 5 -22 -16 -3 l-22 19 0 -105 c0 -57 3 -107 6 -111
4 -3 15 4 25 16 27 33 23 7 -6 -36 l-26 -37 306 0 c284 0 305 1 305 18 0 9 7
26 15 36 8 11 15 32 15 48 0 15 4 28 9 28 4 0 35 -18 67 -40 33 -22 77 -45 99
-51 22 -6 43 -16 47 -23 4 -6 32 -11 62 -11 49 0 59 4 90 34 19 19 33 38 30
43 -3 4 8 8 25 8 16 0 33 5 36 10 3 6 -2 10 -12 10 -13 0 -8 6 15 22 19 12 31
26 28 34 -3 7 1 30 8 51 l14 38 7 -40 c10 -62 26 -95 62 -134 23 -24 33 -43
30 -58 -4 -22 -1 -23 62 -22 36 0 60 3 54 6 -9 3 -10 10 -3 23 6 12 7 21 0 25
-5 3 -8 27 -6 54 3 43 9 53 51 92 26 24 64 54 85 67 l37 23 11 -43 c5 -24 16
-89 23 -145 l13 -103 58 0 c61 0 67 4 44 29 -13 14 -13 33 -3 131 l12 115 33
-1 c107 -1 158 -5 170 -12 19 -13 0 -217 -24 -243 -16 -18 -13 -19 182 -18
l199 0 23 52 c12 29 30 83 41 120 10 37 21 70 23 73 3 2 17 0 32 -5 24 -10 26
-9 26 19 0 17 -9 38 -22 50 -17 16 -19 23 -10 32 10 10 15 10 22 -2 8 -13 10
-12 10 3 0 10 7 20 15 23 8 4 15 15 15 25 0 36 -43 17 -65 -29 -12 -26 -26
-42 -37 -42 -10 0 -18 5 -18 11 0 8 -4 8 -14 0 -11 -9 -20 -10 -36 -1 -43 23
-45 78 -4 125 13 15 24 36 24 45 0 9 6 25 14 36 11 15 17 16 27 7 7 -7 24 -9
40 -6 28 5 29 4 29 -36 0 -30 -4 -41 -15 -41 -8 0 -15 6 -15 14 0 19 -37 27
-51 10 -16 -19 -25 -104 -11 -104 16 0 24 18 10 23 -9 3 -6 12 9 28 19 19 26
21 47 11 19 -9 27 -8 36 4 18 20 30 18 62 -13 27 -26 28 -26 43 -7 8 10 21 33
30 51 26 53 135 149 243 214 72 43 102 66 98 76 -4 9 -2 11 6 7 8 -5 9 -2 5 9
-3 9 3 36 13 59 11 24 20 57 20 74 0 21 7 37 23 47 l22 16 -27 0 c-22 1 -28
-4 -28 -21 -1 -22 -2 -21 -16 4 -14 26 -13 31 16 85 30 57 31 57 27 22 l-3
-37 26 16 c40 25 51 42 39 63 -5 11 -17 19 -27 19 -16 1 -16 1 1 11 9 5 21 8
26 4 18 -11 22 -62 8 -103 -12 -34 -12 -44 -2 -52 8 -7 16 -7 19 -2 7 12 55
22 74 15 7 -3 18 -17 23 -30 5 -14 15 -23 22 -21 8 3 14 45 18 135 4 78 14
153 25 189 20 68 34 89 34 54 0 -45 16 -135 28 -158 21 -38 73 -111 83 -117 5
-4 9 -11 9 -17 0 -6 -7 -5 -17 3 -16 13 -17 12 -4 -3 7 -10 17 -16 21 -13 4 3
13 -2 20 -10 11 -13 10 -14 -6 -8 -16 6 -17 5 -4 -9 8 -9 18 -14 21 -12 3 2
24 -6 45 -16 35 -18 40 -25 45 -68 3 -26 2 -48 -2 -50 -4 -2 -5 -13 -2 -25 l5
-22 -20 23 c-20 22 -34 29 -29 15 1 -5 -3 -9 -8 -10 -6 -2 -10 0 -10 5 0 4 -6
16 -12 27 -15 25 -17 4 -4 -42 5 -17 6 -34 3 -38 -10 -10 -11 -65 -1 -65 5 0
6 -7 3 -15 -5 -12 0 -15 22 -14 28 2 66 -20 274 -167 36 -25 97 -61 136 -79
40 -19 109 -57 155 -84 57 -35 90 -49 105 -45 30 8 40 -13 17 -38 -18 -20 -18
-21 4 -14 13 4 31 1 45 -8 27 -17 131 -43 348 -87 212 -43 279 -62 248 -70
-22 -7 -22 -7 3 -8 15 -1 32 -8 39 -16 7 -8 19 -15 27 -15 7 0 37 -12 66 -27
41 -21 69 -27 137 -30 81 -4 84 -3 58 12 -40 22 -34 26 13 10 48 -17 62 -19
55 -6 -6 9 51 21 107 23 15 0 27 7 27 14 0 26 23 62 43 68 14 3 29 -2 42 -14
21 -20 21 -20 43 3 19 20 22 35 22 109 0 114 7 147 30 141 10 -3 29 -25 42
-50 l25 -45 24 43 c15 27 33 45 45 47 20 3 21 -2 23 -108 l2 -110 -24 0 c-14
0 -27 6 -30 13 -9 25 2 88 22 123 12 19 21 41 21 47 0 7 -17 -17 -38 -52 -20
-35 -42 -66 -47 -68 -6 -2 -25 27 -43 63 -18 37 -35 64 -38 61 -3 -3 4 -24 16
-47 15 -30 21 -57 19 -94 -3 -61 13 -98 32 -79 21 21 56 15 77 -11 16 -21 21
-23 33 -11 8 7 23 15 34 17 16 2 19 -2 17 -25 -4 -35 31 -50 113 -48 33 0 83
-3 110 -8 46 -8 42 -9 -46 -10 -63 -1 -111 4 -139 14 -56 20 -100 17 -100 -7
0 -17 15 -18 208 -17 119 1 196 4 182 9 -24 8 -23 8 8 9 20 1 31 -3 27 -9 -4
-6 20 -10 65 -10 45 0 69 4 65 10 -3 6 4 10 17 10 19 0 20 2 8 11 -12 9 -12
10 3 5 10 -3 26 -6 35 -6 15 0 15 -2 2 -10 -10 -7 -3 -8 25 -5 29 4 34 3 20
-4 -12 -5 348 -9 912 -10 l932 -2 -6 36 c-5 31 -3 35 16 35 11 0 30 -9 41 -20
24 -24 30 -25 30 -6 0 21 29 40 64 43 17 2 47 6 67 9 21 3 39 2 43 -4 4 -6 21
-8 39 -6 24 4 42 -1 70 -20 54 -37 83 -35 91 7 9 51 6 1047 -4 1047 -4 0 -10
25 -12 55 -3 52 4 71 15 43 3 -7 6 4 6 24 1 25 -3 37 -11 35 -8 -1 -12 7 -10
20 2 12 -2 24 -8 28 -5 3 -10 1 -10 -5 0 -6 -4 -9 -9 -5 -5 3 -12 1 -15 -4 -4
-5 -1 -13 5 -17 8 -4 8 -9 1 -13 -6 -4 -13 -18 -15 -31 -3 -14 -10 -36 -15
-50 -11 -26 -55 -80 -65 -80 -18 0 -97 -59 -87 -65 6 -4 9 -13 6 -21 -4 -10 2
-14 20 -14 l25 0 -28 -26 c-24 -22 -34 -25 -73 -21 l-45 6 43 -19 c23 -11 44
-25 47 -32 12 -32 11 -65 -3 -86 -8 -12 -12 -31 -9 -42 3 -13 0 -20 -10 -20
-8 0 -12 -4 -9 -9 4 -5 1 -11 -4 -13 -6 -2 -12 -13 -13 -26 0 -12 -5 -22 -9
-22 -4 0 -4 -7 -1 -17 5 -12 3 -14 -7 -8 -9 5 -11 4 -6 -3 4 -6 -5 -29 -19
-51 -14 -23 -25 -44 -25 -48 0 -5 -7 -21 -15 -37 -8 -15 -12 -33 -9 -38 4 -6
2 -13 -3 -17 -10 -7 -93 -174 -93 -188 0 -5 -9 -18 -20 -28 -11 -10 -20 -24
-20 -30 0 -21 -51 -14 -89 12 -63 42 -121 104 -121 129 0 12 -4 25 -10 29 -14
9 64 141 230 390 37 55 79 123 93 150 22 45 23 53 11 70 -9 13 -12 31 -8 55 9
46 10 47 35 25 41 -38 47 12 19 153 l-12 63 -47 -7 c-25 -3 -62 -17 -82 -30
-19 -13 -42 -24 -51 -24 -18 0 -31 -14 -22 -23 4 -3 7 -25 8 -48 2 -33 -7 -62
-41 -127 -23 -46 -48 -102 -53 -123 -12 -44 -88 -129 -117 -129 -26 0 -49 44
-80 148 -25 84 -46 245 -31 236 5 -3 8 1 8 9 0 8 -12 18 -27 22 -21 5 -24 8
-13 15 22 14 5 23 -29 15 -33 -7 -52 -26 -33 -33 6 -2 8 -10 5 -18 -3 -9 2
-14 15 -14 26 0 34 -21 15 -39 -13 -12 -14 -11 -9 10 6 19 5 21 -4 7 -8 -13
-22 -16 -48 -9 -1 1 2 10 8 21 6 11 8 26 4 32 -5 7 -10 4 -15 -10 -10 -26 -25
-28 -33 -4 -13 41 -49 88 -134 177 l-90 95 -6 95 c-8 107 -39 191 -88 238 -40
37 -126 80 -149 74 -11 -3 -17 -1 -13 4 7 11 -7 11 -25 0 -11 -7 -10 -11 5
-19 18 -10 22 -57 15 -170 -2 -25 2 -49 10 -59 12 -15 12 -16 -3 -10 -10 3
-20 2 -23 -4 -4 -5 -12 -9 -18 -7 -32 6 -52 -12 -51 -44 1 -19 7 -32 13 -31 6
2 11 -1 11 -6 0 -5 9 -13 20 -16 11 -4 18 -11 15 -16 -4 -5 -13 -2 -21 6 -9 8
-24 15 -35 15 -10 0 -19 5 -19 11 0 5 -4 8 -9 5 -5 -3 -11 1 -15 9 -8 22 -38
7 -31 -16 5 -14 2 -17 -9 -13 -9 3 -14 10 -11 14 10 16 -10 18 -30 4 -12 -9
-14 -14 -5 -14 28 0 1 -11 -55 -21 -60 -11 -159 -51 -170 -69 -4 -6 -11 -8
-16 -5 -5 4 -9 0 -9 -7 0 -15 -35 -40 -44 -31 -3 4 -6 21 -6 40 0 25 4 33 18
33 10 0 24 -6 32 -12 7 -7 3 2 -9 19 -27 40 -59 63 -77 56 -8 -3 -14 -1 -14 5
0 16 -28 22 -56 12 -14 -6 -23 -6 -20 -1 8 12 -4 42 -14 36 -5 -3 -21 0 -36 5
l-27 11 47 25 c49 26 66 25 66 -6 0 -10 7 -20 15 -24 19 -7 19 -2 0 34 -9 17
-20 30 -26 30 -6 0 -8 4 -4 9 11 19 -17 22 -37 4 -20 -18 -20 -18 -17 2 4 26
-9 75 -24 89 -24 22 -93 66 -105 66 -7 0 -12 5 -12 10 0 6 5 10 11 10 6 0 9 6
6 13 -7 19 44 10 60 -10 6 -8 16 -12 22 -8 7 3 8 0 5 -10 -5 -11 2 -17 25 -21
17 -4 33 -14 36 -23 2 -9 16 -28 30 -44 23 -24 32 -27 94 -27 l68 0 7 77 c3
42 6 98 6 126 l0 50 118 -7 c289 -17 637 -47 640 -56 2 -6 7 -8 10 -6 4 2 6
-15 6 -37 -1 -34 35 -232 83 -451 8 -38 32 -62 34 -34 1 17 93 144 102 141 4
-2 20 -3 36 -3 32 0 95 -45 85 -61 -3 -5 -27 -7 -55 -3 -41 6 -49 4 -49 -10 0
-10 8 -16 23 -16 13 0 36 -13 52 -30 29 -30 78 -40 119 -24 18 7 52 76 60 124
6 34 -15 135 -31 151 -13 13 -52 -1 -47 -16 5 -13 -33 -32 -43 -21 -6 6 -24
168 -19 173 1 2 21 4 44 5 35 1 43 6 56 32 12 26 13 33 0 50 -8 11 -14 41 -14
67 0 39 -3 48 -21 52 -32 9 -22 51 14 55 23 3 27 7 22 25 -11 39 -28 67 -41
67 -9 0 -11 26 -7 103 6 129 8 136 34 109 23 -26 34 -28 25 -7 -3 10 1 15 14
15 10 0 22 5 25 10 3 5 1 10 -5 10 -6 0 -8 5 -5 10 3 6 -3 10 -14 10 -10 0
-21 -5 -23 -11 -2 -5 -11 -7 -21 -4 -18 8 -24 56 -18 162 1 28 -3 61 -9 73 -9
18 -9 24 0 30 8 5 1 10 -19 15 -27 6 -36 2 -57 -20 -13 -14 -22 -31 -19 -36 4
-5 -1 -9 -10 -9 -9 0 -21 13 -28 28 -7 17 -18 27 -26 24 -11 -4 -13 5 -7 48 9
69 14 77 76 129 33 28 58 41 70 38 13 -3 17 -1 13 10 -9 22 -79 8 -114 -22
-16 -13 -36 -22 -46 -20 -10 2 -21 4 -25 4 -17 2 -5 28 30 68 33 37 45 43 106
55 l70 13 -3 114 c-2 90 0 112 11 109 7 -3 19 -22 27 -44 8 -21 25 -66 38 -99
18 -44 24 -77 23 -125 -1 -51 4 -75 23 -110 21 -40 25 -65 31 -195 7 -127 11
-159 33 -210 14 -33 36 -105 48 -160 13 -55 37 -138 53 -185 17 -47 40 -126
52 -177 l23 -92 29 45 c53 84 100 186 93 203 -20 48 -11 102 21 125 13 10 40
94 32 101 -2 2 -21 5 -43 7 -34 3 -40 7 -39 26 0 12 1 58 2 103 2 77 3 80 25
77 20 -3 22 -8 23 -78 1 -68 3 -75 23 -78 37 -6 47 18 55 127 6 84 4 106 -7
120 -16 17 -57 145 -57 176 0 14 6 16 28 12 l27 -6 -5 52 -5 52 -52 3 c-49 3
-53 5 -53 28 0 23 3 24 56 24 34 0 53 4 49 10 -3 6 -28 10 -56 10 l-49 0 0 98
c0 134 3 142 52 142 l41 0 -6 48 c-5 37 -20 268 -22 317 0 5 43 15 95 22 52 7
110 15 128 18 l32 6 0 334 c0 257 -3 335 -12 339 -10 5 -10 7 0 12 9 4 12 65
12 254 0 211 -2 249 -15 254 -8 3 -15 12 -15 21 0 8 7 15 15 15 12 0 15 15 15
79 0 74 -1 79 -20 74 -15 -4 -20 0 -20 17 0 17 4 20 20 15 18 -6 20 -2 19 47
-1 29 -4 41 -6 25 -4 -23 -8 -27 -26 -21 -32 10 -68 37 -129 97 -29 28 -72 61
-95 72 -44 21 -74 60 -84 110 -4 17 -10 38 -14 48 -12 28 41 23 56 -5 7 -13
16 -26 20 -29 5 -3 11 -20 13 -38 2 -19 13 -39 25 -48 12 -8 30 -23 39 -33 21
-22 45 -12 40 16 -2 14 4 20 22 22 53 6 67 12 78 37 10 21 15 24 31 15 26 -13
31 -13 31 5 0 8 -7 15 -16 15 -27 0 -105 73 -102 95 2 12 9 18 18 16 54 -15
65 -12 83 19 23 42 26 283 3 274 -8 -3 -17 0 -21 6 -8 13 14 42 26 34 5 -3 9
11 9 30 0 29 -3 34 -17 29 -29 -10 -53 -35 -53 -53 0 -22 -18 -37 -50 -42 -36
-4 -31 -22 14 -53 28 -19 41 -23 51 -15 14 11 41 -11 28 -24 -4 -4 -7 -19 -8
-33 0 -36 -20 -40 -48 -9 -14 15 -35 26 -51 26 -14 0 -34 9 -43 19 -21 25 -33
18 -33 -20 0 -16 -3 -29 -7 -29 -26 -1 -57 -41 -62 -81 -5 -37 -10 -44 -31
-47 -14 -2 -29 -9 -35 -16 -5 -7 -20 -18 -33 -25 -22 -12 -22 -14 -8 -30 25
-27 19 -38 -21 -45 -90 -14 -105 -2 -64 54 38 53 43 130 7 108 -2 -2 -14 6
-26 17 -14 13 -19 26 -16 41 4 16 1 24 -13 29 -25 8 -61 40 -61 54 0 7 -8 10
-18 7 -12 -4 -26 1 -37 14 -14 15 -26 19 -46 15 -15 -3 -30 -2 -33 3 -8 13
-92 8 -129 -7 -21 -8 -33 -8 -45 0 -15 10 -15 10 1 5 15 -5 16 -2 7 14 -5 10
-7 26 -4 35 8 21 -25 57 -46 50 -9 -3 -24 3 -33 13 -15 16 -15 21 -2 38 8 10
15 29 15 42 0 15 9 26 25 32 14 5 25 16 25 24 0 10 -6 13 -15 10 -8 -4 -23 -3
-32 2 -10 4 -29 9 -43 10 -13 2 -30 10 -36 19 -16 22 -110 36 -252 38 -113 2
-125 0 -140 -18 -13 -15 -27 -19 -54 -17 -37 3 -38 3 -32 -26 13 -65 -45 -49
-74 20 -12 28 -26 47 -31 43 -7 -4 -5 -15 6 -31 13 -20 14 -30 4 -50 -14 -33
-51 -46 -72 -27 -15 12 -20 11 -45 -10 -40 -34 -85 -42 -123 -23 -37 20 -41
20 -41 2 0 -18 -60 -46 -97 -46 -20 0 -24 3 -14 9 11 7 10 15 -9 41 -17 23
-20 34 -11 43 19 19 12 34 -19 47 -17 7 -30 20 -30 30 0 21 -14 32 -60 50 -19
7 -42 21 -51 31 -9 10 -28 21 -42 24 -15 4 -26 10 -25 14 2 22 -6 33 -42 56
-22 14 -51 25 -66 25 -24 0 -26 -3 -22 -30z m948 -301 c0 -10 8 -23 18 -28 14
-7 17 -18 14 -39 -4 -29 18 -50 39 -36 5 3 18 -15 29 -39 l20 -45 63 2 c34 1
68 5 75 9 7 5 19 1 29 -9 16 -16 16 -18 -3 -33 -36 -29 -169 -13 -215 26 -25
21 -69 26 -114 13 -59 -17 -114 0 -121 38 -4 17 -17 33 -37 43 -23 11 -32 23
-32 40 0 20 8 27 44 38 24 8 52 21 63 30 10 9 35 21 56 27 30 9 40 9 55 -4 9
-8 17 -23 17 -33z m-1960 -1314 l35 -59 3 52 c2 41 7 52 20 52 39 -1 43 -13
41 -128 -2 -100 -4 -112 -20 -112 -10 0 -31 22 -53 58 l-35 57 -1 -48 c0 -47
-1 -48 -27 -45 l-28 3 -3 118 c-2 109 -1 118 15 115 10 -2 34 -30 53 -63z
m166 22 c1 -1 11 -31 21 -67 l19 -65 18 55 c10 30 22 59 26 64 11 12 60 -1 60
-16 0 -7 -17 -56 -37 -110 -35 -90 -40 -98 -64 -98 -30 0 -40 19 -78 146 -29
97 -28 108 6 99 16 -4 29 -7 29 -8z m302 -33 c6 -2 12 -15 12 -30 0 -25 -2
-26 -45 -22 -38 3 -45 0 -45 -14 0 -12 8 -18 24 -18 39 0 56 -11 56 -35 0 -21
-3 -23 -40 -18 -36 5 -40 3 -40 -16 0 -11 3 -20 8 -20 4 1 24 1 45 0 35 -1 37
-3 37 -32 l0 -31 -62 7 c-105 11 -98 1 -98 130 l0 114 68 -5 c37 -3 73 -7 80
-10z m189 -21 c8 -3 13 -15 11 -27 -3 -18 -10 -21 -50 -21 -57 0 -63 -15 -12
-30 64 -18 89 -73 56 -123 -14 -21 -73 -30 -122 -18 -40 10 -45 14 -42 36 5
33 4 33 51 19 36 -11 44 -10 58 4 15 14 13 16 -21 22 -53 10 -86 40 -86 78 0
37 7 49 35 65 19 11 87 8 122 -5z m221 -35 c3 -25 0 -28 -27 -28 l-31 0 0 -84
c0 -89 -4 -96 -47 -88 -22 4 -23 9 -23 88 l0 83 -32 3 c-28 2 -34 8 -36 31
l-3 28 98 -3 98 -3 3 -27z m-537 -294 c21 -35 37 -44 36 -21 -1 39 4 48 26 45
21 -3 22 -8 22 -81 0 -44 -3 -84 -6 -89 -7 -12 -41 18 -71 62 l-17 25 0 -37
c-1 -34 -4 -38 -26 -38 -25 0 -25 1 -25 83 0 46 3 86 6 90 11 11 34 -5 55 -39z
m-331 -199 c29 -15 37 -38 22 -61 -4 -6 -27 -11 -52 -10 l-45 1 3 -45 c4 -46
24 -90 42 -90 17 0 11 25 -10 43 -19 16 -28 57 -12 57 4 0 24 -5 45 -11 40
-11 38 -5 41 -129 l1 -35 -44 2 c-52 2 -77 22 -102 81 -24 55 -26 158 -3 190
18 27 70 30 114 7z m206 -46 c99 -48 115 -217 24 -264 -37 -19 -64 -19 -107 2
-45 21 -70 63 -79 129 -10 84 35 153 100 154 11 0 39 -9 62 -21z m294 -37 c50
-25 80 -74 80 -134 0 -87 -48 -138 -129 -138 -52 0 -61 8 -61 55 l0 43 30 -15
c28 -13 33 -13 55 1 35 23 35 83 0 116 -22 21 -29 23 -55 13 -24 -9 -30 -8
-33 6 -3 9 -5 -32 -6 -91 -1 -90 -3 -106 -16 -102 -19 8 -51 61 -60 101 -8 39
10 108 36 134 25 25 37 24 42 -3 4 -20 4 -19 6 5 1 24 5 27 39 27 20 0 53 -8
72 -18z m290 -26 c58 -28 83 -73 77 -139 -2 -27 -13 -60 -24 -75 -23 -30 -101
-59 -130 -47 -10 4 -37 7 -60 6 l-43 -3 0 141 0 140 38 4 c53 6 91 -1 142 -27z
m1050 -56 c7 -30 15 -49 17 -42 3 6 18 12 35 12 l30 0 -31 26 c-39 33 -42 71
-6 80 31 8 55 -1 55 -19 0 -10 -8 -13 -25 -9 -32 6 -32 -5 -1 -29 30 -24 33
-75 5 -84 -29 -10 -90 6 -113 29 -19 19 -21 19 -24 3 -2 -9 -12 -17 -24 -17
-17 0 -19 4 -13 28 3 15 15 47 26 71 19 44 20 44 38 25 10 -11 24 -45 31 -74z
m-7910 -10 c0 -13 -7 -20 -20 -20 -28 0 -25 -15 6 -28 20 -10 25 -18 22 -39
-4 -36 -49 -63 -77 -46 -11 7 -22 8 -28 2 -14 -14 -103 -22 -103 -9 0 16 -27
12 -34 -5 -7 -19 -36 -20 -36 -1 0 31 24 122 36 135 18 20 30 7 49 -53 12 -37
22 -53 31 -50 49 15 49 14 16 34 -38 23 -41 52 -10 74 32 22 58 20 58 -4 0
-14 -7 -20 -22 -20 -23 -1 -23 -1 3 -23 15 -12 29 -29 30 -38 3 -13 9 -15 28
-8 l23 9 -26 21 c-32 25 -33 53 -4 73 32 22 58 20 58 -4z m7746 -111 c39 -14
49 -92 14 -114 -8 -5 -7 -12 3 -23 36 -42 21 -114 -27 -126 -13 -3 -52 -3 -85
0 -71 8 -66 -8 -54 178 l6 108 61 -7 c34 -4 71 -11 82 -16z m154 -31 c0 -12
-8 -30 -17 -41 -22 -23 -26 -138 -5 -144 11 -4 18 -73 7 -73 -21 0 -64 34 -73
57 -25 64 -19 153 14 192 31 38 74 43 74 9z m70 -8 c50 -53 46 -188 -7 -230
-52 -41 -86 -8 -48 47 24 34 29 97 11 134 -36 73 -8 105 44 49z m106 10 c11 0
14 -21 14 -104 l0 -104 35 -6 c31 -6 35 -10 35 -38 l0 -31 -52 7 c-29 3 -61 6
-70 6 -16 0 -18 13 -18 133 0 74 3 137 7 141 4 3 13 4 21 1 7 -3 20 -5 28 -5z
m160 -18 c7 -4 14 -16 17 -27 4 -18 5 -18 6 3 1 27 7 27 48 2 44 -27 56 -54
57 -132 0 -58 -3 -71 -24 -93 -29 -31 -89 -36 -91 -7 -1 16 -2 16 -6 -1 -3
-13 -12 -17 -31 -15 l-27 3 -3 124 c-1 69 0 131 2 138 6 14 34 17 52 5z
m-8229 -62 c1 -14 5 -60 8 -103 l7 -79 33 6 c25 5 34 3 39 -10 19 -50 0 -64
-91 -64 l-53 0 0 43 c0 24 -3 85 -6 134 -6 84 -5 91 12 96 34 9 49 2 51 -23z
m6057 20 c25 -9 26 -14 26 -80 0 -45 4 -69 10 -65 6 3 10 17 10 30 0 31 38 73
70 79 34 5 96 -17 127 -46 38 -35 56 -78 56 -133 0 -95 -55 -153 -135 -142
-61 8 -90 41 -114 127 l-12 45 -1 -42 c-1 -24 -8 -48 -17 -58 -15 -14 -19 -14
-48 3 -25 14 -32 26 -34 56 -3 35 -2 37 18 31 21 -7 21 -6 14 99 -4 58 -4 106
-1 106 3 0 17 -4 31 -10z m-6162 -37 c21 -23 28 -42 33 -98 6 -63 4 -73 -17
-104 -12 -19 -37 -40 -55 -47 -28 -12 -35 -11 -65 9 -18 13 -38 38 -45 57
l-12 35 0 -41 c-1 -54 -24 -73 -98 -84 -32 -4 -59 -7 -60 -6 -5 4 -23 190 -23
233 l0 41 59 7 c37 4 67 3 80 -4 27 -15 37 -55 22 -88 -10 -22 -9 -29 3 -42
15 -14 16 -11 16 32 0 52 20 100 47 116 35 20 88 13 115 -16z m6576 -185 l3
-148 -41 0 -40 0 0 53 c0 28 -3 96 -7 150 l-6 98 44 -3 44 -3 3 -147z m146
119 c20 -14 26 -26 26 -55 0 -20 -4 -43 -9 -50 -5 -9 -1 -28 12 -51 38 -70 -4
-127 -91 -123 -52 2 -72 15 -72 48 0 22 4 24 45 24 38 0 45 3 45 20 0 19 -11
24 -65 32 -13 2 -21 12 -23 31 -3 25 -1 27 33 27 61 0 61 45 0 53 -26 3 -30 8
-33 37 l-3 33 54 -5 c30 -2 67 -12 81 -21z m262 -2 c30 -12 34 -18 29 -37 -11
-35 -16 -37 -74 -27 -48 9 -55 8 -72 -9 -18 -20 -17 -20 44 -31 75 -13 104
-39 112 -99 4 -36 1 -46 -19 -67 -33 -33 -86 -41 -160 -23 -59 13 -61 15 -58
43 2 17 5 31 7 33 2 2 28 -1 59 -8 40 -8 61 -8 76 0 37 20 23 37 -37 45 -91
11 -131 66 -103 140 19 50 123 71 196 40z m839 -110 c228 -20 584 -56 603 -60
16 -4 22 -13 22 -31 0 -23 -3 -24 -32 -20 -52 9 -667 66 -705 66 -26 0 -39 21
-29 46 5 12 15 14 44 10 20 -3 64 -8 97 -11z m-2691 -11 c12 -31 6 -42 -25
-49 l-32 -7 7 -84 6 -84 -39 0 c-45 0 -51 9 -51 78 0 89 -1 89 -93 90 -44 1
-85 -2 -91 -5 -12 -8 21 -21 56 -22 59 -2 90 -84 48 -128 -21 -23 -76 -35
-150 -32 -25 0 -84 -2 -131 -6 -98 -9 -97 -10 -100 90 -1 55 -16 126 -18 89
-1 -24 -58 -172 -74 -191 -5 -7 -23 -13 -39 -13 -26 0 -32 8 -80 104 -28 59
-48 112 -45 120 4 10 19 16 41 16 33 0 35 -3 57 -59 13 -33 26 -58 30 -56 3 3
12 31 19 63 l12 59 82 7 c44 4 106 9 137 13 53 5 56 4 63 -18 4 -15 9 -19 13
-11 10 26 52 37 158 43 216 11 232 10 239 -7z m-860 -76 c3 -18 6 -57 6 -87
-1 -47 1 -53 17 -47 16 5 16 5 2 -7 -9 -6 -16 -23 -15 -37 1 -19 -5 -26 -23
-28 -17 -3 -37 9 -73 45 l-50 48 4 -53 c1 -28 2 -52 1 -52 -1 0 -8 -3 -17 -6
-14 -5 -16 8 -16 110 0 64 2 116 5 116 2 0 23 -19 45 -42 l42 -43 -6 51 c-2
29 -2 55 1 58 4 3 21 6 39 6 28 0 32 -4 38 -32z m2941 -113 c0 -28 -3 -30 -45
-36 l-45 -5 40 -5 c35 -3 40 -8 43 -31 3 -27 1 -28 -37 -28 -51 0 -54 -20 -3
-21 20 0 63 -2 95 -4 32 -3 57 0 57 5 0 6 -11 10 -25 10 -28 0 -75 40 -75 64
0 52 47 89 108 84 19 -2 22 -7 20 -33 -2 -19 -8 -29 -17 -27 -8 2 -21 0 -30
-4 -12 -5 -8 -9 14 -13 17 -3 30 -12 29 -19 -1 -6 -2 -39 -2 -73 l-2 -60 -106
4 c-58 3 -107 7 -109 9 -5 5 -8 69 -6 146 l1 73 48 -3 c45 -3 47 -4 47 -33z
m453 13 c-2 -13 -11 -24 -23 -26 -34 -7 -55 -33 -55 -70 0 -39 23 -72 52 -72
13 0 18 -7 18 -26 0 -26 -2 -26 -42 -21 -60 8 -88 42 -88 108 0 86 33 129 97
129 40 0 44 -2 41 -22z m145 -2 c3 -7 9 -35 12 -62 11 -72 15 -72 39 -3 14 44
27 65 40 67 38 7 37 -14 -2 -119 -34 -91 -42 -104 -64 -107 -30 -4 -40 17 -63
128 -9 41 -18 83 -21 93 -4 13 1 17 24 17 17 0 32 -6 35 -14z m265 -106 l-3
-90 33 0 c28 0 32 -3 32 -25 0 -25 -1 -26 -62 -23 l-62 3 2 70 c2 39 5 89 8
113 6 37 9 42 31 42 l25 0 -4 -90z m266 57 c12 -12 56 -179 56 -213 0 -21 -37
-17 -52 5 -8 11 -25 22 -40 26 -20 5 -26 2 -31 -14 -5 -20 -36 -29 -49 -15 -6
5 53 191 67 214 9 14 34 13 49 -3z m172 -112 c57 -107 62 -125 39 -125 -8 0
-29 26 -47 58 l-33 57 -3 -52 c-3 -49 -5 -53 -28 -53 -24 0 -24 1 -24 85 0 52
4 85 10 85 7 0 7 6 1 19 -6 10 -7 21 -4 25 18 18 41 -8 89 -99z m-8462 69 c3
-9 6 -37 6 -62 0 -75 8 -92 41 -92 24 0 29 -4 29 -24 0 -24 -28 -36 -85 -36
-27 0 -31 13 -41 143 l-6 87 25 0 c14 0 28 -7 31 -16z m-61 -76 c11 -141 10
-148 -17 -148 -23 0 -25 5 -31 68 -4 37 -11 85 -15 107 -7 35 -8 36 -9 10 -1
-35 -29 -187 -36 -193 -2 -2 -14 -2 -27 1 -19 5 -30 25 -57 102 -18 53 -34 95
-35 93 -2 -2 2 -47 7 -101 6 -53 8 -99 6 -102 -3 -2 -31 -7 -62 -11 -72 -9
-92 6 -107 82 -18 87 10 144 69 144 28 0 29 -46 2 -55 -25 -8 -33 -30 -25 -73
5 -26 14 -37 35 -46 16 -6 29 -17 29 -25 0 -8 2 -12 5 -10 2 3 -1 49 -6 103
-13 112 -12 113 56 114 l44 1 19 -57 19 -57 8 58 c8 64 16 71 85 75 l37 3 6
-83z m6369 68 c46 -13 108 -63 108 -85 0 -7 -8 -11 -17 -9 -10 2 -17 8 -16 14
1 5 -14 10 -33 11 -32 1 -34 0 -28 -20 4 -12 15 -33 26 -47 12 -17 16 -33 12
-44 -7 -18 -8 -18 -22 0 -13 18 -14 17 -8 -13 6 -37 0 -40 -32 -17 -22 15 -22
15 -10 -10 14 -32 4 -44 -23 -28 -17 11 -25 9 -50 -9 -19 -13 -28 -27 -25 -36
3 -8 6 -18 6 -21 0 -12 54 -31 85 -30 17 0 41 -4 53 -11 12 -7 22 -8 21 -4 -1
4 -1 10 1 13 1 3 3 16 6 29 7 40 23 50 82 53 l57 3 3 38 c4 45 7 45 162 21
155 -24 150 -22 150 -44 0 -26 -7 -29 -83 -31 -46 -1 -67 -6 -67 -15 0 -7 -13
-22 -28 -33 -15 -11 -37 -35 -47 -55 -10 -19 -23 -32 -28 -29 -6 3 -7 1 -4 -5
4 -6 24 -8 46 -5 60 8 111 -4 111 -27 0 -40 -11 -50 -54 -50 -79 0 -108 -24
-74 -58 10 -10 10 -17 0 -32 -13 -21 -10 -24 31 -34 33 -8 38 17 7 34 -28 15
-26 50 3 51 12 1 29 2 37 3 8 1 25 -2 38 -6 18 -6 22 -4 22 13 0 27 59 86 93
95 66 16 142 -26 153 -86 l7 -30 18 38 c44 89 181 96 224 12 8 -16 15 -54 15
-85 0 -49 -4 -60 -32 -90 -42 -45 -92 -55 -148 -30 -39 17 -69 61 -71 102 0
11 -4 7 -11 -12 -27 -76 -109 -116 -171 -84 -41 21 -67 52 -74 88 -8 35 -8 35
-13 -18 -4 -49 -8 -55 -33 -64 -34 -11 -77 -2 -77 17 0 9 -7 12 -18 9 -11 -2
-36 3 -57 11 -21 9 -40 14 -43 12 -5 -5 58 -46 71 -46 4 0 7 -7 7 -15 0 -20
-19 -19 -75 5 -56 24 -95 26 -95 5 0 -8 5 -15 10 -15 13 0 7 -189 -9 -320 -5
-47 -10 -139 -11 -205 0 -66 -4 -125 -8 -132 -5 -8 -84 -13 -252 -18 -135 -4
-273 -10 -308 -14 l-64 -6 1 -220 c1 -144 -4 -258 -14 -330 -18 -137 -18 -146
-2 -139 11 4 14 -10 14 -57 1 -60 2 -62 49 -104 l49 -44 -36 6 c-20 3 -46 0
-58 -7 -23 -12 -44 -5 -25 8 19 12 22 50 7 71 -18 27 -82 28 -121 4 -27 -17
-27 -17 -12 2 8 11 24 28 34 38 19 17 18 17 -8 17 -15 0 -40 -7 -56 -15 -17
-9 -30 -11 -30 -6 0 6 -13 9 -29 8 -20 -1 -27 -6 -24 -17 3 -10 1 -9 -7 2 -6
11 -24 18 -43 19 -27 0 -29 2 -12 9 11 5 29 11 39 15 19 5 18 6 -3 21 -20 15
-39 15 -81 2 -8 -3 -11 -2 -5 0 5 3 -8 11 -30 17 -39 12 -39 12 21 7 40 -3 64
-1 68 7 4 6 2 11 -5 11 -8 0 -9 10 -5 31 5 27 4 30 -9 19 -12 -10 -15 -10 -15
0 0 7 8 19 18 26 13 10 14 15 5 25 -7 6 -9 26 -6 46 5 31 -10 104 -28 128 -4
6 -16 45 -28 88 -20 74 -36 99 -101 167 -23 24 -28 55 -10 73 4 5 92 3 194 -3
103 -7 190 -10 193 -6 3 3 10 90 14 193 4 104 15 328 23 498 9 171 16 329 16
352 0 34 5 46 25 59 23 15 27 15 49 0 22 -14 27 -14 56 0 28 15 33 15 49 0 22
-20 28 -20 47 -1 20 20 30 19 55 -6 19 -19 22 -19 38 -5 22 20 40 20 63 -1 17
-15 19 -15 36 0 10 10 22 14 27 10 10 -10 -3 34 -21 69 -18 35 -18 87 1 143
12 35 14 54 5 83 -15 54 -13 56 25 32 l35 -22 10 26 c10 27 45 66 58 66 5 0
29 -6 54 -14z m-1678 -83 c3 -16 6 -57 8 -93 3 -60 1 -65 -18 -68 -13 -2 -32
8 -50 28 l-29 30 -5 -32 c-4 -29 -9 -33 -37 -36 l-32 -3 -4 78 -3 78 -2 -83
-2 -83 -27 3 c-27 3 -28 5 -37 87 -9 89 -3 103 39 99 11 -1 31 2 44 6 18 6 30
2 57 -25 l34 -33 0 31 c0 31 10 41 42 42 10 1 18 -9 22 -26z m785 -7 c48 -48
33 -174 -23 -196 -14 -5 -49 -8 -78 -6 -29 2 -65 4 -80 5 -24 1 -28 5 -28 32
0 31 1 31 35 26 l35 -6 0 83 c0 45 3 86 8 90 15 16 106 -5 131 -28z m1689
-168 c-4 -99 -20 -113 -62 -51 l-26 38 0 -33 0 -32 -60 0 -60 0 0 56 0 56 80
-7 80 -6 0 31 c0 26 4 30 26 30 l25 0 -3 -82z m488 29 c11 -11 -11 -47 -29
-47 -33 0 -57 -29 -57 -69 0 -45 8 -58 43 -66 20 -5 27 -13 27 -31 0 -21 -5
-24 -34 -24 -52 0 -87 35 -93 92 -11 93 36 162 104 153 20 -2 37 -6 39 -8z
m78 -12 c-1 -5 -4 -47 -8 -92 -6 -78 -5 -83 13 -83 35 0 51 -12 51 -37 0 -24
-2 -25 -62 -21 l-63 3 2 100 c4 135 7 147 41 143 15 -2 26 -7 26 -13z m235
-57 l22 -53 31 48 c18 28 38 47 49 47 23 0 24 -10 4 -36 -19 -25 -19 -43 0
-18 14 17 15 13 10 -51 -11 -125 -16 -147 -32 -141 -8 3 -19 6 -25 6 -7 0 -9
21 -6 57 5 53 4 56 -10 35 -19 -28 -36 -28 -49 1 -9 20 -11 17 -18 -28 -9 -63
-10 -63 -38 -58 -22 4 -23 6 -16 81 14 141 19 162 38 162 13 0 25 -17 40 -52z
m251 17 c0 -8 4 -15 8 -15 5 0 17 -44 27 -97 10 -54 20 -104 22 -110 4 -9 -5
-13 -26 -13 -20 0 -31 5 -31 14 0 17 -5 21 -41 30 -21 5 -28 2 -32 -14 -3 -14
-14 -20 -31 -20 -14 0 -26 4 -26 8 0 11 73 203 83 220 11 17 47 15 47 -3z
m-9592 -16 l14 -21 19 21 c25 27 43 27 62 -1 l15 -23 24 23 25 22 18 -20 c17
-19 18 -37 10 -302 -4 -156 -8 -323 -9 -373 l-1 -90 36 -3 37 -3 -2 379 c-1
301 2 382 12 395 14 17 40 13 58 -10 10 -11 16 -11 42 4 29 17 31 17 52 -2 17
-16 24 -17 40 -7 24 15 53 15 66 2 8 -8 19 -7 37 1 21 9 33 9 52 1 19 -9 31
-9 50 0 20 9 31 8 50 -2 20 -10 28 -11 37 -2 15 15 43 15 68 0 15 -10 22 -10
32 0 6 6 22 12 34 12 24 0 26 -10 39 -165 7 -93 47 -346 53 -340 9 8 82 -79
82 -97 0 -10 -9 -22 -21 -28 -16 -9 -27 -7 -55 9 l-34 20 0 -23 c0 -16 7 -26
23 -30 14 -3 42 -36 77 -91 61 -97 71 -130 40 -140 -29 -9 -42 2 -29 26 10 19
9 20 -13 8 -13 -6 -20 -9 -17 -5 7 7 -52 79 -58 72 -3 -2 2 -17 11 -34 8 -16
12 -39 9 -51 -4 -16 -2 -20 10 -16 15 6 31 -20 21 -36 -9 -15 -32 -10 -38 9
-3 9 -18 31 -32 47 l-25 30 6 -28 c4 -20 1 -29 -11 -34 -9 -3 -19 -2 -23 3
-10 14 -81 11 -81 -3 0 -7 9 -13 19 -13 21 0 64 -50 75 -86 5 -16 12 -20 36
-16 17 2 30 0 30 -4 0 -14 -38 -34 -53 -28 -23 9 -40 -22 -33 -61 5 -24 12
-35 24 -35 13 0 18 -8 17 -32 -1 -45 12 -62 33 -46 13 11 14 11 7 -1 -6 -11
-3 -13 13 -9 13 4 22 1 22 -5 1 -24 30 41 57 127 33 107 42 100 13 -10 -25
-95 -53 -345 -46 -415 5 -56 9 -55 -69 -25 -65 25 -228 17 -186 -8 17 -11 13
-29 -4 -22 -18 6 -19 1 -5 -24 10 -19 9 -19 -23 0 -28 17 -40 18 -61 10 -34
-13 -69 -13 -61 -1 3 5 19 13 37 16 27 6 29 9 14 17 -13 7 -27 4 -54 -14 -20
-14 -45 -27 -55 -31 -10 -4 -15 -11 -12 -17 7 -11 -63 -45 -73 -36 -3 3 9 11
26 17 28 10 30 13 19 31 -11 18 -19 20 -89 14 l-78 -5 -1 47 c0 26 -3 65 -7
87 l-8 40 -13 -50 c-26 -92 -41 -124 -64 -127 -20 -3 -22 -8 -19 -51 2 -27 7
-58 12 -70 8 -20 9 -18 9 11 1 17 4 32 9 33 53 7 92 7 97 -1 3 -5 13 -7 23 -4
12 4 14 3 4 -4 -8 -5 -11 -18 -7 -34 4 -16 1 -29 -9 -37 -9 -8 -16 -25 -16
-40 1 -21 5 -17 26 27 15 30 32 56 40 59 8 3 11 10 7 17 -3 6 -3 8 2 4 4 -4
19 2 33 12 13 11 34 20 46 20 12 0 31 7 43 15 21 14 24 14 43 -5 11 -11 29
-20 39 -20 24 0 81 -47 81 -66 0 -8 7 -14 15 -14 8 0 15 -9 15 -19 0 -11 6
-22 13 -24 7 -4 3 -8 -10 -12 -13 -4 -23 -15 -23 -26 0 -21 16 -39 80 -89 55
-43 63 -54 44 -60 -12 -5 -11 -9 6 -27 29 -32 25 -55 -17 -103 -47 -52 -102
-65 -211 -50 -41 5 -78 7 -84 4 -17 -11 -68 18 -88 51 -22 35 -46 50 -55 35
-3 -5 -12 -7 -20 -4 -7 3 -22 0 -32 -6 -17 -11 -17 -11 1 -6 17 6 17 4 5 -11
-7 -10 -24 -28 -38 -41 -13 -12 -21 -25 -18 -28 3 -4 20 7 37 24 36 36 41 27
5 -12 -50 -54 -126 -15 -140 72 -3 20 -10 44 -14 52 -4 8 -4 20 0 25 5 6 19
23 32 39 15 19 36 31 61 35 34 5 40 11 56 53 10 27 14 46 10 43 -4 -3 -10 2
-14 10 -3 8 -12 15 -20 15 -9 0 -13 -6 -10 -14 3 -8 -13 -25 -43 -43 -77 -48
-110 -57 -213 -58 -115 0 -227 30 -271 74 -24 24 -30 26 -42 14 -12 -12 -14
-11 -12 5 0 10 9 35 19 55 l17 37 36 -27 c39 -30 87 -99 78 -112 -3 -5 4 -7
15 -4 12 3 20 0 20 -7 0 -7 7 -10 15 -7 8 4 16 3 19 -1 2 -4 37 -5 77 -4 47 3
67 7 58 13 -11 7 -10 9 4 9 10 0 15 5 12 10 -4 6 -11 8 -16 5 -5 -4 -9 -2 -9
4 0 5 4 12 9 15 5 3 14 26 20 51 6 26 19 49 31 55 11 6 20 18 20 26 0 11 6 14
15 10 14 -5 15 2 11 47 -3 28 -5 56 -5 61 -1 5 -8 3 -16 -4 -8 -7 -12 -17 -8
-23 3 -5 1 -7 -5 -4 -10 7 -5 47 7 47 3 0 7 18 8 39 1 21 13 59 27 84 l24 46
20 -46 19 -45 13 51 c6 28 16 54 21 57 5 3 44 8 87 10 42 3 83 7 90 9 21 7 42
-6 43 -29 l0 -21 11 22 c14 30 57 41 152 41 52 1 83 5 91 14 24 26 70 251 54
267 -2 3 -15 5 -29 5 -15 1 -24 6 -22 14 6 29 -19 90 -38 95 -20 5 -37 33 -27
43 3 3 15 1 26 -6 17 -9 21 -8 21 5 0 8 -25 29 -55 46 -30 17 -55 35 -55 41 0
5 -10 8 -22 7 -13 -2 -29 0 -35 4 -14 9 -33 1 -33 -14 0 -5 13 -9 28 -9 29 0
52 -16 52 -35 0 -8 -18 -10 -56 -7 -46 4 -61 1 -84 -17 -17 -12 -44 -21 -63
-21 -19 0 -40 -7 -47 -15 -19 -22 -6 -29 31 -16 51 18 161 14 212 -8 51 -22
52 -23 61 -72 l6 -36 -152 -11 c-84 -7 -177 -12 -205 -12 -51 0 -53 1 -55 28
-5 100 -13 128 -44 170 -14 17 -32 32 -40 32 -8 0 -13 4 -10 8 8 13 -37 63
-59 67 -11 2 -22 4 -25 4 -3 1 2 6 10 12 12 8 11 9 -5 5 -11 -3 -31 2 -45 10
-25 15 -25 15 10 9 33 -6 34 -5 15 10 -29 23 -65 30 -97 17 -15 -6 -26 -6 -22
-1 7 12 -7 11 -26 -1 -10 -6 -11 -10 -2 -10 6 0 12 -6 12 -14 0 -9 -7 -12 -18
-9 -13 3 -19 15 -21 45 -1 23 3 44 9 48 16 10 17 83 2 88 -15 5 -16 108 -2
202 5 36 12 142 16 237 l7 173 26 0 c16 0 31 -8 39 -21z m9800 5 c16 -3 22
-11 22 -30 0 -22 -4 -26 -24 -22 -20 4 -25 0 -30 -25 -3 -16 -6 -44 -6 -62 0
-18 -3 -47 -6 -64 -6 -27 -11 -32 -33 -29 -14 2 -25 8 -25 13 1 6 4 47 8 93
l6 82 -25 0 c-20 0 -25 5 -25 23 0 13 3 26 6 30 6 6 86 0 132 -9z m-8614 -76
c3 -18 8 -58 13 -88 8 -52 9 -55 36 -52 24 2 27 -1 27 -27 0 -33 -20 -44 -73
-40 -17 1 -42 -1 -55 -5 -64 -21 -105 29 -106 130 -1 72 19 104 66 104 23 0
28 -4 28 -24 0 -14 -11 -33 -25 -44 -28 -22 -30 -35 -14 -81 8 -23 17 -31 34
-31 14 0 26 -7 29 -17 5 -18 3 11 -10 140 l-7 67 26 0 c22 0 27 -5 31 -32z
m5294 8 c52 -27 75 -62 79 -118 5 -61 -16 -110 -60 -142 -21 -16 -46 -21 -111
-24 l-83 -3 -11 143 c-6 78 -8 146 -6 150 9 14 163 9 192 -6z m-267 -19 c76
-51 78 -205 2 -254 -35 -23 -99 -32 -141 -20 -71 20 -102 66 -102 149 0 97 50
145 151 147 43 1 64 -4 90 -22z m571 -144 c33 -124 33 -123 4 -123 -16 0 -26
6 -26 15 0 9 -9 15 -24 15 -13 0 -26 -7 -30 -15 -6 -17 -32 -20 -41 -5 -6 10
27 124 47 163 6 11 18 17 31 15 17 -2 25 -15 39 -65z m98 17 c14 -33 31 -40
28 -12 -3 42 2 53 25 50 23 -3 23 1 13 -162 -2 -35 -24 -28 -50 16 -23 39 -26
41 -27 18 -1 -14 -1 -31 0 -37 1 -8 -9 -13 -24 -13 -25 0 -25 0 -25 88 0 49 3
92 6 95 12 11 41 -12 54 -43z m2133 -76 c9 -3 12 -14 9 -30 -4 -20 -10 -24
-42 -24 -42 0 -57 -13 -66 -56 -7 -38 25 -74 66 -74 27 0 30 -3 30 -30 0 -27
-3 -30 -30 -30 -42 0 -94 23 -114 51 -10 15 -16 44 -16 77 0 48 4 58 34 88 27
27 42 34 74 34 22 0 47 -2 55 -6z m212 -28 c35 -23 48 -60 42 -121 -8 -85 -81
-125 -169 -93 -76 28 -86 154 -16 213 25 21 39 25 74 22 23 -2 54 -11 69 -21z
m263 -32 c12 -14 22 -32 22 -40 0 -22 -27 -71 -42 -76 -10 -4 -9 -13 5 -42 23
-50 22 -56 -13 -56 -24 0 -33 7 -49 39 -17 32 -38 51 -57 51 -2 0 -4 -18 -4
-40 0 -38 -1 -40 -31 -40 l-32 0 8 113 c4 61 9 115 12 120 2 4 39 5 81 1 65
-5 80 -9 100 -30z m113 -6 c2 -23 2 -23 6 1 4 20 9 22 36 17 94 -19 125 -99
62 -162 -18 -18 -35 -24 -69 -24 -26 0 -46 5 -49 13 -3 6 -6 -5 -6 -25 -1 -36
-3 -38 -32 -38 l-32 0 7 78 c13 156 15 162 47 162 23 0 29 -5 30 -22z m-8239
-38 c34 -26 61 -95 54 -135 -18 -94 -149 -107 -191 -20 -27 58 -12 153 27 168
31 13 87 6 110 -13z m-176 -13 c2 -18 -14 -39 -52 -64 -45 -29 -17 -93 40 -93
26 0 35 -5 39 -22 8 -27 -7 -38 -53 -38 -45 0 -78 23 -96 66 -38 91 10 178 95
171 15 -1 25 -9 27 -20z m-1368 -41 c2 -2 0 -20 -3 -40 l-7 -36 -58 0 c-44 0
-61 -4 -75 -20 -17 -19 -17 -20 1 -20 121 -3 157 -33 150 -125 -4 -56 -34 -91
-90 -106 -39 -11 -142 -4 -150 9 -2 4 -1 23 3 42 l7 35 62 -4 c57 -3 65 -1 87
23 l24 26 -65 0 c-59 0 -68 3 -95 29 -61 61 -19 175 72 194 24 5 130 0 137 -7z
m6688 -7 c32 -8 44 -16 44 -29 0 -44 -10 -50 -76 -50 -52 0 -65 -3 -73 -19 -9
-17 -5 -19 48 -24 91 -8 121 -37 121 -118 0 -34 -2 -38 -17 -30 -10 5 -30 14
-45 22 -16 7 -26 15 -23 17 9 9 -17 32 -36 32 -11 0 -19 5 -19 10 0 6 -5 10
-10 10 -6 0 -33 10 -61 23 -50 22 -50 23 -45 60 5 48 36 82 85 95 50 14 56 14
107 1z m442 2 c6 -1 12 -11 12 -22 0 -18 -5 -21 -30 -17 -24 4 -30 1 -30 -14
0 -12 7 -18 24 -18 23 0 41 -22 29 -34 -4 -3 -17 -6 -30 -6 -14 0 -23 -6 -23
-15 0 -9 9 -15 25 -15 27 0 44 -25 28 -41 -5 -5 -30 -6 -56 -3 l-47 7 0 71 c0
106 5 115 49 111 20 -1 42 -3 49 -4z m-7410 -31 c24 -23 30 -77 11 -111 -8
-16 -7 -25 4 -37 41 -46 27 -131 -26 -160 -21 -11 -64 -19 -124 -22 l-91 -5
-6 35 c-3 19 -6 97 -6 172 0 158 -11 145 126 147 78 1 93 -2 112 -19z m6724
-7 c11 -10 18 -30 18 -51 0 -29 -2 -33 -15 -22 -8 7 -44 15 -80 18 -36 2 -65
8 -65 13 0 4 -14 4 -31 -1 -43 -13 -79 3 -79 35 0 23 4 25 45 25 36 0 45 -4
46 -17 1 -16 2 -16 6 -1 8 31 121 32 155 1z m-7079 2 c129 -54 129 -278 -2
-332 -46 -19 -117 -10 -148 19 -12 12 -32 46 -44 77 -19 49 -20 63 -11 108 13
65 36 99 76 117 67 30 81 31 129 11z m8937 -42 l0 -48 26 33 c63 79 173 82
233 6 20 -25 22 -38 19 -101 -4 -80 -24 -113 -85 -139 -84 -36 -160 -4 -187
80 -6 19 -7 19 -21 -1 -8 -12 -12 -29 -8 -39 4 -12 3 -15 -6 -10 -7 5 -20 1
-31 -9 -15 -14 -32 -17 -80 -13 -71 5 -84 18 -66 62 11 26 18 31 44 29 39 -4
62 26 62 82 0 22 3 57 6 78 6 36 8 37 50 37 l44 0 0 -47z m441 27 c42 0 61 -5
77 -20 23 -22 30 -73 13 -99 -5 -8 -3 -27 6 -48 11 -28 12 -42 3 -69 -17 -52
-52 -65 -161 -62 l-91 3 7 135 c8 175 8 174 54 166 20 -3 61 -6 92 -6z m2037
-162 c-2 -18 -11 -24 -38 -28 -27 -4 -37 -11 -44 -33 -14 -38 2 -61 45 -67 26
-4 34 -10 34 -25 0 -17 -6 -20 -48 -19 -67 1 -92 27 -91 96 1 67 33 98 100 98
41 0 45 -2 42 -22z m-3644 -67 c4 -5 3 -16 0 -25 -5 -12 -15 -15 -44 -10 -51
8 -59 -10 -10 -25 59 -18 78 -63 40 -101 -34 -34 -148 -22 -134 14 4 10 20 14
51 13 58 -2 68 18 14 27 -58 9 -80 58 -44 98 12 13 30 18 69 18 29 0 55 -4 58
-9z m1386 -215 c19 1 48 5 64 9 19 5 39 2 62 -8 20 -10 36 -12 39 -7 3 6 11
10 18 10 16 0 -1 -14 -45 -38 -25 -14 -62 -22 -118 -26 -45 -2 -84 -7 -88 -10
-3 -3 3 -6 12 -6 13 0 10 -6 -12 -25 -35 -30 -44 -31 -35 -7 6 16 5 16 -14 0
-11 -10 -26 -18 -34 -18 -8 1 -3 10 14 23 15 13 30 36 33 52 7 37 45 76 59 61
6 -6 26 -11 45 -10z m-7002 -118 c3 -70 5 -78 23 -78 11 0 23 -8 27 -17 4 -10
9 21 12 72 5 84 7 90 28 93 21 3 22 0 22 -71 0 -41 -3 -89 -6 -106 l-6 -31
-71 5 c-39 2 -74 8 -78 12 -4 4 -5 52 -2 106 5 93 7 98 27 95 19 -3 21 -10 24
-80z m8578 -6 c13 -16 13 -16 14 1 0 14 9 17 54 17 45 0 58 -4 70 -22 19 -27
21 -59 4 -76 -10 -10 -9 -18 5 -41 9 -15 14 -31 10 -35 -13 -13 -49 -5 -61 14
-7 11 -17 20 -23 20 -5 0 -8 -4 -5 -9 4 -5 3 -16 0 -25 -7 -19 -41 -21 -46 -4
-3 9 -10 8 -23 -5 -11 -11 -24 -15 -34 -11 -9 4 -28 6 -42 5 -21 -1 -30 6 -43
33 -23 48 -25 125 -4 140 27 19 109 19 124 -2z m-10022 -66 c16 -21 66 -32 66
-15 0 11 2 11 8 1 7 -10 15 -10 37 -2 22 9 31 7 46 -6 11 -10 19 -22 19 -28 0
-6 11 -32 24 -58 l23 -47 -20 -31 c-15 -23 -24 -29 -39 -24 -13 4 -24 1 -29
-7 -7 -11 -12 -12 -29 -1 -11 6 -27 12 -36 12 -22 0 -9 39 22 65 13 12 24 26
24 31 0 21 -37 44 -83 50 -48 7 -95 43 -82 63 9 16 36 14 49 -3z m386 -161 c0
-55 -15 -80 -54 -92 -21 -7 -38 -7 -42 -2 -15 25 -42 -21 -36 -61 2 -8 -6 0
-17 18 -12 18 -21 37 -21 43 0 6 -5 7 -10 4 -6 -3 6 26 26 65 l35 71 19 -21
c10 -12 16 -29 13 -37 -5 -13 -1 -15 23 -9 16 4 33 11 37 16 14 13 -12 50 -36
51 -17 1 -18 2 -4 6 9 2 17 11 17 18 0 9 9 5 25 -11 17 -17 25 -36 25 -59z
m1010 0 c0 -26 -4 -29 -51 -39 -47 -10 -43 -86 4 -86 29 0 52 -24 43 -45 -6
-17 -43 -20 -80 -5 -47 17 -71 102 -44 153 18 35 40 46 86 47 38 0 42 -2 42
-25z m143 0 c26 -11 47 -58 47 -105 0 -55 -34 -90 -88 -90 -56 0 -92 38 -92
96 0 94 51 132 133 99z m-1663 -20 c5 -14 20 -27 35 -31 27 -7 32 -23 13 -42
-8 -8 -8 -15 2 -27 11 -13 5 -15 -46 -17 -87 -2 -87 -2 -114 -21 -29 -20 -56
-22 -62 -4 -3 6 -6 39 -7 71 -1 33 -4 63 -7 68 -3 4 0 8 5 8 6 0 11 -7 11 -15
0 -8 7 -15 15 -15 8 0 15 -6 15 -14 0 -19 26 -27 55 -16 17 6 26 20 31 45 8
43 39 49 54 10z m8952 -30 c-3 -18 0 -25 8 -23 18 4 60 -70 60 -104 0 -25 -6
-29 -55 -43 -84 -25 -97 -18 -52 27 40 40 46 58 21 58 -14 0 -14 2 -3 16 13
15 8 16 -51 12 -65 -5 -100 9 -100 38 0 19 19 21 79 11 50 -9 56 -8 71 11 20
29 28 27 22 -3z m-912 -80 c0 -8 4 -15 9 -15 5 0 15 -22 22 -50 7 -27 16 -50
21 -50 4 0 8 5 8 10 0 6 11 10 25 10 14 0 25 5 25 10 0 6 -4 10 -10 10 -5 0
-19 9 -30 20 -30 30 -10 70 38 70 33 0 27 -16 -10 -26 l-32 -10 37 -21 c29
-18 36 -28 35 -48 -2 -15 -10 -31 -19 -35 -24 -13 -100 -8 -106 7 -7 18 -43
16 -43 -2 0 -8 -9 -15 -19 -15 -20 0 -20 1 0 70 10 38 19 72 19 75 0 3 7 5 15
5 8 0 15 -7 15 -15z m1482 -119 c1 -6 2 -44 2 -84 1 -58 5 -76 19 -86 9 -7 17
-17 17 -22 0 -5 14 -24 30 -43 17 -18 30 -42 30 -52 0 -9 3 -24 6 -33 4 -11
-4 -17 -33 -22 l-38 -7 33 -9 c35 -9 40 -19 17 -38 -8 -7 -15 -23 -15 -35 0
-28 -28 -55 -39 -37 -6 9 -131 42 -162 42 -5 0 -9 -8 -9 -18 0 -10 -7 -28 -16
-41 -15 -20 -23 -23 -64 -19 -60 6 -103 37 -124 88 -15 39 -16 40 -36 23 -19
-17 -19 -19 -3 -30 11 -9 13 -13 4 -13 -8 0 -20 -8 -28 -17 -13 -16 -14 -14
-9 22 3 22 10 41 16 43 5 2 8 8 4 13 -9 14 -24 0 -24 -22 0 -11 -13 -34 -29
-50 -24 -24 -38 -29 -75 -29 -37 0 -48 5 -61 24 -40 61 -43 201 -6 247 21 27
74 28 121 4 l30 -16 0 31 c0 38 47 132 93 186 23 26 50 45 79 53 24 7 59 19
78 27 63 24 73 22 133 -24 31 -25 58 -50 59 -56z m-1252 -192 l0 -104 40 0
c39 0 40 -1 40 -35 l0 -36 -72 3 -73 3 -3 137 c-3 135 -2 137 20 140 45 7 48
1 48 -108z m155 104 c2 -7 5 -70 7 -141 l3 -127 -32 0 -33 0 0 140 0 140 25 0
c14 0 28 -6 30 -12z m100 -38 c8 -16 18 -53 21 -84 8 -64 -6 -107 -42 -131
-26 -17 -54 -20 -54 -6 0 5 -3 16 -6 25 -4 10 -1 16 9 16 30 0 47 30 47 82 0
43 -4 54 -30 78 -28 27 -37 49 -24 63 12 12 65 -17 79 -43z m-6555 -3 c0 -10
5 -15 10 -12 6 3 10 -3 10 -15 0 -17 3 -19 19 -10 27 14 27 14 29 -25 3 -34
-11 -48 -21 -22 -3 6 -6 2 -6 -10 -1 -12 -5 -25 -11 -28 -15 -9 -12 -25 5 -25
8 0 15 -5 15 -11 0 -7 12 -10 30 -7 19 3 30 0 30 -8 0 -16 38 -25 43 -10 2 6
3 3 1 -8 -2 -11 5 -20 17 -23 14 -4 19 -13 17 -27 -4 -28 -38 -34 -45 -7 -5
18 -12 20 -70 17 -58 -2 -66 0 -80 21 -17 26 -33 30 -33 9 0 -9 -9 -14 -20
-13 -11 1 -20 5 -20 9 0 4 -13 6 -30 5 -21 -1 -31 -8 -35 -24 -5 -23 -5 -23
-25 -3 -23 23 -38 25 -63 6 -9 -7 -28 -11 -42 -8 -14 2 -25 0 -25 -5 0 -10
-67 -9 -77 1 -11 10 62 33 83 26 29 -11 54 6 54 38 l1 27 15 -27 c8 -16 16
-28 19 -28 5 0 -1 28 -10 51 -10 27 7 30 114 18 56 -7 104 -9 107 -6 3 3 0 15
-6 27 -8 15 -15 19 -22 12 -8 -8 -15 -6 -25 4 -8 8 -24 14 -36 14 -24 1 -24 1
31 39 11 8 18 20 15 27 -2 7 1 22 7 35 10 17 14 19 21 8 5 -8 9 -22 9 -32z
m5850 -76 l0 -118 33 6 c26 6 32 12 32 31 0 20 -6 26 -27 28 -22 3 -28 9 -28
28 0 17 6 24 19 24 20 0 37 32 26 50 -3 5 -15 10 -26 10 -15 0 -19 7 -19 31 0
31 1 32 41 26 71 -9 98 -55 64 -105 -15 -20 -14 -24 6 -51 40 -54 1 -121 -71
-121 -31 0 -40 4 -41 18 -1 16 -2 16 -6 0 -3 -12 -14 -18 -34 -18 l-29 0 0
140 0 140 30 0 30 0 0 -119z m250 89 c0 -16 -4 -30 -10 -30 -30 0 -34 -145 -4
-157 20 -7 18 -63 -2 -63 -50 0 -84 57 -84 140 0 83 33 139 83 140 12 0 17 -8
17 -30z m61 20 c31 -17 49 -64 49 -130 0 -86 -32 -140 -84 -140 -20 0 -20 38
-1 64 20 27 20 130 0 150 -20 20 -20 66 1 66 8 0 24 -5 35 -10z m-5869 -182
c16 -15 38 -28 50 -28 23 0 78 55 78 77 0 7 5 13 10 13 6 0 10 -7 10 -16 0
-11 7 -14 30 -10 17 2 28 0 24 -5 -3 -5 3 -12 13 -15 10 -3 26 -10 35 -15 10
-5 26 -9 36 -9 10 0 23 -5 30 -12 9 -9 21 -8 50 1 28 10 45 10 58 3 16 -9 12
-14 -32 -41 -124 -80 -219 -111 -336 -111 -55 0 -88 24 -88 64 0 13 -7 29 -15
36 -12 10 -13 16 -4 26 7 9 9 32 5 61 -5 39 -4 45 5 29 7 -11 25 -32 41 -48z
m-712 -71 c23 4 30 2 30 -10 0 -8 -5 -17 -11 -19 -7 -2 -4 -16 9 -38 20 -35
62 -160 62 -186 0 -15 -89 -20 -150 -8 -47 10 -72 69 -59 139 6 28 8 69 5 91
-3 23 -3 44 0 47 3 3 24 -1 45 -8 22 -8 53 -12 69 -8z m6995 -72 c0 -19 -9
-20 -180 -27 -99 -5 -277 -7 -395 -5 -208 2 -215 3 -215 22 0 19 8 20 240 25
132 3 310 6 395 5 148 0 155 -1 155 -20z m-8649 -171 c18 -5 24 -13 24 -35 0
-39 -25 -48 -49 -18 -19 24 -19 24 -41 4 -14 -13 -20 -28 -18 -49 4 -37 28
-48 28 -12 0 23 4 26 35 26 40 0 41 -4 19 -60 -16 -39 -36 -51 -49 -30 -4 6
-10 8 -15 5 -12 -7 -70 66 -70 88 0 10 5 27 11 38 13 26 70 61 87 54 8 -3 25
-8 38 -11z m8544 0 c0 -8 4 -13 9 -9 6 3 19 -27 31 -67 12 -40 25 -86 31 -102
5 -16 9 -31 9 -32 0 -2 -13 -4 -29 -4 -20 0 -31 6 -33 18 -2 10 -12 17 -26 17
-12 0 -22 3 -22 8 0 4 0 12 0 17 0 6 7 10 15 10 16 0 19 31 6 64 -5 14 -12 0
-27 -55 -18 -67 -23 -74 -47 -77 -25 -3 -26 -2 -17 25 5 15 21 67 35 116 21
70 30 87 46 87 11 0 19 -7 19 -16z m-702 -16 c-2 -14 -12 -24 -28 -28 -62 -15
-65 -106 -3 -124 21 -7 33 -17 36 -33 4 -20 0 -23 -30 -23 -47 0 -72 16 -89
55 -37 89 1 175 78 175 35 0 39 -2 36 -22z m169 -33 c8 -27 11 -72 9 -100 -4
-39 1 -29 22 50 26 93 30 100 55 103 16 2 27 -2 27 -9 0 -24 -61 -208 -71
-215 -6 -3 -21 -1 -33 6 -17 9 -29 35 -49 104 -34 115 -34 118 0 114 23 -3 29
-10 40 -53z m-7845 8 c32 -29 18 -91 -23 -105 -9 -3 -10 -12 -1 -36 11 -31 10
-32 -18 -32 -25 0 -31 5 -38 33 l-9 32 -8 -27 c-8 -30 -16 -33 -45 -18 -18 9
-17 13 8 90 l26 80 45 0 c27 0 51 -6 63 -17z m2617 -62 c-1 -36 -4 -77 -8 -91
-10 -37 -42 -37 -64 0 -24 39 -37 38 -37 -4 0 -22 -6 -36 -16 -40 -31 -12 -36
-6 -29 37 16 107 17 113 5 95 -6 -11 -23 -18 -40 -18 -17 0 -30 -4 -30 -10 0
-5 12 -10 26 -10 19 0 25 -4 20 -15 -3 -8 -9 -22 -12 -30 -3 -8 -1 -15 5 -15
21 0 11 -31 -14 -40 -14 -5 -25 -14 -25 -20 0 -5 -16 -10 -36 -10 -29 0 -34 3
-30 18 2 9 10 50 16 90 13 81 24 92 88 92 25 0 42 5 45 14 10 24 47 6 62 -30
18 -44 25 -43 18 1 -8 48 0 64 31 58 25 -5 26 -8 25 -72z m-2472 38 c36 -10
44 -15 41 -33 -3 -22 -24 -26 -65 -12 -13 4 -23 3 -23 -2 0 -6 12 -13 26 -16
37 -10 28 -40 -14 -44 -42 -4 -41 -18 3 -26 25 -5 35 -12 35 -26 0 -10 -4 -21
-9 -24 -9 -6 -120 10 -129 18 -7 7 29 137 45 164 9 15 20 21 30 18 9 -4 35
-11 60 -17z m1890 5 c22 -6 38 -50 21 -60 -5 -3 -7 -12 -4 -19 2 -7 -1 -37 -8
-66 -12 -58 -10 -56 -83 -50 -7 1 -20 12 -29 26 -23 36 -11 88 33 136 38 42
37 42 70 33z m-1544 -54 c-3 -17 -1 -30 4 -30 5 0 10 -7 10 -15 0 -8 -4 -15
-9 -15 -11 0 -10 -38 2 -45 16 -10 12 -102 -4 -108 -10 -4 -12 0 -8 16 5 19 3
20 -11 9 -9 -8 -13 -20 -11 -27 4 -9 -1 -12 -13 -11 -10 2 -21 -2 -25 -8 -6
-8 -10 -7 -17 2 -6 9 -19 11 -45 7 -24 -5 -36 -3 -36 4 0 6 -16 11 -35 11 -19
0 -35 -4 -35 -10 0 -5 5 -10 12 -10 6 0 9 -3 5 -6 -3 -3 -1 -17 4 -31 16 -44
-22 -60 -170 -70 -129 -9 -152 -4 -150 32 0 6 3 4 6 -2 10 -26 23 -12 20 22
-2 37 -16 45 -37 20 -15 -18 -33 -20 -27 -2 2 6 10 11 16 9 15 -3 14 10 -3 34
-8 10 -18 16 -22 11 -4 -4 -2 -7 4 -7 22 0 12 -17 -15 -29 -26 -10 -27 -10 -9
4 11 8 14 15 7 15 -7 0 -9 4 -6 10 4 6 -1 7 -11 3 -13 -5 -16 -3 -11 10 7 19
2 20 -28 7 -11 -5 -14 -9 -7 -9 7 -1 10 -6 7 -11 -4 -6 -10 -8 -15 -5 -4 3 -6
-4 -3 -15 6 -22 -12 -28 -21 -7 -3 6 -5 -5 -3 -25 3 -41 -9 -52 -18 -16 -4 18
35 153 48 164 1 1 29 -4 62 -11 54 -11 60 -14 57 -34 -2 -15 0 -21 7 -17 6 4
11 14 11 22 0 20 17 17 41 -7 18 -18 25 -19 46 -10 19 9 29 8 44 -3 11 -7 29
-12 40 -9 10 3 19 1 19 -3 0 -10 264 -9 267 0 1 3 -4 20 -11 38 -7 18 -16 40
-19 48 -5 16 -5 18 -26 -42 -11 -28 -26 -34 -48 -20 -10 6 -6 26 14 82 14 41
32 80 40 86 22 19 50 5 61 -29 l10 -32 1 45 c1 29 4 40 10 32 6 -10 10 -8 14
8 8 33 27 14 20 -20z m1699 24 c12 -8 10 -98 -3 -111 -7 -7 -8 -17 -2 -27 7
-12 12 0 22 46 18 88 25 99 61 91 17 -3 36 0 45 7 8 6 18 9 24 6 13 -8 2 -43
-15 -50 -8 -3 -14 -19 -14 -40 0 -28 -4 -35 -25 -40 -37 -9 -32 -29 5 -21 26
6 30 4 30 -14 0 -37 -20 -40 -167 -32 -7 1 -16 16 -21 34 -10 32 -11 31 -27
-18 -4 -13 -9 -14 -27 -4 -13 6 -24 12 -25 13 -1 1 4 24 13 51 8 28 19 67 25
89 10 38 11 38 51 32 23 -4 45 -9 50 -12z m-1864 -10 c15 -3 22 -11 20 -22 -2
-12 -15 -18 -46 -20 -45 -3 -59 -22 -17 -22 28 0 29 -3 15 -31 -8 -14 -17 -18
-34 -13 -13 3 -27 1 -30 -5 -5 -7 3 -11 21 -11 42 0 57 -13 45 -37 -10 -17
-17 -19 -72 -12 -34 4 -63 9 -66 12 -2 2 8 43 23 90 l28 87 45 -6 c25 -3 55
-7 68 -10z m10418 -162 c5 -4 22 -23 37 -43 30 -40 34 -81 12 -119 -8 -14 -17
-32 -21 -40 -4 -8 -24 -32 -44 -52 -21 -20 -35 -40 -32 -43 3 -3 -2 -5 -11 -5
-9 0 -17 -5 -17 -11 0 -5 -5 -7 -11 -3 -6 3 -15 0 -20 -7 -4 -7 -11 -10 -15
-6 -4 4 12 67 35 140 24 72 47 147 53 165 10 33 15 37 34 24z m-8796 -79 l13
-58 14 48 c9 29 20 47 29 47 13 0 14 -10 9 -57 -16 -131 -19 -138 -45 -138
-21 0 -28 9 -47 61 -12 34 -24 82 -28 107 -7 45 -6 47 17 47 22 0 26 -7 38
-57z m183 20 c34 -5 38 -9 35 -32 -3 -27 -11 -29 -62 -16 -21 6 -28 5 -24 -5
2 -7 15 -15 28 -17 30 -4 30 -5 23 -31 -4 -17 -10 -21 -29 -16 -18 5 -24 2
-24 -9 0 -10 13 -18 36 -23 28 -5 35 -10 32 -28 -3 -19 -8 -21 -63 -18 -33 2
-63 7 -67 10 -4 4 -3 41 3 82 17 125 16 123 47 116 15 -4 44 -9 65 -13z m6367
-27 c0 -18 -6 -25 -22 -28 -21 -3 -23 -9 -28 -88 -5 -84 -5 -85 -33 -88 l-28
-3 2 88 c2 87 2 88 -23 91 -21 3 -24 7 -20 28 4 23 8 24 78 24 72 0 74 -1 74
-24z m-8820 -41 c0 -8 15 -21 34 -29 18 -8 37 -19 40 -25 5 -7 13 -8 24 -2 15
8 17 4 14 -31 -3 -28 -7 -36 -13 -27 -6 10 -9 7 -9 -11 0 -45 -27 -72 -68 -68
l-37 3 -12 70 c-8 49 -9 80 -2 103 11 33 29 44 29 17z m5059 -128 c4 -4 19 13
32 38 24 44 40 53 68 36 11 -7 2 -31 -40 -117 -29 -60 -53 -110 -54 -111 0 -1
-11 0 -22 3 -17 5 -24 16 -29 50 l-6 44 -20 -25 c-16 -20 -23 -23 -39 -15 -27
15 -24 30 17 90 20 29 46 74 58 99 l21 46 3 -65 c2 -36 7 -69 11 -73z m4625
-7 c11 0 28 -7 38 -17 10 -9 18 -12 18 -6 0 6 10 10 23 9 18 -1 21 -6 19 -29
-2 -19 2 -27 13 -27 9 0 15 9 15 26 0 15 4 23 11 18 6 -3 9 -15 6 -25 -4 -14
0 -19 16 -20 37 -2 42 -4 44 -13 1 -5 7 -12 14 -17 15 -9 -64 -23 -137 -23
-51 0 -150 40 -177 72 -10 13 -8 14 15 10 29 -5 42 10 28 33 -11 16 10 33 24
19 6 -6 19 -10 30 -10z"/>
<path d="M165 2242 c-16 -14 -19 -27 -17 -70 3 -43 8 -55 28 -69 49 -32 103
23 90 91 -12 61 -60 83 -101 48z"/>
<path d="M9790 1074 c-33 -38 -29 -176 6 -231 10 -17 24 -23 49 -23 53 0 83
33 97 108 10 54 9 67 -5 98 -26 54 -118 84 -147 48z"/>
<path d="M10105 1064 c-65 -15 -91 -57 -81 -129 9 -70 32 -104 82 -127 57 -25
85 -21 103 16 36 77 19 236 -26 236 -10 0 -27 2 -38 4 -11 2 -29 2 -40 0z"/>
<path d="M10076 6171 c-12 -19 -15 -121 -4 -127 5 -4 7 -17 4 -31 -8 -31 -1
-42 24 -36 16 4 20 14 20 48 l0 43 47 0 c41 0 52 -4 85 -38 21 -21 38 -45 38
-54 0 -9 7 -16 15 -16 18 0 19 23 3 50 -10 16 -10 24 -1 40 8 12 9 21 3 25 -6
3 -10 17 -10 31 0 13 -4 24 -10 24 -5 0 -10 -7 -10 -15 0 -21 -33 -19 -72 5
-30 18 -34 18 -56 4 -31 -20 -43 -15 -57 26 -8 23 -14 30 -19 21z"/>
<path d="M260 5902 c-14 -5 -21 -11 -63 -62 -16 -19 -25 -21 -65 -16 -56 8
-85 -5 -62 -27 19 -19 67 -30 74 -18 8 12 56 -11 56 -26 0 -7 5 -13 10 -13 6
0 10 -4 10 -10 0 -5 -6 -10 -13 -10 -8 0 -21 -8 -30 -17 -14 -16 -14 -20 3
-40 10 -13 23 -23 28 -23 19 0 34 -28 24 -46 -6 -11 -11 -13 -16 -5 -4 6 -20
11 -35 11 -27 0 -28 -1 -29 -66 0 -36 -3 -68 -6 -72 -3 -3 -18 0 -32 7 -21 9
-25 17 -22 36 5 26 -14 51 -30 41 -5 -3 -7 -17 -4 -31 4 -21 1 -25 -21 -25
-14 0 -28 6 -30 13 -3 6 -6 -421 -6 -950 -1 -530 2 -963 7 -963 4 0 47 11 97
24 298 80 359 93 585 124 118 17 125 19 122 39 -3 24 30 48 54 39 8 -3 12 -2
9 4 -3 5 -6 25 -7 44 -1 27 5 42 26 61 25 23 27 31 23 73 -4 41 -17 138 -20
152 0 3 3 20 7 37 6 25 3 37 -9 49 -9 10 -14 25 -12 35 4 14 0 19 -14 19 -25
0 -69 47 -69 73 0 25 -47 77 -70 77 -27 0 -50 24 -53 56 -2 18 -11 39 -20 49
-9 9 -17 21 -17 26 0 14 31 11 44 -5 6 -7 37 -16 69 -19 l59 -6 -7 37 c-8 46
-23 62 -66 71 -44 9 -54 47 -15 57 15 3 28 17 35 35 12 34 26 37 41 10 5 -11
22 -26 37 -33 16 -7 34 -27 42 -43 23 -50 41 -66 62 -55 10 6 29 10 43 10 19
0 26 5 26 20 0 11 -4 20 -9 20 -5 0 -11 7 -13 17 -2 9 -25 28 -53 43 -37 20
-49 32 -47 46 2 11 5 30 5 44 1 14 12 38 25 54 12 16 22 33 22 39 0 6 11 22
24 36 26 28 43 124 26 151 -11 18 -105 49 -130 43 -17 -5 -16 -9 11 -51 16
-25 29 -54 29 -63 0 -25 -28 -32 -40 -9 -6 11 -17 17 -24 14 -21 -8 -78 53
-111 120 -17 33 -45 70 -65 85 -19 14 -37 29 -40 32 -3 3 -17 9 -32 12 -14 4
-40 19 -58 33 -23 20 -38 25 -59 21 -15 -3 -39 0 -52 7 -28 14 -51 5 -92 -36
-31 -31 -35 -32 -71 -18 -17 6 -27 6 -32 -1 -10 -17 17 -39 47 -39 22 0 30 -6
35 -24 l6 -24 53 15 c69 20 85 14 79 -29 -9 -68 -14 -80 -30 -74 -9 3 -40 6
-70 6 -52 0 -54 1 -62 33 -7 26 -14 32 -38 33 -39 2 -94 26 -94 40 0 7 -3 19
-6 27 -4 10 4 21 22 30 17 9 23 17 15 21 -16 10 -14 23 10 47 l21 21 -21 22
c-26 28 -28 51 -3 41 9 -5 32 -10 51 -13 28 -4 37 0 57 24 28 35 30 54 6 54
-20 0 -44 35 -48 70 l-3 25 17 -21 c9 -12 25 -24 35 -27 10 -4 15 -11 12 -17
-4 -6 8 -10 29 -10 19 0 38 -4 41 -10 9 -15 42 -12 49 5 3 10 19 15 43 15 21
0 44 4 52 9 21 13 4 65 -29 89 -19 15 -34 39 -44 71 -17 58 -30 83 -52 106 -9
9 -18 26 -19 38 -1 12 -3 25 -4 28 -4 19 -90 41 -121 31z"/>
<path d="M4415 4370 c-351 -23 -543 -31 -735 -29 -118 1 -294 -4 -390 -10 -96
-6 -225 -11 -286 -11 l-112 0 -6 -32 c-5 -31 -8 -157 -21 -973 -5 -288 -6
-1712 -2 -1776 l2 -26 205 -7 c113 -3 333 -11 490 -16 157 -5 389 -12 515 -15
127 -3 280 -8 342 -11 61 -3 154 -2 206 2 l95 7 6 211 c3 116 8 321 11 456 3
135 8 331 11 435 14 541 22 1590 14 1798 0 8 -188 7 -345 -3z m-38 -203 c46
-24 66 -69 60 -131 -4 -42 -10 -56 -39 -81 l-34 -30 33 -50 c62 -93 56 -121
-24 -110 -46 6 -50 9 -95 78 -64 98 -83 98 -92 3 -4 -38 -8 -71 -10 -73 -8 -9
-104 -14 -109 -7 -2 5 -2 99 2 209 l6 200 40 7 c74 12 227 3 262 -15z m-894
-6 c36 -15 83 -67 95 -109 24 -80 14 -144 -35 -214 -41 -61 -86 -82 -173 -82
-41 0 -85 5 -96 12 -31 17 -81 100 -93 153 -20 88 28 192 106 234 42 22 56 25
111 20 34 -3 72 -10 85 -14z m526 10 c22 -14 9 -255 -17 -313 -34 -74 -67 -97
-153 -104 -67 -5 -77 -4 -109 18 -57 38 -75 87 -89 243 -15 158 -16 155 65
155 l52 0 4 -132 c5 -157 14 -180 68 -176 30 3 37 8 47 38 7 19 12 85 12 146
1 71 5 114 13 122 14 14 86 16 107 3z m211 -611 c8 -5 26 -20 40 -35 32 -35
33 -102 1 -163 l-22 -44 21 -69 c28 -88 25 -103 -20 -107 -35 -3 -35 -2 -59
63 -13 36 -25 64 -28 61 -3 -2 -7 -26 -9 -53 -6 -71 -9 -75 -51 -71 l-38 3 0
205 0 205 50 11 c49 11 85 9 115 -6z m243 0 c15 0 18 -7 15 -47 -3 -48 -3 -48
-35 -45 -32 3 -33 2 -33 -32 0 -31 3 -36 24 -36 31 0 37 -10 30 -49 -5 -24
-12 -31 -30 -31 -21 0 -24 -5 -24 -35 0 -19 -1 -38 -2 -42 -2 -5 12 -9 30 -11
29 -3 32 -6 32 -35 0 -53 -9 -58 -91 -55 l-74 3 0 45 c1 25 2 116 3 202 l2
157 33 10 c17 6 48 8 67 6 19 -3 43 -5 53 -5z m-1155 -6 c19 -5 23 -12 20 -38
-2 -25 -8 -32 -32 -36 -17 -3 -29 -8 -28 -12 1 -5 2 -28 2 -53 0 -41 2 -45 25
-45 23 0 25 -4 25 -40 0 -38 -2 -40 -30 -40 l-29 0 -3 -72 -3 -73 -42 -3 -43
-3 -1 73 c-1 163 2 310 7 323 9 22 81 32 132 19z m472 -39 c0 -37 -3 -45 -18
-45 -17 0 -20 -13 -26 -127 -4 -71 -9 -145 -13 -165 -5 -36 -7 -38 -44 -38
l-39 0 -1 53 c-1 28 -1 105 1 169 l2 117 -28 -2 c-27 -2 -29 1 -32 41 l-3 42
100 0 101 0 0 -45z m108 -127 c2 -142 5 -168 17 -168 27 0 37 52 39 193 1 132
2 138 22 143 12 3 33 4 45 2 21 -3 25 -10 29 -61 3 -32 2 -64 -2 -70 -4 -7 -8
-40 -8 -74 0 -152 -42 -220 -128 -210 -66 7 -89 36 -100 127 -10 70 -7 216 4
268 4 20 10 23 42 20 l37 -3 3 -167z m-458 150 c1 -7 1 -82 0 -165 -1 -144 0
-153 18 -153 17 0 20 13 31 113 6 62 11 137 11 165 l0 52 39 0 39 0 7 -107 c7
-107 -7 -211 -35 -263 -32 -60 -146 -54 -180 10 -12 22 -25 299 -16 336 5 20
12 24 46 24 25 0 40 -5 40 -12z m490 -598 c0 -16 -7 -20 -34 -20 -45 0 -55
-16 -14 -24 44 -9 58 -24 58 -62 0 -44 -33 -66 -92 -62 -36 2 -44 7 -46 26 -3
20 1 22 37 22 30 0 41 4 41 15 0 9 -9 15 -23 15 -42 0 -61 22 -53 63 8 41 14
45 79 46 41 1 47 -2 47 -19z m-277 -407 l26 -58 0 58 1 57 31 0 32 0 -8 -137
c-4 -76 -9 -141 -12 -145 -9 -15 -33 -8 -34 10 0 9 -11 40 -24 67 -23 47 -24
48 -25 20 0 -16 -3 -47 -6 -67 -6 -32 -11 -38 -30 -38 -24 0 -24 1 -24 114 0
139 6 176 30 176 12 0 26 -19 43 -57z m234 25 c43 -81 5 -249 -58 -256 -57 -7
-87 79 -70 196 12 78 23 92 72 92 33 0 41 -4 56 -32z m157 26 c23 -9 20 -45
-4 -51 -18 -5 -20 -14 -20 -97 0 -117 -5 -136 -37 -136 l-24 0 7 115 7 115
-27 0 c-22 0 -26 4 -26 30 0 30 1 30 54 30 30 0 61 -3 70 -6z m-721 -94 c30 0
39 -5 46 -22 18 -50 8 -55 -117 -61 -141 -6 -168 3 -149 52 10 27 16 31 62 34
27 2 66 3 85 1 19 -2 52 -4 73 -4z m1156 -16 c29 -6 32 -10 29 -38 l-3 -31
-100 -3 c-139 -4 -165 2 -165 37 0 15 3 31 7 34 8 9 190 9 232 1z m-1394 -474
c29 -69 35 -69 35 -2 l0 62 30 0 30 0 0 -72 c0 -40 -3 -110 -7 -155 -8 -108
-27 -113 -65 -15 l-27 67 -2 -45 c-1 -25 -2 -51 -3 -59 -2 -19 -30 -35 -50
-28 -14 6 -15 23 -10 154 9 182 24 203 69 93z m395 30 c0 -39 -1 -40 -35 -40
-29 0 -37 -5 -45 -26 -24 -63 1 -186 30 -144 15 24 12 60 -6 60 -11 0 -14 8
-12 28 2 22 8 28 36 30 42 4 45 -6 35 -109 -8 -83 -8 -84 -37 -87 -39 -5 -81
15 -103 47 -14 20 -17 44 -16 113 1 48 7 96 13 108 16 30 69 60 108 60 31 0
32 -2 32 -40z m-160 0 c0 -27 -3 -30 -30 -30 -28 0 -30 -3 -30 -35 0 -31 3
-35 25 -35 20 0 25 -5 25 -24 0 -24 -23 -41 -41 -30 -5 3 -9 -11 -9 -30 0 -29
4 -36 19 -36 22 0 38 -37 23 -52 -5 -5 -31 -8 -58 -6 -46 3 -49 5 -52 33 -2
17 -1 85 3 153 l7 122 59 0 c59 0 59 0 59 -30z m306 22 c51 -34 44 -270 -9
-304 -7 -4 -27 -8 -44 -8 -47 0 -65 34 -71 130 -5 96 2 140 29 168 20 22 72
30 95 14z m205 -9 c16 -16 -1 -63 -22 -63 -17 0 -19 -9 -21 -72 -1 -40 -1 -84
0 -98 4 -50 -6 -70 -38 -70 l-29 0 6 125 c6 123 6 125 -15 125 -17 0 -22 6
-22 28 0 16 3 32 8 36 10 10 121 1 133 -11z m77 -144 c-2 -83 -9 -154 -14
-159 -6 -6 -18 -8 -27 -4 -15 5 -17 26 -17 163 l0 158 31 -5 31 -5 -4 -148z
m156 134 c8 -27 46 -262 46 -284 0 -14 -7 -19 -30 -19 -25 0 -30 4 -30 25 0
34 -47 37 -52 3 -2 -18 -10 -23 -33 -23 -26 0 -30 4 -29 25 1 22 48 246 59
278 7 19 63 15 69 -5z m216 -3 c25 -25 28 -101 4 -125 -15 -14 -15 -18 -1 -33
8 -9 18 -27 22 -40 9 -30 -12 -90 -35 -102 -21 -11 -127 -2 -136 11 -2 4 -1
76 2 158 l7 151 59 0 c45 0 63 -5 78 -20z m94 14 c13 -5 16 -26 16 -129 0
-121 1 -124 23 -127 17 -2 23 -11 25 -35 3 -32 2 -33 -35 -33 -86 0 -83 -5
-83 149 0 179 5 194 54 175z m226 -34 c0 -39 -1 -39 -30 -33 -25 4 -30 2 -31
-13 0 -11 -2 -27 -4 -36 -2 -13 3 -18 21 -18 20 0 24 -5 24 -30 0 -25 -4 -30
-23 -30 -19 0 -23 -5 -22 -32 0 -26 5 -33 25 -38 18 -4 25 -13 25 -30 0 -24
-4 -25 -62 -28 l-63 -3 0 98 c0 54 3 128 7 166 l6 67 63 0 64 0 0 -40z"/>
<path d="M3346 4063 c-4 -5 -14 -23 -22 -42 -47 -112 25 -202 110 -137 54 41
61 137 13 171 -22 16 -88 21 -101 8z"/>
<path d="M6553 3829 c-20 -21 -16 -49 7 -49 18 0 20 -4 14 -36 l-6 -35 38 7
c22 3 47 11 56 15 9 5 28 9 41 9 29 0 77 51 77 81 0 17 -4 19 -22 13 -13 -4
-32 -6 -43 -5 -18 3 -58 3 -87 1 -7 0 -24 2 -38 5 -15 4 -30 1 -37 -6z"/>
<path d="M4950 3128 c0 -107 2 -128 15 -128 20 0 19 -17 0 -28 -14 -7 -13 -10
4 -26 20 -19 18 -51 -5 -60 -20 -8 -18 -66 3 -81 11 -8 18 -32 21 -74 4 -53 1
-67 -17 -91 -19 -26 -28 -60 -16 -60 2 0 14 5 27 10 23 11 23 14 20 125 l-4
115 31 0 31 0 1 -72 c1 -40 3 -65 6 -55 3 10 18 20 34 24 27 5 29 8 29 54 0
37 4 49 18 53 14 5 17 14 14 41 -3 21 -10 35 -18 35 -8 0 -14 -4 -14 -10 0 -5
-7 -10 -15 -10 -18 0 -18 8 -4 66 11 43 13 45 43 39 20 -4 26 -3 18 3 -8 5
-13 15 -12 23 1 8 2 65 1 126 l-1 113 -105 -3 -105 -2 0 -127z"/>
<path d="M5712 2993 c-2 -53 -5 -63 -19 -63 -15 0 -16 2 -3 10 13 8 13 11 1
22 -11 11 -13 11 -6 -1 6 -10 2 -12 -13 -7 -27 9 -62 -9 -62 -32 0 -10 -3 -13
-8 -6 -10 15 -76 24 -93 13 -12 -8 -12 -10 1 -19 12 -8 10 -10 -9 -10 -13 0
-29 7 -35 15 -9 12 -19 12 -55 4 -39 -9 -74 -3 -43 8 24 9 11 23 -15 17 -53
-11 -57 -14 -45 -26 8 -8 5 -17 -14 -33 -22 -19 -24 -26 -15 -43 10 -18 9 -21
-4 -16 -9 4 -17 -1 -21 -12 -10 -30 -34 -87 -45 -107 -7 -13 -7 -23 2 -33 9
-11 9 -17 -1 -29 -14 -17 -46 -20 -55 -5 -3 6 -11 10 -17 10 -6 0 -5 -8 4 -17
9 -10 25 -37 37 -61 l22 -42 -26 -10 c-15 -6 -31 -10 -36 -10 -5 0 -9 -8 -9
-18 0 -11 -11 -24 -24 -30 -22 -10 -28 -7 -56 26 l-31 37 25 -40 26 -39 -22
-21 -23 -21 -23 28 c-29 35 -49 36 -49 3 0 -18 5 -25 18 -25 11 0 19 -5 19
-10 0 -6 20 -20 44 -32 l44 -21 36 21 36 21 1 -72 c1 -40 1 -79 0 -87 -4 -31
33 35 39 69 3 20 10 34 15 31 5 -3 9 -10 7 -17 -1 -6 2 -14 7 -18 6 -3 14 9
19 27 5 21 16 34 28 37 45 8 65 52 33 72 -11 7 -11 9 -1 9 7 0 10 5 7 10 -4 6
-12 7 -18 4 -7 -4 -9 -4 -5 1 4 4 -4 21 -17 37 -32 38 -39 65 -33 134 4 45 10
61 38 89 18 19 37 32 41 30 4 -3 9 0 11 7 3 7 32 14 76 16 67 4 72 6 72 27 0
13 7 31 16 39 20 20 19 20 19 -8 0 -13 -4 -22 -8 -19 -4 3 -7 -20 -6 -51 1
-31 0 -59 -3 -62 -4 -3 -30 -7 -60 -8 -29 -2 -66 -9 -81 -16 -25 -12 -28 -18
-25 -54 2 -33 7 -42 24 -44 18 -3 20 1 16 28 -4 26 -1 30 17 30 12 0 19 5 16
10 -3 6 1 10 10 10 9 0 14 -4 11 -8 -3 -5 16 -6 42 -2 l47 6 -2 -55 c-1 -30 1
-50 5 -44 4 6 7 40 7 76 0 36 3 63 7 61 5 -3 8 1 8 9 0 14 41 54 77 75 13 6
47 12 77 12 30 0 58 5 61 10 4 6 11 7 17 4 6 -4 5 -10 -3 -15 -11 -7 -10 -9 4
-9 22 0 22 8 0 32 -14 16 -15 21 -4 28 8 4 11 15 8 24 -3 8 -2 18 3 21 20 12
9 27 -15 23 -29 -6 -33 4 -38 97 l-3 60 -2 -62z"/>
<path d="M5918 2836 c-21 -6 -48 -21 -60 -33 l-22 -23 24 5 c23 4 23 3 8 -9
-21 -15 -25 -43 -5 -30 7 5 5 2 -5 -8 -10 -9 -18 -22 -18 -28 0 -7 -9 -2 -20
11 -16 19 -19 19 -10 4 5 -11 15 -33 21 -50 l12 -30 7 33 c15 67 92 122 170
122 37 0 130 -33 130 -46 0 -3 -5 -2 -11 2 -6 3 -3 -6 7 -22 25 -40 26 -41 24
-24 -1 8 -1 33 0 55 3 38 4 37 10 -15 l7 -55 1 58 2 57 59 0 c33 0 62 3 64 8
3 4 -31 8 -74 8 -43 1 -77 -2 -74 -6 2 -4 -7 -5 -20 -2 -16 3 -27 -1 -31 -11
-5 -14 -10 -14 -39 -1 -19 8 -48 14 -65 14 -17 0 -29 4 -26 9 5 7 -20 25 -27
20 -1 -1 -19 -6 -39 -13z"/>
<path d="M6852 2653 c-30 -15 -32 -19 -32 -70 0 -31 4 -52 9 -48 5 3 12 1 16
-5 10 -16 62 -12 79 6 9 8 16 32 16 53 0 64 -36 89 -88 64z"/>
<path d="M11817 2073 c-4 -3 -7 -14 -7 -23 0 -10 -10 -30 -22 -45 -19 -24 -22
-41 -23 -115 0 -66 -3 -86 -12 -83 -7 3 -13 -2 -13 -11 0 -9 4 -16 8 -16 8 0
32 -43 32 -57 0 -3 -8 -3 -19 0 -14 3 -21 -4 -29 -32 -8 -23 -8 -39 -2 -45 7
-7 10 -4 10 6 0 9 7 18 14 21 10 4 13 1 10 -7 -3 -7 2 -19 11 -26 8 -7 15 -15
15 -19 0 -3 -27 -35 -60 -70 -33 -35 -60 -68 -60 -72 0 -5 11 -8 24 -7 18 2
27 11 35 38 6 20 21 46 35 59 l23 22 32 -48 c18 -26 35 -60 38 -75 8 -42 21
-33 14 10 -4 20 -4 53 0 72 4 21 7 26 8 13 1 -30 21 -40 21 -11 0 12 -11 31
-24 43 -27 22 -28 32 -42 335 -3 80 -7 146 -8 148 -2 1 -6 -1 -9 -5z"/>
<path d="M6537 1784 c-7 -68 -11 -74 -52 -74 -36 0 -44 -11 -37 -48 4 -21 8
-23 68 -20 39 2 64 7 64 14 0 6 7 17 15 24 9 7 13 20 11 29 -2 9 -7 37 -11 62
-4 35 -11 49 -29 57 -23 10 -24 9 -29 -44z"/>
<path d="M6531 811 c-10 -6 -8 -10 6 -16 17 -7 17 -8 -2 -14 -14 -6 -23 -24
-31 -67 -26 -123 -94 -275 -107 -240 -4 9 -3 16 1 16 4 0 13 13 19 29 9 24 8
29 -3 24 -8 -3 -14 -11 -14 -18 0 -7 -8 -19 -17 -26 -13 -11 -12 -5 5 24 12
21 22 47 22 57 0 13 5 17 15 14 10 -4 15 0 16 12 0 11 3 28 5 39 3 11 6 34 7
50 1 17 6 36 11 43 11 18 -1 29 -16 14 -7 -7 -20 -12 -30 -12 -22 0 -55 -71
-94 -201 -15 -49 -29 -87 -31 -85 -2 2 8 49 22 104 25 101 32 147 15 105 -14
-35 -30 -27 -30 14 0 35 -1 36 -17 21 -11 -12 -18 -43 -23 -100 -6 -77 -26
-138 -50 -153 -13 -8 -13 -4 6 41 32 77 35 168 5 150 -16 -11 -51 -81 -77
-156 -26 -74 -33 -45 -9 34 18 58 18 66 5 66 -6 0 -9 -3 -9 -7 4 -25 -3 -43
-16 -43 -8 0 -15 8 -16 18 -1 24 -29 -68 -29 -95 0 -13 -4 -23 -10 -23 -5 0
-10 -7 -10 -15 0 -13 -3 -13 -20 -3 -11 7 -20 19 -20 26 0 7 -4 11 -10 7 -5
-3 -6 -13 -3 -22 4 -11 3 -14 -5 -9 -8 4 -10 2 -6 -8 3 -8 -3 -19 -14 -25 -11
-6 -29 -31 -41 -56 -12 -25 -26 -45 -32 -45 -8 0 -8 5 1 15 9 10 9 15 1 15
-11 0 -15 -13 -11 -39 1 -8 -4 -12 -14 -8 -11 4 -13 1 -9 -10 4 -10 2 -14 -4
-10 -16 10 -123 -193 -123 -235 0 -5 179 -8 398 -8 305 0 401 3 411 12 11 10
13 10 7 1 -6 -10 13 -13 77 -13 l84 0 18 88 c9 48 19 90 20 93 4 6 286 -41
385 -65 138 -32 237 -47 378 -56 81 -6 166 -12 190 -14 l44 -4 -31 19 c-42 25
-199 78 -281 94 -34 6 -140 49 -140 56 0 10 -2 10 58 14 24 2 42 -1 42 -7 0
-6 9 -8 20 -5 11 3 20 1 20 -4 0 -5 7 -9 15 -9 8 0 15 4 15 10 0 13 -32 28
-48 23 -7 -3 -26 9 -41 26 -15 17 -42 34 -59 37 -18 4 -32 11 -32 16 0 5 -4 7
-9 3 -5 -3 -12 -1 -16 5 -3 5 -23 10 -45 10 -25 0 -40 5 -44 16 -3 8 -10 13
-16 9 -5 -3 -18 0 -28 6 -29 18 -78 -2 -74 -31 2 -21 -1 -22 -32 -17 -40 6
-74 32 -89 67 -12 28 -12 27 -3 57 7 21 6 22 -24 7 -35 -18 -60 -13 -61 13 0
15 -2 14 -9 -4 -9 -22 -38 -24 -102 -8 -21 5 -29 3 -34 -9 -6 -15 -9 -15 -26
3 -25 27 -41 27 -33 0 6 -18 4 -20 -14 -14 -19 6 -20 4 -10 -25 13 -36 5 -93
-16 -110 -8 -7 -15 -27 -15 -44 0 -57 -10 -76 -35 -70 -16 4 -29 -3 -53 -31
-18 -19 -32 -32 -32 -27 0 18 69 74 84 69 11 -5 17 3 22 27 8 47 2 72 -19 68
-25 -4 -32 26 -14 62 9 18 18 68 21 119 6 113 -5 120 -80 49 -8 -7 -14 -10
-14 -6 0 11 44 98 54 105 10 8 37 101 40 141 2 14 10 34 19 43 10 9 17 17 17
18 0 6 -58 4 -69 -2z"/>
<path d="M4358 734 c-4 -3 -14 -7 -25 -8 -19 -3 -32 -46 -14 -46 6 0 11 -4 11
-10 0 -5 -8 -10 -18 -10 -42 0 -83 -74 -42 -76 8 0 29 -8 47 -17 45 -24 97
-21 158 8 90 42 78 71 -30 74 -36 1 -69 8 -85 18 l-25 17 55 11 c53 10 89 6
133 -17 25 -12 30 -6 13 17 -22 30 -158 60 -178 39z"/>
</g>
</svg>
