<svg width="800" height="600" xmlns="http://www.w3.org/2000/svg">
 <defs>
  <radialGradient spreadMethod="pad" id="svg_1">
   <stop offset="0" stop-color="#56ff56"/>
   <stop offset="1" stop-color="#a900a9"/>
  </radialGradient>
 </defs>
 <g>
  <title>Layer 1</title>
  <g fill="#3861bc" stroke="url(#svg_1)">
   <metadata fill="#3861bc" stroke="url(#gradbox_stroke)">Created by potrace 1.16, written by Peter Selinger 2001-2019</metadata>
   <g stroke="null" fill="#000000" transform="translate(0 628) scale(0.1 -0.1)">
    <path fill="#3861bc" stroke="url(#gradbox_stroke)" d="m130.30319,3184.0615l0,-2145.99957l247.34305,0c136.19929,0 247.34305,2.73376 247.34305,5.46751c0,2.73376 -3.8547,9.56815 -7.70939,14.35223c-7.06694,7.51783 -6.42449,8.88471 1.92735,5.46751c8.35184,-2.73376 9.63674,-0.68344 7.70939,9.56815c-1.92735,6.83439 -6.42449,10.93503 -10.92164,8.20127c-3.8547,-2.05032 -3.8547,0 0.64245,5.46751c4.49715,4.78408 8.35184,12.30191 8.35184,16.40254c0,3.4172 -3.21225,2.05032 -7.06694,-3.4172c-4.49715,-7.51783 -5.78205,-2.05032 -3.8547,20.50318c1.92735,17.08598 4.49715,38.2726 7.06694,47.84075c1.92735,10.25159 -0.64245,25.9707 -8.35184,41.00636c-12.20654,24.60382 -11.56409,61.50954 0.64245,61.50954c3.21225,0 3.8547,2.73376 1.92735,6.83439c-1.92735,3.4172 -0.64245,12.98535 3.21225,20.50318c3.8547,7.51783 4.49715,13.66879 1.92735,12.98535c-13.49144,-2.73376 -21.20083,1.36688 -21.20083,10.93503c0,5.46751 5.1396,10.25159 10.92164,10.25159c9.63674,0 8.99429,1.36688 -1.92735,10.25159c-7.70939,6.15095 -9.63674,12.30191 -5.78205,15.03567c3.8547,3.4172 10.27919,12.98535 15.41879,21.87006c7.06694,14.35223 7.06694,17.76942 -0.64245,23.92038c-8.99429,6.83439 -8.99429,8.88471 0,17.08598c8.35184,8.88471 8.35184,10.93503 -1.2849,18.45286c-10.27919,7.51783 -10.27919,8.88471 -1.2849,14.35223c8.35184,4.78408 8.99429,10.25159 3.21225,32.12165c-3.8547,15.03567 -5.78205,34.17197 -3.8547,42.37324c1.2849,8.88471 0,16.40254 -3.8547,16.40254c-3.8547,0 -3.21225,3.4172 0.64245,8.88471c10.92164,13.66879 7.06694,40.32292 -5.78205,36.90573c-7.70939,-2.05032 -9.63674,0.68344 -7.70939,9.56815c1.92735,7.51783 5.78205,12.98535 8.99429,12.98535c3.21225,0 5.78205,2.73376 5.78205,6.83439c0,3.4172 -4.49715,4.78408 -8.99429,2.73376c-8.35184,-3.4172 -8.35184,-1.36688 -1.92735,12.98535c3.8547,9.56815 9.63674,15.71911 12.20654,14.35223c3.21225,-2.05032 5.1396,5.46751 5.1396,17.08598c0,11.61847 -4.49715,23.23694 -9.63674,26.65413c-8.99429,4.78408 -8.99429,8.88471 -1.2849,29.38789c11.56409,30.07133 10.27919,43.74012 -3.8547,43.05668c-7.70939,-0.68344 -9.63674,1.36688 -5.1396,6.83439c3.21225,4.10064 5.78205,21.18662 5.78205,37.58916c0.64245,16.40254 2.5698,42.37324 4.49715,56.72547c3.21225,18.45286 1.92735,25.9707 -3.21225,25.9707c-6.42449,0 -6.42449,2.05032 -0.64245,9.56815c5.1396,6.83439 5.78205,10.93503 0.64245,14.35223c-3.21225,2.05032 -6.42449,8.20127 -6.42449,12.30191c0,5.46751 2.5698,4.78408 5.78205,-1.36688c3.8547,-6.15095 4.49715,6.15095 2.5698,34.17197c-1.92735,23.92038 -6.42449,47.84075 -10.27919,52.62483c-3.8547,4.78408 -3.8547,8.20127 0,8.20127c3.21225,0 6.42449,10.93503 6.42449,23.92038c0,12.98535 -1.92735,23.92038 -4.49715,23.92038c-2.5698,0 -4.49715,4.78408 -4.49715,10.25159c0,5.46751 2.5698,8.20127 5.78205,6.15095c7.70939,-5.46751 6.42449,6.83439 -2.5698,16.40254c-4.49715,4.78408 -5.1396,8.20127 -1.2849,8.20127c3.21225,0 6.42449,15.71911 7.06694,34.17197c1.2849,23.92038 -0.64245,33.48853 -5.78205,30.07133c-5.1396,-3.4172 -5.78205,1.36688 -2.5698,15.03567c7.06694,31.43821 10.27919,92.26431 4.49715,88.16368c-3.21225,-2.05032 -2.5698,9.56815 1.2849,25.28726c5.1396,21.18662 4.49715,29.38789 -0.64245,31.43821c-4.49715,1.36688 -5.78205,5.46751 -3.8547,8.88471c1.92735,4.10064 0,11.61847 -5.1396,17.76942c-5.78205,8.20127 -5.78205,10.25159 0,6.15095c8.35184,-5.46751 9.63674,-0.68344 8.35184,36.90573c-0.64245,12.98535 -0.64245,30.07133 0,37.58916c0.64245,7.51783 1.2849,25.9707 1.92735,41.00636c0.64245,34.17197 -11.56409,587.75784 -19.27348,908.97434c-2.5698,75.17833 -4.49715,201.61461 -5.1396,280.21013c-1.2849,79.27896 -3.8547,233.05282 -5.78205,341.71968c-2.5698,109.3503 -5.78205,270.64198 -7.70939,358.80566c-1.92735,88.16368 -4.49715,220.75091 -6.42449,293.87892c-1.2849,73.12801 -4.49715,241.25409 -7.06694,372.47445c-4.49715,220.75091 -5.1396,258.34008 -7.70939,282.26045c-1.2849,6.15095 -46.89881,8.20127 -206.86873,8.20127l-205.58383,0l0,-2145.99957z"/>
    <path fill="#3861bc" stroke="url(#gradbox_stroke)" d="m580.01783,5302.72349c0,-30.07133 2.5698,-32.80509 17.34614,-16.40254c7.70939,7.51783 11.56409,8.20127 14.77634,2.73376c3.8547,-6.15095 5.78205,-6.15095 7.70939,0.68344c1.92735,5.46751 6.42449,6.83439 15.41879,2.73376c6.42449,-2.73376 14.13389,-4.78408 17.34614,-4.78408c2.5698,0.68344 4.49715,-1.36688 4.49715,-4.78408c0,-3.4172 10.27919,-10.25159 22.48573,-15.03567c16.70369,-6.83439 22.48573,-12.98535 22.48573,-24.60382c0,-9.56815 3.8547,-15.71911 9.63674,-15.71911c5.78205,0 12.84899,-8.20127 16.06124,-17.76942c5.1396,-12.98535 9.63674,-16.40254 17.98859,-12.98535c5.78205,2.73376 16.70369,6.83439 24.41308,8.20127c10.27919,2.73376 12.20654,6.83439 10.27919,24.60382c-3.21225,21.87006 -3.21225,21.87006 10.27919,9.56815c14.77634,-14.35223 26.98288,-10.25159 26.98288,7.51783c0.64245,8.88471 3.21225,6.83439 10.27919,-5.46751c8.35184,-15.03567 8.99429,-15.71911 5.78205,-2.05032c-3.21225,12.30191 -1.2849,14.35223 8.99429,12.30191c7.70939,-1.36688 13.49144,0 13.49144,4.10064c0,3.4172 3.21225,6.15095 7.06694,6.15095c3.21225,0 5.1396,-2.73376 3.21225,-5.46751c-1.92735,-3.4172 -0.64245,-15.03567 2.5698,-25.9707c2.5698,-10.93503 5.78205,-14.35223 5.78205,-7.51783c0.64245,12.98535 10.27919,15.71911 16.70369,4.78408c2.5698,-4.10064 8.99429,-6.15095 14.77634,-5.46751c7.06694,1.36688 11.56409,-3.4172 12.84899,-14.35223c1.92735,-10.93503 0,-14.35223 -5.78205,-10.93503c-5.1396,3.4172 -6.42449,2.73376 -3.21225,-2.73376c2.5698,-4.10064 7.70939,-6.15095 10.92164,-4.10064c3.21225,2.73376 5.78205,-4.10064 5.78205,-15.03567c0.64245,-17.08598 1.2849,-17.76942 7.06694,-6.15095c5.78205,10.25159 8.35184,10.93503 12.84899,3.4172c5.1396,-8.20127 7.06694,-8.20127 12.20654,0.68344c5.1396,8.88471 6.42449,8.88471 6.42449,-1.36688c0,-7.51783 3.21225,-10.25159 9.63674,-8.20127c6.42449,2.73376 9.63674,0 9.63674,-8.20127c0,-6.15095 1.92735,-9.56815 4.49715,-7.51783c1.92735,2.73376 9.63674,-0.68344 16.70369,-6.83439c6.42449,-6.83439 18.63103,-12.30191 26.98288,-12.30191c12.20654,-0.68344 16.06124,4.78408 23.12818,32.12165c4.49715,18.45286 10.27919,30.07133 12.20654,25.9707c2.5698,-4.10064 7.70939,0.68344 11.56409,10.25159c6.42449,14.35223 5.78205,17.08598 -1.92735,17.08598c-5.1396,0 -9.63674,4.78408 -9.63674,10.93503c0,5.46751 2.5698,8.20127 6.42449,6.15095c3.21225,-2.05032 10.27919,4.10064 14.13389,14.35223c6.42449,15.03567 6.42449,19.1363 0,21.87006c-4.49715,1.36688 -5.78205,6.15095 -3.21225,10.25159c2.5698,4.78408 5.1396,15.71911 5.78205,25.28726c0,9.56815 3.8547,16.40254 7.70939,15.71911c4.49715,-1.36688 7.70939,0.68344 7.70939,4.10064c0,4.10064 -67.4572,6.83439 -167.03687,7.51783c-109.85886,0 -167.03687,-2.05032 -167.03687,-6.83439c0,-3.4172 1.92735,-6.83439 5.1396,-6.83439c7.70939,0 7.06694,-36.22229 -1.92735,-49.89107c-7.06694,-10.25159 -8.35184,-10.93503 -11.56409,-1.36688c-3.8547,8.88471 -23.77063,15.71911 -23.77063,7.51783c0,-10.25159 8.99429,-23.92038 13.49144,-20.50318c3.21225,2.05032 5.78205,-2.73376 5.78205,-10.93503c0,-19.1363 -15.41879,-14.35223 -17.98859,5.46751c-1.2849,8.20127 -5.78205,15.03567 -10.92164,15.03567c-12.20654,0 -16.06124,33.48853 -4.49715,45.107c6.42449,6.83439 11.56409,8.20127 16.06124,3.4172c3.21225,-3.4172 10.27919,-4.78408 14.77634,-2.73376c7.06694,2.73376 7.06694,4.78408 0,12.30191c-5.78205,6.83439 -32.12247,9.56815 -92.51273,9.56815l-84.80333,0.68344l0,-27.33757z"/>
    <path fill="#3861bc" stroke="url(#gradbox_stroke)" d="m2298.57019,5323.22667c1.92735,-3.4172 -14.13389,-31.43821 -35.33472,-62.19298c-21.20083,-31.43821 -38.54697,-60.14266 -38.54697,-64.92674c0,-4.10064 -4.49715,-11.61847 -9.63674,-16.40254c-9.63674,-8.88471 -57.178,-98.41527 -64.24495,-122.33564c-1.92735,-7.51783 -14.13389,-31.43821 -26.34043,-53.30827c-12.20654,-21.18662 -21.84328,-43.05668 -21.84328,-47.84075c0,-5.46751 -12.84899,-32.80509 -28.91023,-62.19298c-16.06124,-28.70445 -30.83758,-62.87642 -32.76492,-76.54521c-1.92735,-12.98535 -9.63674,-36.90573 -16.06124,-51.94139c-16.70369,-37.58916 -17.98859,-177.69423 -3.21225,-294.56236c8.35184,-64.2433 8.99429,-97.73183 4.49715,-149.67322c-5.78205,-69.71081 -1.2849,-110.71718 8.99429,-77.22865c2.5698,8.88471 5.1396,18.45286 6.42449,21.87006c4.49715,12.98535 4.49715,15.71911 3.21225,30.75477c-0.64245,8.20127 2.5698,15.03567 6.42449,15.03567c4.49715,0 6.42449,4.78408 3.8547,10.25159c-1.92735,5.46751 0,10.25159 3.8547,10.25159c4.49715,0 4.49715,2.73376 -0.64245,9.56815c-6.42449,7.51783 -5.1396,10.93503 5.1396,14.35223c7.70939,2.05032 14.13389,7.51783 14.13389,10.93503c0.64245,3.4172 1.2849,9.56815 1.92735,12.98535c0,4.10064 5.1396,10.25159 10.27919,13.66879c5.1396,3.4172 7.06694,6.83439 3.8547,6.83439c-3.21225,0 0.64245,5.46751 7.70939,12.98535c7.70939,6.83439 14.13389,17.08598 14.13389,21.87006c0,7.51783 1.2849,7.51783 5.1396,0.68344c4.49715,-6.83439 8.99429,-5.46751 21.84328,4.78408c14.13389,12.30191 17.98859,12.30191 28.26778,4.78408c10.27919,-8.20127 12.84899,-8.20127 19.91593,2.05032c5.1396,6.83439 7.70939,8.20127 8.35184,2.73376c0,-4.78408 4.49715,-8.88471 10.27919,-8.88471c5.1396,0 7.70939,-2.73376 5.78205,-6.83439c-1.92735,-3.4172 0.64245,-6.83439 6.42449,-6.83439c7.70939,0 9.63674,3.4172 7.06694,10.93503c-2.5698,7.51783 0.64245,6.83439 12.84899,-3.4172c9.63674,-8.20127 21.84328,-14.35223 27.62533,-13.66879c6.42449,0 7.70939,1.36688 1.92735,4.10064c-3.8547,1.36688 -5.78205,6.15095 -3.8547,10.25159c2.5698,4.10064 -0.64245,5.46751 -7.70939,2.73376c-8.35184,-2.73376 -14.77634,0.68344 -19.91593,8.88471c-14.13389,24.60382 8.35184,21.87006 34.69227,-3.4172c16.70369,-16.40254 28.91023,-23.23694 39.18942,-21.18662c7.70939,1.36688 14.13389,0 14.13389,-2.73376c0,-3.4172 2.5698,-6.15095 5.78205,-6.15095c2.5698,0 3.8547,7.51783 1.92735,17.08598c-1.92735,13.66879 -0.64245,16.40254 7.70939,12.98535c7.70939,-3.4172 9.63674,-1.36688 6.42449,8.20127c-3.21225,12.30191 -3.21225,12.30191 5.78205,1.36688c13.49144,-17.76942 19.91593,-15.03567 8.35184,2.73376c-12.84899,19.81974 -12.84899,30.07133 0,18.45286c8.35184,-7.51783 9.63674,-6.15095 5.78205,11.61847c-3.21225,17.08598 -2.5698,17.76942 2.5698,4.78408c9.63674,-22.5535 14.13389,-19.1363 8.99429,6.15095c-3.21225,17.76942 -1.92735,20.50318 5.78205,17.08598c14.77634,-5.46751 21.84328,55.35859 7.70939,66.97706c-5.78205,4.10064 -8.99429,13.66879 -7.70939,21.18662c2.5698,15.71911 -25.05553,34.85541 -35.97717,23.23694c-3.21225,-3.4172 -9.63674,-6.83439 -12.84899,-6.83439c-3.8547,0 -2.5698,3.4172 2.5698,7.51783c7.70939,5.46751 7.06694,6.15095 -3.21225,4.10064c-7.06694,-1.36688 -12.20654,-6.15095 -11.56409,-10.25159c2.5698,-10.93503 -1.92735,-10.25159 -19.91593,2.05032c-8.35184,6.15095 -17.98859,10.25159 -20.55838,9.56815c-3.21225,-0.68344 -10.92164,0.68344 -16.70369,3.4172c-5.78205,2.73376 -16.06124,2.05032 -22.48573,-2.05032c-10.27919,-6.15095 -9.63674,-6.83439 3.8547,-4.78408c18.63103,2.05032 39.83187,-14.35223 34.69227,-27.33757c-1.92735,-5.46751 -5.78205,-9.56815 -9.63674,-9.56815c-3.21225,0 -3.8547,3.4172 -1.2849,7.51783c1.92735,4.10064 -3.21225,2.73376 -12.20654,-3.4172c-21.20083,-15.71911 -46.89881,-8.20127 -55.25066,15.03567c-3.21225,10.25159 -6.42449,13.66879 -6.42449,7.51783c-0.64245,-6.15095 -4.49715,-15.03567 -9.63674,-19.1363c-7.06694,-6.15095 -9.63674,-5.46751 -12.84899,4.10064c-4.49715,12.30191 10.27919,29.38789 25.69798,29.38789c4.49715,0 9.63674,2.73376 11.56409,6.15095c4.49715,7.51783 -28.26778,6.15095 -39.18942,-1.36688c-4.49715,-3.4172 -8.35184,-2.73376 -8.35184,0c0,10.25159 14.77634,22.5535 26.34043,22.5535c5.78205,0 14.13389,4.78408 18.63103,10.25159c6.42449,8.88471 5.78205,10.25159 -5.78205,10.25159c-7.06694,0 -13.49144,3.4172 -13.49144,7.51783c0,3.4172 3.21225,4.78408 6.42449,2.73376c3.8547,-2.05032 6.42449,-0.68344 6.42449,2.73376c0,4.10064 -2.5698,7.51783 -6.42449,7.51783c-3.21225,0 -4.49715,4.78408 -1.92735,10.93503c2.5698,7.51783 5.78205,8.20127 10.27919,3.4172c3.8547,-4.10064 11.56409,-7.51783 16.70369,-6.83439c7.70939,0 7.06694,1.36688 -1.92735,5.46751c-10.92164,4.78408 -11.56409,5.46751 -0.64245,16.40254c7.06694,8.20127 10.27919,19.1363 8.35184,32.12165c-2.5698,16.40254 -0.64245,19.81974 7.70939,17.08598c7.06694,-2.05032 10.27919,0.68344 10.27919,10.25159c0,8.88471 -3.21225,12.98535 -8.35184,10.93503c-4.49715,-2.05032 -8.35184,-0.68344 -8.35184,2.73376c0,4.10064 4.49715,6.83439 9.63674,6.83439c5.78205,0 12.84899,7.51783 16.06124,17.08598c3.21225,9.56815 8.99429,17.08598 12.20654,17.08598c3.8547,0 5.1396,-4.78408 2.5698,-10.93503c-3.21225,-9.56815 -1.92735,-9.56815 10.27919,-2.05032c7.06694,5.46751 13.49144,11.61847 13.49144,15.03567c0,2.73376 -3.21225,3.4172 -7.70939,0.68344c-5.1396,-3.4172 -5.78205,-1.36688 -3.21225,6.83439c2.5698,6.83439 4.49715,14.35223 4.49715,16.40254c0,2.73376 3.21225,0 6.42449,-5.46751c3.8547,-6.83439 6.42449,-7.51783 6.42449,-1.36688c0,4.10064 4.49715,8.20127 9.63674,8.20127c5.1396,0 12.84899,5.46751 16.70369,12.30191c5.1396,8.20127 13.49144,12.30191 24.41308,10.93503c8.99429,-1.36688 11.56409,-0.68344 5.1396,1.36688c-14.77634,4.78408 -10.27919,19.81974 5.78205,19.81974c8.35184,0 11.56409,-4.10064 10.27919,-12.30191c-1.92735,-11.61847 -1.2849,-11.61847 14.13389,-0.68344c20.55838,13.66879 21.20083,18.45286 2.5698,12.98535c-12.84899,-3.4172 -12.84899,-2.05032 3.8547,12.98535c19.91593,17.76942 42.40167,27.33757 42.40167,17.76942c0,-2.73376 -6.42449,-6.83439 -14.13389,-9.56815c-12.20654,-3.4172 -12.84899,-5.46751 -5.1396,-10.93503c5.78205,-3.4172 10.27919,-4.10064 11.56409,0c1.2849,3.4172 6.42449,4.10064 12.20654,2.05032c7.06694,-2.73376 8.99429,-1.36688 5.78205,3.4172c-3.21225,5.46751 0.64245,8.20127 10.27919,7.51783c8.35184,0 10.92164,-2.05032 7.06694,-4.10064c-4.49715,-1.36688 -8.35184,-6.15095 -8.35184,-9.56815c0,-4.10064 4.49715,-4.10064 11.56409,0c7.06694,4.10064 15.41879,4.10064 21.20083,0c7.06694,-4.78408 5.78205,-6.15095 -5.1396,-6.15095c-8.35184,0 -14.77634,-2.73376 -14.77634,-6.83439c0,-3.4172 4.49715,-6.83439 9.63674,-6.83439c5.1396,0 8.99429,-4.10064 8.35184,-8.20127c-1.2849,-4.78408 1.92735,-8.20127 6.42449,-6.83439c3.8547,0.68344 7.70939,-1.36688 7.70939,-4.78408c0,-3.4172 -3.8547,-8.20127 -7.70939,-9.56815c-5.78205,-2.73376 -4.49715,-4.10064 1.92735,-4.10064c5.78205,-0.68344 17.98859,-6.83439 27.62533,-15.03567c8.99429,-7.51783 16.70369,-10.93503 16.70369,-6.83439c0,4.10064 -3.21225,7.51783 -7.06694,7.51783c-3.21225,0 -4.49715,3.4172 -2.5698,6.83439c1.92735,4.10064 -0.64245,6.83439 -5.78205,6.83439c-5.78205,0 -10.27919,4.78408 -10.27919,10.25159c0,16.40254 12.20654,11.61847 24.41308,-8.88471c5.78205,-10.93503 14.77634,-19.1363 19.27348,-17.76942c4.49715,0.68344 5.1396,0 1.2849,-2.05032c-4.49715,-2.05032 -3.21225,-8.20127 3.8547,-16.40254c10.27919,-12.30191 10.27919,-12.98535 0.64245,-8.88471c-5.78205,2.05032 -10.92164,6.15095 -10.92164,9.56815c0,2.73376 -8.99429,4.78408 -19.27348,5.46751c-10.92164,0 -17.98859,-2.73376 -16.06124,-6.15095c2.5698,-3.4172 8.35184,-6.15095 13.49144,-6.15095c5.1396,0 10.92164,-4.78408 12.84899,-10.25159c4.49715,-11.61847 34.69227,-14.35223 34.69227,-3.4172c0,12.30191 11.56409,6.83439 31.48002,-14.35223c20.55838,-21.87006 25.69798,-31.43821 12.20654,-22.5535c-4.49715,3.4172 -15.41879,4.78408 -25.05553,4.10064c-9.63674,-0.68344 -20.55838,3.4172 -25.05553,8.88471c-4.49715,5.46751 -12.84899,10.25159 -18.63103,10.25159c-8.99429,-0.68344 -8.99429,-1.36688 0.64245,-9.56815c6.42449,-4.78408 9.63674,-10.93503 7.06694,-12.98535c-1.92735,-2.73376 1.92735,-4.78408 9.63674,-4.78408c15.41879,0 16.70369,-4.78408 8.35184,-30.07133c-7.70939,-20.50318 5.1396,-34.85541 24.41308,-28.02101c7.06694,2.05032 14.77634,0.68344 17.34614,-4.10064c2.5698,-5.46751 1.92735,-6.15095 -2.5698,-3.4172c-4.49715,2.73376 -7.70939,2.05032 -7.70939,-2.05032c0,-3.4172 3.21225,-8.88471 6.42449,-10.93503c5.1396,-3.4172 4.49715,-7.51783 -0.64245,-14.35223c-5.1396,-6.83439 -5.1396,-9.56815 0,-9.56815c3.8547,0 7.06694,-4.78408 7.06694,-10.93503c0,-9.56815 -1.92735,-9.56815 -9.63674,-2.73376c-14.13389,12.30191 -11.56409,2.05032 3.21225,-13.66879c7.70939,-8.20127 11.56409,-17.08598 9.63674,-20.50318c-3.21225,-5.46751 16.70369,-15.71911 32.76492,-16.40254c8.35184,-0.68344 28.91023,-21.87006 27.62533,-29.38789c-1.92735,-13.66879 1.2849,-18.45286 7.06694,-8.88471c4.49715,7.51783 7.06694,6.15095 12.20654,-8.88471c4.49715,-11.61847 10.27919,-17.08598 15.41879,-14.35223c5.1396,2.05032 10.92164,-1.36688 12.84899,-6.83439c2.5698,-6.83439 8.35184,-8.88471 14.77634,-6.15095c7.70939,2.73376 9.63674,1.36688 7.70939,-5.46751c-1.92735,-5.46751 -9.63674,-8.88471 -17.34614,-7.51783c-12.84899,2.05032 -13.49144,0.68344 -7.06694,-11.61847c5.1396,-11.61847 5.1396,-14.35223 -2.5698,-14.35223c-5.1396,0 -11.56409,6.15095 -13.49144,13.66879c-1.92735,7.51783 -7.06694,13.66879 -10.92164,13.66879c-3.8547,0 -3.8547,-4.10064 1.2849,-10.25159c7.06694,-8.88471 6.42449,-9.56815 -2.5698,-6.15095c-7.70939,2.73376 -10.27919,0.68344 -10.27919,-9.56815c0,-19.81974 -12.84899,-25.9707 -17.34614,-8.88471c-3.8547,15.03567 -16.06124,20.50318 -14.13389,6.15095c1.92735,-17.76942 -0.64245,-26.65413 -7.06694,-22.5535c-3.21225,2.05032 -6.42449,-0.68344 -6.42449,-6.15095c0,-5.46751 -7.70939,-16.40254 -16.70369,-23.92038c-11.56409,-9.56815 -14.13389,-14.35223 -7.06694,-14.35223c5.1396,0 11.56409,4.10064 12.84899,8.88471c2.5698,6.15095 3.8547,6.15095 3.8547,0c0.64245,-4.10064 -1.92735,-10.25159 -5.78205,-12.30191c-3.21225,-2.05032 -6.42449,-12.98535 -6.42449,-24.60382c0,-10.93503 -3.21225,-19.81974 -7.06694,-19.81974c-4.49715,0 -6.42449,-8.20127 -4.49715,-20.50318c1.92735,-12.30191 0,-21.18662 -5.1396,-23.23694c-4.49715,-2.05032 -8.35184,-8.88471 -7.70939,-15.71911c0.64245,-14.35223 -7.06694,-56.72547 -10.92164,-63.55986c-1.92735,-2.73376 -4.49715,-17.08598 -6.42449,-31.43821c-5.1396,-33.48853 -19.91593,-69.02737 -32.76492,-76.54521c-5.78205,-3.4172 -9.63674,-8.20127 -8.99429,-10.93503c0,-2.73376 -15.41879,-21.87006 -34.69227,-42.37324c-19.91593,-20.50318 -35.97717,-34.17197 -35.97717,-30.07133c0,3.4172 -3.21225,6.15095 -7.70939,5.46751c-5.1396,-1.36688 -7.06694,5.46751 -5.78205,19.81974c1.2849,21.87006 1.2849,21.87006 -19.91593,15.71911c-18.63103,-6.15095 -22.48573,-4.78408 -35.97717,10.93503c-8.35184,9.56815 -30.83758,25.28726 -50.11106,34.85541c-30.83758,15.71911 -33.40737,18.45286 -27.62533,30.75477c3.8547,7.51783 4.49715,12.30191 0.64245,9.56815c-3.21225,-2.05032 -10.92164,2.05032 -17.34614,9.56815c-6.42449,7.51783 -15.41879,13.66879 -20.55838,13.66879c-4.49715,0 -8.35184,2.73376 -8.35184,5.46751c0,3.4172 -3.8547,6.15095 -7.70939,6.83439c-4.49715,0 -12.84899,1.36688 -17.98859,2.05032c-16.06124,2.73376 -64.24495,-8.88471 -64.24495,-15.03567c0,-3.4172 7.06694,-9.56815 15.41879,-13.66879c10.92164,-5.46751 14.77634,-12.30191 13.49144,-23.92038c-0.64245,-9.56815 1.2849,-18.45286 3.8547,-20.50318c3.21225,-2.05032 5.78205,1.36688 5.78205,6.83439c0,6.15095 3.21225,10.93503 6.42449,10.93503c3.8547,0 2.5698,-8.88471 -3.21225,-20.50318c-10.92164,-23.23694 -12.20654,-30.07133 -3.21225,-23.92038c3.8547,2.05032 6.42449,0.68344 6.42449,-2.73376c0,-4.10064 -3.21225,-7.51783 -7.06694,-7.51783c-3.21225,0 -5.1396,-2.73376 -2.5698,-6.15095c1.92735,-3.4172 0,-8.88471 -4.49715,-11.61847c-4.49715,-3.4172 -1.92735,-7.51783 8.35184,-12.30191l15.41879,-6.83439l-17.34614,-2.73376c-17.34614,-2.05032 -19.91593,-6.83439 -19.91593,-37.58916c0.64245,-10.93503 -3.8547,-12.30191 -21.20083,-10.25159c-12.20654,1.36688 -22.48573,0 -23.12818,-2.73376c-1.2849,-2.73376 -8.99429,-6.15095 -17.98859,-6.83439c-12.84899,-1.36688 -15.41879,0.68344 -14.13389,12.30191c1.2849,10.93503 -1.92735,13.66879 -12.84899,13.66879c-12.20654,-0.68344 -14.13389,2.05032 -12.20654,16.40254c2.5698,19.81974 14.13389,39.63948 23.12818,38.2726c3.8547,0 7.06694,6.15095 8.35184,14.35223c1.92735,11.61847 0,14.35223 -7.70939,11.61847c-5.78205,-2.05032 -10.27919,-1.36688 -10.27919,2.73376c0,3.4172 4.49715,8.20127 9.63674,10.93503c5.78205,2.05032 7.70939,8.20127 5.1396,15.03567c-3.21225,10.25159 -4.49715,10.25159 -9.63674,0c-3.21225,-6.15095 -8.35184,-9.56815 -12.20654,-7.51783c-3.21225,2.73376 -10.92164,-4.78408 -17.34614,-16.40254c-10.92164,-21.18662 -26.98288,-33.48853 -26.98288,-20.50318c0,4.10064 -4.49715,2.73376 -9.63674,-3.4172c-11.56409,-11.61847 -12.84899,-20.50318 -1.92735,-13.66879c3.8547,2.73376 5.1396,2.05032 3.21225,-2.73376c-2.5698,-3.4172 -11.56409,-6.15095 -20.55838,-4.78408c-10.27919,0.68344 -16.06124,-2.05032 -16.06124,-8.20127c0,-5.46751 3.21225,-7.51783 6.42449,-5.46751c8.35184,5.46751 8.35184,-0.68344 0,-17.76942c-4.49715,-8.20127 -5.1396,-32.80509 -2.5698,-64.92674c5.1396,-56.72547 19.27348,-82.01272 43.04412,-73.81145c6.42449,2.05032 19.27348,4.78408 27.62533,6.15095c8.35184,0.68344 23.12818,7.51783 32.76492,14.35223c9.63674,6.83439 19.91593,11.61847 23.12818,10.93503c2.5698,-0.68344 3.8547,0.68344 3.8547,3.4172c-2.5698,18.45286 1.2849,21.87006 17.98859,15.03567c8.99429,-3.4172 20.55838,-5.46751 25.69798,-3.4172c4.49715,2.05032 17.34614,2.05032 27.62533,-0.68344c16.70369,-3.4172 18.63103,-5.46751 11.56409,-14.35223c-7.06694,-8.88471 -7.06694,-9.56815 0.64245,-5.46751c4.49715,3.4172 17.34614,8.20127 28.91023,10.93503c10.92164,2.73376 25.69798,7.51783 32.76492,10.93503c10.92164,4.78408 11.56409,3.4172 5.1396,-5.46751c-4.49715,-5.46751 -5.78205,-12.98535 -3.21225,-15.71911c2.5698,-3.4172 -0.64245,-3.4172 -6.42449,-1.36688c-14.13389,5.46751 -22.48573,-8.20127 -10.92164,-16.40254c7.06694,-4.78408 7.06694,-6.15095 -1.92735,-6.15095c-5.78205,0 -17.98859,-8.88471 -26.34043,-20.50318c-8.99429,-10.93503 -21.20083,-20.50318 -27.62533,-20.50318c-6.42449,0 -9.63674,-2.05032 -7.06694,-4.10064c5.1396,-6.15095 55.8931,-7.51783 52.03841,-2.05032c-4.49715,8.88471 8.99429,13.66879 36.61962,14.35223c16.06124,0 27.62533,4.10064 29.55268,9.56815c1.92735,5.46751 7.06694,9.56815 12.20654,9.56815c5.1396,0 8.99429,3.4172 8.99429,8.20127c0,6.15095 1.92735,6.15095 7.70939,0c11.56409,-12.30191 20.55838,-9.56815 10.92164,3.4172c-7.70939,10.25159 -7.70939,10.93503 1.2849,7.51783c5.78205,-2.73376 14.13389,-0.68344 18.63103,3.4172c4.49715,4.78408 3.21225,0 -3.21225,-10.25159c-5.78205,-10.93503 -14.77634,-19.1363 -19.27348,-19.1363c-4.49715,0 -10.27919,-4.78408 -12.20654,-10.93503c-2.5698,-6.83439 -1.2849,-8.88471 4.49715,-5.46751c3.8547,2.73376 -3.8547,-8.88471 -18.63103,-25.28726c-26.98288,-30.75477 -42.40167,-54.67515 -61.0327,-93.63119c-10.27919,-20.50318 -10.27919,-21.87006 -0.64245,-13.66879c5.78205,4.78408 15.41879,14.35223 21.84328,21.18662c6.42449,6.15095 16.06124,11.61847 21.20083,11.61847c4.49715,0 11.56409,4.78408 14.13389,10.25159c5.1396,8.88471 7.70939,8.88471 19.27348,-2.73376c7.06694,-7.51783 15.41879,-11.61847 17.34614,-9.56815c3.8547,4.10064 6.42449,-13.66879 4.49715,-30.07133c-0.64245,-4.78408 1.92735,-8.88471 5.78205,-8.88471c3.21225,0 6.42449,-2.73376 6.42449,-6.83439c0,-3.4172 -3.8547,-6.83439 -8.99429,-6.83439c-5.1396,0 -8.99429,-6.83439 -8.99429,-15.03567c0,-23.92038 -3.8547,-36.22229 -16.06124,-53.99171c-6.42449,-8.88471 -9.63674,-12.30191 -7.70939,-7.51783c4.49715,9.56815 -0.64245,9.56815 -19.27348,2.05032c-7.06694,-3.4172 -15.41879,-3.4172 -19.27348,-0.68344c-7.06694,6.15095 -79.02129,-10.93503 -90.58538,-21.18662c-16.06124,-13.66879 -5.1396,-76.54521 17.34614,-102.5159c23.77063,-26.65413 25.69798,-38.2726 8.99429,-55.35859c-17.98859,-18.45286 -19.91593,-28.02101 -6.42449,-39.63948c7.06694,-6.15095 7.70939,-11.61847 2.5698,-21.18662c-3.21225,-7.51783 -5.1396,-19.1363 -2.5698,-25.9707c2.5698,-8.20127 -1.2849,-14.35223 -12.84899,-19.81974c-8.99429,-4.78408 -18.63103,-13.66879 -20.55838,-19.81974c-5.78205,-16.40254 -18.63103,-29.38789 -23.77063,-24.60382c-1.92735,2.73376 -3.8547,-0.68344 -3.8547,-6.15095c0,-6.15095 -7.70939,-25.28726 -16.70369,-42.37324c-9.63674,-17.76942 -15.41879,-34.17197 -13.49144,-36.22229c5.78205,-6.15095 13.49144,2.05032 26.98288,30.07133c7.06694,14.35223 16.70369,30.07133 21.20083,34.85541c3.8547,5.46751 10.92164,15.03567 14.13389,22.5535c12.20654,23.23694 75.16659,67.6605 108.57396,75.86177c32.12247,7.51783 55.8931,4.10064 48.82616,-7.51783c-1.92735,-4.10064 1.92735,-9.56815 7.70939,-13.66879c9.63674,-6.15095 9.63674,-8.20127 2.5698,-13.66879c-7.06694,-4.78408 -7.06694,-6.15095 0,-9.56815c6.42449,-2.73376 6.42449,-4.10064 1.2849,-4.10064c-10.92164,-0.68344 -10.92164,-14.35223 0,-14.35223c5.1396,0 8.99429,-9.56815 9.63674,-23.92038c1.2849,-15.71911 -1.2849,-23.92038 -6.42449,-23.92038c-5.78205,0 -5.1396,-2.05032 1.2849,-6.83439c8.35184,-6.15095 8.35184,-6.83439 0,-6.83439c-5.78205,0 -13.49144,3.4172 -17.98859,8.20127c-5.78205,6.15095 -7.70939,5.46751 -7.70939,-5.46751c-0.64245,-11.61847 -2.5698,-10.93503 -14.77634,6.15095c-15.41879,19.1363 -25.69798,24.60382 -20.55838,9.56815c3.21225,-7.51783 -9.63674,-15.71911 -44.97146,-28.02101c-7.06694,-2.73376 -14.13389,-5.46751 -16.06124,-5.46751c-1.92735,0 -8.99429,-4.10064 -15.41879,-9.56815c-8.99429,-6.83439 -15.41879,-6.83439 -25.05553,-2.05032c-8.99429,5.46751 -11.56409,5.46751 -8.35184,0c2.5698,-4.78408 -0.64245,-7.51783 -8.35184,-7.51783c-7.70939,0 -13.49144,-4.78408 -13.49144,-10.25159c0,-5.46751 -2.5698,-10.25159 -6.42449,-10.25159c-3.21225,0 -6.42449,-4.78408 -6.42449,-10.25159c0,-5.46751 -2.5698,-10.25159 -5.1396,-10.25159c-2.5698,0 -8.99429,-10.93503 -13.49144,-23.92038c-7.06694,-21.18662 -16.06124,-28.02101 -34.04982,-24.60382c-3.21225,0 -5.1396,-2.05032 -5.1396,-6.15095c0,-3.4172 3.21225,-6.83439 6.42449,-6.83439c3.8547,0 6.42449,-4.78408 6.42449,-10.25159c0,-5.46751 -3.8547,-9.56815 -7.70939,-8.88471c-9.63674,2.05032 -7.70939,-37.58916 1.92735,-41.00636c3.21225,-1.36688 5.78205,-6.83439 5.78205,-12.30191c0,-5.46751 3.21225,-9.56815 7.06694,-9.56815c3.21225,0 4.49715,-2.73376 2.5698,-6.83439c-1.92735,-4.10064 0.64245,-6.83439 5.78205,-6.83439c5.1396,0 11.56409,3.4172 14.13389,7.51783c1.92735,4.10064 9.63674,6.15095 16.06124,4.10064c12.84899,-4.10064 34.04982,19.1363 41.75922,45.107c5.78205,21.87006 21.84328,38.95604 35.97717,38.95604c14.13389,0 14.77634,-6.83439 1.92735,-24.60382c-14.13389,-20.50318 -11.56409,-27.33757 16.06124,-40.32292c14.13389,-6.83439 25.69798,-16.40254 25.69798,-21.87006c0,-4.78408 1.92735,-9.56815 5.1396,-9.56815c27.62533,-5.46751 33.40737,-3.4172 41.11677,15.03567c4.49715,10.93503 12.20654,19.81974 16.06124,19.81974c4.49715,0 8.35184,3.4172 8.35184,6.83439c0,4.10064 3.21225,6.83439 6.42449,6.83439c3.8547,0 5.78205,-6.83439 5.1396,-15.03567c-3.21225,-28.70445 10.92164,-23.23694 16.70369,6.83439c6.42449,29.38789 16.70369,38.95604 16.70369,15.71911c0,-7.51783 3.21225,-15.71911 7.06694,-17.76942c3.8547,-2.73376 5.78205,0 4.49715,6.83439c-1.2849,6.83439 1.92735,13.66879 6.42449,15.03567c4.49715,2.05032 7.70939,-2.73376 7.70939,-11.61847c0,-11.61847 1.92735,-13.66879 8.35184,-8.88471c10.92164,10.25159 30.19513,8.20127 30.19513,-2.73376c0,-4.78408 3.21225,-8.88471 7.06694,-8.88471c3.8547,0 5.78205,4.78408 3.21225,10.25159c-1.92735,5.46751 -0.64245,10.25159 2.5698,10.25159c3.8547,0 6.42449,-8.20127 6.42449,-17.76942c0,-9.56815 -2.5698,-15.71911 -6.42449,-12.98535c-3.8547,2.73376 -6.42449,-3.4172 -6.42449,-14.35223c0,-11.61847 -8.35184,-26.65413 -23.77063,-43.05668c-36.61962,-38.2726 -75.16659,-49.89107 -155.47277,-49.20763c-40.47432,0.68344 -66.1723,10.93503 -93.15517,36.90573c-7.06694,6.15095 -14.77634,11.61847 -17.98859,11.61847c-7.70939,0 -6.42449,-16.40254 2.5698,-25.9707c5.78205,-6.15095 5.78205,-8.20127 -0.64245,-8.20127c-4.49715,0 -5.78205,-3.4172 -3.8547,-6.83439c2.5698,-4.10064 6.42449,-5.46751 8.99429,-4.10064c2.5698,2.05032 5.1396,-0.68344 5.1396,-5.46751c0,-15.03567 21.20083,-58.77578 28.91023,-58.77578c3.21225,0 5.1396,-4.10064 3.21225,-9.56815c-4.49715,-12.30191 8.99429,-18.45286 28.26778,-12.98535c9.63674,2.73376 12.84899,2.05032 9.63674,-3.4172c-3.21225,-5.46751 0,-8.20127 8.35184,-8.20127c7.70939,0 13.49144,-4.78408 13.49144,-10.25159c0,-5.46751 5.78205,-10.25159 12.84899,-10.25159c7.06694,0 14.77634,-4.78408 16.70369,-10.25159c2.5698,-6.83439 8.35184,-8.88471 15.41879,-6.83439c6.42449,2.05032 14.13389,0.68344 16.06124,-4.10064c3.8547,-5.46751 6.42449,-4.78408 10.27919,1.36688c3.8547,6.83439 5.78205,7.51783 5.78205,1.36688c0,-10.93503 21.84328,-11.61847 38.54697,-2.05032c10.27919,5.46751 11.56409,5.46751 8.99429,-3.4172c-2.5698,-6.15095 0,-10.25159 5.78205,-10.25159c5.1396,0 10.92164,3.4172 12.20654,7.51783c1.92735,6.15095 5.78205,6.15095 16.06124,0.68344c10.27919,-6.15095 14.77634,-6.15095 16.70369,0.68344c1.92735,4.10064 3.8547,4.78408 3.8547,0.68344c0.64245,-3.4172 -4.49715,-12.98535 -10.92164,-20.50318c-13.49144,-15.03567 -21.84328,-42.37324 -14.77634,-47.15732c6.42449,-4.10064 32.76492,22.5535 32.76492,32.80509c0,4.78408 -4.49715,2.05032 -9.63674,-4.78408c-7.70939,-10.25159 -9.63674,-10.93503 -9.63674,-3.4172c0,6.15095 7.70939,17.76942 16.70369,27.33757c15.41879,15.03567 16.70369,15.71911 15.41879,2.73376c-0.64245,-7.51783 -0.64245,-15.71911 0,-18.45286c0.64245,-3.4172 1.92735,-9.56815 2.5698,-13.66879c0.64245,-4.78408 5.78205,-8.20127 12.20654,-8.20127c7.70939,0.68344 9.63674,-1.36688 5.78205,-6.83439c-3.21225,-4.10064 -3.8547,-13.66879 -1.2849,-21.18662c2.5698,-7.51783 3.21225,-17.76942 1.2849,-23.23694c-2.5698,-6.83439 -0.64245,-8.20127 5.78205,-4.10064c7.06694,4.78408 7.06694,3.4172 -0.64245,-6.83439c-9.63674,-12.30191 -9.63674,-12.30191 -12.20654,0c-1.92735,11.61847 -3.21225,10.93503 -10.27919,-3.4172c-4.49715,-8.88471 -13.49144,-16.40254 -19.91593,-17.08598c-7.06694,-1.36688 -17.34614,-4.10064 -23.12818,-6.83439c-7.06694,-2.73376 -11.56409,-2.05032 -11.56409,3.4172c0,4.10064 3.8547,5.46751 8.35184,2.73376c5.78205,-3.4172 5.78205,-2.73376 0,4.10064c-7.70939,8.88471 -23.77063,2.73376 -17.98859,-7.51783c2.5698,-3.4172 0,-8.20127 -5.1396,-10.25159c-5.78205,-2.05032 -12.84899,-12.30191 -17.34614,-23.23694c-5.78205,-14.35223 -13.49144,-20.50318 -29.55268,-23.92038c-12.20654,-2.05032 -20.55838,-6.83439 -18.63103,-10.25159c5.78205,-9.56815 -56.53555,-11.61847 -71.31189,-2.05032c-7.70939,4.78408 -18.63103,7.51783 -24.41308,4.78408c-5.78205,-2.05032 -10.27919,-0.68344 -10.27919,4.10064c0,4.10064 -2.5698,6.15095 -5.1396,4.10064c-2.5698,-1.36688 -8.99429,-0.68344 -14.13389,3.4172c-7.70939,4.78408 -7.70939,6.15095 1.92735,6.15095c9.63674,0 10.27919,1.36688 3.21225,9.56815c-4.49715,5.46751 -10.27919,6.83439 -12.20654,2.73376c-1.92735,-3.4172 -7.06694,-1.36688 -11.56409,4.10064c-4.49715,5.46751 -6.42449,13.66879 -3.8547,17.76942c2.5698,4.10064 1.92735,6.83439 -1.2849,6.15095c-12.84899,-2.05032 -21.84328,1.36688 -17.98859,7.51783c1.92735,3.4172 8.35184,4.10064 14.13389,2.05032c8.35184,-3.4172 8.35184,-2.05032 -1.92735,9.56815c-6.42449,7.51783 -14.13389,12.30191 -17.34614,10.93503c-2.5698,-2.05032 -3.8547,-0.68344 -3.21225,2.73376c0.64245,2.73376 -2.5698,12.98535 -7.06694,21.87006c-4.49715,8.88471 -5.1396,14.35223 -1.92735,11.61847c3.8547,-2.73376 5.1396,1.36688 3.21225,10.25159c-1.92735,7.51783 -7.06694,12.30191 -10.92164,10.93503c-4.49715,-2.05032 -8.35184,2.73376 -8.35184,9.56815c-0.64245,10.25159 1.2849,11.61847 10.92164,6.15095c8.99429,-5.46751 12.20654,-3.4172 14.77634,7.51783c2.5698,10.93503 1.92735,12.30191 -5.78205,5.46751c-5.78205,-4.78408 -8.99429,-5.46751 -8.99429,-0.68344c0,4.10064 -5.78205,9.56815 -12.84899,11.61847c-7.06694,2.05032 -14.77634,12.30191 -16.70369,21.18662c-3.8547,15.03567 -7.06694,17.08598 -21.20083,12.98535c-8.99429,-2.73376 -17.34614,-5.46751 -17.98859,-6.15095c-3.8547,-4.10064 45.61391,-147.6229 69.38454,-200.93117c52.03841,-118.91845 96.36742,-182.47831 148.40583,-210.49932c66.1723,-35.53885 174.74626,-46.47388 283.32022,-27.33757c27.62533,4.78408 51.39596,6.15095 53.32331,3.4172c3.21225,-5.46751 -7.06694,-236.47002 -14.13389,-320.53306c-12.20654,-148.98978 -34.04982,-284.99421 -51.39596,-321.89993c-13.49144,-29.38789 -60.39025,-88.16368 -69.38454,-88.16368c-4.49715,0 -12.84899,-5.46751 -18.63103,-12.30191c-5.78205,-6.83439 -23.77063,-19.1363 -39.83187,-28.02101c-16.06124,-8.20127 -28.91023,-18.45286 -28.91023,-21.87006c0,-3.4172 -4.49715,-6.15095 -9.63674,-6.15095c-5.1396,0 -9.63674,-2.73376 -9.63674,-6.83439c0,-3.4172 -2.5698,-6.83439 -6.42449,-6.83439c-3.21225,0 -13.49144,-7.51783 -22.48573,-16.40254c-41.75922,-40.32292 -59.10535,-62.87642 -63.6025,-82.01272c-1.92735,-9.56815 -9.63674,-20.50318 -16.70369,-24.60382c-8.35184,-4.78408 -12.84899,-14.35223 -12.84899,-27.33757c0,-10.25159 -3.21225,-20.50318 -7.06694,-21.87006c-8.35184,-2.73376 -19.91593,-53.99171 -19.27348,-84.74648c0,-11.61847 -3.21225,-26.65413 -8.35184,-33.48853c-6.42449,-9.56815 -7.06694,-17.08598 -1.92735,-28.70445c4.49715,-11.61847 3.8547,-19.1363 -3.8547,-31.43821c-5.78205,-9.56815 -8.35184,-19.1363 -5.78205,-21.87006c2.5698,-2.73376 5.1396,-28.02101 6.42449,-56.72547c0.64245,-28.70445 3.21225,-65.61018 5.1396,-81.32928l3.8547,-29.38789l1009.28813,0c992.58445,0 1009.93058,0 1022.77957,13.66879c7.06694,6.83439 24.41308,24.60382 39.18942,38.95604c69.38454,69.02737 92.51273,92.94775 129.13235,136.00443c21.84328,25.9707 50.75351,59.45922 63.6025,74.49489c12.84899,15.03567 28.91023,40.32292 35.33472,56.04203c7.06694,15.71911 15.41879,30.75477 19.27348,32.80509c3.21225,2.73376 4.49715,10.25159 2.5698,17.08598c-4.49715,15.71911 18.63103,34.17197 43.04412,34.17197c10.27919,0 17.98859,3.4172 17.98859,6.83439c0,12.30191 53.96576,68.34394 66.1723,68.34394c5.78205,0 10.92164,-3.4172 10.92164,-7.51783c0,-4.10064 4.49715,-6.15095 9.63674,-3.4172c8.35184,2.73376 8.35184,1.36688 3.21225,-9.56815c-8.35184,-16.40254 -1.92735,-34.17197 12.20654,-34.17197c10.27919,0 10.92164,-2.73376 7.70939,-44.42356c-0.64245,-7.51783 -52.03841,-10.25159 -52.03841,-2.73376c0,2.73376 -5.1396,3.4172 -12.20654,1.36688c-14.77634,-4.10064 -25.05553,10.93503 -12.84899,19.1363c6.42449,4.10064 3.8547,6.15095 -8.35184,6.15095c-11.56409,0 -18.63103,-4.10064 -21.20083,-14.35223c-3.8547,-11.61847 -7.70939,-13.66879 -24.41308,-10.25159c-11.56409,2.05032 -25.05553,0.68344 -30.19513,-2.73376c-8.35184,-6.15095 -8.35184,-6.83439 0,-7.51783c5.1396,-0.68344 13.49144,-0.68344 17.98859,0c3.8547,0.68344 7.70939,-1.36688 7.70939,-4.78408c0,-3.4172 7.06694,-4.78408 16.06124,-2.73376c9.63674,1.36688 16.06124,0 16.06124,-4.78408c0,-8.20127 -7.06694,-9.56815 -29.55268,-8.20127c-14.77634,1.36688 -21.84328,-15.03567 -18.63103,-43.74012c0.64245,-9.56815 -1.92735,-17.08598 -5.78205,-17.08598c-10.92164,0 -35.97717,-25.9707 -35.97717,-36.90573c0,-12.30191 23.77063,-18.45286 28.26778,-7.51783c1.92735,5.46751 0,10.93503 -4.49715,12.30191c-4.49715,2.05032 8.99429,2.05032 29.55268,0.68344c29.55268,-2.05032 36.61962,-0.68344 36.61962,7.51783c0,6.15095 -4.49715,12.30191 -9.63674,14.35223c-5.1396,2.73376 -7.70939,6.83439 -5.78205,10.25159c5.1396,8.88471 26.98288,7.51783 30.19513,-2.05032c2.5698,-6.83439 4.49715,-6.83439 11.56409,-0.68344c6.42449,6.83439 10.27919,6.83439 17.98859,-0.68344c5.78205,-5.46751 23.12818,-10.93503 39.18942,-11.61847c24.41308,-2.05032 28.91023,-0.68344 31.48002,10.93503c1.92735,10.93503 0.64245,11.61847 -7.70939,4.78408c-7.70939,-6.83439 -11.56409,-6.83439 -19.91593,2.05032c-5.78205,6.15095 -8.35184,14.35223 -6.42449,18.45286c2.5698,4.78408 -1.2849,5.46751 -10.92164,2.05032c-8.35184,-2.73376 -13.49144,-2.73376 -10.92164,0c2.5698,3.4172 0,9.56815 -6.42449,14.35223c-5.78205,5.46751 -7.70939,9.56815 -3.21225,9.56815c3.8547,0 8.99429,-2.73376 11.56409,-6.83439c1.92735,-3.4172 7.70939,-4.78408 12.84899,-2.73376c5.1396,2.73376 17.34614,1.36688 26.98288,-2.73376c10.27919,-3.4172 24.41308,-4.10064 32.76492,-0.68344c7.70939,3.4172 14.13389,2.73376 14.13389,-0.68344c0,-3.4172 4.49715,-10.93503 10.27919,-17.08598c8.35184,-8.88471 12.20654,-9.56815 16.06124,-2.73376c3.8547,6.83439 11.56409,2.05032 28.26778,-16.40254c25.05553,-27.33757 42.40167,-29.38789 59.7478,-6.15095c5.78205,8.20127 9.63674,8.88471 14.77634,3.4172c3.8547,-4.10064 11.56409,-6.15095 16.06124,-4.10064c11.56409,4.78408 11.56409,-16.40254 0,-28.70445c-4.49715,-5.46751 -10.92164,-7.51783 -13.49144,-4.78408c-3.21225,2.73376 -3.21225,-0.68344 -1.2849,-7.51783c3.8547,-10.25159 1.92735,-10.93503 -8.35184,-4.78408c-16.70369,9.56815 -26.98288,3.4172 -39.18942,-23.23694c-9.63674,-22.5535 -9.63674,-23.23694 5.1396,-23.23694c8.35184,0 14.77634,2.73376 14.77634,4.78408c0,2.73376 4.49715,10.93503 10.27919,18.45286c9.63674,12.30191 9.63674,11.61847 6.42449,-12.30191c-2.5698,-23.92038 -1.92735,-25.28726 12.20654,-19.1363c12.84899,4.78408 14.13389,4.10064 11.56409,-7.51783c-1.92735,-7.51783 -5.78205,-15.03567 -8.99429,-17.08598c-3.21225,-2.05032 -5.78205,-11.61847 -5.78205,-21.18662c0,-14.35223 1.2849,-16.40254 9.63674,-8.88471c13.49144,11.61847 12.84899,-6.83439 0,-34.17197c-12.84899,-25.9707 -3.21225,-26.65413 10.92164,-1.36688l10.92164,18.45286l-1.92735,-17.08598c-0.64245,-9.56815 -3.21225,-20.50318 -5.1396,-23.92038c-3.21225,-6.15095 -1.92735,-24.60382 1.92735,-56.04203c1.2849,-6.83439 292.95696,-8.88471 1433.30479,-8.88471l1431.37744,0l0,2145.99957l0,2145.99957l-1586.85022,0c-1406.32191,0 -1586.85022,-1.36688 -1586.85022,-10.25159c0,-5.46751 3.21225,-10.25159 6.42449,-10.25159c3.8547,0 6.42449,-4.78408 6.42449,-10.93503c0,-5.46751 -2.5698,-8.88471 -5.78205,-6.15095c-9.63674,5.46751 -15.41879,-9.56815 -7.70939,-19.81974c4.49715,-6.15095 4.49715,-10.93503 -0.64245,-16.40254c-11.56409,-12.30191 -11.56409,-27.33757 -0.64245,-32.12165c8.99429,-3.4172 8.35184,-5.46751 -1.92735,-18.45286c-10.92164,-12.98535 -10.92164,-14.35223 -1.2849,-10.25159c7.70939,2.73376 9.63674,1.36688 7.70939,-5.46751c-1.92735,-5.46751 -1.2849,-13.66879 1.2849,-18.45286c2.5698,-4.78408 5.78205,-15.03567 6.42449,-23.92038c1.2849,-12.98535 0,-14.35223 -6.42449,-6.83439c-4.49715,4.78408 -9.63674,12.98535 -12.20654,18.45286c-2.5698,6.83439 -3.8547,5.46751 -3.8547,-4.10064c-0.64245,-8.20127 3.8547,-18.45286 8.99429,-23.23694c5.78205,-4.78408 8.99429,-12.98535 7.06694,-17.76942c-1.92735,-6.15095 0.64245,-7.51783 7.70939,-4.78408c8.99429,4.10064 9.63674,3.4172 1.2849,-6.15095c-5.1396,-6.15095 -12.20654,-9.56815 -15.41879,-7.51783c-3.21225,2.05032 -2.5698,-1.36688 0.64245,-8.20127c3.8547,-6.83439 5.1396,-18.45286 3.21225,-25.9707c-2.5698,-10.25159 -1.2849,-12.30191 5.1396,-8.20127c5.78205,4.10064 5.1396,0.68344 -1.92735,-10.25159c-7.06694,-10.93503 -8.35184,-19.81974 -4.49715,-31.43821c3.21225,-8.88471 4.49715,-16.40254 1.92735,-16.40254c-2.5698,0 1.2849,-4.10064 7.70939,-9.56815c8.35184,-6.15095 10.27919,-12.98535 6.42449,-21.87006c-4.49715,-11.61847 -5.1396,-12.30191 -7.70939,-0.68344c-1.92735,6.15095 -5.78205,11.61847 -8.99429,11.61847c-8.99429,0 -7.06694,-7.51783 5.1396,-21.87006c8.35184,-9.56815 8.99429,-14.35223 3.21225,-17.76942c-5.1396,-4.10064 -1.92735,-12.30191 10.92164,-28.02101c12.20654,-15.03567 17.34614,-27.33757 14.77634,-36.90573c-2.5698,-10.25159 -1.2849,-12.30191 5.78205,-7.51783c5.1396,2.73376 12.84899,6.15095 17.98859,7.51783c7.06694,0.68344 7.06694,-0.68344 -0.64245,-9.56815c-8.35184,-8.88471 -8.99429,-12.98535 -1.92735,-27.33757c7.70939,-15.03567 7.06694,-19.1363 -0.64245,-28.02101c-8.35184,-8.20127 -8.35184,-11.61847 1.2849,-26.65413c5.78205,-9.56815 7.06694,-15.71911 3.8547,-12.98535c-3.8547,2.05032 -7.70939,2.05032 -9.63674,-0.68344c-1.2849,-3.4172 -1.2849,-1.36688 -0.64245,3.4172c1.2849,4.10064 -2.5698,8.20127 -7.70939,8.20127c-5.1396,0 -7.70939,-2.73376 -5.78205,-6.83439c1.92735,-3.4172 0.64245,-6.83439 -3.21225,-6.83439c-7.70939,0 -3.21225,35.53885 6.42449,55.35859c8.35184,16.40254 8.35184,24.60382 -0.64245,15.03567c-3.8547,-4.10064 -11.56409,-6.15095 -16.06124,-4.10064c-10.92164,4.10064 -11.56409,-6.15095 -0.64245,-17.76942c6.42449,-7.51783 6.42449,-8.88471 0,-4.78408c-5.1396,2.73376 -8.35184,1.36688 -8.99429,-4.10064c0,-4.78408 -3.21225,-2.05032 -7.06694,6.83439c-3.8547,8.20127 -10.92164,15.03567 -15.41879,15.03567c-11.56409,0 -15.41879,8.88471 -10.92164,25.9707c2.5698,11.61847 5.78205,13.66879 11.56409,8.20127c6.42449,-5.46751 12.20654,-4.10064 21.84328,4.78408c7.70939,6.15095 13.49144,15.71911 13.49144,19.81974c0,10.93503 -17.98859,17.76942 -23.12818,8.20127c-2.5698,-4.78408 -1.92735,-5.46751 2.5698,-2.73376c4.49715,2.73376 7.70939,0.68344 7.70939,-6.15095c0,-6.15095 -3.8547,-10.25159 -7.70939,-9.56815c-20.55838,2.73376 -30.83758,-1.36688 -30.83758,-12.98535c0,-6.83439 -5.1396,-19.1363 -10.92164,-28.70445c-9.63674,-14.35223 -9.63674,-15.71911 0,-11.61847c7.06694,2.73376 8.99429,1.36688 6.42449,-6.15095c-2.5698,-7.51783 -5.1396,-8.20127 -12.84899,-2.05032c-4.49715,4.78408 -7.70939,12.30191 -5.78205,17.76942c1.92735,4.78408 -0.64245,8.88471 -5.78205,8.88471c-5.1396,0 -9.63674,5.46751 -9.63674,11.61847c0,8.88471 1.92735,9.56815 7.70939,3.4172c10.92164,-11.61847 17.98859,-10.25159 17.98859,2.73376c0,5.46751 -3.21225,8.20127 -7.06694,5.46751c-5.1396,-2.73376 -5.78205,0 -2.5698,10.25159c5.1396,17.08598 -9.63674,19.81974 -25.05553,4.10064c-5.1396,-5.46751 -12.20654,-10.25159 -15.41879,-10.25159c-3.8547,0 -8.35184,-4.78408 -10.27919,-10.93503c-1.92735,-5.46751 -1.2849,-8.20127 2.5698,-6.15095c8.99429,5.46751 8.35184,2.73376 -5.78205,-27.33757c-6.42449,-14.35223 -13.49144,-22.5535 -16.06124,-18.45286c-1.92735,4.10064 -1.2849,8.88471 2.5698,11.61847c10.27919,6.83439 7.70939,17.08598 -3.21225,12.98535c-5.78205,-2.73376 -9.63674,0 -10.27919,4.78408c0,5.46751 -1.2849,16.40254 -1.92735,24.60382c-1.2849,9.56815 1.2849,12.98535 7.06694,10.93503c12.84899,-5.46751 9.63674,8.88471 -4.49715,19.1363c-14.77634,10.93503 -11.56409,43.74012 3.8547,37.58916c5.1396,-2.05032 8.99429,-0.68344 8.99429,3.4172c0,4.10064 2.5698,5.46751 5.1396,3.4172c3.21225,-2.05032 5.78205,0.68344 5.78205,6.15095c0,7.51783 -2.5698,8.20127 -8.35184,2.73376c-4.49715,-4.10064 -10.92164,-5.46751 -14.77634,-3.4172c-3.21225,2.05032 -10.27919,-8.20127 -16.06124,-23.23694c-5.78205,-15.03567 -11.56409,-27.33757 -12.84899,-27.33757c-3.8547,0 -0.64245,19.1363 4.49715,24.60382c2.5698,2.73376 4.49715,9.56815 4.49715,15.03567c0,6.15095 5.1396,16.40254 10.92164,23.23694c6.42449,8.20127 8.35184,15.03567 4.49715,17.76942c-3.21225,2.73376 -11.56409,13.66879 -17.34614,23.92038c-6.42449,10.93503 -14.77634,18.45286 -18.63103,17.08598c-10.27919,-4.10064 -18.63103,-31.43821 -11.56409,-36.22229c3.8547,-2.73376 6.42449,2.05032 6.42449,10.25159c0,18.45286 15.41879,14.35223 17.34614,-4.10064c1.92735,-15.71911 -20.55838,-45.79044 -30.83758,-42.37324c-5.1396,2.05032 -3.8547,6.83439 3.21225,14.35223c12.84899,12.98535 4.49715,16.40254 -8.35184,3.4172c-7.06694,-7.51783 -7.70939,-6.15095 -1.92735,5.46751c5.78205,10.93503 5.1396,17.76942 -1.92735,27.33757c-5.1396,7.51783 -9.63674,9.56815 -9.63674,5.46751c0,-14.35223 -20.55838,-17.08598 -29.55268,-4.78408c-4.49715,6.83439 -8.35184,15.71911 -8.35184,19.1363c-0.64245,4.10064 4.49715,0 10.92164,-8.88471c10.92164,-15.71911 11.56409,-15.71911 22.48573,-2.73376c5.78205,6.83439 8.99429,15.03567 6.42449,17.08598c-1.92735,2.73376 -0.64245,4.78408 3.21225,4.78408c4.49715,0 7.70939,-3.4172 7.70939,-7.51783c0,-5.46751 3.21225,-5.46751 9.63674,0.68344c7.70939,6.83439 8.35184,10.93503 2.5698,17.76942c-3.8547,5.46751 -10.27919,7.51783 -13.49144,5.46751c-3.8547,-2.73376 -3.8547,0.68344 0,8.88471c5.1396,9.56815 4.49715,18.45286 -1.2849,30.75477c-6.42449,12.98535 -7.06694,19.81974 -1.92735,25.28726c5.1396,5.46751 5.1396,9.56815 -0.64245,15.71911c-5.78205,6.15095 -7.70939,5.46751 -7.70939,-4.10064c0,-6.15095 -3.21225,-9.56815 -6.42449,-7.51783c-10.27919,6.83439 -15.41879,-16.40254 -7.70939,-34.17197c5.1396,-12.30191 10.92164,-15.71911 18.63103,-12.30191c10.27919,3.4172 10.27919,2.73376 1.92735,-5.46751c-5.1396,-5.46751 -12.84899,-13.66879 -16.70369,-18.45286c-5.1396,-6.83439 -7.06694,-4.10064 -7.70939,10.93503c-0.64245,25.28726 -21.84328,68.34394 -31.48002,64.92674c-9.63674,-3.4172 -6.42449,17.76942 3.21225,24.60382c8.99429,6.15095 2.5698,34.85541 -8.35184,34.85541c-5.1396,0 -7.70939,-7.51783 -6.42449,-20.50318c0.64245,-11.61847 -0.64245,-22.5535 -3.8547,-24.60382c-3.21225,-2.05032 -5.78205,-10.93503 -5.78205,-20.50318c0,-8.88471 -2.5698,-16.40254 -6.42449,-16.40254c-7.06694,0 -5.1396,23.92038 1.92735,31.43821c8.99429,9.56815 4.49715,34.85541 -8.35184,47.15732c-12.20654,11.61847 -12.84899,11.61847 -18.63103,-6.15095c-3.8547,-9.56815 -10.27919,-17.76942 -14.13389,-17.76942c-4.49715,0 -5.78205,-2.05032 -3.8547,-4.78408c2.5698,-2.05032 1.2849,-8.20127 -2.5698,-12.98535c-4.49715,-5.46751 -4.49715,-9.56815 0.64245,-12.98535c3.21225,-2.05032 6.42449,-3.4172 7.06694,-2.05032c0,1.36688 1.2849,7.51783 2.5698,14.35223c2.5698,14.35223 15.41879,32.12165 22.48573,32.12165c2.5698,0 4.49715,-7.51783 3.8547,-17.08598c0,-10.25159 -3.8547,-15.71911 -8.35184,-14.35223c-4.49715,2.05032 -6.42449,-0.68344 -3.8547,-6.83439c1.92735,-5.46751 1.2849,-9.56815 -1.92735,-8.88471c-11.56409,2.73376 -28.26778,-8.88471 -28.26778,-19.81974c0,-8.88471 -1.92735,-8.88471 -7.70939,-2.73376c-5.78205,6.15095 -6.42449,10.25159 -1.2849,13.66879c10.27919,6.83439 8.99429,48.52419 -1.2849,44.42356c-4.49715,-2.05032 -8.99429,-10.93503 -10.27919,-19.81974c-1.92735,-16.40254 -2.5698,-16.40254 -14.77634,-6.15095c-7.06694,6.15095 -8.99429,9.56815 -4.49715,6.83439c15.41879,-8.20127 7.06694,8.20127 -16.06124,31.43821c-12.84899,12.30191 -19.91593,17.08598 -14.77634,10.25159c7.06694,-9.56815 7.70939,-13.66879 1.92735,-15.71911c-4.49715,-1.36688 -5.78205,-7.51783 -3.8547,-12.98535c1.92735,-5.46751 0,-9.56815 -3.8547,-9.56815c-3.8547,0 -7.06694,3.4172 -7.06694,7.51783c0,3.4172 -2.5698,5.46751 -5.78205,3.4172c-7.70939,-5.46751 -21.84328,14.35223 -17.34614,22.5535c2.5698,4.10064 8.99429,4.78408 15.41879,2.73376c10.27919,-3.4172 10.27919,-3.4172 0,8.20127c-8.99429,10.25159 -12.84899,10.93503 -20.55838,3.4172c-13.49144,-10.93503 -13.49144,2.05032 -0.64245,16.40254c10.92164,10.93503 13.49144,28.02101 3.21225,21.18662c-3.8547,-2.05032 -8.99429,2.73376 -12.20654,11.61847c-7.70939,21.87006 -27.62533,39.63948 -30.83758,28.02101c-1.92735,-4.78408 -5.78205,-8.88471 -9.63674,-8.88471c-4.49715,0 -3.8547,3.4172 0.64245,9.56815c5.78205,6.83439 4.49715,12.98535 -5.1396,25.28726l-12.84899,16.40254l3.21225,-20.50318c2.5698,-16.40254 -3.21225,-39.63948 -14.77634,-57.40891c-1.2849,-2.05032 -6.42449,2.73376 -11.56409,10.25159c-8.99429,12.98535 -9.63674,12.30191 -13.49144,-2.05032c-1.92735,-8.88471 -6.42449,-13.66879 -10.27919,-11.61847c-3.21225,2.05032 -3.8547,10.25159 -1.2849,17.76942c2.5698,8.88471 1.2849,12.30191 -2.5698,9.56815c-3.8547,-2.05032 -7.70939,-0.68344 -8.99429,4.10064c-3.8547,10.93503 -31.48002,14.35223 -28.91023,3.4172c0.64245,-4.78408 -3.8547,-7.51783 -10.92164,-6.15095c-8.35184,2.05032 -10.92164,-0.68344 -8.35184,-8.20127c2.5698,-7.51783 -0.64245,-9.56815 -12.84899,-8.88471c-11.56409,1.36688 -19.91593,8.88471 -28.26778,25.28726c-7.06694,12.98535 -12.20654,27.33757 -12.20654,32.12165c0,10.25159 -10.27919,11.61847 -16.06124,2.73376c-1.92735,-4.10064 1.92735,-9.56815 7.70939,-13.66879c10.92164,-6.83439 10.92164,-6.83439 0.64245,-7.51783c-6.42449,0 -17.34614,6.15095 -23.77063,12.98535c-7.06694,7.51783 -14.13389,11.61847 -16.06124,9.56815c-1.92735,-2.05032 1.2849,-8.20127 7.06694,-12.30191c8.35184,-6.83439 9.63674,-12.98535 4.49715,-30.75477c-3.21225,-12.98535 -9.63674,-23.92038 -14.13389,-25.9707c-4.49715,-1.36688 -7.06694,0 -6.42449,3.4172c1.2849,2.73376 -3.21225,12.98535 -9.63674,22.5535c-7.70939,12.30191 -10.92164,13.66879 -10.92164,5.46751c0,-6.15095 3.8547,-12.30191 8.35184,-14.35223c3.8547,-1.36688 5.78205,-4.78408 3.21225,-7.51783c-1.92735,-2.73376 -10.27919,-1.36688 -18.63103,2.73376c-11.56409,6.83439 -13.49144,6.83439 -10.92164,-1.36688c1.92735,-5.46751 0,-15.03567 -5.1396,-22.5535c-5.1396,-6.83439 -8.99429,-9.56815 -8.99429,-6.15095c0,4.10064 3.8547,10.93503 8.35184,15.71911c6.42449,7.51783 5.1396,8.20127 -7.06694,4.10064c-12.20654,-3.4172 -15.41879,-1.36688 -21.20083,16.40254c-3.8547,11.61847 -9.63674,19.81974 -12.20654,17.76942c-2.5698,-2.05032 -7.06694,2.05032 -9.63674,8.88471c-3.8547,10.93503 -4.49715,10.93503 -10.27919,0c-8.35184,-15.03567 -18.63103,-15.71911 -18.63103,-1.36688c0,9.56815 -1.2849,9.56815 -10.27919,2.05032c-15.41879,-13.66879 -30.19513,-11.61847 -38.54697,4.10064c-8.35184,16.40254 -4.49715,25.9707 8.35184,21.18662c5.1396,-2.05032 7.70939,-1.36688 6.42449,1.36688c-1.2849,2.73376 -4.49715,10.25159 -6.42449,17.08598c-3.8547,11.61847 -6.42449,10.25159 -20.55838,-7.51783c-8.99429,-11.61847 -16.06124,-23.92038 -16.06124,-27.33757c0,-4.10064 -3.8547,-9.56815 -7.70939,-12.30191c-4.49715,-2.73376 -6.42449,-2.73376 -3.8547,0c4.49715,5.46751 -33.40737,49.20763 -41.11677,46.47388c-2.5698,-0.68344 -5.1396,4.78408 -5.1396,12.30191c0,13.66879 -2.5698,13.66879 -690.63319,13.66879c-409.24032,-0.68344 -689.34829,-3.4172 -687.42094,-6.83439zm706.69443,-882.3202c-1.92735,-10.25159 1.2849,-15.71911 10.27919,-17.76942c11.56409,-3.4172 12.20654,-4.10064 1.2849,-13.66879c-10.92164,-8.88471 -10.92164,-8.88471 2.5698,-7.51783c7.70939,1.36688 14.13389,0 14.77634,-2.73376c0.64245,-17.76942 -1.2849,-19.81974 -12.84899,-15.71911c-14.13389,4.78408 -17.98859,-6.83439 -4.49715,-12.98535c5.78205,-3.4172 5.78205,-4.78408 -0.64245,-8.20127c-3.8547,-2.05032 -5.78205,-6.83439 -3.8547,-10.25159c1.92735,-4.10064 0,-10.93503 -3.8547,-16.40254c-7.70939,-10.25159 -4.49715,-32.12165 4.49715,-29.38789c8.35184,2.05032 34.04982,-8.88471 34.04982,-15.03567c0,-2.73376 -6.42449,-6.83439 -14.13389,-9.56815c-12.20654,-3.4172 -13.49144,-5.46751 -5.1396,-10.93503c8.35184,-5.46751 7.70939,-6.83439 -1.92735,-6.83439c-6.42449,0 -9.63674,-2.73376 -7.70939,-6.83439c1.92735,-3.4172 0.64245,-7.51783 -2.5698,-7.51783c-16.70369,-2.05032 -19.27348,-2.73376 -23.12818,-6.83439c-1.92735,-2.73376 6.42449,-6.83439 19.27348,-8.88471c12.20654,-2.73376 21.20083,-7.51783 19.27348,-11.61847c-2.5698,-3.4172 0.64245,-6.15095 5.78205,-6.15095c12.20654,0 12.84899,-3.4172 3.8547,-21.18662c-3.8547,-6.83439 -10.92164,-12.98535 -16.06124,-12.98535c-5.1396,0 -9.63674,-4.10064 -9.63674,-9.56815c0,-12.98535 -11.56409,-16.40254 -39.83187,-12.30191c-14.77634,1.36688 -24.41308,6.83439 -24.41308,12.30191c0,4.78408 -2.5698,10.25159 -5.78205,12.30191c-3.21225,2.73376 -4.49715,-1.36688 -2.5698,-8.88471c3.21225,-12.98535 -7.70939,-17.08598 -62.3176,-25.9707l-22.48573,-3.4172l14.77634,15.03567c16.06124,16.40254 14.77634,28.02101 -1.92735,13.66879c-6.42449,-5.46751 -9.63674,-6.15095 -9.63674,-0.68344c0,4.10064 3.21225,7.51783 6.42449,7.51783c3.8547,0 6.42449,6.15095 6.42449,13.66879c0,19.1363 -16.70369,17.08598 -40.47432,-4.10064l-20.55838,-18.45286l-5.78205,21.87006c-3.21225,11.61847 -7.70939,21.18662 -10.27919,21.18662c-5.78205,0 1.92735,48.52419 9.63674,61.50954c2.5698,4.78408 5.1396,17.76942 4.49715,28.70445c0,15.03567 1.2849,18.45286 7.06694,13.66879c5.1396,-4.78408 10.92164,-2.05032 19.27348,8.88471c10.27919,15.71911 10.27919,16.40254 0,23.92038c-10.92164,7.51783 -10.92164,7.51783 0,4.10064c5.78205,-2.05032 10.92164,0 10.92164,4.10064c0,4.78408 3.21225,4.10064 9.63674,-1.36688c5.78205,-4.78408 11.56409,-6.83439 14.13389,-4.10064c1.92735,2.05032 0.64245,4.10064 -3.8547,4.10064c-4.49715,0 3.21225,10.93503 16.70369,23.92038c13.49144,12.98535 25.69798,20.50318 26.34043,17.08598c3.8547,-10.93503 10.92164,-8.20127 30.83758,10.25159c29.55268,27.33757 34.04982,30.75477 41.11677,30.75477c3.21225,0 6.42449,3.4172 6.42449,6.83439c0,4.10064 3.8547,6.83439 8.99429,6.83439c6.42449,0 8.35184,-5.46751 7.06694,-14.35223zm1647.88292,-211.18276l0,-68.34394l-70.66944,0l-70.66944,0l0,-293.87892l0,-293.87892l-64.24495,0l-64.24495,0l0,293.87892l0,293.87892l-67.4572,0l-67.4572,0l0,68.34394l0,68.34394l202.37159,0l202.37159,0l0,-68.34394zm231.28181,-75.17833l0,-143.52226l70.66944,0l70.66944,0l0,143.52226l0,143.52226l64.24495,0l64.24495,0l0,-362.22286l0,-362.22286l-64.24495,0l-64.24495,0l0,146.93946l0,146.93946l-70.66944,0l-70.66944,0l-1.2849,-144.88914l-1.92735,-145.57258l-64.24495,0l-64.24495,0l-1.92735,360.85598l-1.2849,360.17254l67.4572,0l67.4572,0l0,-143.52226zm777.36387,75.17833l0,-68.34394l-138.12664,0l-138.12664,0l0,-75.17833l0,-75.17833l73.88169,0l73.88169,0l0,-71.76113l0,-71.76113l-73.88169,0l-73.88169,0l0,-75.17833l0,-75.17833l138.12664,0l138.12664,0l0,-71.76113l0,-71.76113l-202.37159,0l-202.37159,0l0,362.22286l0,362.22286l202.37159,0l202.37159,0l0,-68.34394zm-2640.46737,-157.87449c0,-3.4172 -5.1396,-6.15095 -10.92164,-6.83439c-7.06694,0 -8.35184,-2.05032 -3.21225,-4.10064c3.8547,-1.36688 7.70939,-10.93503 7.70939,-19.81974c0,-8.88471 2.5698,-16.40254 6.42449,-16.40254c3.21225,0 4.49715,-4.78408 2.5698,-10.25159c-2.5698,-5.46751 -0.64245,-10.25159 3.21225,-10.25159c3.8547,0 7.06694,-4.78408 7.06694,-10.93503c0,-8.88471 -3.8547,-10.25159 -17.34614,-6.83439c-10.27919,2.73376 -22.48573,5.46751 -27.62533,6.15095c-10.92164,2.05032 -60.39025,34.85541 -82.23353,55.35859c-8.35184,8.20127 -16.06124,13.66879 -17.98859,12.98535c-1.2849,-1.36688 -1.92735,0 -0.64245,3.4172c0.64245,2.73376 2.5698,4.10064 4.49715,3.4172c1.92735,-0.68344 8.99429,-2.73376 16.06124,-5.46751c12.20654,-4.10064 12.20654,-4.10064 0.64245,3.4172c-8.99429,6.83439 -10.27919,9.56815 -3.21225,13.66879c4.49715,3.4172 12.84899,3.4172 17.98859,0.68344c5.78205,-3.4172 21.84328,-7.51783 35.97717,-9.56815l25.69798,-3.4172l-19.27348,8.88471c-10.27919,5.46751 -22.48573,9.56815 -26.98288,10.25159c-3.8547,0 -8.99429,2.05032 -10.92164,5.46751c-1.2849,2.73376 7.06694,4.78408 18.63103,4.10064c16.06124,-0.68344 20.55838,1.36688 17.98859,8.20127c-1.92735,6.15095 7.70939,2.73376 26.34043,-8.20127c16.06124,-9.56815 29.55268,-20.50318 29.55268,-23.92038zm1511.04118,-691.64062c44.97146,-23.23694 89.94293,-75.17833 104.07682,-118.91845c15.41879,-48.52419 13.49144,-120.96877 -5.1396,-162.65857c-8.35184,-18.45286 -19.91593,-40.32292 -25.05553,-47.84075c-8.35184,-11.61847 -8.35184,-15.03567 6.42449,-35.53885c24.41308,-33.48853 33.40737,-68.34394 34.04982,-125.75284c0,-44.42356 -2.5698,-57.40891 -19.27348,-93.63119c-21.20083,-44.42356 -48.82616,-74.49489 -91.87028,-98.41527c-25.05553,-14.35223 -36.61962,-15.71911 -156.75767,-17.76942l-130.41724,-2.05032l0,362.9063l0,363.58974l123.99275,-2.73376c119.4956,-2.05032 125.27765,-2.73376 159.96992,-21.18662zm477.98241,2.73376c41.11677,-19.1363 87.37313,-69.02737 106.00416,-113.45093c10.92164,-25.28726 14.13389,-47.15732 14.77634,-86.11336c0,-64.2433 -21.20083,-114.81781 -64.24495,-155.14073c-15.41879,-15.03567 -28.26778,-30.07133 -28.26778,-33.48853c0,-3.4172 26.34043,-74.49489 57.82045,-157.87449c32.12247,-83.3796 57.82045,-153.77385 57.82045,-155.82417c0,-1.36688 -29.55268,-2.05032 -64.8874,-1.36688l-65.52985,2.05032l-54.60821,145.57258l-55.25066,144.88914l-27.62533,0l-27.62533,0l0,-146.93946l0,-146.93946l-64.24495,0l-64.24495,0l0,362.9063l0,362.9063l123.99275,-2.73376c109.85886,-2.73376 126.56255,-4.78408 156.11522,-18.45286zm625.74579,-51.94139l0,-71.76113l-138.12664,0l-138.12664,0l0,-75.17833l0,-75.17833l73.88169,0l73.88169,0l0,-71.76113l0,-71.76113l-73.88169,0l-73.88169,0l0,-75.17833l0,-75.17833l138.12664,0l138.12664,0l0,-68.34394l0,-68.34394l-202.37159,0l-202.37159,0l0,362.22286l0,362.22286l202.37159,0l202.37159,0l0,-71.76113zm438.15055,-273.37574c44.97146,-187.94582 83.51843,-349.92095 86.08823,-360.17254l3.8547,-19.1363l-64.8874,0l-64.24495,0l-7.70939,29.38789c-3.8547,15.71911 -12.20654,48.52419 -17.98859,73.12801l-10.92164,44.42356l-71.31189,2.05032l-71.31189,2.05032l-17.34614,-75.86177l-17.34614,-75.17833l-66.1723,0l-65.52985,0l63.6025,265.17447c34.69227,145.57258 73.88169,308.23115 86.73068,362.22286l23.12818,97.73183l64.24495,-2.05032l64.8874,-2.05032l82.23353,-341.71968zm442.00524,273.37574l0,-71.76113l-67.4572,0l-67.4572,0l0,-290.46172l0,-290.46172l-64.24495,0l-64.24495,0l0,290.46172l0,290.46172l-70.66944,0l-70.66944,0l0,71.76113l0,71.76113l202.37159,0l202.37159,0l0,-71.76113zm231.28181,-78.59553l0,-143.52226l73.88169,0l73.88169,0l0,143.52226l0,143.52226l64.24495,0l64.24495,0l0,-358.80566l0,-358.80566l-64.24495,0l-64.24495,0l0,143.52226l0,143.52226l-73.88169,0l-73.88169,0l0,-143.52226l0,-143.52226l-64.24495,0l-64.24495,0l0,358.80566l0,358.80566l64.24495,0l64.24495,0l0,-143.52226zm782.50347,77.22865l-1.92735,-66.97706l-136.19929,-2.05032l-136.84174,-1.36688l0,-75.17833l0,-75.17833l70.66944,0l70.66944,0l0,-71.76113l0,-71.76113l-70.66944,0l-70.66944,0l0,-75.17833l0,-75.17833l134.91439,0l134.91439,0l0,-68.34394l0,-68.34394l-199.15934,0l-199.15934,0l0,358.80566l0,358.80566l202.37159,0l203.01404,0l-1.92735,-66.29362zm-4981.55328,-132.58723c8.99429,-7.51783 16.70369,-16.40254 16.70369,-19.81974c0,-3.4172 -21.20083,-12.98535 -46.25636,-20.50318c-25.69798,-8.20127 -56.53555,-19.1363 -68.09964,-24.60382c-21.84328,-10.25159 -81.59108,-6.83439 -88.01558,4.78408c-4.49715,7.51783 15.41879,59.45922 24.41308,62.87642c8.99429,3.4172 59.7478,-4.78408 76.45149,-11.61847c7.06694,-3.4172 11.56409,-0.68344 14.77634,8.88471c5.78205,19.81974 46.25636,19.81974 70.02699,0zm2037.2073,-1046.34565c46.25636,-192.04646 84.16088,-355.38846 85.44578,-362.22286c1.92735,-10.93503 -3.21225,-12.30191 -62.3176,-12.30191l-64.24495,0l-5.78205,23.23694c-3.8547,12.30191 -11.56409,46.47388 -17.98859,75.17833l-11.56409,51.94139l-71.31189,0l-71.95434,0l-18.63103,-75.17833l-18.63103,-75.17833l-64.8874,0l-65.52985,0l73.23924,306.18083c40.47432,168.12608 79.66374,330.78465 86.73068,362.22286l13.49144,56.04203l65.52985,0l64.8874,0l83.51843,-349.92095zm516.52938,339.66936c92.51273,-23.23694 179.88585,-97.73183 221.64507,-189.99614c12.84899,-26.65413 25.05553,-59.45922 26.98288,-71.07769l4.49715,-22.5535l-67.4572,0l-66.81475,0l-7.70939,23.23694c-12.84899,36.90573 -61.67515,90.21399 -102.79192,111.40061c-48.82616,25.28726 -122.0654,26.65413 -173.46136,2.73376c-43.04412,-20.50318 -98.93722,-83.3796 -113.07111,-127.80316c-13.49144,-41.6898 -12.84899,-114.13437 0.64245,-157.19105c14.77634,-47.15732 77.09394,-112.76749 122.0654,-128.4866c51.39596,-18.45286 116.28336,-15.71911 161.25482,6.15095c41.75922,20.50318 93.15517,73.81145 105.36171,110.03374l7.70939,23.23694l66.81475,0l67.4572,0l-4.49715,-21.87006c-12.84899,-69.71081 -83.51843,-170.85984 -150.97563,-216.65027c-129.7748,-88.84712 -303.8786,-66.97706 -418.23461,53.30827c-134.91439,142.15539 -135.55684,363.58974 -0.64245,507.112c86.73068,92.26431 202.37159,127.80316 321.22474,98.41527zm720.18587,-58.09234l0,-68.34394l-67.4572,0l-67.4572,0l0,-169.49296c0,-93.63119 -1.92735,-226.21843 -4.49715,-293.87892l-3.8547,-124.38596l-63.6025,0l-62.96005,0l0,293.87892l0,293.87892l-67.4572,0l-67.4572,0l0,68.34394l0,68.34394l202.37159,0l202.37159,0l0,-68.34394z"/>
    <path fill="#3861bc" stroke="url(#gradbox_stroke)" d="m585.15742,5192.00631c-1.92735,-19.81974 -2.5698,-53.30827 -1.2849,-73.81145c1.2849,-20.50318 3.8547,-129.85348 5.78205,-242.62097c1.92735,-112.76749 5.1396,-265.17447 6.42449,-338.30248c1.92735,-73.12801 4.49715,-222.11779 6.42449,-331.46809c4.49715,-302.08019 9.63674,-509.84576 12.84899,-536.49989c1.92735,-12.98535 7.06694,-26.65413 11.56409,-30.75477c5.1396,-3.4172 7.70939,-10.93503 5.78205,-16.40254c-1.2849,-4.78408 3.21225,-2.73376 10.92164,5.46751c7.06694,7.51783 13.49144,17.08598 13.49144,20.50318c0,3.4172 5.78205,7.51783 13.49144,9.56815c12.84899,3.4172 12.84899,3.4172 1.92735,-9.56815c-5.78205,-6.83439 -9.63674,-14.35223 -8.35184,-15.71911c1.2849,-0.68344 8.35184,-6.15095 15.41879,-10.25159c9.63674,-6.15095 10.27919,-7.51783 1.92735,-4.78408c-13.49144,4.10064 -14.77634,-2.73376 -3.21225,-15.71911c6.42449,-7.51783 5.1396,-8.20127 -7.70939,-4.10064l-15.41879,4.78408l12.20654,-17.08598c9.63674,-13.66879 14.13389,-15.71911 21.20083,-9.56815c7.70939,6.83439 7.70939,6.15095 1.92735,-6.83439c-10.92164,-21.87006 2.5698,-27.33757 17.98859,-7.51783l12.84899,15.71911l-8.35184,-18.45286c-3.8547,-10.93503 -10.27919,-19.1363 -12.84899,-19.1363c-3.21225,0 -3.8547,-6.15095 -1.2849,-12.98535c1.92735,-7.51783 0,-19.81974 -4.49715,-28.02101c-7.06694,-11.61847 -7.06694,-15.03567 0,-19.81974c7.06694,-4.78408 7.06694,-6.15095 -1.2849,-9.56815c-10.92164,-4.78408 -12.20654,-0.68344 -10.27919,34.85541c0.64245,15.03567 -3.21225,26.65413 -10.92164,33.48853c-6.42449,5.46751 -7.70939,8.20127 -3.21225,5.46751c12.84899,-6.83439 8.99429,8.20127 -7.70939,27.33757c-9.63674,10.93503 -17.34614,15.03567 -19.91593,10.25159c-1.92735,-3.4172 0.64245,-8.88471 5.78205,-10.93503c12.20654,-4.78408 13.49144,-23.92038 2.5698,-36.22229c-7.06694,-8.20127 -6.42449,-8.88471 3.8547,-4.78408c9.63674,3.4172 10.92164,1.36688 8.35184,-9.56815c-1.92735,-7.51783 -0.64245,-13.66879 3.21225,-13.66879c3.21225,0 3.8547,-3.4172 1.92735,-7.51783c-3.21225,-4.78408 -8.99429,-2.73376 -16.70369,4.78408c-10.27919,10.25159 -12.20654,10.25159 -12.20654,1.36688c0,-6.15095 -3.8547,-14.35223 -8.99429,-18.45286c-6.42449,-6.15095 -8.35184,-28.70445 -7.70939,-94.99807c0,-47.84075 3.21225,-90.89743 6.42449,-96.36495c3.8547,-6.15095 3.21225,-8.20127 -1.2849,-5.46751c-3.8547,3.4172 -5.1396,0 -3.21225,-8.88471c1.92735,-7.51783 7.70939,-13.66879 12.84899,-13.66879c5.1396,0 7.70939,2.73376 5.78205,6.15095c-1.92735,3.4172 0.64245,9.56815 5.78205,14.35223c5.1396,4.78408 9.63674,6.15095 9.63674,2.73376c0,-3.4172 3.8547,2.05032 8.99429,11.61847c10.27919,21.87006 10.27919,69.02737 -0.64245,73.12801c-5.78205,1.36688 -8.35184,-5.46751 -8.35184,-23.23694c0,-19.1363 -1.92735,-23.92038 -7.06694,-18.45286c-3.8547,4.10064 -7.06694,16.40254 -7.06694,27.33757c0,10.25159 -3.21225,25.28726 -7.06694,32.80509c-5.78205,12.30191 -5.78205,12.98535 4.49715,3.4172c16.70369,-14.35223 38.54697,-16.40254 33.40737,-3.4172c-2.5698,7.51783 0,10.25159 7.06694,8.88471c6.42449,-1.36688 12.20654,3.4172 13.49144,10.25159c1.92735,10.93503 -8.99429,15.71911 -26.98288,12.30191c-3.21225,-0.68344 -3.8547,3.4172 -1.2849,9.56815c1.92735,6.15095 3.8547,12.98535 3.8547,14.35223c0,1.36688 4.49715,2.73376 10.27919,2.73376c5.1396,0 8.35184,-2.73376 5.78205,-6.15095c-1.92735,-3.4172 1.92735,-8.20127 8.99429,-10.93503c14.13389,-4.78408 20.55838,-24.60382 12.20654,-40.32292c-3.8547,-6.83439 -3.21225,-10.93503 1.2849,-10.93503c3.21225,0 6.42449,4.10064 6.42449,8.88471c0,4.78408 5.78205,12.30191 12.84899,17.08598c7.06694,4.78408 12.84899,12.98535 12.84899,18.45286c0,12.30191 7.70939,12.98535 17.98859,2.05032c5.78205,-6.15095 7.70939,-6.15095 7.70939,0c0,4.78408 -2.5698,8.20127 -6.42449,8.20127c-3.21225,0 -6.42449,3.4172 -6.42449,7.51783c0,3.4172 3.21225,4.78408 7.70939,2.05032c3.8547,-2.73376 2.5698,2.05032 -3.21225,11.61847c-12.84899,19.1363 -14.13389,31.43821 -2.5698,20.50318c5.1396,-4.10064 10.92164,-5.46751 12.84899,-2.73376c2.5698,2.05032 4.49715,-5.46751 4.49715,-18.45286c0,-19.1363 1.2849,-21.18662 9.63674,-13.66879c10.92164,9.56815 10.92164,56.04203 0,53.30827c-3.8547,-1.36688 -5.78205,-4.78408 -4.49715,-7.51783c0.64245,-3.4172 -1.2849,-4.10064 -5.1396,-1.36688c-7.70939,5.46751 -8.35184,23.92038 -0.64245,23.92038c3.21225,0 4.49715,6.83439 1.92735,15.03567c-1.92735,8.20127 -4.49715,11.61847 -5.78205,7.51783c-1.92735,-4.78408 -6.42449,-6.83439 -11.56409,-4.78408c-4.49715,2.05032 -10.27919,-2.05032 -12.20654,-8.88471c-2.5698,-6.83439 -10.92164,-17.76942 -19.27348,-23.92038c-14.77634,-10.93503 -14.77634,-10.93503 -12.84899,5.46751c0.64245,9.56815 6.42449,21.18662 12.84899,25.9707c6.42449,5.46751 9.63674,13.66879 7.06694,19.81974c-1.92735,6.15095 0,15.71911 5.1396,21.18662c5.1396,4.78408 7.06694,11.61847 4.49715,14.35223c-2.5698,2.73376 0,3.4172 5.1396,2.05032c5.1396,-2.05032 8.99429,-7.51783 7.70939,-12.30191c-1.92735,-7.51783 0,-7.51783 7.70939,-0.68344c6.42449,6.15095 8.35184,15.03567 5.78205,28.70445c-4.49715,24.60382 2.5698,25.28726 21.84328,2.05032c10.27919,-12.98535 17.98859,-16.40254 26.98288,-12.98535c19.27348,6.15095 16.70369,19.1363 -2.5698,14.35223c-16.06124,-4.10064 -18.63103,0 -17.98859,28.02101c0,4.10064 -3.21225,6.15095 -7.70939,4.78408c-4.49715,-2.05032 -9.63674,1.36688 -11.56409,6.83439c-2.5698,6.15095 -7.06694,10.93503 -11.56409,10.93503c-3.8547,0 -5.78205,-4.78408 -3.21225,-10.25159c1.92735,-5.46751 0.64245,-10.25159 -2.5698,-10.25159c-8.99429,0 -14.13389,12.30191 -7.06694,17.08598c3.21225,2.05032 6.42449,8.88471 6.42449,15.71911c1.92735,32.80509 3.8547,42.37324 11.56409,42.37324c10.92164,0 7.70939,28.02101 -5.78205,49.20763c-6.42449,9.56815 -11.56409,23.23694 -11.56409,30.75477c0,9.56815 -1.2849,10.25159 -5.78205,2.73376c-7.70939,-12.98535 -1.2849,-33.48853 14.13389,-45.107c7.70939,-5.46751 10.27919,-10.25159 5.78205,-10.25159c-3.8547,0 -8.99429,-7.51783 -11.56409,-17.08598c-4.49715,-20.50318 -11.56409,-21.18662 -28.26778,-3.4172c-14.13389,15.03567 -17.34614,45.107 -5.78205,49.20763c3.8547,1.36688 7.70939,15.03567 8.99429,29.38789c0.64245,15.03567 3.21225,37.58916 6.42449,50.57451c3.21225,17.76942 2.5698,21.87006 -3.8547,19.81974c-5.1396,-2.05032 -8.99429,-9.56815 -8.99429,-17.76942c0,-7.51783 -2.5698,-16.40254 -5.1396,-19.1363c-11.56409,-12.30191 -3.21225,40.32292 8.35184,53.30827c7.06694,8.20127 12.84899,19.81974 12.84899,25.28726c0,7.51783 -2.5698,6.83439 -10.27919,-3.4172c-5.1396,-6.83439 -8.35184,-9.56815 -6.42449,-5.46751c1.92735,4.78408 5.1396,19.1363 7.06694,32.80509c1.92735,17.76942 0.64245,23.92038 -4.49715,20.50318c-4.49715,-2.73376 -17.34614,-5.46751 -28.91023,-6.15095c-17.98859,-0.68344 -21.20083,2.05032 -25.05553,19.1363c-1.92735,10.93503 -1.92735,21.18662 0,23.23694c1.92735,2.73376 3.8547,-0.68344 3.8547,-6.15095c0,-6.15095 4.49715,-14.35223 9.63674,-19.1363c7.70939,-6.83439 9.63674,-6.83439 9.63674,0.68344c0,5.46751 3.8547,3.4172 9.63674,-4.78408c5.1396,-7.51783 9.63674,-9.56815 9.63674,-4.10064c0,4.10064 4.49715,8.20127 9.63674,8.20127c5.1396,0 9.63674,6.15095 9.63674,13.66879c0,15.03567 9.63674,18.45286 14.77634,5.46751c2.5698,-6.15095 3.8547,-5.46751 3.8547,1.36688c0.64245,5.46751 -5.1396,14.35223 -12.20654,19.1363c-15.41879,9.56815 -16.70369,21.87006 -3.21225,21.87006c5.1396,0 9.63674,2.05032 9.63674,5.46751c0,9.56815 -23.12818,26.65413 -34.04982,24.60382c-5.78205,-0.68344 -10.92164,2.73376 -10.92164,8.20127c0,5.46751 4.49715,9.56815 10.27919,9.56815c6.42449,0 8.99429,4.10064 7.06694,9.56815c-2.5698,6.83439 -0.64245,8.88471 4.49715,6.83439c6.42449,-2.73376 7.70939,1.36688 5.1396,15.03567c-1.92735,12.30191 -0.64245,17.08598 3.8547,13.66879c3.8547,-2.73376 5.1396,-9.56815 3.21225,-15.71911c-2.5698,-7.51783 -1.2849,-9.56815 5.1396,-7.51783c5.1396,2.05032 7.70939,8.20127 6.42449,12.98535c-1.2849,5.46751 -3.8547,18.45286 -5.78205,28.70445c-1.2849,10.93503 -7.06694,21.18662 -11.56409,23.23694c-5.1396,2.05032 -8.99429,9.56815 -8.99429,16.40254c0,6.83439 -3.21225,12.98535 -7.06694,12.98535c-4.49715,0 -5.78205,-6.83439 -3.21225,-16.40254c1.92735,-9.56815 1.2849,-19.1363 -2.5698,-21.18662c-6.42449,-4.10064 -9.63674,14.35223 -7.06694,43.05668c0.64245,10.25159 -1.2849,14.35223 -5.78205,11.61847c-3.8547,-2.05032 -5.1396,-7.51783 -3.21225,-10.93503c2.5698,-3.4172 0.64245,-6.15095 -2.5698,-6.15095c-12.84899,0 -7.70939,32.80509 5.78205,37.58916c16.70369,5.46751 16.70369,19.81974 0,15.03567c-15.41879,-4.10064 -23.77063,6.83439 -13.49144,17.76942c10.92164,11.61847 8.35184,19.81974 -4.49715,15.71911c-7.70939,-2.73376 -12.20654,-0.68344 -12.20654,5.46751c0,5.46751 5.78205,8.88471 14.77634,7.51783c8.99429,-0.68344 13.49144,1.36688 11.56409,6.83439c-2.5698,6.15095 1.92735,7.51783 12.84899,5.46751c8.99429,-2.05032 16.70369,-0.68344 16.70369,3.4172c0,3.4172 -10.27919,6.15095 -23.12818,5.46751c-22.48573,-0.68344 -22.48573,-0.68344 -8.99429,10.93503c14.13389,12.30191 12.20654,25.9707 -3.8547,25.9707c-5.1396,0 -8.99429,6.83439 -8.99429,15.71911c0,8.88471 -3.8547,19.81974 -7.70939,24.60382c-7.06694,6.83439 -5.78205,7.51783 3.8547,3.4172c9.63674,-4.10064 10.92164,-2.73376 7.06694,9.56815c-2.5698,8.88471 -1.2849,15.03567 2.5698,15.03567c3.8547,0 7.06694,-12.30191 7.06694,-26.65413c0,-28.70445 12.84899,-41.00636 25.69798,-24.60382c3.8547,5.46751 11.56409,7.51783 16.70369,5.46751c5.1396,-2.05032 8.99429,0.68344 8.99429,6.83439c0,6.15095 3.21225,12.98535 7.70939,15.71911c5.1396,3.4172 5.78205,1.36688 3.21225,-6.15095c-1.92735,-6.83439 -1.2849,-11.61847 1.92735,-11.61847c3.8547,0 6.42449,6.15095 6.42449,13.66879c0,7.51783 -2.5698,13.66879 -6.42449,13.66879c-3.21225,0 -4.49715,4.10064 -2.5698,9.56815c4.49715,12.98535 -10.27919,21.87006 -17.34614,10.25159c-7.70939,-13.66879 -7.06694,-21.18662 1.2849,-15.71911c4.49715,2.73376 6.42449,0.68344 4.49715,-4.78408c-1.2849,-5.46751 -11.56409,-10.25159 -21.84328,-11.61847c-16.70369,-1.36688 -17.34614,-0.68344 -7.70939,7.51783c6.42449,5.46751 9.63674,11.61847 7.06694,13.66879c-1.92735,2.73376 -0.64245,4.78408 3.21225,4.78408c3.8547,0 5.78205,4.78408 3.21225,10.25159c-1.92735,6.83439 -0.64245,10.25159 5.1396,8.88471c10.92164,-2.73376 28.26778,34.85541 19.91593,43.74012c-3.8547,4.10064 -7.70939,-2.05032 -10.27919,-16.40254c-3.21225,-17.76942 -5.78205,-20.50318 -10.27919,-12.30191c-7.70939,12.98535 -8.35184,38.95604 -0.64245,44.42356c3.8547,2.05032 3.8547,12.30191 0,25.9707c-8.35184,32.12165 -7.70939,45.79044 3.8547,41.6898c11.56409,-4.78408 12.84899,-20.50318 1.92735,-25.28726c-6.42449,-2.73376 -6.42449,-4.10064 0,-4.10064c4.49715,-0.68344 10.92164,6.83439 14.13389,16.40254c3.21225,9.56815 8.99429,17.08598 12.20654,17.08598c9.63674,0 13.49144,19.81974 7.06694,37.58916c-3.21225,9.56815 -8.99429,17.08598 -12.84899,17.08598c-8.99429,0 -8.35184,-22.5535 1.2849,-32.80509c5.78205,-6.15095 5.78205,-10.25159 0,-16.40254c-7.70939,-8.20127 -7.70939,-8.20127 -17.34614,25.28726c-1.2849,5.46751 -5.78205,10.25159 -9.63674,10.25159c-4.49715,0 -5.78205,-5.46751 -3.21225,-13.66879c3.21225,-10.93503 1.92735,-12.98535 -6.42449,-9.56815c-7.70939,3.4172 -9.63674,9.56815 -6.42449,22.5535c2.5698,9.56815 4.49715,25.28726 4.49715,34.85541c0,16.40254 0,16.40254 8.99429,3.4172c8.35184,-12.30191 8.99429,-12.30191 8.99429,4.78408c0,23.23694 -16.06124,38.2726 -22.48573,21.18662c-3.8547,-10.93503 -5.1396,-10.25159 -10.27919,4.10064c-4.49715,12.30191 -3.8547,18.45286 1.92735,22.5535c6.42449,4.10064 5.78205,5.46751 -1.92735,5.46751c-10.92164,0 -21.84328,19.1363 -15.41879,25.9707c1.2849,2.05032 4.49715,-2.05032 7.06694,-8.20127c8.35184,-22.5535 18.63103,-10.25159 19.91593,23.92038c1.2849,26.65413 -0.64245,33.48853 -6.42449,28.02101c-10.92164,-8.88471 -26.34043,-0.68344 -28.91023,15.71911c-1.2849,13.66879 -1.2849,13.66879 8.35184,0.68344c12.20654,-17.08598 14.13389,-14.35223 18.63103,30.07133c3.21225,32.80509 2.5698,36.22229 -5.1396,25.28726c-12.84899,-17.76942 -16.70369,-5.46751 -6.42449,22.5535c4.49715,12.98535 8.35184,19.81974 8.35184,15.03567c0.64245,-6.83439 2.5698,-6.83439 9.63674,0c6.42449,6.15095 7.06694,11.61847 2.5698,17.76942c-5.1396,6.15095 -4.49715,7.51783 3.21225,4.10064c8.99429,-3.4172 10.27919,2.73376 8.35184,49.89107c-1.2849,30.07133 0.64245,57.40891 4.49715,62.19298c3.21225,4.78408 4.49715,10.25159 1.92735,12.98535c-1.92735,2.73376 -7.70939,-1.36688 -12.84899,-8.20127c-7.70939,-11.61847 -8.99429,-10.25159 -12.84899,12.30191c-2.5698,15.71911 -8.99429,25.9707 -16.70369,28.70445c-7.06694,2.73376 -12.84899,7.51783 -12.84899,12.30191c0,4.10064 -3.8547,1.36688 -8.99429,-5.46751c-8.35184,-12.30191 -8.99429,-11.61847 -13.49144,8.88471c-1.92735,11.61847 -2.5698,24.60382 0,28.70445c1.92735,3.4172 1.2849,6.83439 -2.5698,6.83439c-3.21225,0 -7.70939,-4.10064 -8.99429,-8.20127c-3.21225,-8.20127 -7.06694,10.93503 -5.1396,23.92038c0,2.73376 -1.92735,4.78408 -5.1396,4.78408c-3.21225,0 -4.49715,6.15095 -2.5698,12.98535c1.92735,8.88471 -1.2849,14.35223 -10.27919,17.76942c-9.63674,2.73376 -13.49144,10.93503 -14.77634,32.12165c-2.5698,41.6898 -15.41879,40.32292 -19.27348,-2.73376z"/>
    <path fill="#3861bc" stroke="url(#gradbox_stroke)" d="m644.26278,3245.57104c0,-7.51783 -2.5698,-13.66879 -6.42449,-13.66879c-3.21225,0 -6.42449,3.4172 -6.42449,6.83439c0,4.10064 -2.5698,6.83439 -6.42449,6.83439c-3.8547,0 -6.42449,-23.92038 -5.78205,-59.45922c0.64245,-59.45922 8.99429,-166.7592 10.92164,-143.52226c0.64245,6.15095 3.8547,11.61847 7.06694,11.61847c3.21225,0 4.49715,-6.15095 2.5698,-13.66879c-1.92735,-7.51783 -5.78205,-13.66879 -8.35184,-13.66879c-8.99429,0 -5.78205,-224.85155 3.8547,-273.37574c5.78205,-31.43821 6.42449,-46.47388 1.2849,-52.62483c-8.35184,-10.93503 -1.2849,-127.11972 7.70939,-130.53692c8.99429,-3.4172 7.70939,-15.03567 -1.92735,-15.03567c-7.70939,0 -8.35184,-10.25159 -5.78205,-86.7968c0.64245,-16.40254 4.49715,-29.38789 8.35184,-29.38789c5.1396,0 6.42449,8.20127 3.8547,23.92038c-1.92735,12.98535 -0.64245,25.28726 2.5698,27.33757c3.21225,2.73376 5.78205,-2.05032 5.78205,-9.56815c0,-17.08598 11.56409,-25.28726 21.20083,-14.35223c5.78205,6.83439 5.78205,7.51783 -1.2849,3.4172c-7.06694,-4.78408 -8.35184,-2.73376 -3.8547,7.51783c2.5698,6.83439 6.42449,22.5535 8.35184,34.85541c1.92735,16.40254 -0.64245,23.23694 -10.92164,28.70445c-12.84899,7.51783 -12.84899,8.88471 -3.21225,24.60382c11.56409,19.1363 24.41308,23.23694 48.18371,16.40254c19.27348,-5.46751 39.83187,4.10064 26.98288,12.98535c-8.99429,6.15095 -7.06694,25.9707 3.8547,37.58916c6.42449,6.15095 7.06694,6.15095 3.8547,-2.73376c-2.5698,-6.83439 0,-10.93503 6.42449,-10.93503c5.1396,0 9.63674,2.73376 9.63674,6.15095c0,2.73376 4.49715,5.46751 9.63674,5.46751c5.1396,0 9.63674,-2.73376 9.63674,-6.83439c0,-3.4172 -2.5698,-6.83439 -6.42449,-6.83439c-3.21225,0 -6.42449,-4.78408 -6.42449,-10.25159c0,-12.30191 10.92164,-13.66879 14.77634,-1.36688c1.2849,4.10064 5.1396,6.15095 7.70939,3.4172c6.42449,-6.83439 -10.92164,-24.60382 -21.20083,-20.50318c-3.8547,1.36688 -7.70939,-0.68344 -7.70939,-4.78408c0,-4.10064 7.06694,-7.51783 15.41879,-7.51783c16.70369,0 27.62533,-10.25159 17.34614,-16.40254c-3.21225,-2.73376 -7.06694,0 -8.99429,4.10064c-1.2849,4.78408 -5.1396,6.83439 -7.70939,4.10064c-2.5698,-2.73376 -1.2849,-9.56815 3.21225,-15.71911c7.06694,-9.56815 8.99429,-8.88471 17.34614,1.36688c8.99429,11.61847 8.99429,11.61847 5.78205,0c-1.92735,-6.83439 -3.8547,-15.71911 -3.8547,-19.1363c0,-2.73376 -4.49715,-4.10064 -9.63674,-2.05032c-5.1396,2.73376 -9.63674,1.36688 -9.63674,-2.73376c0,-7.51783 19.27348,-14.35223 30.83758,-10.25159c3.8547,2.05032 5.78205,6.15095 3.8547,10.25159c-5.78205,10.25159 -7.06694,114.13437 -1.2849,110.71718c2.5698,-2.05032 5.1396,1.36688 5.1396,6.83439c0,6.15095 3.21225,10.93503 6.42449,10.93503c8.35184,0 8.35184,-8.20127 0,-30.07133c-4.49715,-12.98535 -3.8547,-19.81974 3.21225,-27.33757c5.78205,-5.46751 7.06694,-11.61847 3.8547,-13.66879c-3.21225,-2.05032 -4.49715,-10.25159 -2.5698,-17.76942c1.92735,-7.51783 0,-18.45286 -4.49715,-23.92038c-6.42449,-8.20127 -6.42449,-10.25159 1.92735,-10.25159c5.1396,0 10.92164,6.83439 12.84899,15.03567c3.21225,11.61847 5.78205,12.98535 13.49144,6.15095c7.70939,-6.83439 8.99429,-4.10064 8.35184,15.71911c0,13.66879 -1.92735,22.5535 -3.8547,21.18662c-1.2849,-2.05032 -6.42449,0 -11.56409,4.10064c-9.63674,8.88471 -11.56409,36.22229 -2.5698,30.07133c3.21225,-2.05032 7.70939,-0.68344 9.63674,2.73376c1.92735,3.4172 -0.64245,7.51783 -5.78205,10.25159c-5.1396,2.05032 -9.63674,9.56815 -9.63674,17.08598c0,7.51783 -3.21225,15.71911 -7.06694,18.45286c-3.8547,2.05032 -10.92164,15.03567 -16.06124,27.33757c-5.1396,12.98535 -12.84899,23.23694 -17.34614,23.23694c-11.56409,0 -23.77063,-14.35223 -23.77063,-28.02101c0,-17.08598 -16.70369,-30.07133 -21.84328,-16.40254c-1.92735,6.15095 0,10.25159 6.42449,10.25159c5.78205,0 8.99429,4.78408 8.35184,12.30191c-1.2849,6.15095 1.2849,18.45286 5.78205,26.65413c4.49715,8.20127 5.78205,19.1363 3.8547,25.28726c-2.5698,8.20127 0,9.56815 12.84899,6.83439c17.98859,-3.4172 23.12818,8.88471 7.06694,15.03567c-5.1396,2.73376 -7.70939,7.51783 -5.1396,11.61847c1.92735,4.10064 0.64245,4.78408 -3.8547,2.05032c-3.8547,-2.73376 -5.78205,-8.20127 -3.8547,-11.61847c2.5698,-3.4172 -0.64245,-6.15095 -7.06694,-6.15095c-7.70939,0 -9.63674,4.78408 -7.70939,19.81974c1.92735,13.66879 0,18.45286 -5.1396,16.40254c-4.49715,-1.36688 -6.42449,-7.51783 -4.49715,-12.98535c1.92735,-5.46751 0,-9.56815 -4.49715,-9.56815c-5.78205,0 -5.78205,-2.73376 0.64245,-11.61847c8.99429,-10.93503 8.99429,-34.85541 0,-44.42356c-2.5698,-3.4172 -3.21225,5.46751 -1.92735,19.81974c2.5698,22.5535 1.92735,23.92038 -10.92164,20.50318c-8.35184,-2.05032 -12.20654,-0.68344 -9.63674,3.4172c2.5698,4.10064 -0.64245,5.46751 -9.63674,2.05032c-12.84899,-4.10064 -16.70369,2.73376 -14.77634,24.60382c0.64245,2.05032 -3.21225,4.10064 -8.35184,4.10064c-10.27919,0 -5.78205,-17.08598 11.56409,-36.90573c16.70369,-19.81974 7.70939,-35.53885 -8.99429,-16.40254c-7.06694,8.20127 -17.34614,14.35223 -22.48573,14.35223c-28.91023,0 -38.54697,49.89107 -17.34614,90.89743c10.92164,20.50318 14.13389,23.23694 17.34614,13.66879c2.5698,-7.51783 6.42449,-8.88471 8.99429,-4.78408c2.5698,4.10064 9.63674,8.88471 15.41879,11.61847c9.63674,3.4172 10.27919,1.36688 7.06694,-15.71911c-2.5698,-14.35223 -1.2849,-20.50318 5.1396,-20.50318c6.42449,0 6.42449,-2.05032 0.64245,-8.20127c-4.49715,-4.78408 -7.70939,-10.93503 -7.70939,-14.35223c0,-3.4172 3.8547,-1.36688 8.35184,3.4172c7.70939,8.88471 9.63674,56.72547 1.92735,64.92674c-7.70939,8.88471 -3.8547,23.92038 5.78205,20.50318c7.06694,-3.4172 7.70939,-0.68344 3.21225,11.61847c-3.21225,8.88471 -3.21225,27.33757 0,41.00636c2.5698,14.35223 2.5698,25.9707 -0.64245,28.70445c-3.21225,2.05032 -4.49715,6.15095 -3.21225,8.88471c1.92735,2.73376 0.64245,8.88471 -3.21225,14.35223c-4.49715,8.88471 -5.78205,8.20127 -5.78205,-1.36688c0,-6.83439 -3.8547,-12.30191 -7.70939,-12.30191c-5.1396,0 -5.78205,-2.05032 -1.92735,-5.46751c8.99429,-6.83439 11.56409,-26.65413 3.8547,-31.43821c-3.21225,-2.73376 -5.78205,1.36688 -5.78205,7.51783c0,6.83439 -1.92735,17.76942 -4.49715,24.60382c-2.5698,7.51783 -1.92735,11.61847 3.21225,11.61847c6.42449,0 6.42449,2.05032 0.64245,9.56815c-9.63674,12.30191 3.21225,18.45286 22.48573,10.25159c10.92164,-4.10064 12.84899,-2.05032 12.84899,9.56815c-0.64245,8.20127 -4.49715,19.1363 -8.35184,23.92038c-4.49715,4.78408 -8.35184,13.66879 -8.35184,19.1363c0,5.46751 -4.49715,9.56815 -9.63674,9.56815c-5.1396,0 -9.63674,-2.73376 -9.63674,-6.83439c0,-3.4172 -5.78205,-12.98535 -12.84899,-20.50318c-7.06694,-7.51783 -12.84899,-10.93503 -12.84899,-7.51783c0,4.10064 3.21225,8.88471 6.42449,10.93503c3.8547,2.73376 5.1396,7.51783 2.5698,10.93503c-1.92735,4.10064 0.64245,12.30191 6.42449,19.1363c8.99429,10.25159 8.99429,12.30191 -2.5698,21.18662c-7.06694,5.46751 -12.84899,12.98535 -12.84899,16.40254c0,3.4172 5.78205,0.68344 12.84899,-6.15095c12.84899,-12.30191 13.49144,-12.30191 26.34043,1.36688l13.49144,13.66879l-13.49144,4.10064c-7.70939,2.05032 -12.20654,0.68344 -10.27919,-2.05032c1.92735,-3.4172 0.64245,-7.51783 -3.21225,-10.25159c-3.8547,-2.73376 -6.42449,4.78408 -6.42449,18.45286c0,16.40254 1.92735,19.81974 6.42449,12.30191c3.21225,-5.46751 7.70939,-7.51783 10.27919,-4.78408c2.5698,2.73376 8.99429,0.68344 14.77634,-4.10064c19.27348,-17.76942 29.55268,-17.76942 29.55268,-0.68344c0,17.76942 -3.21225,20.50318 -13.49144,9.56815c-4.49715,-4.78408 -11.56409,-2.73376 -21.84328,6.83439c-17.98859,17.08598 -32.12247,17.76942 -32.12247,2.05032c0,-10.25159 -1.2849,-10.93503 -6.42449,-2.05032c-3.8547,6.83439 -6.42449,7.51783 -6.42449,2.05032c0,-4.78408 -2.5698,-8.88471 -6.42449,-8.88471c-3.21225,0 -6.42449,4.78408 -6.42449,10.25159c0,5.46751 -3.8547,10.25159 -8.35184,10.25159c-4.49715,0 -11.56409,6.83439 -16.70369,14.35223c-7.70939,13.66879 -7.06694,14.35223 5.1396,10.93503c18.63103,-4.78408 22.48573,4.78408 10.27919,29.38789c-11.56409,23.92038 -16.06124,25.9707 -16.06124,6.83439z"/>
   </g>
  </g>
 </g>
</svg>