<?xml version="1.0" standalone="no"?>
<!DOCTYPE svg PUBLIC "-//W3C//DTD SVG 20010904//EN"
 "http://www.w3.org/TR/2001/REC-SVG-20010904/DTD/svg10.dtd">
<svg version="1.0" xmlns="http://www.w3.org/2000/svg"
 width="730.000000pt" height="487.000000pt" viewBox="0 0 730.000000 487.000000"
 preserveAspectRatio="xMidYMid meet">
<metadata>
Created by potrace 1.16, written by Peter Selinger 2001-2019
</metadata>
<g transform="translate(0.000000,487.000000) scale(0.100000,-0.100000)"
fill="#000000" stroke="none">
<path d="M0 4667 c1 -157 4 -206 15 -220 8 -12 14 -45 14 -85 1 -95 12 -127
42 -125 36 3 67 -5 72 -20 2 -6 2 0 0 16 -3 15 0 27 6 27 6 0 11 7 11 15 0 10
-10 15 -30 15 -23 0 -33 -6 -42 -25 -11 -24 -38 -35 -38 -15 0 6 7 10 15 10 8
0 15 6 15 14 0 18 6 22 52 30 30 5 37 3 41 -11 3 -10 4 -5 3 11 -3 33 -23 46
-32 22 -3 -9 -14 -16 -23 -16 -14 0 -14 2 -1 10 13 8 13 12 -1 37 -9 15 -14
34 -12 41 3 6 -2 12 -11 12 -9 0 -16 7 -16 16 0 11 6 14 20 9 12 -4 26 -3 33
2 7 5 23 10 35 11 13 0 31 10 40 20 18 20 36 16 70 -15 13 -13 32 -17 63 -14
9 1 27 -2 40 -7 26 -10 54 3 139 63 41 28 43 28 56 10 8 -10 17 -15 21 -12 3
4 14 0 24 -9 9 -8 39 -17 67 -19 40 -4 59 1 95 20 41 24 54 25 181 26 82 0
144 -5 157 -11 12 -7 56 -10 106 -9 71 3 87 0 98 -14 7 -9 17 -17 23 -17 20 0
43 -173 38 -290 -7 -167 -87 -230 -184 -145 -12 11 -26 20 -31 20 -4 0 -16 8
-26 18 -18 18 -19 18 -36 -4 -10 -13 -21 -21 -24 -17 -4 4 -18 3 -32 -3 -16
-6 -22 -6 -18 1 3 6 2 10 -4 10 -5 0 -13 -5 -16 -11 -4 -6 -12 -8 -19 -6 -6 3
-20 -1 -30 -8 -10 -8 -24 -11 -32 -8 -7 3 -38 -3 -68 -12 -57 -18 -96 -10 -96
20 0 18 -17 20 -23 3 -3 -10 -8 -9 -18 3 -8 9 -35 24 -61 34 -27 10 -48 24
-48 31 0 8 -4 14 -10 14 -5 0 -10 -4 -10 -9 0 -5 -15 -19 -34 -30 -28 -18 -51
-22 -137 -23 -57 0 -109 -5 -114 -9 -6 -4 -34 -11 -63 -15 -49 -6 -54 -5 -59
15 -3 11 -10 21 -15 21 -6 0 -8 -7 -4 -15 3 -8 1 -15 -4 -15 -6 0 -10 10 -10
23 0 13 -3 17 -8 10 -4 -6 -19 -9 -35 -6 -19 4 -25 8 -16 13 7 5 -4 8 -26 8
-23 0 -44 -7 -56 -19 -18 -18 -19 -37 -19 -304 0 -225 3 -285 13 -285 15 0 13
-83 -3 -88 -7 -3 -10 -152 -10 -460 0 -265 4 -451 9 -443 6 10 11 2 15 -25 13
-81 15 -114 6 -119 -4 -3 -7 -13 -5 -23 13 -62 17 -72 31 -72 12 0 13 -4 4
-20 -9 -16 -8 -20 6 -20 10 0 14 -5 10 -15 -3 -8 2 -21 10 -30 9 -8 12 -15 7
-15 -10 0 -11 -56 -1 -65 4 -4 4 -13 1 -21 -3 -8 1 -14 11 -14 17 0 22 15 7
24 -13 8 -6 42 8 38 6 -1 11 4 12 10 1 25 9 63 18 88 14 38 24 101 22 138 -2
19 2 32 9 32 7 0 9 7 6 16 -4 10 -2 13 6 8 8 -5 9 2 5 23 -5 27 -2 31 46 56
29 15 58 27 65 27 6 0 12 5 12 10 0 19 39 10 51 -11 8 -15 13 -18 19 -10 8 13
47 7 89 -15 30 -16 53 -18 31 -4 -11 8 -7 10 17 8 38 -4 87 -50 70 -67 -8 -8
-7 -21 2 -46 9 -25 9 -40 1 -55 -8 -15 -8 -20 2 -20 9 0 9 -3 -2 -11 -9 -6
-11 -12 -5 -15 7 -3 9 -27 5 -66 -3 -34 -2 -89 2 -121 6 -46 5 -67 -7 -90 -8
-16 -15 -35 -15 -41 0 -14 -94 -99 -112 -102 -7 -1 -21 -5 -30 -9 -11 -4 -18
-3 -18 4 0 6 5 11 10 11 6 0 10 5 10 10 0 6 -8 10 -17 10 -15 0 -16 2 -3 10
11 7 12 14 5 26 -6 9 -15 16 -20 16 -6 0 -18 6 -27 15 -24 22 -98 9 -98 -17 0
-10 -5 -22 -10 -25 -6 -4 -8 -11 -4 -16 3 -5 9 -7 14 -4 4 3 11 -13 15 -36 5
-30 3 -44 -6 -50 -8 -5 -15 -4 -17 1 -2 6 -9 10 -16 10 -22 0 -106 72 -106 91
0 25 16 33 25 11 6 -15 8 -14 20 9 17 32 9 66 -17 75 -11 3 -17 8 -14 11 3 4
1 12 -5 19 -9 11 -14 11 -26 -1 -8 -8 -23 -15 -34 -15 -21 0 -26 -25 -6 -34
10 -5 10 -7 0 -12 -21 -9 -15 -26 7 -19 11 4 20 2 20 -4 0 -14 -33 -14 -47 0
-7 7 -24 8 -42 4 l-31 -7 0 -964 0 -964 3650 0 3650 0 0 1335 0 1335 -54 0
c-48 0 -83 -9 -151 -40 -11 -5 -34 -12 -51 -15 -57 -11 -111 66 -76 108 16 19
20 493 4 509 -5 5 -6 29 -1 57 4 26 5 83 3 127 -6 105 -7 305 -1 324 2 8 7 31
11 51 10 49 51 69 157 76 77 4 112 7 147 11 9 2 12 109 12 498 l0 496 -192 -2
c-106 -1 -222 -6 -259 -12 -47 -8 -80 -7 -118 1 -73 16 -81 7 -81 -85 0 -106
-17 -173 -52 -206 -28 -26 -30 -26 -74 -13 -59 18 -112 54 -119 82 -3 13 -9
23 -14 23 -5 0 -12 47 -16 105 l-7 105 -1172 -1 c-1012 0 -1166 -2 -1136 -14
19 -8 211 -78 425 -156 l390 -142 287 13 c158 6 291 9 297 6 17 -11 18 -26 52
-759 5 -120 13 -235 18 -255 6 -23 9 -29 10 -15 2 36 38 52 106 48 33 -1 74
-3 90 -4 24 -1 27 -3 15 -12 -12 -9 -11 -10 8 -6 14 3 22 0 22 -8 0 -20 38
-26 43 -6 3 9 5 3 6 -14 1 -17 4 -25 9 -18 4 6 20 15 35 18 15 4 27 13 27 21
0 8 9 14 20 14 11 0 20 7 20 15 0 8 6 15 14 15 8 0 17 7 20 15 3 9 12 15 19
13 7 -2 30 4 52 14 75 31 73 30 150 48 33 7 66 13 73 11 8 -1 20 3 27 9 7 6
45 14 85 17 39 3 66 9 60 13 -7 4 23 11 65 15 42 4 80 3 84 -2 4 -4 13 -33 21
-63 13 -53 16 -362 5 -555 -5 -89 -7 -405 -3 -425 2 -8 7 -21 11 -27 10 -16
-2 -81 -17 -90 -18 -12 -105 -25 -241 -38 -38 -3 -72 -8 -75 -10 -12 -8 -142
-22 -265 -30 -135 -9 -184 -14 -250 -26 -86 -15 -165 -2 -182 31 -12 23 -13
19 -13 -40 0 -36 5 -160 11 -276 12 -204 11 -213 -8 -245 -15 -27 -26 -34 -54
-36 -19 0 -95 -8 -169 -16 -74 -9 -288 -23 -475 -31 -187 -9 -385 -18 -440
-21 -55 -2 -165 -8 -245 -11 l-145 -7 -22 41 c-13 22 -23 47 -23 56 0 9 -17
33 -37 54 -87 88 -82 77 -103 243 -12 85 -24 219 -27 298 l-6 143 76 -4 c93
-4 99 3 59 76 -27 50 -28 51 -72 49 -25 -1 -88 -7 -140 -14 -53 -6 -112 -10
-133 -7 l-37 4 0 -56 0 -56 64 3 63 3 6 -48 c28 -241 50 -472 46 -476 -3 -3
-28 1 -55 8 -27 8 -76 17 -109 20 -33 2 -61 5 -63 5 -1 1 -1 604 0 1341 l3
1340 -115 0 c-114 0 -117 0 -233 -46 -97 -39 -114 -49 -101 -58 22 -16 9 -78
-24 -118 -34 -40 -116 -78 -169 -78 -47 0 -131 25 -152 45 -11 11 -9 16 15 30
40 23 18 15 -131 -48 -71 -30 -195 -81 -274 -113 -89 -36 -137 -60 -123 -62
24 -4 804 33 1050 49 90 6 166 8 169 5 3 -3 -7 -10 -22 -16 -17 -6 -25 -16
-22 -24 3 -8 11 -34 18 -57 7 -24 19 -50 27 -56 9 -7 13 -15 10 -19 -9 -8
-213 -21 -693 -44 -236 -11 -509 -25 -605 -30 -96 -5 -259 -12 -362 -16 -104
-4 -188 -11 -188 -15 0 -7 36 -14 61 -11 63 7 531 22 554 18 25 -5 35 -13 40
-34 4 -15 9 -22 12 -16 2 7 12 10 23 7 24 -6 57 -177 69 -367 10 -154 19 -176
63 -156 22 11 25 17 22 58 -2 26 -5 89 -7 139 l-4 92 45 -45 c26 -25 82 -73
126 -107 44 -34 96 -77 117 -94 20 -18 40 -33 45 -33 5 0 23 11 39 25 l30 25
-25 18 c-51 36 -247 210 -300 265 l-55 59 41 36 c70 63 151 133 170 147 11 7
67 16 136 20 l116 7 6 -53 c3 -30 11 -112 17 -184 7 -71 17 -177 23 -235 l11
-105 35 -5 c19 -3 114 -3 210 0 l175 5 3 30 c5 58 -1 60 -177 58 l-159 -1 -7
76 c-4 43 -7 84 -8 92 -2 11 22 17 108 27 61 6 134 12 163 12 47 1 52 3 52 24
0 45 -6 46 -170 38 -85 -4 -156 -7 -158 -5 -2 1 -6 54 -9 117 l-6 114 169 7
c94 4 177 4 186 1 25 -10 28 -51 29 -324 1 -243 0 -254 -20 -282 -25 -34 -26
-52 -5 -74 9 -9 13 -19 9 -23 -3 -4 -59 -11 -123 -17 l-117 -10 -3 -28 c-5
-41 13 -57 67 -57 l47 0 12 -102 c6 -57 18 -159 27 -228 8 -69 15 -131 15
-137 0 -9 -16 -13 -50 -13 -56 0 -72 -16 -63 -63 4 -19 12 -27 27 -28 13 0 5
-5 -19 -13 -35 -10 -42 -10 -52 5 -20 27 -41 142 -74 409 -17 140 -35 265 -40
278 -7 17 -16 22 -43 22 -38 0 -51 -16 -81 -99 -7 -20 -25 -63 -40 -95 l-26
-59 -80 79 c-44 43 -90 94 -102 111 -23 34 -46 40 -91 24 -20 -8 -25 -19 -31
-63 -3 -29 -2 -93 4 -143 42 -385 53 -471 61 -479 13 -13 86 6 83 21 -2 7 -12
101 -22 210 -11 109 -23 224 -27 257 l-7 58 109 -114 c60 -63 114 -113 121
-111 6 3 24 29 39 59 15 29 35 61 44 69 16 15 18 11 24 -47 4 -35 14 -110 23
-168 8 -58 17 -127 18 -153 3 -41 9 -53 40 -83 21 -19 40 -32 43 -29 3 3 0 11
-6 17 -7 7 -12 16 -12 20 0 15 53 8 72 -9 14 -13 39 -18 97 -19 43 -1 87 -5
98 -8 21 -7 38 -45 25 -57 -4 -4 -72 -11 -151 -18 -86 -6 -147 -15 -152 -22
-4 -6 -3 -26 1 -43 5 -17 11 -89 14 -161 5 -112 33 -352 52 -437 4 -20 12 -28
26 -28 20 0 20 -1 -3 -23 -33 -32 -65 -71 -78 -95 -7 -12 -18 -18 -28 -16 -10
3 -26 -1 -36 -8 -16 -12 -16 -14 4 -26 12 -8 18 -9 15 -3 -4 5 2 9 13 8 27 -2
6 -33 -23 -33 -38 -1 -139 -14 -144 -19 -3 -3 7 -5 21 -5 41 0 32 -16 -9 -18
-20 -2 -45 -7 -55 -12 -10 -6 -52 -12 -95 -15 -42 -3 -80 -8 -84 -10 -4 -3
-48 -7 -96 -9 -49 -3 -152 -8 -229 -12 -77 -3 -156 -8 -175 -9 -19 -2 -136 -4
-260 -5 -183 -2 -232 0 -261 13 l-36 15 -7 118 c-4 66 -11 201 -16 302 -6 100
-14 262 -19 360 -6 97 -13 236 -16 307 -3 72 -12 236 -20 365 -16 248 -41 733
-51 960 -6 131 -5 136 18 162 l23 27 290 16 290 17 289 116 289 116 -27 23
c-37 31 -56 82 -56 148 l0 55 -1310 0 -1310 0 0 -203z m1110 -1077 c15 -15 90
-47 90 -39 0 6 4 8 9 5 5 -4 12 0 14 6 4 10 8 10 15 -1 8 -11 12 -10 20 5 12
22 82 28 82 7 0 -7 3 -13 8 -13 4 0 16 -21 26 -46 17 -42 18 -64 13 -235 -6
-161 -9 -193 -26 -225 -14 -26 -28 -38 -46 -40 -14 -1 -25 1 -25 6 0 13 -73
-1 -86 -16 -6 -8 -22 -14 -36 -14 -14 0 -38 -11 -54 -25 -31 -27 -44 -31 -44
-15 0 6 -11 8 -25 4 -15 -4 -25 -2 -25 5 0 6 -13 11 -29 11 -17 0 -32 4 -36 9
-3 5 -36 10 -75 10 -69 0 -110 14 -110 38 0 7 -9 14 -20 14 -11 1 -24 3 -30 4
-5 1 -14 3 -20 4 -5 0 -7 8 -4 16 4 10 0 15 -15 15 -26 0 -27 12 -1 35 11 10
20 24 20 32 0 7 6 13 13 13 9 0 9 2 0 8 -12 8 -16 56 -9 131 2 25 0 56 -6 70
-7 20 -6 28 8 38 14 10 14 13 3 13 -10 0 -14 13 -15 45 -1 35 2 45 12 41 8 -3
13 -2 13 2 -4 26 3 41 16 36 9 -4 23 4 36 20 21 27 53 34 65 15 4 -8 9 -7 16
2 7 11 11 11 14 2 4 -9 12 -9 32 -2 15 6 43 8 62 5 19 -3 41 -2 49 3 14 9 92
10 101 1z m-760 -70 c4 -6 15 -8 25 -4 14 6 16 4 10 -7 -6 -11 -5 -12 5 -2 10
10 20 9 44 -5 17 -9 33 -20 34 -24 6 -14 40 -8 44 6 2 12 7 11 25 -3 23 -19
22 -44 -4 -86 -10 -16 -14 -17 -22 -6 -7 11 -12 7 -24 -16 -10 -19 -12 -34 -6
-44 7 -12 9 -12 9 1 0 11 3 11 12 2 10 -9 8 -16 -5 -29 -15 -15 -17 -15 -23 0
-3 9 -10 17 -15 17 -14 0 -11 -28 4 -33 7 -2 8 -8 3 -13 -5 -5 -11 -4 -13 4
-9 25 -25 11 -20 -18 4 -16 2 -32 -4 -36 -7 -4 -7 -10 0 -18 6 -7 8 -22 5 -34
-6 -21 15 -52 35 -52 11 0 31 -32 31 -48 0 -6 -12 -13 -26 -16 -14 -4 -31 -11
-37 -17 -49 -41 -61 -48 -69 -43 -6 4 -41 7 -80 9 -64 2 -71 4 -99 35 -17 18
-28 39 -25 46 3 8 1 14 -4 14 -5 0 -6 21 -4 48 3 26 7 61 8 78 2 17 6 36 10
42 12 20 14 101 2 106 -7 3 -7 7 2 14 8 5 12 18 11 28 -2 11 0 25 5 33 5 8 4
16 -4 21 -10 6 -8 15 9 38 20 29 24 30 83 27 34 -2 64 -9 68 -15z m3068 -927
l-3 -87 -35 -8 c-19 -5 -42 -12 -50 -17 -9 -5 -39 -12 -66 -16 l-51 -6 -6 77
c-12 134 -12 132 31 137 20 2 70 4 110 5 l73 2 -3 -87z m-2481 -117 c11 3 27
-1 36 -10 14 -15 17 -14 31 6 14 20 21 18 17 -4 0 -5 9 -9 22 -10 12 -1 29 -2
37 -4 8 -1 22 -2 30 -3 12 -1 11 -5 -4 -16 -17 -13 -18 -15 -3 -15 9 0 17 -1
17 -3 0 -1 -4 -18 -10 -36 -7 -25 -6 -39 3 -49 10 -12 9 -16 -2 -20 -11 -4
-11 -6 0 -13 10 -6 6 -9 -14 -9 -16 0 -26 -4 -22 -10 3 -5 14 -10 24 -10 13 0
19 -8 19 -26 0 -15 6 -30 13 -35 8 -5 11 -9 7 -9 -5 0 2 -10 14 -22 21 -21 21
-22 3 -28 -18 -6 -18 -7 -1 -17 24 -13 17 -48 -10 -48 -11 0 -27 -5 -35 -11
-8 -7 -39 -15 -69 -19 -30 -4 -61 -12 -67 -17 -7 -6 -13 -7 -13 -3 0 4 -7 2
-15 -5 -8 -7 -15 -9 -15 -5 0 4 -6 2 -14 -4 -11 -9 -23 -7 -52 9 -21 11 -46
20 -54 21 -8 1 -4 5 10 9 25 8 25 8 3 15 -18 6 -21 14 -20 47 2 22 -1 42 -5
44 -4 3 -8 14 -8 25 0 12 -4 17 -11 13 -7 -4 -9 0 -5 14 4 11 2 23 -3 26 -5 4
-7 19 -4 34 3 15 5 34 4 42 -5 39 1 115 10 132 7 13 20 19 37 17 15 -1 38 3
52 8 14 6 30 7 36 2 5 -4 19 -6 31 -3z m411 -9 c9 -10 11 -380 2 -397 -1 -3
-3 -18 -4 -35 -1 -23 -6 -31 -24 -33 -17 -3 -25 2 -29 17 -3 13 -10 18 -20 14
-9 -4 -21 1 -27 9 -6 8 -18 17 -26 21 -12 4 -11 6 4 6 12 1 16 6 12 16 -3 8 0
14 7 12 7 -1 13 12 15 33 2 19 12 44 23 56 18 19 18 22 4 34 -18 15 -20 70 -3
70 9 0 9 3 1 11 -7 7 -9 34 -5 72 4 53 3 60 -11 54 -9 -3 -19 -2 -22 3 -4 6 6
15 22 20 15 5 35 14 43 19 20 13 26 13 38 -2z m2049 -148 c-3 -39 -10 -76 -16
-83 -11 -13 -10 -34 2 -53 5 -7 1 -9 -13 -6 -12 3 -20 0 -20 -6 0 -7 6 -9 13
-5 8 5 9 4 2 -4 -5 -5 -34 -13 -62 -17 -47 -6 -53 -5 -53 12 -1 10 -7 64 -14
120 l-12 102 25 4 c14 2 55 5 90 6 l64 1 -6 -71z m430 -1014 c7 -6 15 -20 16
-33 0 -12 5 -22 10 -22 4 0 5 -5 1 -12 -5 -7 -2 -9 8 -5 13 4 15 -1 14 -24 -1
-17 2 -33 7 -36 6 -3 7 -1 3 5 -4 7 -3 12 3 12 6 0 15 -9 21 -20 17 -32 33
-24 26 13 -6 31 -6 31 9 10 8 -12 18 -35 21 -51 6 -29 5 -30 -47 -38 -48 -7
-80 -9 -100 -5 -4 0 -5 17 -3 36 2 21 -1 33 -6 30 -6 -4 -10 -1 -10 4 0 6 5
11 11 11 5 0 8 4 5 9 -3 5 -15 7 -26 4 -15 -4 -20 0 -20 16 0 11 4 21 9 21 4
0 6 11 3 25 -2 15 0 25 7 25 6 0 12 17 12 38 1 21 3 29 6 17 3 -11 12 -24 20
-30z"/>
<path d="M3606 4833 c-3 -21 -6 -107 -6 -190 l0 -153 38 0 c20 0 157 7 305 15
147 8 387 22 535 30 147 8 283 15 302 15 l35 1 -40 18 c-81 36 -551 204 -568
203 -9 0 -15 3 -12 9 4 5 -4 9 -17 9 -13 0 -28 4 -34 9 -5 5 -46 23 -91 40
-66 25 -97 31 -159 31 l-77 0 22 -24 c27 -28 24 -60 -5 -64 -24 -3 -67 38 -46
45 6 3 12 13 12 24 0 17 -8 19 -65 19 -36 0 -65 -3 -65 -6 0 -13 25 -50 42
-62 10 -7 18 -20 18 -28 0 -8 6 -14 14 -14 18 0 26 -22 19 -49 -7 -28 -30 -27
-39 1 -10 33 -34 54 -43 39 -6 -9 -11 -8 -21 4 -11 13 -11 18 -1 24 10 7 10
16 0 50 -16 54 -44 56 -53 4z m562 -88 c-4 6 2 11 12 11 17 0 17 -2 5 -16 -12
-13 -10 -15 12 -17 16 0 21 2 14 7 -9 5 -2 9 17 12 17 2 29 1 26 -4 -3 -4 1
-8 9 -8 21 0 39 -57 27 -80 -15 -27 -48 -35 -69 -16 -10 9 -22 16 -27 16 -22
0 -63 26 -68 42 -2 10 0 18 5 18 5 0 9 12 9 26 0 24 2 25 17 13 9 -8 14 -9 11
-4z"/>
<path d="M4077 4450 c-37 -5 -75 -14 -83 -20 -8 -7 -14 -30 -14 -51 l0 -39 49
0 c28 0 53 5 57 11 5 8 40 10 118 6 61 -4 127 -3 146 1 l35 8 -44 32 c-69 50
-150 66 -264 52z"/>
<path d="M3653 4413 l-53 -4 0 -45 0 -44 53 0 c30 0 88 3 130 6 76 7 77 7 77
35 0 62 -12 65 -207 52z"/>
<path d="M3261 4389 c-13 -5 -91 -15 -173 -21 l-148 -12 0 -33 c0 -17 3 -34 8
-36 4 -2 61 0 127 5 66 5 150 10 187 13 81 4 88 8 88 44 0 47 -33 62 -89 40z"/>
<path d="M5050 4380 c-63 -5 -250 -15 -415 -24 -747 -40 -1030 -57 -1035 -63
-3 -3 83 -2 191 2 l196 7 7 -113 c8 -144 35 -433 44 -479 7 -32 10 -35 40 -34
61 3 60 1 46 116 -7 56 -13 126 -14 155 l0 52 58 17 c67 19 168 73 198 106 42
45 56 88 52 148 l-4 57 95 6 c53 3 215 13 361 22 146 8 299 19 340 24 l75 8
-60 0 c-33 0 -112 -3 -175 -7z m-726 -82 c29 -41 21 -87 -21 -126 -36 -33
-191 -107 -202 -96 -7 7 -19 110 -20 176 l-1 57 53 4 c149 10 175 8 191 -15z"/>
<path d="M3604 4081 c-2 -2 -4 -23 -4 -46 l0 -43 48 5 c149 15 147 14 150 56
l3 39 -96 -4 c-53 -1 -98 -5 -101 -7z"/>
<path d="M3604 3825 l1 -150 30 4 c17 2 73 6 125 10 l95 6 0 40 0 40 -110 0
-109 0 -8 30 c-4 17 -11 62 -16 100 -8 62 -9 52 -8 -80z"/>
<path d="M5145 3699 c-60 -14 -101 -36 -139 -75 -43 -44 -50 -72 -36 -139 14
-65 43 -94 135 -134 125 -53 196 -136 173 -203 -18 -51 -101 -78 -175 -57 -43
12 -46 11 -64 -12 -25 -32 -24 -44 6 -57 55 -25 172 -4 256 45 39 23 62 72 61
129 -1 85 -63 152 -205 219 -75 35 -101 53 -113 77 -15 30 -15 31 17 64 45 47
103 67 180 62 54 -2 67 0 81 17 27 31 22 41 -33 58 -56 19 -84 20 -144 6z"/>
<path d="M4545 3629 c-66 -10 -122 -18 -124 -18 -2 -1 -1 -16 2 -33 12 -74 57
-389 77 -547 5 -35 13 -68 19 -74 8 -8 29 -7 73 1 35 6 119 18 188 27 69 8
131 17 138 20 6 2 12 16 12 31 l0 27 -112 -6 c-62 -4 -138 -9 -169 -13 l-56
-7 -13 102 c-9 69 -10 105 -3 112 14 14 114 39 187 47 l61 7 -1 38 c-1 21 -3
39 -5 41 -5 5 -140 -10 -194 -22 -73 -15 -76 -11 -73 81 l3 81 60 12 c33 7 90
16 128 20 65 6 67 7 67 35 0 64 -48 71 -265 38z"/>
<path d="M4075 3596 l-120 -11 3 -40 c4 -48 14 -60 38 -47 11 6 40 13 65 17
l46 7 7 -79 c3 -43 11 -139 17 -213 5 -74 12 -142 15 -152 4 -13 -8 -18 -65
-28 -78 -13 -86 -24 -65 -90 14 -42 19 -44 75 -30 96 24 137 31 199 31 72 1
85 5 72 22 -5 7 -15 29 -21 50 -12 36 -14 37 -61 37 l-48 0 -6 68 c-3 37 -8
114 -11 172 -3 58 -8 131 -11 162 l-6 57 64 3 c57 3 63 5 66 26 8 55 -21 59
-253 38z"/>
<path d="M3598 3465 c-3 -212 -2 -239 12 -387 l14 -148 71 0 c38 0 116 5 173
12 l103 12 -7 30 c-3 17 -9 34 -13 37 -3 4 -60 3 -126 -1 -66 -4 -121 -6 -122
-5 -3 2 -19 250 -29 438 l-6 127 -34 0 -34 0 -2 -115z"/>
<path d="M2225 3488 c-46 -129 -92 -298 -116 -438 -46 -258 -45 -236 -14 -244
41 -10 65 1 65 32 0 56 45 232 60 237 8 2 52 6 98 7 65 2 85 0 92 -12 8 -13
68 -149 101 -229 8 -19 14 -22 37 -16 15 3 33 12 40 19 13 13 5 34 -145 361
-33 72 -72 163 -87 203 -15 40 -36 77 -46 82 -26 14 -80 12 -85 -2z"/>
<path d="M1829 3434 c-53 -7 -111 -17 -130 -22 l-34 -9 3 -124 c2 -68 8 -171
13 -229 5 -58 12 -141 15 -185 8 -124 9 -125 47 -118 54 10 56 16 48 153 -4
69 -5 128 -2 132 3 3 57 8 119 11 63 2 118 9 124 15 5 5 8 20 6 33 l-3 24
-127 -4 -128 -3 0 119 c0 88 3 120 13 121 6 1 55 4 107 8 117 8 130 14 130 59
l0 35 -52 -1 c-29 -1 -96 -7 -149 -15z"/>
<path d="M5929 3028 c0 -13 -3 -17 -6 -10 -2 6 -22 12 -43 12 -32 0 -38 -4
-42 -25 -5 -22 -2 -24 18 -19 28 7 30 -3 7 -36 -10 -14 -16 -26 -14 -28 1 -2
-1 -7 -5 -10 -4 -4 -4 8 -1 26 5 22 3 32 -6 32 -16 0 -32 -13 -32 -25 0 -5 -4
-24 -9 -42 -7 -30 -10 -32 -38 -26 -22 4 -29 3 -24 -5 4 -7 2 -12 -4 -12 -6 0
-9 -4 -5 -10 3 -5 12 -7 19 -4 17 6 27 -29 19 -67 -8 -44 -31 -31 -24 14 0 4
-3 7 -9 7 -6 0 -10 7 -10 15 0 8 -7 15 -15 15 -15 0 -16 -24 -2 -47 4 -6 4
-19 0 -29 -6 -15 -1 -16 45 -10 31 4 52 3 52 -3 0 -5 -6 -12 -12 -14 -10 -4
-9 -8 2 -16 8 -6 20 -11 25 -11 6 0 3 5 -5 11 -12 9 -12 10 3 5 10 -3 23 -6
28 -6 5 0 9 -4 9 -10 0 -5 -7 -10 -15 -10 -13 0 -13 -3 -3 -20 13 -21 45 -23
41 -3 -1 6 11 13 27 16 15 4 31 14 34 24 3 10 19 24 35 31 17 7 33 22 36 33 4
10 13 19 21 19 14 0 18 12 14 39 -1 8 4 18 12 22 11 7 10 11 -2 18 -8 6 -11
13 -7 17 8 8 -11 34 -24 34 -5 0 -9 -7 -9 -16 0 -14 -3 -14 -15 -4 -12 10 -13
16 -3 27 10 12 9 18 -7 29 -17 13 -18 16 -5 24 9 5 17 5 20 0 3 -5 11 4 17 20
9 25 9 30 -3 30 -8 0 -14 -4 -14 -10 0 -18 -29 -11 -42 10 -17 26 -28 25 -29
-2z"/>
<path d="M5005 2860 c-121 -26 -121 -26 -101 -122 26 -126 65 -379 75 -480 12
-124 21 -142 68 -135 20 4 37 8 40 10 4 5 -27 248 -33 259 -11 18 11 4 108
-69 57 -42 125 -99 151 -125 l48 -49 31 18 c61 36 60 48 -10 114 -35 33 -108
89 -163 125 -92 61 -112 84 -72 84 28 0 99 48 129 87 23 30 29 48 29 88 0 53
-22 110 -52 138 -52 46 -170 74 -248 57z m216 -129 c28 -34 24 -68 -13 -101
-31 -29 -137 -90 -156 -90 -5 0 -12 34 -16 76 -4 41 -11 86 -16 99 -8 22 -6
25 18 31 15 3 32 7 37 10 6 2 37 2 69 0 47 -2 63 -7 77 -25z"/>
<path d="M4324 2845 c-3 -8 1 -67 10 -131 9 -63 16 -131 16 -150 l0 -34 -94 0
-94 0 -6 118 c-10 176 -11 182 -46 182 -16 0 -40 -4 -54 -10 -31 -11 -33 -38
-11 -133 8 -35 19 -135 25 -223 11 -174 28 -365 33 -370 2 -2 20 -1 40 3 l37
6 -1 86 c0 47 -4 118 -8 156 -5 39 -6 73 -2 76 3 4 51 10 107 14 l101 7 6 -54
c4 -29 10 -104 13 -165 l7 -113 34 0 c20 0 36 6 39 14 6 16 -8 178 -31 346 -8
58 -17 146 -20 195 -3 50 -8 114 -11 143 l-5 52 -40 0 c-26 0 -42 -5 -45 -15z"/>
<path d="M4507 2824 c-15 -5 -18 -13 -14 -37 6 -33 14 -99 42 -357 20 -180 34
-283 40 -289 3 -2 78 -4 168 -4 l162 1 0 48 0 49 -132 -1 -133 -2 -2 69 c-1
38 -2 77 -2 87 -1 15 13 18 102 26 l102 8 0 39 c0 51 -19 59 -132 52 l-86 -6
-7 88 c-6 69 -5 89 6 96 8 5 58 9 112 9 109 0 112 2 99 65 l-8 40 -59 7 c-97
11 -239 17 -258 12z"/>
<path d="M2917 2759 c-65 -17 -143 -111 -176 -210 -28 -85 -17 -303 20 -389
38 -88 141 -148 210 -121 14 5 51 28 82 51 53 40 56 45 63 96 3 30 2 94 -2
142 l-9 87 -50 3 c-60 4 -161 -14 -192 -34 -13 -8 -23 -24 -23 -36 0 -19 4
-20 43 -14 23 4 68 9 99 13 l57 6 6 -37 c4 -20 4 -56 1 -81 -6 -36 -15 -51
-48 -80 -23 -19 -52 -35 -64 -35 -31 0 -66 59 -69 118 -1 36 -6 47 -18 46 -25
-2 -42 54 -42 136 0 66 5 84 37 152 41 86 54 94 134 85 41 -4 46 -2 59 24 20
38 19 46 -7 60 -35 19 -81 26 -111 18z"/>
<path d="M2427 2664 c-30 -20 -48 -46 -84 -120 -40 -83 -47 -106 -51 -176 -7
-121 12 -207 62 -281 30 -45 54 -68 89 -86 44 -22 51 -23 102 -12 73 16 114
46 144 106 24 45 26 59 24 155 -2 127 -40 314 -72 359 -30 42 -100 81 -142 80
-19 0 -51 -11 -72 -25z m91 -78 c39 -21 78 -65 98 -111 22 -51 30 -215 15
-273 -15 -54 -87 -132 -123 -132 -40 0 -90 41 -121 100 -28 53 -29 59 -25 161
5 113 20 156 85 234 32 39 35 40 71 21z"/>
<path d="M2003 2646 c-111 -12 -204 -24 -208 -28 -4 -4 -4 -21 0 -38 l7 -32
82 6 c44 4 88 9 97 12 14 4 17 -10 23 -98 4 -57 11 -137 16 -178 5 -41 14
-127 21 -190 17 -156 19 -160 66 -153 21 3 41 9 46 12 14 13 -53 529 -78 592
-5 13 -1 17 17 16 37 0 196 23 223 33 29 11 30 18 9 48 -19 27 -42 27 -321 -2z"/>
</g>
</svg>
